%TF.GenerationSoftware,KiCad,Pcbnew,9.0.0*%
%TF.CreationDate,2025-04-29T18:34:20-04:00*%
%TF.ProjectId,Aurora Orbiton Edition,4175726f-7261-4204-9f72-6269746f6e20,rev?*%
%TF.SameCoordinates,Original*%
%TF.FileFunction,Paste,Top*%
%TF.FilePolarity,Positive*%
%FSLAX46Y46*%
G04 Gerber Fmt 4.6, Leading zero omitted, Abs format (unit mm)*
G04 Created by KiCad (PCBNEW 9.0.0) date 2025-04-29 18:34:20*
%MOMM*%
%LPD*%
G01*
G04 APERTURE LIST*
G04 Aperture macros list*
%AMRoundRect*
0 Rectangle with rounded corners*
0 $1 Rounding radius*
0 $2 $3 $4 $5 $6 $7 $8 $9 X,Y pos of 4 corners*
0 Add a 4 corners polygon primitive as box body*
4,1,4,$2,$3,$4,$5,$6,$7,$8,$9,$2,$3,0*
0 Add four circle primitives for the rounded corners*
1,1,$1+$1,$2,$3*
1,1,$1+$1,$4,$5*
1,1,$1+$1,$6,$7*
1,1,$1+$1,$8,$9*
0 Add four rect primitives between the rounded corners*
20,1,$1+$1,$2,$3,$4,$5,0*
20,1,$1+$1,$4,$5,$6,$7,0*
20,1,$1+$1,$6,$7,$8,$9,0*
20,1,$1+$1,$8,$9,$2,$3,0*%
G04 Aperture macros list end*
%ADD10RoundRect,0.225000X-0.250000X0.225000X-0.250000X-0.225000X0.250000X-0.225000X0.250000X0.225000X0*%
%ADD11RoundRect,0.200000X-0.275000X0.200000X-0.275000X-0.200000X0.275000X-0.200000X0.275000X0.200000X0*%
%ADD12RoundRect,0.200000X0.275000X-0.200000X0.275000X0.200000X-0.275000X0.200000X-0.275000X-0.200000X0*%
%ADD13RoundRect,0.200000X-0.800000X0.200000X-0.800000X-0.200000X0.800000X-0.200000X0.800000X0.200000X0*%
%ADD14R,1.200000X1.400000*%
%ADD15RoundRect,0.225000X-0.225000X-0.250000X0.225000X-0.250000X0.225000X0.250000X-0.225000X0.250000X0*%
%ADD16RoundRect,0.200000X-0.200000X-0.275000X0.200000X-0.275000X0.200000X0.275000X-0.200000X0.275000X0*%
%ADD17RoundRect,0.225000X0.225000X0.250000X-0.225000X0.250000X-0.225000X-0.250000X0.225000X-0.250000X0*%
%ADD18RoundRect,0.200000X0.200000X0.275000X-0.200000X0.275000X-0.200000X-0.275000X0.200000X-0.275000X0*%
%ADD19RoundRect,0.225000X0.250000X-0.225000X0.250000X0.225000X-0.250000X0.225000X-0.250000X-0.225000X0*%
%ADD20RoundRect,0.218750X-0.218750X-0.256250X0.218750X-0.256250X0.218750X0.256250X-0.218750X0.256250X0*%
%ADD21RoundRect,0.150000X-0.150000X-0.625000X0.150000X-0.625000X0.150000X0.625000X-0.150000X0.625000X0*%
%ADD22RoundRect,0.250000X-0.350000X-0.650000X0.350000X-0.650000X0.350000X0.650000X-0.350000X0.650000X0*%
%ADD23RoundRect,0.218750X-0.256250X0.218750X-0.256250X-0.218750X0.256250X-0.218750X0.256250X0.218750X0*%
%ADD24O,0.300000X0.650000*%
%ADD25O,0.650000X0.300000*%
%ADD26R,1.350000X0.800000*%
%ADD27RoundRect,0.075000X-0.725000X-0.075000X0.725000X-0.075000X0.725000X0.075000X-0.725000X0.075000X0*%
%ADD28RoundRect,0.075000X-0.075000X-0.725000X0.075000X-0.725000X0.075000X0.725000X-0.075000X0.725000X0*%
%ADD29RoundRect,0.150000X0.500000X-0.150000X0.500000X0.150000X-0.500000X0.150000X-0.500000X-0.150000X0*%
%ADD30RoundRect,0.075000X0.575000X-0.075000X0.575000X0.075000X-0.575000X0.075000X-0.575000X-0.075000X0*%
%ADD31R,0.800000X1.000000*%
%ADD32R,1.500000X0.700000*%
%ADD33R,0.830000X0.270000*%
%ADD34R,0.270000X0.830000*%
%ADD35R,0.675000X0.250000*%
%ADD36R,0.250000X0.675000*%
%ADD37R,0.275000X0.250000*%
%ADD38R,0.250000X0.275000*%
%ADD39RoundRect,0.218750X0.256250X-0.218750X0.256250X0.218750X-0.256250X0.218750X-0.256250X-0.218750X0*%
G04 APERTURE END LIST*
D10*
%TO.C,C45*%
X157540460Y-55064012D03*
X157540460Y-56614012D03*
%TD*%
D11*
%TO.C,R42*%
X134250000Y-108825000D03*
X134250000Y-110475000D03*
%TD*%
D12*
%TO.C,R39*%
X136000000Y-117475000D03*
X136000000Y-115825000D03*
%TD*%
%TO.C,R38*%
X136000000Y-110475000D03*
X136000000Y-108825000D03*
%TD*%
D13*
%TO.C,SW2*%
X127288760Y-80272440D03*
X127288760Y-84472440D03*
%TD*%
D14*
%TO.C,Y1*%
X137000000Y-70500000D03*
X137000000Y-68300000D03*
X135250000Y-68300000D03*
X135250000Y-70500000D03*
%TD*%
D10*
%TO.C,C23*%
X156750000Y-63750000D03*
X156750000Y-65300000D03*
%TD*%
D15*
%TO.C,C22*%
X151994920Y-79652368D03*
X153544920Y-79652368D03*
%TD*%
D11*
%TO.C,R47*%
X143250000Y-108349992D03*
X143250000Y-109999992D03*
%TD*%
D16*
%TO.C,R45*%
X137856851Y-120626004D03*
X139506851Y-120626004D03*
%TD*%
D11*
%TO.C,R53*%
X134250000Y-111899992D03*
X134250000Y-113549992D03*
%TD*%
D15*
%TO.C,C18*%
X148800000Y-80250000D03*
X150350000Y-80250000D03*
%TD*%
D10*
%TO.C,C48*%
X136000000Y-111949992D03*
X136000000Y-113499992D03*
%TD*%
D15*
%TO.C,C32*%
X154261390Y-78075753D03*
X155811390Y-78075753D03*
%TD*%
D17*
%TO.C,C29*%
X139653275Y-79250000D03*
X138103275Y-79250000D03*
%TD*%
%TO.C,C27*%
X136500000Y-83750000D03*
X134950000Y-83750000D03*
%TD*%
D12*
%TO.C,R3*%
X158200000Y-82375000D03*
X158200000Y-80725000D03*
%TD*%
D11*
%TO.C,R43*%
X134250000Y-115825000D03*
X134250000Y-117475000D03*
%TD*%
D16*
%TO.C,R15*%
X142350000Y-80250000D03*
X144000000Y-80250000D03*
%TD*%
D18*
%TO.C,R14*%
X153575000Y-81250000D03*
X151925000Y-81250000D03*
%TD*%
D19*
%TO.C,C36*%
X139500000Y-61775000D03*
X139500000Y-60225000D03*
%TD*%
D17*
%TO.C,C3*%
X136799884Y-66502317D03*
X135249884Y-66502317D03*
%TD*%
D20*
%TO.C,D5*%
X126212500Y-86500000D03*
X127787500Y-86500000D03*
%TD*%
D18*
%TO.C,R32*%
X142650000Y-106524992D03*
X141000000Y-106524992D03*
%TD*%
%TO.C,R49*%
X142575000Y-113749992D03*
X140925000Y-113749992D03*
%TD*%
D21*
%TO.C,J1*%
X134300000Y-53025000D03*
X135300000Y-53025000D03*
X136300000Y-53025000D03*
X137300000Y-53025000D03*
D22*
X133000000Y-50500000D03*
X138600000Y-50500000D03*
%TD*%
D21*
%TO.C,J6*%
X142100000Y-53025000D03*
X143100000Y-53025000D03*
X144100000Y-53025000D03*
X145100000Y-53025000D03*
D22*
X140800000Y-50500000D03*
X146400000Y-50500000D03*
%TD*%
D23*
%TO.C,D10*%
X152750000Y-55500000D03*
X152750000Y-57075000D03*
%TD*%
D11*
%TO.C,R24*%
X134325000Y-101800000D03*
X134325000Y-103450000D03*
%TD*%
D18*
%TO.C,R31*%
X143575000Y-99499992D03*
X141925000Y-99499992D03*
%TD*%
D19*
%TO.C,C31*%
X137750000Y-61775000D03*
X137750000Y-60225000D03*
%TD*%
D11*
%TO.C,R4*%
X163200000Y-92000000D03*
X163200000Y-93650000D03*
%TD*%
D24*
%TO.C,U12*%
X138809447Y-118761568D03*
X139309447Y-118761568D03*
X139809447Y-118761568D03*
X140309447Y-118761568D03*
X140809447Y-118761568D03*
D25*
X141359447Y-118211568D03*
X141359447Y-117711568D03*
X141359447Y-117211568D03*
X141359447Y-116711568D03*
X141359447Y-116211568D03*
D24*
X140809447Y-115661568D03*
X140309447Y-115661568D03*
X139809447Y-115661568D03*
X139309447Y-115661568D03*
X138809447Y-115661568D03*
D25*
X138259447Y-116211568D03*
X138259447Y-116711568D03*
X138259447Y-117711568D03*
X138259447Y-118211568D03*
D26*
X139639447Y-116711568D03*
X139639447Y-117711568D03*
%TD*%
D11*
%TO.C,R48*%
X143210812Y-115362264D03*
X143210812Y-117012264D03*
%TD*%
D20*
%TO.C,D6*%
X126250000Y-88250000D03*
X127825000Y-88250000D03*
%TD*%
D10*
%TO.C,C5*%
X133500000Y-69275000D03*
X133500000Y-70825000D03*
%TD*%
D27*
%TO.C,U3*%
X139325000Y-64000000D03*
X139325000Y-64500000D03*
X139325000Y-65000000D03*
X139325000Y-65500000D03*
X139325000Y-66000000D03*
X139325000Y-66500000D03*
X139325000Y-67000000D03*
X139325000Y-67500000D03*
X139325000Y-68000000D03*
X139325000Y-68500000D03*
X139325000Y-69000000D03*
X139325000Y-69500000D03*
X139325000Y-70000000D03*
X139325000Y-70500000D03*
X139325000Y-71000000D03*
X139325000Y-71500000D03*
X139325000Y-72000000D03*
X139325000Y-72500000D03*
X139325000Y-73000000D03*
X139325000Y-73500000D03*
X139325000Y-74000000D03*
X139325000Y-74500000D03*
X139325000Y-75000000D03*
X139325000Y-75500000D03*
X139325000Y-76000000D03*
D28*
X141000000Y-77675000D03*
X141500000Y-77675000D03*
X142000000Y-77675000D03*
X142500000Y-77675000D03*
X143000000Y-77675000D03*
X143500000Y-77675000D03*
X144000000Y-77675000D03*
X144500000Y-77675000D03*
X145000000Y-77675000D03*
X145500000Y-77675000D03*
X146000000Y-77675000D03*
X146500000Y-77675000D03*
X147000000Y-77675000D03*
X147500000Y-77675000D03*
X148000000Y-77675000D03*
X148500000Y-77675000D03*
X149000000Y-77675000D03*
X149500000Y-77675000D03*
X150000000Y-77675000D03*
X150500000Y-77675000D03*
X151000000Y-77675000D03*
X151500000Y-77675000D03*
X152000000Y-77675000D03*
X152500000Y-77675000D03*
X153000000Y-77675000D03*
D27*
X154675000Y-76000000D03*
X154675000Y-75500000D03*
X154675000Y-75000000D03*
X154675000Y-74500000D03*
X154675000Y-74000000D03*
X154675000Y-73500000D03*
X154675000Y-73000000D03*
X154675000Y-72500000D03*
X154675000Y-72000000D03*
X154675000Y-71500000D03*
X154675000Y-71000000D03*
X154675000Y-70500000D03*
X154675000Y-70000000D03*
X154675000Y-69500000D03*
X154675000Y-69000000D03*
X154675000Y-68500000D03*
X154675000Y-68000000D03*
X154675000Y-67500000D03*
X154675000Y-67000000D03*
X154675000Y-66500000D03*
X154675000Y-66000000D03*
X154675000Y-65500000D03*
X154675000Y-65000000D03*
X154675000Y-64500000D03*
X154675000Y-64000000D03*
D28*
X153000000Y-62325000D03*
X152500000Y-62325000D03*
X152000000Y-62325000D03*
X151500000Y-62325000D03*
X151000000Y-62325000D03*
X150500000Y-62325000D03*
X150000000Y-62325000D03*
X149500000Y-62325000D03*
X149000000Y-62325000D03*
X148500000Y-62325000D03*
X148000000Y-62325000D03*
X147500000Y-62325000D03*
X147000000Y-62325000D03*
X146500000Y-62325000D03*
X146000000Y-62325000D03*
X145500000Y-62325000D03*
X145000000Y-62325000D03*
X144500000Y-62325000D03*
X144000000Y-62325000D03*
X143500000Y-62325000D03*
X143000000Y-62325000D03*
X142500000Y-62325000D03*
X142000000Y-62325000D03*
X141500000Y-62325000D03*
X141000000Y-62325000D03*
%TD*%
D11*
%TO.C,R29*%
X143325000Y-94274992D03*
X143325000Y-95924992D03*
%TD*%
%TO.C,R35*%
X133650000Y-104825000D03*
X133650000Y-106475000D03*
%TD*%
D10*
%TO.C,C41*%
X136300000Y-104949992D03*
X136300000Y-106499992D03*
%TD*%
D17*
%TO.C,C34*%
X135325000Y-77200000D03*
X133775000Y-77200000D03*
%TD*%
D24*
%TO.C,U11*%
X138800000Y-111799992D03*
X139300000Y-111799992D03*
X139800000Y-111799992D03*
X140300000Y-111799992D03*
X140800000Y-111799992D03*
D25*
X141350000Y-111249992D03*
X141350000Y-110749992D03*
X141350000Y-110249992D03*
X141350000Y-109749992D03*
X141350000Y-109249992D03*
D24*
X140800000Y-108699992D03*
X140300000Y-108699992D03*
X139800000Y-108699992D03*
X139300000Y-108699992D03*
X138800000Y-108699992D03*
D25*
X138250000Y-109249992D03*
X138250000Y-109749992D03*
X138250000Y-110749992D03*
X138250000Y-111249992D03*
D26*
X139630000Y-109749992D03*
X139630000Y-110749992D03*
%TD*%
D18*
%TO.C,R19*%
X144016680Y-83750000D03*
X142366680Y-83750000D03*
%TD*%
D11*
%TO.C,R30*%
X143325000Y-101199992D03*
X143325000Y-102849992D03*
%TD*%
D19*
%TO.C,C21*%
X155250000Y-84037500D03*
X155250000Y-82487500D03*
%TD*%
D15*
%TO.C,C24*%
X147475000Y-87250000D03*
X149025000Y-87250000D03*
%TD*%
D10*
%TO.C,C40*%
X136050000Y-97949992D03*
X136050000Y-99499992D03*
%TD*%
D16*
%TO.C,R28*%
X137825000Y-106500000D03*
X139475000Y-106500000D03*
%TD*%
D11*
%TO.C,R23*%
X134325000Y-94775000D03*
X134325000Y-96425000D03*
%TD*%
D20*
%TO.C,D8*%
X126250000Y-91750000D03*
X127825000Y-91750000D03*
%TD*%
D10*
%TO.C,C49*%
X136400000Y-119125000D03*
X136400000Y-120675000D03*
%TD*%
D11*
%TO.C,R34*%
X134300000Y-97875000D03*
X134300000Y-99525000D03*
%TD*%
D24*
%TO.C,U9*%
X138875000Y-97599992D03*
X139375000Y-97599992D03*
X139875000Y-97599992D03*
X140375000Y-97599992D03*
X140875000Y-97599992D03*
D25*
X141425000Y-97049992D03*
X141425000Y-96549992D03*
X141425000Y-96049992D03*
X141425000Y-95549992D03*
X141425000Y-95049992D03*
D24*
X140875000Y-94499992D03*
X140375000Y-94499992D03*
X139875000Y-94499992D03*
X139375000Y-94499992D03*
X138875000Y-94499992D03*
D25*
X138325000Y-95049992D03*
X138325000Y-95549992D03*
X138325000Y-96549992D03*
X138325000Y-97049992D03*
D26*
X139705000Y-95549992D03*
X139705000Y-96549992D03*
%TD*%
D17*
%TO.C,C33*%
X136250000Y-75600000D03*
X134700000Y-75600000D03*
%TD*%
D20*
%TO.C,D7*%
X126250000Y-90000000D03*
X127825000Y-90000000D03*
%TD*%
D29*
%TO.C,J2*%
X161880000Y-88700000D03*
X161880000Y-87900000D03*
D30*
X161880000Y-86750000D03*
X161880000Y-85750000D03*
X161880000Y-85250000D03*
X161880000Y-84250000D03*
D29*
X161880000Y-83100000D03*
X161880000Y-82300000D03*
X161880000Y-82300000D03*
X161880000Y-83100000D03*
D30*
X161880000Y-83750000D03*
X161880000Y-84750000D03*
X161880000Y-86250000D03*
X161880000Y-87250000D03*
D29*
X161880000Y-87900000D03*
X161880000Y-88700000D03*
%TD*%
D16*
%TO.C,R27*%
X137750000Y-99499992D03*
X139400000Y-99499992D03*
%TD*%
%TO.C,R44*%
X137675000Y-113749992D03*
X139325000Y-113749992D03*
%TD*%
D12*
%TO.C,R20*%
X136075000Y-96425000D03*
X136075000Y-94775000D03*
%TD*%
D31*
%TO.C,SW1*%
X165890000Y-99400000D03*
X168100000Y-99400000D03*
X165890000Y-92100000D03*
X168100000Y-92100000D03*
D32*
X165240000Y-98000000D03*
X165240000Y-95000000D03*
X165240000Y-93500000D03*
%TD*%
D23*
%TO.C,D11*%
X154500000Y-55500000D03*
X154500000Y-57075000D03*
%TD*%
D33*
%TO.C,U6*%
X148970000Y-85000000D03*
X148970000Y-84500000D03*
X148970000Y-84000000D03*
X148970000Y-83500000D03*
X148970000Y-83000000D03*
D34*
X148000000Y-82530000D03*
X147500000Y-82530000D03*
X147000000Y-82530000D03*
D33*
X146030000Y-83000000D03*
X146030000Y-83500000D03*
X146030000Y-84000000D03*
X146030000Y-84500000D03*
X146030000Y-85000000D03*
D34*
X147000000Y-85470000D03*
X147500000Y-85470000D03*
X148000000Y-85470000D03*
%TD*%
D11*
%TO.C,R12*%
X145750000Y-58500000D03*
X145750000Y-60150000D03*
%TD*%
D19*
%TO.C,C30*%
X137362818Y-64935932D03*
X137362818Y-63385932D03*
%TD*%
D15*
%TO.C,C37*%
X155225000Y-62000000D03*
X156775000Y-62000000D03*
%TD*%
D17*
%TO.C,C35*%
X137025000Y-74000000D03*
X135475000Y-74000000D03*
%TD*%
D11*
%TO.C,R13*%
X143750000Y-58500000D03*
X143750000Y-60150000D03*
%TD*%
%TO.C,R54*%
X133650000Y-119075000D03*
X133650000Y-120725000D03*
%TD*%
D24*
%TO.C,U10*%
X138875000Y-104624992D03*
X139375000Y-104624992D03*
X139875000Y-104624992D03*
X140375000Y-104624992D03*
X140875000Y-104624992D03*
D25*
X141425000Y-104074992D03*
X141425000Y-103574992D03*
X141425000Y-103074992D03*
X141425000Y-102574992D03*
X141425000Y-102074992D03*
D24*
X140875000Y-101524992D03*
X140375000Y-101524992D03*
X139875000Y-101524992D03*
X139375000Y-101524992D03*
X138875000Y-101524992D03*
D25*
X138325000Y-102074992D03*
X138325000Y-102574992D03*
X138325000Y-103574992D03*
X138325000Y-104074992D03*
D26*
X139705000Y-102574992D03*
X139705000Y-103574992D03*
%TD*%
D15*
%TO.C,C26*%
X142418346Y-82000000D03*
X143968346Y-82000000D03*
%TD*%
D21*
%TO.C,J3*%
X149909968Y-53020433D03*
X150909968Y-53020433D03*
X151909968Y-53020433D03*
X152909968Y-53020433D03*
X153909968Y-53020433D03*
X154909968Y-53020433D03*
X155909968Y-53020433D03*
D22*
X148609968Y-50495433D03*
X157209968Y-50495433D03*
%TD*%
D35*
%TO.C,U5*%
X140686159Y-81813322D03*
X140686159Y-82313322D03*
X140686159Y-82813322D03*
X140686159Y-83313322D03*
X140686159Y-83813322D03*
X140686159Y-84313322D03*
X140686159Y-84813322D03*
D36*
X139423659Y-85325822D03*
D35*
X138161159Y-84813322D03*
X138161159Y-84313322D03*
X138161159Y-83813322D03*
X138161159Y-83313322D03*
X138161159Y-82813322D03*
X138161159Y-82313322D03*
X138161159Y-81813322D03*
D36*
X139423659Y-81300822D03*
%TD*%
D18*
%TO.C,R50*%
X142599391Y-120629219D03*
X140949391Y-120629219D03*
%TD*%
D15*
%TO.C,C25*%
X147475000Y-89000000D03*
X149025000Y-89000000D03*
%TD*%
D18*
%TO.C,R16*%
X147150000Y-80250000D03*
X145500000Y-80250000D03*
%TD*%
D12*
%TO.C,R5*%
X159750000Y-82400000D03*
X159750000Y-80750000D03*
%TD*%
D37*
%TO.C,U4*%
X153762500Y-83762500D03*
X153762500Y-83262500D03*
D38*
X153500000Y-82750000D03*
X153000000Y-82750000D03*
X152500000Y-82750000D03*
D37*
X152237500Y-83262500D03*
X152237500Y-83762500D03*
D38*
X152500000Y-84275000D03*
X153000000Y-84275000D03*
X153500000Y-84275000D03*
%TD*%
D17*
%TO.C,C20*%
X153525000Y-85762500D03*
X151975000Y-85762500D03*
%TD*%
D39*
%TO.C,D2*%
X163200000Y-96737500D03*
X163200000Y-95162500D03*
%TD*%
D23*
%TO.C,D9*%
X151000000Y-55500000D03*
X151000000Y-57075000D03*
%TD*%
D12*
%TO.C,R21*%
X136075000Y-103450000D03*
X136075000Y-101800000D03*
%TD*%
M02*
