%TF.GenerationSoftware,KiCad,Pcbnew,9.0.0*%
%TF.CreationDate,2025-04-29T18:34:20-04:00*%
%TF.ProjectId,Aurora Orbiton Edition,4175726f-7261-4204-9f72-6269746f6e20,rev?*%
%TF.SameCoordinates,Original*%
%TF.FileFunction,Legend,Bot*%
%TF.FilePolarity,Positive*%
%FSLAX46Y46*%
G04 Gerber Fmt 4.6, Leading zero omitted, Abs format (unit mm)*
G04 Created by KiCad (PCBNEW 9.0.0) date 2025-04-29 18:34:20*
%MOMM*%
%LPD*%
G01*
G04 APERTURE LIST*
%ADD10C,0.100000*%
%ADD11C,0.120000*%
%ADD12C,0.150000*%
G04 APERTURE END LIST*
D10*
G36*
X126831953Y-108918039D02*
G01*
X126533000Y-108918039D01*
X126533000Y-109010790D01*
X126527791Y-109082353D01*
X126513380Y-109140354D01*
X126491008Y-109187307D01*
X126461071Y-109225174D01*
X126422879Y-109256678D01*
X126381003Y-109278918D01*
X126334664Y-109292444D01*
X126282773Y-109297103D01*
X126222503Y-109290629D01*
X126172437Y-109272252D01*
X126143455Y-109252997D01*
X126119601Y-109228453D01*
X126100446Y-109198002D01*
X126088251Y-109163632D01*
X126079323Y-109109750D01*
X126075859Y-109031245D01*
X126151188Y-109031245D01*
X126156460Y-109095958D01*
X126169667Y-109137303D01*
X126188312Y-109162404D01*
X126214780Y-109180334D01*
X126247010Y-109191515D01*
X126286559Y-109195498D01*
X126331793Y-109190798D01*
X126371573Y-109177164D01*
X126407093Y-109154588D01*
X126426694Y-109132532D01*
X126442437Y-109099332D01*
X126453379Y-109051236D01*
X126457590Y-108983496D01*
X126457590Y-108918039D01*
X126151188Y-108918039D01*
X126151188Y-109031245D01*
X126075859Y-109031245D01*
X126075778Y-109029413D01*
X126075778Y-108820341D01*
X126831953Y-108820341D01*
X126831953Y-108918039D01*
G37*
G36*
X126830000Y-109681053D02*
G01*
X126830000Y-109583356D01*
X126473893Y-109583356D01*
X126073824Y-109339296D01*
X126073824Y-109453480D01*
X126379188Y-109642096D01*
X126073824Y-109828026D01*
X126073824Y-109923037D01*
X126473893Y-109681053D01*
X126830000Y-109681053D01*
G37*
G36*
X126830000Y-110103105D02*
G01*
X126505645Y-110103105D01*
X126505645Y-110203122D01*
X126564102Y-110258107D01*
X126631552Y-110302163D01*
X126830000Y-110406699D01*
X126830000Y-110518684D01*
X126606884Y-110398883D01*
X126555959Y-110368475D01*
X126516636Y-110338677D01*
X126490563Y-110302407D01*
X126461736Y-110361041D01*
X126432433Y-110397540D01*
X126397525Y-110424998D01*
X126358855Y-110445472D01*
X126317264Y-110458352D01*
X126274286Y-110462630D01*
X126221272Y-110456246D01*
X126172315Y-110437229D01*
X126130377Y-110407107D01*
X126100446Y-110368719D01*
X126087811Y-110338751D01*
X126079099Y-110296732D01*
X126075778Y-110239148D01*
X126075778Y-110206603D01*
X126151188Y-110206603D01*
X126156827Y-110269291D01*
X126170055Y-110303140D01*
X126191437Y-110328214D01*
X126217072Y-110346188D01*
X126246597Y-110357209D01*
X126280819Y-110361025D01*
X126320074Y-110356375D01*
X126357206Y-110342402D01*
X126389145Y-110320242D01*
X126411734Y-110292088D01*
X126424970Y-110256203D01*
X126430235Y-110199703D01*
X126430235Y-110103105D01*
X126151188Y-110103105D01*
X126151188Y-110206603D01*
X126075778Y-110206603D01*
X126075778Y-110005408D01*
X126830000Y-110005408D01*
X126830000Y-110103105D01*
G37*
G36*
X126549641Y-110590209D02*
G01*
X126629456Y-110608101D01*
X126695191Y-110635931D01*
X126749216Y-110673046D01*
X126795043Y-110721243D01*
X126827178Y-110774916D01*
X126846698Y-110835208D01*
X126853447Y-110903855D01*
X126846701Y-110972533D01*
X126827185Y-111032902D01*
X126795048Y-111086687D01*
X126749216Y-111135031D01*
X126695167Y-111172311D01*
X126629423Y-111200253D01*
X126549616Y-111218211D01*
X126452827Y-111224668D01*
X126356105Y-111218212D01*
X126276349Y-111200254D01*
X126210643Y-111172313D01*
X126156622Y-111135031D01*
X126110760Y-111086684D01*
X126078606Y-111032896D01*
X126059079Y-110972529D01*
X126052396Y-110904527D01*
X126127740Y-110904527D01*
X126133416Y-110953528D01*
X126149824Y-110995704D01*
X126177126Y-111032639D01*
X126216889Y-111065177D01*
X126262123Y-111089252D01*
X126315535Y-111107355D01*
X126378551Y-111118936D01*
X126452827Y-111123063D01*
X126527172Y-111118935D01*
X126590227Y-111107351D01*
X126643656Y-111089248D01*
X126688888Y-111065177D01*
X126728652Y-111032639D01*
X126755953Y-110995704D01*
X126772361Y-110953528D01*
X126778037Y-110904527D01*
X126772368Y-110855556D01*
X126755968Y-110813331D01*
X126728665Y-110776282D01*
X126688888Y-110743571D01*
X126643637Y-110719365D01*
X126590202Y-110701168D01*
X126527154Y-110689527D01*
X126452827Y-110685380D01*
X126378569Y-110689526D01*
X126315560Y-110701164D01*
X126262142Y-110719361D01*
X126216889Y-110743571D01*
X126177113Y-110776282D01*
X126149809Y-110813331D01*
X126133409Y-110855556D01*
X126127740Y-110904527D01*
X126052396Y-110904527D01*
X126052330Y-110903855D01*
X126059082Y-110835212D01*
X126078613Y-110774921D01*
X126110766Y-110721247D01*
X126156622Y-110673046D01*
X126210619Y-110635929D01*
X126276316Y-110608099D01*
X126356079Y-110590208D01*
X126452827Y-110583775D01*
X126549641Y-110590209D01*
G37*
G36*
X126452095Y-111458653D02*
G01*
X126376685Y-111458653D01*
X126376685Y-111515744D01*
X126370869Y-111577598D01*
X126355863Y-111619303D01*
X126331980Y-111653340D01*
X126303534Y-111678838D01*
X126270313Y-111695376D01*
X126233742Y-111700881D01*
X126202688Y-111696703D01*
X126177276Y-111684746D01*
X126156133Y-111664733D01*
X126140857Y-111639214D01*
X126131202Y-111607930D01*
X126127740Y-111569417D01*
X126130021Y-111535767D01*
X126136655Y-111505059D01*
X126148848Y-111478159D01*
X126166392Y-111459324D01*
X126188102Y-111447314D01*
X126209806Y-111443510D01*
X126215301Y-111443510D01*
X126215301Y-111357536D01*
X126209806Y-111357536D01*
X126172538Y-111362818D01*
X126136855Y-111378936D01*
X126101667Y-111407484D01*
X126076148Y-111444202D01*
X126058920Y-111497720D01*
X126052330Y-111573996D01*
X126058429Y-111646118D01*
X126074785Y-111699941D01*
X126099591Y-111739715D01*
X126134212Y-111770626D01*
X126174199Y-111788915D01*
X126221346Y-111795219D01*
X126260669Y-111791162D01*
X126297001Y-111779160D01*
X126330011Y-111759551D01*
X126359954Y-111731777D01*
X126383900Y-111695788D01*
X126404773Y-111641713D01*
X126426833Y-111700461D01*
X126453193Y-111745043D01*
X126483419Y-111778061D01*
X126520200Y-111802772D01*
X126562840Y-111817857D01*
X126612929Y-111823124D01*
X126671141Y-111816163D01*
X126725900Y-111795282D01*
X126778586Y-111759316D01*
X126810166Y-111725022D01*
X126833358Y-111682732D01*
X126848133Y-111630731D01*
X126853447Y-111566669D01*
X126846999Y-111492563D01*
X126829955Y-111439241D01*
X126804415Y-111401500D01*
X126769166Y-111372026D01*
X126732574Y-111355262D01*
X126693468Y-111349720D01*
X126693468Y-111439602D01*
X126698169Y-111439602D01*
X126722527Y-111443818D01*
X126742089Y-111456109D01*
X126758070Y-111477704D01*
X126772623Y-111519079D01*
X126778037Y-111575034D01*
X126773480Y-111619397D01*
X126760512Y-111656673D01*
X126737956Y-111687531D01*
X126704153Y-111710406D01*
X126663868Y-111724111D01*
X126619218Y-111728785D01*
X126574493Y-111722617D01*
X126535361Y-111704466D01*
X126500272Y-111673342D01*
X126475077Y-111633474D01*
X126458363Y-111578671D01*
X126452095Y-111504265D01*
X126452095Y-111458653D01*
G37*
G36*
X126831953Y-114168039D02*
G01*
X126533000Y-114168039D01*
X126533000Y-114260790D01*
X126527791Y-114332353D01*
X126513380Y-114390354D01*
X126491008Y-114437307D01*
X126461071Y-114475174D01*
X126422879Y-114506678D01*
X126381003Y-114528918D01*
X126334664Y-114542444D01*
X126282773Y-114547103D01*
X126222503Y-114540629D01*
X126172437Y-114522252D01*
X126143455Y-114502997D01*
X126119601Y-114478453D01*
X126100446Y-114448002D01*
X126088251Y-114413632D01*
X126079323Y-114359750D01*
X126075859Y-114281245D01*
X126151188Y-114281245D01*
X126156460Y-114345958D01*
X126169667Y-114387303D01*
X126188312Y-114412404D01*
X126214780Y-114430334D01*
X126247010Y-114441515D01*
X126286559Y-114445498D01*
X126331793Y-114440798D01*
X126371573Y-114427164D01*
X126407093Y-114404588D01*
X126426694Y-114382532D01*
X126442437Y-114349332D01*
X126453379Y-114301236D01*
X126457590Y-114233496D01*
X126457590Y-114168039D01*
X126151188Y-114168039D01*
X126151188Y-114281245D01*
X126075859Y-114281245D01*
X126075778Y-114279413D01*
X126075778Y-114070341D01*
X126831953Y-114070341D01*
X126831953Y-114168039D01*
G37*
G36*
X126830000Y-114931053D02*
G01*
X126830000Y-114833356D01*
X126473893Y-114833356D01*
X126073824Y-114589296D01*
X126073824Y-114703480D01*
X126379188Y-114892096D01*
X126073824Y-115078026D01*
X126073824Y-115173037D01*
X126473893Y-114931053D01*
X126830000Y-114931053D01*
G37*
G36*
X126830000Y-115353105D02*
G01*
X126505645Y-115353105D01*
X126505645Y-115453122D01*
X126564102Y-115508107D01*
X126631552Y-115552163D01*
X126830000Y-115656699D01*
X126830000Y-115768684D01*
X126606884Y-115648883D01*
X126555959Y-115618475D01*
X126516636Y-115588677D01*
X126490563Y-115552407D01*
X126461736Y-115611041D01*
X126432433Y-115647540D01*
X126397525Y-115674998D01*
X126358855Y-115695472D01*
X126317264Y-115708352D01*
X126274286Y-115712630D01*
X126221272Y-115706246D01*
X126172315Y-115687229D01*
X126130377Y-115657107D01*
X126100446Y-115618719D01*
X126087811Y-115588751D01*
X126079099Y-115546732D01*
X126075778Y-115489148D01*
X126075778Y-115456603D01*
X126151188Y-115456603D01*
X126156827Y-115519291D01*
X126170055Y-115553140D01*
X126191437Y-115578214D01*
X126217072Y-115596188D01*
X126246597Y-115607209D01*
X126280819Y-115611025D01*
X126320074Y-115606375D01*
X126357206Y-115592402D01*
X126389145Y-115570242D01*
X126411734Y-115542088D01*
X126424970Y-115506203D01*
X126430235Y-115449703D01*
X126430235Y-115353105D01*
X126151188Y-115353105D01*
X126151188Y-115456603D01*
X126075778Y-115456603D01*
X126075778Y-115255408D01*
X126830000Y-115255408D01*
X126830000Y-115353105D01*
G37*
G36*
X126549641Y-115840209D02*
G01*
X126629456Y-115858101D01*
X126695191Y-115885931D01*
X126749216Y-115923046D01*
X126795043Y-115971243D01*
X126827178Y-116024916D01*
X126846698Y-116085208D01*
X126853447Y-116153855D01*
X126846701Y-116222533D01*
X126827185Y-116282902D01*
X126795048Y-116336687D01*
X126749216Y-116385031D01*
X126695167Y-116422311D01*
X126629423Y-116450253D01*
X126549616Y-116468211D01*
X126452827Y-116474668D01*
X126356105Y-116468212D01*
X126276349Y-116450254D01*
X126210643Y-116422313D01*
X126156622Y-116385031D01*
X126110760Y-116336684D01*
X126078606Y-116282896D01*
X126059079Y-116222529D01*
X126052396Y-116154527D01*
X126127740Y-116154527D01*
X126133416Y-116203528D01*
X126149824Y-116245704D01*
X126177126Y-116282639D01*
X126216889Y-116315177D01*
X126262123Y-116339252D01*
X126315535Y-116357355D01*
X126378551Y-116368936D01*
X126452827Y-116373063D01*
X126527172Y-116368935D01*
X126590227Y-116357351D01*
X126643656Y-116339248D01*
X126688888Y-116315177D01*
X126728652Y-116282639D01*
X126755953Y-116245704D01*
X126772361Y-116203528D01*
X126778037Y-116154527D01*
X126772368Y-116105556D01*
X126755968Y-116063331D01*
X126728665Y-116026282D01*
X126688888Y-115993571D01*
X126643637Y-115969365D01*
X126590202Y-115951168D01*
X126527154Y-115939527D01*
X126452827Y-115935380D01*
X126378569Y-115939526D01*
X126315560Y-115951164D01*
X126262142Y-115969361D01*
X126216889Y-115993571D01*
X126177113Y-116026282D01*
X126149809Y-116063331D01*
X126133409Y-116105556D01*
X126127740Y-116154527D01*
X126052396Y-116154527D01*
X126052330Y-116153855D01*
X126059082Y-116085212D01*
X126078613Y-116024921D01*
X126110766Y-115971247D01*
X126156622Y-115923046D01*
X126210619Y-115885929D01*
X126276316Y-115858099D01*
X126356079Y-115840208D01*
X126452827Y-115833775D01*
X126549641Y-115840209D01*
G37*
G36*
X126599434Y-116931891D02*
G01*
X126830000Y-116931891D01*
X126830000Y-117021772D01*
X126599434Y-117021772D01*
X126599434Y-117127285D01*
X126524024Y-117127285D01*
X126524024Y-117021772D01*
X126075778Y-117021772D01*
X126075778Y-116931891D01*
X126195334Y-116931891D01*
X126524024Y-116931891D01*
X126524024Y-116668780D01*
X126195334Y-116931891D01*
X126075778Y-116931891D01*
X126524024Y-116568457D01*
X126599434Y-116568457D01*
X126599434Y-116931891D01*
G37*
X149624687Y-53777180D02*
X149672306Y-53824800D01*
X149672306Y-53824800D02*
X149815163Y-53872419D01*
X149815163Y-53872419D02*
X149910401Y-53872419D01*
X149910401Y-53872419D02*
X150053258Y-53824800D01*
X150053258Y-53824800D02*
X150148496Y-53729561D01*
X150148496Y-53729561D02*
X150196115Y-53634323D01*
X150196115Y-53634323D02*
X150243734Y-53443847D01*
X150243734Y-53443847D02*
X150243734Y-53300990D01*
X150243734Y-53300990D02*
X150196115Y-53110514D01*
X150196115Y-53110514D02*
X150148496Y-53015276D01*
X150148496Y-53015276D02*
X150053258Y-52920038D01*
X150053258Y-52920038D02*
X149910401Y-52872419D01*
X149910401Y-52872419D02*
X149815163Y-52872419D01*
X149815163Y-52872419D02*
X149672306Y-52920038D01*
X149672306Y-52920038D02*
X149624687Y-52967657D01*
X149053258Y-53872419D02*
X149148496Y-53824800D01*
X149148496Y-53824800D02*
X149196115Y-53729561D01*
X149196115Y-53729561D02*
X149196115Y-52872419D01*
X148243734Y-53872419D02*
X148243734Y-53348609D01*
X148243734Y-53348609D02*
X148291353Y-53253371D01*
X148291353Y-53253371D02*
X148386591Y-53205752D01*
X148386591Y-53205752D02*
X148577067Y-53205752D01*
X148577067Y-53205752D02*
X148672305Y-53253371D01*
X148243734Y-53824800D02*
X148338972Y-53872419D01*
X148338972Y-53872419D02*
X148577067Y-53872419D01*
X148577067Y-53872419D02*
X148672305Y-53824800D01*
X148672305Y-53824800D02*
X148719924Y-53729561D01*
X148719924Y-53729561D02*
X148719924Y-53634323D01*
X148719924Y-53634323D02*
X148672305Y-53539085D01*
X148672305Y-53539085D02*
X148577067Y-53491466D01*
X148577067Y-53491466D02*
X148338972Y-53491466D01*
X148338972Y-53491466D02*
X148243734Y-53443847D01*
X147815162Y-53824800D02*
X147719924Y-53872419D01*
X147719924Y-53872419D02*
X147529448Y-53872419D01*
X147529448Y-53872419D02*
X147434210Y-53824800D01*
X147434210Y-53824800D02*
X147386591Y-53729561D01*
X147386591Y-53729561D02*
X147386591Y-53681942D01*
X147386591Y-53681942D02*
X147434210Y-53586704D01*
X147434210Y-53586704D02*
X147529448Y-53539085D01*
X147529448Y-53539085D02*
X147672305Y-53539085D01*
X147672305Y-53539085D02*
X147767543Y-53491466D01*
X147767543Y-53491466D02*
X147815162Y-53396228D01*
X147815162Y-53396228D02*
X147815162Y-53348609D01*
X147815162Y-53348609D02*
X147767543Y-53253371D01*
X147767543Y-53253371D02*
X147672305Y-53205752D01*
X147672305Y-53205752D02*
X147529448Y-53205752D01*
X147529448Y-53205752D02*
X147434210Y-53253371D01*
X147005638Y-53824800D02*
X146910400Y-53872419D01*
X146910400Y-53872419D02*
X146719924Y-53872419D01*
X146719924Y-53872419D02*
X146624686Y-53824800D01*
X146624686Y-53824800D02*
X146577067Y-53729561D01*
X146577067Y-53729561D02*
X146577067Y-53681942D01*
X146577067Y-53681942D02*
X146624686Y-53586704D01*
X146624686Y-53586704D02*
X146719924Y-53539085D01*
X146719924Y-53539085D02*
X146862781Y-53539085D01*
X146862781Y-53539085D02*
X146958019Y-53491466D01*
X146958019Y-53491466D02*
X147005638Y-53396228D01*
X147005638Y-53396228D02*
X147005638Y-53348609D01*
X147005638Y-53348609D02*
X146958019Y-53253371D01*
X146958019Y-53253371D02*
X146862781Y-53205752D01*
X146862781Y-53205752D02*
X146719924Y-53205752D01*
X146719924Y-53205752D02*
X146624686Y-53253371D01*
X145243733Y-53872419D02*
X145338971Y-53824800D01*
X145338971Y-53824800D02*
X145386590Y-53777180D01*
X145386590Y-53777180D02*
X145434209Y-53681942D01*
X145434209Y-53681942D02*
X145434209Y-53396228D01*
X145434209Y-53396228D02*
X145386590Y-53300990D01*
X145386590Y-53300990D02*
X145338971Y-53253371D01*
X145338971Y-53253371D02*
X145243733Y-53205752D01*
X145243733Y-53205752D02*
X145100876Y-53205752D01*
X145100876Y-53205752D02*
X145005638Y-53253371D01*
X145005638Y-53253371D02*
X144958019Y-53300990D01*
X144958019Y-53300990D02*
X144910400Y-53396228D01*
X144910400Y-53396228D02*
X144910400Y-53681942D01*
X144910400Y-53681942D02*
X144958019Y-53777180D01*
X144958019Y-53777180D02*
X145005638Y-53824800D01*
X145005638Y-53824800D02*
X145100876Y-53872419D01*
X145100876Y-53872419D02*
X145243733Y-53872419D01*
X144624685Y-53205752D02*
X144243733Y-53205752D01*
X144481828Y-53872419D02*
X144481828Y-53015276D01*
X144481828Y-53015276D02*
X144434209Y-52920038D01*
X144434209Y-52920038D02*
X144338971Y-52872419D01*
X144338971Y-52872419D02*
X144243733Y-52872419D01*
X143196113Y-52967657D02*
X143148494Y-52920038D01*
X143148494Y-52920038D02*
X143053256Y-52872419D01*
X143053256Y-52872419D02*
X142815161Y-52872419D01*
X142815161Y-52872419D02*
X142719923Y-52920038D01*
X142719923Y-52920038D02*
X142672304Y-52967657D01*
X142672304Y-52967657D02*
X142624685Y-53062895D01*
X142624685Y-53062895D02*
X142624685Y-53158133D01*
X142624685Y-53158133D02*
X142672304Y-53300990D01*
X142672304Y-53300990D02*
X143243732Y-53872419D01*
X143243732Y-53872419D02*
X142624685Y-53872419D01*
X142005637Y-52872419D02*
X141910399Y-52872419D01*
X141910399Y-52872419D02*
X141815161Y-52920038D01*
X141815161Y-52920038D02*
X141767542Y-52967657D01*
X141767542Y-52967657D02*
X141719923Y-53062895D01*
X141719923Y-53062895D02*
X141672304Y-53253371D01*
X141672304Y-53253371D02*
X141672304Y-53491466D01*
X141672304Y-53491466D02*
X141719923Y-53681942D01*
X141719923Y-53681942D02*
X141767542Y-53777180D01*
X141767542Y-53777180D02*
X141815161Y-53824800D01*
X141815161Y-53824800D02*
X141910399Y-53872419D01*
X141910399Y-53872419D02*
X142005637Y-53872419D01*
X142005637Y-53872419D02*
X142100875Y-53824800D01*
X142100875Y-53824800D02*
X142148494Y-53777180D01*
X142148494Y-53777180D02*
X142196113Y-53681942D01*
X142196113Y-53681942D02*
X142243732Y-53491466D01*
X142243732Y-53491466D02*
X142243732Y-53253371D01*
X142243732Y-53253371D02*
X142196113Y-53062895D01*
X142196113Y-53062895D02*
X142148494Y-52967657D01*
X142148494Y-52967657D02*
X142100875Y-52920038D01*
X142100875Y-52920038D02*
X142005637Y-52872419D01*
X141291351Y-52967657D02*
X141243732Y-52920038D01*
X141243732Y-52920038D02*
X141148494Y-52872419D01*
X141148494Y-52872419D02*
X140910399Y-52872419D01*
X140910399Y-52872419D02*
X140815161Y-52920038D01*
X140815161Y-52920038D02*
X140767542Y-52967657D01*
X140767542Y-52967657D02*
X140719923Y-53062895D01*
X140719923Y-53062895D02*
X140719923Y-53158133D01*
X140719923Y-53158133D02*
X140767542Y-53300990D01*
X140767542Y-53300990D02*
X141338970Y-53872419D01*
X141338970Y-53872419D02*
X140719923Y-53872419D01*
X139815161Y-52872419D02*
X140291351Y-52872419D01*
X140291351Y-52872419D02*
X140338970Y-53348609D01*
X140338970Y-53348609D02*
X140291351Y-53300990D01*
X140291351Y-53300990D02*
X140196113Y-53253371D01*
X140196113Y-53253371D02*
X139958018Y-53253371D01*
X139958018Y-53253371D02*
X139862780Y-53300990D01*
X139862780Y-53300990D02*
X139815161Y-53348609D01*
X139815161Y-53348609D02*
X139767542Y-53443847D01*
X139767542Y-53443847D02*
X139767542Y-53681942D01*
X139767542Y-53681942D02*
X139815161Y-53777180D01*
X139815161Y-53777180D02*
X139862780Y-53824800D01*
X139862780Y-53824800D02*
X139958018Y-53872419D01*
X139958018Y-53872419D02*
X140196113Y-53872419D01*
X140196113Y-53872419D02*
X140291351Y-53824800D01*
X140291351Y-53824800D02*
X140338970Y-53777180D01*
X156196115Y-49872419D02*
X156196115Y-48872419D01*
X156196115Y-48872419D02*
X155958020Y-48872419D01*
X155958020Y-48872419D02*
X155815163Y-48920038D01*
X155815163Y-48920038D02*
X155719925Y-49015276D01*
X155719925Y-49015276D02*
X155672306Y-49110514D01*
X155672306Y-49110514D02*
X155624687Y-49300990D01*
X155624687Y-49300990D02*
X155624687Y-49443847D01*
X155624687Y-49443847D02*
X155672306Y-49634323D01*
X155672306Y-49634323D02*
X155719925Y-49729561D01*
X155719925Y-49729561D02*
X155815163Y-49824800D01*
X155815163Y-49824800D02*
X155958020Y-49872419D01*
X155958020Y-49872419D02*
X156196115Y-49872419D01*
X154815163Y-49824800D02*
X154910401Y-49872419D01*
X154910401Y-49872419D02*
X155100877Y-49872419D01*
X155100877Y-49872419D02*
X155196115Y-49824800D01*
X155196115Y-49824800D02*
X155243734Y-49729561D01*
X155243734Y-49729561D02*
X155243734Y-49348609D01*
X155243734Y-49348609D02*
X155196115Y-49253371D01*
X155196115Y-49253371D02*
X155100877Y-49205752D01*
X155100877Y-49205752D02*
X154910401Y-49205752D01*
X154910401Y-49205752D02*
X154815163Y-49253371D01*
X154815163Y-49253371D02*
X154767544Y-49348609D01*
X154767544Y-49348609D02*
X154767544Y-49443847D01*
X154767544Y-49443847D02*
X155243734Y-49539085D01*
X154386591Y-49824800D02*
X154291353Y-49872419D01*
X154291353Y-49872419D02*
X154100877Y-49872419D01*
X154100877Y-49872419D02*
X154005639Y-49824800D01*
X154005639Y-49824800D02*
X153958020Y-49729561D01*
X153958020Y-49729561D02*
X153958020Y-49681942D01*
X153958020Y-49681942D02*
X154005639Y-49586704D01*
X154005639Y-49586704D02*
X154100877Y-49539085D01*
X154100877Y-49539085D02*
X154243734Y-49539085D01*
X154243734Y-49539085D02*
X154338972Y-49491466D01*
X154338972Y-49491466D02*
X154386591Y-49396228D01*
X154386591Y-49396228D02*
X154386591Y-49348609D01*
X154386591Y-49348609D02*
X154338972Y-49253371D01*
X154338972Y-49253371D02*
X154243734Y-49205752D01*
X154243734Y-49205752D02*
X154100877Y-49205752D01*
X154100877Y-49205752D02*
X154005639Y-49253371D01*
X153529448Y-49872419D02*
X153529448Y-49205752D01*
X153529448Y-48872419D02*
X153577067Y-48920038D01*
X153577067Y-48920038D02*
X153529448Y-48967657D01*
X153529448Y-48967657D02*
X153481829Y-48920038D01*
X153481829Y-48920038D02*
X153529448Y-48872419D01*
X153529448Y-48872419D02*
X153529448Y-48967657D01*
X152624687Y-49205752D02*
X152624687Y-50015276D01*
X152624687Y-50015276D02*
X152672306Y-50110514D01*
X152672306Y-50110514D02*
X152719925Y-50158133D01*
X152719925Y-50158133D02*
X152815163Y-50205752D01*
X152815163Y-50205752D02*
X152958020Y-50205752D01*
X152958020Y-50205752D02*
X153053258Y-50158133D01*
X152624687Y-49824800D02*
X152719925Y-49872419D01*
X152719925Y-49872419D02*
X152910401Y-49872419D01*
X152910401Y-49872419D02*
X153005639Y-49824800D01*
X153005639Y-49824800D02*
X153053258Y-49777180D01*
X153053258Y-49777180D02*
X153100877Y-49681942D01*
X153100877Y-49681942D02*
X153100877Y-49396228D01*
X153100877Y-49396228D02*
X153053258Y-49300990D01*
X153053258Y-49300990D02*
X153005639Y-49253371D01*
X153005639Y-49253371D02*
X152910401Y-49205752D01*
X152910401Y-49205752D02*
X152719925Y-49205752D01*
X152719925Y-49205752D02*
X152624687Y-49253371D01*
X152148496Y-49205752D02*
X152148496Y-49872419D01*
X152148496Y-49300990D02*
X152100877Y-49253371D01*
X152100877Y-49253371D02*
X152005639Y-49205752D01*
X152005639Y-49205752D02*
X151862782Y-49205752D01*
X151862782Y-49205752D02*
X151767544Y-49253371D01*
X151767544Y-49253371D02*
X151719925Y-49348609D01*
X151719925Y-49348609D02*
X151719925Y-49872419D01*
X150862782Y-49824800D02*
X150958020Y-49872419D01*
X150958020Y-49872419D02*
X151148496Y-49872419D01*
X151148496Y-49872419D02*
X151243734Y-49824800D01*
X151243734Y-49824800D02*
X151291353Y-49729561D01*
X151291353Y-49729561D02*
X151291353Y-49348609D01*
X151291353Y-49348609D02*
X151243734Y-49253371D01*
X151243734Y-49253371D02*
X151148496Y-49205752D01*
X151148496Y-49205752D02*
X150958020Y-49205752D01*
X150958020Y-49205752D02*
X150862782Y-49253371D01*
X150862782Y-49253371D02*
X150815163Y-49348609D01*
X150815163Y-49348609D02*
X150815163Y-49443847D01*
X150815163Y-49443847D02*
X151291353Y-49539085D01*
X149958020Y-49872419D02*
X149958020Y-48872419D01*
X149958020Y-49824800D02*
X150053258Y-49872419D01*
X150053258Y-49872419D02*
X150243734Y-49872419D01*
X150243734Y-49872419D02*
X150338972Y-49824800D01*
X150338972Y-49824800D02*
X150386591Y-49777180D01*
X150386591Y-49777180D02*
X150434210Y-49681942D01*
X150434210Y-49681942D02*
X150434210Y-49396228D01*
X150434210Y-49396228D02*
X150386591Y-49300990D01*
X150386591Y-49300990D02*
X150338972Y-49253371D01*
X150338972Y-49253371D02*
X150243734Y-49205752D01*
X150243734Y-49205752D02*
X150053258Y-49205752D01*
X150053258Y-49205752D02*
X149958020Y-49253371D01*
X148719924Y-49872419D02*
X148719924Y-48872419D01*
X148719924Y-49253371D02*
X148624686Y-49205752D01*
X148624686Y-49205752D02*
X148434210Y-49205752D01*
X148434210Y-49205752D02*
X148338972Y-49253371D01*
X148338972Y-49253371D02*
X148291353Y-49300990D01*
X148291353Y-49300990D02*
X148243734Y-49396228D01*
X148243734Y-49396228D02*
X148243734Y-49681942D01*
X148243734Y-49681942D02*
X148291353Y-49777180D01*
X148291353Y-49777180D02*
X148338972Y-49824800D01*
X148338972Y-49824800D02*
X148434210Y-49872419D01*
X148434210Y-49872419D02*
X148624686Y-49872419D01*
X148624686Y-49872419D02*
X148719924Y-49824800D01*
X147910400Y-49205752D02*
X147672305Y-49872419D01*
X147434210Y-49205752D02*
X147672305Y-49872419D01*
X147672305Y-49872419D02*
X147767543Y-50110514D01*
X147767543Y-50110514D02*
X147815162Y-50158133D01*
X147815162Y-50158133D02*
X147910400Y-50205752D01*
X146434209Y-48872419D02*
X145862781Y-48872419D01*
X146148495Y-49872419D02*
X146148495Y-48872419D01*
X145148495Y-49824800D02*
X145243733Y-49872419D01*
X145243733Y-49872419D02*
X145434209Y-49872419D01*
X145434209Y-49872419D02*
X145529447Y-49824800D01*
X145529447Y-49824800D02*
X145577066Y-49729561D01*
X145577066Y-49729561D02*
X145577066Y-49348609D01*
X145577066Y-49348609D02*
X145529447Y-49253371D01*
X145529447Y-49253371D02*
X145434209Y-49205752D01*
X145434209Y-49205752D02*
X145243733Y-49205752D01*
X145243733Y-49205752D02*
X145148495Y-49253371D01*
X145148495Y-49253371D02*
X145100876Y-49348609D01*
X145100876Y-49348609D02*
X145100876Y-49443847D01*
X145100876Y-49443847D02*
X145577066Y-49539085D01*
X144243733Y-49872419D02*
X144243733Y-48872419D01*
X144243733Y-49824800D02*
X144338971Y-49872419D01*
X144338971Y-49872419D02*
X144529447Y-49872419D01*
X144529447Y-49872419D02*
X144624685Y-49824800D01*
X144624685Y-49824800D02*
X144672304Y-49777180D01*
X144672304Y-49777180D02*
X144719923Y-49681942D01*
X144719923Y-49681942D02*
X144719923Y-49396228D01*
X144719923Y-49396228D02*
X144672304Y-49300990D01*
X144672304Y-49300990D02*
X144624685Y-49253371D01*
X144624685Y-49253371D02*
X144529447Y-49205752D01*
X144529447Y-49205752D02*
X144338971Y-49205752D01*
X144338971Y-49205752D02*
X144243733Y-49253371D01*
X143338971Y-49872419D02*
X143338971Y-48872419D01*
X143338971Y-49824800D02*
X143434209Y-49872419D01*
X143434209Y-49872419D02*
X143624685Y-49872419D01*
X143624685Y-49872419D02*
X143719923Y-49824800D01*
X143719923Y-49824800D02*
X143767542Y-49777180D01*
X143767542Y-49777180D02*
X143815161Y-49681942D01*
X143815161Y-49681942D02*
X143815161Y-49396228D01*
X143815161Y-49396228D02*
X143767542Y-49300990D01*
X143767542Y-49300990D02*
X143719923Y-49253371D01*
X143719923Y-49253371D02*
X143624685Y-49205752D01*
X143624685Y-49205752D02*
X143434209Y-49205752D01*
X143434209Y-49205752D02*
X143338971Y-49253371D01*
X142958018Y-49205752D02*
X142719923Y-49872419D01*
X142481828Y-49205752D02*
X142719923Y-49872419D01*
X142719923Y-49872419D02*
X142815161Y-50110514D01*
X142815161Y-50110514D02*
X142862780Y-50158133D01*
X142862780Y-50158133D02*
X142958018Y-50205752D01*
X141338970Y-49872419D02*
X141338970Y-48872419D01*
X141338970Y-48872419D02*
X141100875Y-48872419D01*
X141100875Y-48872419D02*
X140958018Y-48920038D01*
X140958018Y-48920038D02*
X140862780Y-49015276D01*
X140862780Y-49015276D02*
X140815161Y-49110514D01*
X140815161Y-49110514D02*
X140767542Y-49300990D01*
X140767542Y-49300990D02*
X140767542Y-49443847D01*
X140767542Y-49443847D02*
X140815161Y-49634323D01*
X140815161Y-49634323D02*
X140862780Y-49729561D01*
X140862780Y-49729561D02*
X140958018Y-49824800D01*
X140958018Y-49824800D02*
X141100875Y-49872419D01*
X141100875Y-49872419D02*
X141338970Y-49872419D01*
X139910399Y-49205752D02*
X139910399Y-49872419D01*
X140338970Y-49205752D02*
X140338970Y-49729561D01*
X140338970Y-49729561D02*
X140291351Y-49824800D01*
X140291351Y-49824800D02*
X140196113Y-49872419D01*
X140196113Y-49872419D02*
X140053256Y-49872419D01*
X140053256Y-49872419D02*
X139958018Y-49824800D01*
X139958018Y-49824800D02*
X139910399Y-49777180D01*
X139434208Y-49205752D02*
X139434208Y-49872419D01*
X139434208Y-49300990D02*
X139386589Y-49253371D01*
X139386589Y-49253371D02*
X139291351Y-49205752D01*
X139291351Y-49205752D02*
X139148494Y-49205752D01*
X139148494Y-49205752D02*
X139053256Y-49253371D01*
X139053256Y-49253371D02*
X139005637Y-49348609D01*
X139005637Y-49348609D02*
X139005637Y-49872419D01*
X138100875Y-49824800D02*
X138196113Y-49872419D01*
X138196113Y-49872419D02*
X138386589Y-49872419D01*
X138386589Y-49872419D02*
X138481827Y-49824800D01*
X138481827Y-49824800D02*
X138529446Y-49777180D01*
X138529446Y-49777180D02*
X138577065Y-49681942D01*
X138577065Y-49681942D02*
X138577065Y-49396228D01*
X138577065Y-49396228D02*
X138529446Y-49300990D01*
X138529446Y-49300990D02*
X138481827Y-49253371D01*
X138481827Y-49253371D02*
X138386589Y-49205752D01*
X138386589Y-49205752D02*
X138196113Y-49205752D01*
X138196113Y-49205752D02*
X138100875Y-49253371D01*
X137672303Y-49872419D02*
X137672303Y-48872419D01*
X137577065Y-49491466D02*
X137291351Y-49872419D01*
X137291351Y-49205752D02*
X137672303Y-49586704D01*
X136481827Y-49824800D02*
X136577065Y-49872419D01*
X136577065Y-49872419D02*
X136767541Y-49872419D01*
X136767541Y-49872419D02*
X136862779Y-49824800D01*
X136862779Y-49824800D02*
X136910398Y-49729561D01*
X136910398Y-49729561D02*
X136910398Y-49348609D01*
X136910398Y-49348609D02*
X136862779Y-49253371D01*
X136862779Y-49253371D02*
X136767541Y-49205752D01*
X136767541Y-49205752D02*
X136577065Y-49205752D01*
X136577065Y-49205752D02*
X136481827Y-49253371D01*
X136481827Y-49253371D02*
X136434208Y-49348609D01*
X136434208Y-49348609D02*
X136434208Y-49443847D01*
X136434208Y-49443847D02*
X136910398Y-49539085D01*
X136005636Y-49872419D02*
X136005636Y-49205752D01*
X136005636Y-49396228D02*
X135958017Y-49300990D01*
X135958017Y-49300990D02*
X135910398Y-49253371D01*
X135910398Y-49253371D02*
X135815160Y-49205752D01*
X135815160Y-49205752D02*
X135719922Y-49205752D01*
X152446115Y-51872419D02*
X152446115Y-50872419D01*
X152446115Y-50872419D02*
X152065163Y-50872419D01*
X152065163Y-50872419D02*
X151969925Y-50920038D01*
X151969925Y-50920038D02*
X151922306Y-50967657D01*
X151922306Y-50967657D02*
X151874687Y-51062895D01*
X151874687Y-51062895D02*
X151874687Y-51205752D01*
X151874687Y-51205752D02*
X151922306Y-51300990D01*
X151922306Y-51300990D02*
X151969925Y-51348609D01*
X151969925Y-51348609D02*
X152065163Y-51396228D01*
X152065163Y-51396228D02*
X152446115Y-51396228D01*
X151446115Y-51348609D02*
X151112782Y-51348609D01*
X150969925Y-51872419D02*
X151446115Y-51872419D01*
X151446115Y-51872419D02*
X151446115Y-50872419D01*
X151446115Y-50872419D02*
X150969925Y-50872419D01*
X150588972Y-51586704D02*
X150112782Y-51586704D01*
X150684210Y-51872419D02*
X150350877Y-50872419D01*
X150350877Y-50872419D02*
X150017544Y-51872419D01*
X148969924Y-51824800D02*
X148827067Y-51872419D01*
X148827067Y-51872419D02*
X148588972Y-51872419D01*
X148588972Y-51872419D02*
X148493734Y-51824800D01*
X148493734Y-51824800D02*
X148446115Y-51777180D01*
X148446115Y-51777180D02*
X148398496Y-51681942D01*
X148398496Y-51681942D02*
X148398496Y-51586704D01*
X148398496Y-51586704D02*
X148446115Y-51491466D01*
X148446115Y-51491466D02*
X148493734Y-51443847D01*
X148493734Y-51443847D02*
X148588972Y-51396228D01*
X148588972Y-51396228D02*
X148779448Y-51348609D01*
X148779448Y-51348609D02*
X148874686Y-51300990D01*
X148874686Y-51300990D02*
X148922305Y-51253371D01*
X148922305Y-51253371D02*
X148969924Y-51158133D01*
X148969924Y-51158133D02*
X148969924Y-51062895D01*
X148969924Y-51062895D02*
X148922305Y-50967657D01*
X148922305Y-50967657D02*
X148874686Y-50920038D01*
X148874686Y-50920038D02*
X148779448Y-50872419D01*
X148779448Y-50872419D02*
X148541353Y-50872419D01*
X148541353Y-50872419D02*
X148398496Y-50920038D01*
X147588972Y-51824800D02*
X147684210Y-51872419D01*
X147684210Y-51872419D02*
X147874686Y-51872419D01*
X147874686Y-51872419D02*
X147969924Y-51824800D01*
X147969924Y-51824800D02*
X148017543Y-51729561D01*
X148017543Y-51729561D02*
X148017543Y-51348609D01*
X148017543Y-51348609D02*
X147969924Y-51253371D01*
X147969924Y-51253371D02*
X147874686Y-51205752D01*
X147874686Y-51205752D02*
X147684210Y-51205752D01*
X147684210Y-51205752D02*
X147588972Y-51253371D01*
X147588972Y-51253371D02*
X147541353Y-51348609D01*
X147541353Y-51348609D02*
X147541353Y-51443847D01*
X147541353Y-51443847D02*
X148017543Y-51539085D01*
X147112781Y-51205752D02*
X147112781Y-51872419D01*
X147112781Y-51300990D02*
X147065162Y-51253371D01*
X147065162Y-51253371D02*
X146969924Y-51205752D01*
X146969924Y-51205752D02*
X146827067Y-51205752D01*
X146827067Y-51205752D02*
X146731829Y-51253371D01*
X146731829Y-51253371D02*
X146684210Y-51348609D01*
X146684210Y-51348609D02*
X146684210Y-51872419D01*
X146208019Y-51872419D02*
X146208019Y-51205752D01*
X146208019Y-50872419D02*
X146255638Y-50920038D01*
X146255638Y-50920038D02*
X146208019Y-50967657D01*
X146208019Y-50967657D02*
X146160400Y-50920038D01*
X146160400Y-50920038D02*
X146208019Y-50872419D01*
X146208019Y-50872419D02*
X146208019Y-50967657D01*
X145588972Y-51872419D02*
X145684210Y-51824800D01*
X145684210Y-51824800D02*
X145731829Y-51777180D01*
X145731829Y-51777180D02*
X145779448Y-51681942D01*
X145779448Y-51681942D02*
X145779448Y-51396228D01*
X145779448Y-51396228D02*
X145731829Y-51300990D01*
X145731829Y-51300990D02*
X145684210Y-51253371D01*
X145684210Y-51253371D02*
X145588972Y-51205752D01*
X145588972Y-51205752D02*
X145446115Y-51205752D01*
X145446115Y-51205752D02*
X145350877Y-51253371D01*
X145350877Y-51253371D02*
X145303258Y-51300990D01*
X145303258Y-51300990D02*
X145255639Y-51396228D01*
X145255639Y-51396228D02*
X145255639Y-51681942D01*
X145255639Y-51681942D02*
X145303258Y-51777180D01*
X145303258Y-51777180D02*
X145350877Y-51824800D01*
X145350877Y-51824800D02*
X145446115Y-51872419D01*
X145446115Y-51872419D02*
X145588972Y-51872419D01*
X144827067Y-51872419D02*
X144827067Y-51205752D01*
X144827067Y-51396228D02*
X144779448Y-51300990D01*
X144779448Y-51300990D02*
X144731829Y-51253371D01*
X144731829Y-51253371D02*
X144636591Y-51205752D01*
X144636591Y-51205752D02*
X144541353Y-51205752D01*
X143446114Y-51872419D02*
X143446114Y-50872419D01*
X143446114Y-50872419D02*
X143065162Y-50872419D01*
X143065162Y-50872419D02*
X142969924Y-50920038D01*
X142969924Y-50920038D02*
X142922305Y-50967657D01*
X142922305Y-50967657D02*
X142874686Y-51062895D01*
X142874686Y-51062895D02*
X142874686Y-51205752D01*
X142874686Y-51205752D02*
X142922305Y-51300990D01*
X142922305Y-51300990D02*
X142969924Y-51348609D01*
X142969924Y-51348609D02*
X143065162Y-51396228D01*
X143065162Y-51396228D02*
X143446114Y-51396228D01*
X142446114Y-51872419D02*
X142446114Y-51205752D01*
X142446114Y-51396228D02*
X142398495Y-51300990D01*
X142398495Y-51300990D02*
X142350876Y-51253371D01*
X142350876Y-51253371D02*
X142255638Y-51205752D01*
X142255638Y-51205752D02*
X142160400Y-51205752D01*
X141684209Y-51872419D02*
X141779447Y-51824800D01*
X141779447Y-51824800D02*
X141827066Y-51777180D01*
X141827066Y-51777180D02*
X141874685Y-51681942D01*
X141874685Y-51681942D02*
X141874685Y-51396228D01*
X141874685Y-51396228D02*
X141827066Y-51300990D01*
X141827066Y-51300990D02*
X141779447Y-51253371D01*
X141779447Y-51253371D02*
X141684209Y-51205752D01*
X141684209Y-51205752D02*
X141541352Y-51205752D01*
X141541352Y-51205752D02*
X141446114Y-51253371D01*
X141446114Y-51253371D02*
X141398495Y-51300990D01*
X141398495Y-51300990D02*
X141350876Y-51396228D01*
X141350876Y-51396228D02*
X141350876Y-51681942D01*
X141350876Y-51681942D02*
X141398495Y-51777180D01*
X141398495Y-51777180D02*
X141446114Y-51824800D01*
X141446114Y-51824800D02*
X141541352Y-51872419D01*
X141541352Y-51872419D02*
X141684209Y-51872419D01*
X140922304Y-51205752D02*
X140922304Y-52062895D01*
X140922304Y-52062895D02*
X140969923Y-52158133D01*
X140969923Y-52158133D02*
X141065161Y-52205752D01*
X141065161Y-52205752D02*
X141112780Y-52205752D01*
X140922304Y-50872419D02*
X140969923Y-50920038D01*
X140969923Y-50920038D02*
X140922304Y-50967657D01*
X140922304Y-50967657D02*
X140874685Y-50920038D01*
X140874685Y-50920038D02*
X140922304Y-50872419D01*
X140922304Y-50872419D02*
X140922304Y-50967657D01*
X140065162Y-51824800D02*
X140160400Y-51872419D01*
X140160400Y-51872419D02*
X140350876Y-51872419D01*
X140350876Y-51872419D02*
X140446114Y-51824800D01*
X140446114Y-51824800D02*
X140493733Y-51729561D01*
X140493733Y-51729561D02*
X140493733Y-51348609D01*
X140493733Y-51348609D02*
X140446114Y-51253371D01*
X140446114Y-51253371D02*
X140350876Y-51205752D01*
X140350876Y-51205752D02*
X140160400Y-51205752D01*
X140160400Y-51205752D02*
X140065162Y-51253371D01*
X140065162Y-51253371D02*
X140017543Y-51348609D01*
X140017543Y-51348609D02*
X140017543Y-51443847D01*
X140017543Y-51443847D02*
X140493733Y-51539085D01*
X139160400Y-51824800D02*
X139255638Y-51872419D01*
X139255638Y-51872419D02*
X139446114Y-51872419D01*
X139446114Y-51872419D02*
X139541352Y-51824800D01*
X139541352Y-51824800D02*
X139588971Y-51777180D01*
X139588971Y-51777180D02*
X139636590Y-51681942D01*
X139636590Y-51681942D02*
X139636590Y-51396228D01*
X139636590Y-51396228D02*
X139588971Y-51300990D01*
X139588971Y-51300990D02*
X139541352Y-51253371D01*
X139541352Y-51253371D02*
X139446114Y-51205752D01*
X139446114Y-51205752D02*
X139255638Y-51205752D01*
X139255638Y-51205752D02*
X139160400Y-51253371D01*
X138874685Y-51205752D02*
X138493733Y-51205752D01*
X138731828Y-50872419D02*
X138731828Y-51729561D01*
X138731828Y-51729561D02*
X138684209Y-51824800D01*
X138684209Y-51824800D02*
X138588971Y-51872419D01*
X138588971Y-51872419D02*
X138493733Y-51872419D01*
G36*
X126831953Y-98918039D02*
G01*
X126533000Y-98918039D01*
X126533000Y-99010790D01*
X126527791Y-99082353D01*
X126513380Y-99140354D01*
X126491008Y-99187307D01*
X126461071Y-99225174D01*
X126422879Y-99256678D01*
X126381003Y-99278918D01*
X126334664Y-99292444D01*
X126282773Y-99297103D01*
X126222503Y-99290629D01*
X126172437Y-99272252D01*
X126143455Y-99252997D01*
X126119601Y-99228453D01*
X126100446Y-99198002D01*
X126088251Y-99163632D01*
X126079323Y-99109750D01*
X126075859Y-99031245D01*
X126151188Y-99031245D01*
X126156460Y-99095958D01*
X126169667Y-99137303D01*
X126188312Y-99162404D01*
X126214780Y-99180334D01*
X126247010Y-99191515D01*
X126286559Y-99195498D01*
X126331793Y-99190798D01*
X126371573Y-99177164D01*
X126407093Y-99154588D01*
X126426694Y-99132532D01*
X126442437Y-99099332D01*
X126453379Y-99051236D01*
X126457590Y-98983496D01*
X126457590Y-98918039D01*
X126151188Y-98918039D01*
X126151188Y-99031245D01*
X126075859Y-99031245D01*
X126075778Y-99029413D01*
X126075778Y-98820341D01*
X126831953Y-98820341D01*
X126831953Y-98918039D01*
G37*
G36*
X126830000Y-99681053D02*
G01*
X126830000Y-99583356D01*
X126473893Y-99583356D01*
X126073824Y-99339296D01*
X126073824Y-99453480D01*
X126379188Y-99642096D01*
X126073824Y-99828026D01*
X126073824Y-99923037D01*
X126473893Y-99681053D01*
X126830000Y-99681053D01*
G37*
G36*
X126830000Y-100103105D02*
G01*
X126505645Y-100103105D01*
X126505645Y-100203122D01*
X126564102Y-100258107D01*
X126631552Y-100302163D01*
X126830000Y-100406699D01*
X126830000Y-100518684D01*
X126606884Y-100398883D01*
X126555959Y-100368475D01*
X126516636Y-100338677D01*
X126490563Y-100302407D01*
X126461736Y-100361041D01*
X126432433Y-100397540D01*
X126397525Y-100424998D01*
X126358855Y-100445472D01*
X126317264Y-100458352D01*
X126274286Y-100462630D01*
X126221272Y-100456246D01*
X126172315Y-100437229D01*
X126130377Y-100407107D01*
X126100446Y-100368719D01*
X126087811Y-100338751D01*
X126079099Y-100296732D01*
X126075778Y-100239148D01*
X126075778Y-100206603D01*
X126151188Y-100206603D01*
X126156827Y-100269291D01*
X126170055Y-100303140D01*
X126191437Y-100328214D01*
X126217072Y-100346188D01*
X126246597Y-100357209D01*
X126280819Y-100361025D01*
X126320074Y-100356375D01*
X126357206Y-100342402D01*
X126389145Y-100320242D01*
X126411734Y-100292088D01*
X126424970Y-100256203D01*
X126430235Y-100199703D01*
X126430235Y-100103105D01*
X126151188Y-100103105D01*
X126151188Y-100206603D01*
X126075778Y-100206603D01*
X126075778Y-100005408D01*
X126830000Y-100005408D01*
X126830000Y-100103105D01*
G37*
G36*
X126549641Y-100590209D02*
G01*
X126629456Y-100608101D01*
X126695191Y-100635931D01*
X126749216Y-100673046D01*
X126795043Y-100721243D01*
X126827178Y-100774916D01*
X126846698Y-100835208D01*
X126853447Y-100903855D01*
X126846701Y-100972533D01*
X126827185Y-101032902D01*
X126795048Y-101086687D01*
X126749216Y-101135031D01*
X126695167Y-101172311D01*
X126629423Y-101200253D01*
X126549616Y-101218211D01*
X126452827Y-101224668D01*
X126356105Y-101218212D01*
X126276349Y-101200254D01*
X126210643Y-101172313D01*
X126156622Y-101135031D01*
X126110760Y-101086684D01*
X126078606Y-101032896D01*
X126059079Y-100972529D01*
X126052396Y-100904527D01*
X126127740Y-100904527D01*
X126133416Y-100953528D01*
X126149824Y-100995704D01*
X126177126Y-101032639D01*
X126216889Y-101065177D01*
X126262123Y-101089252D01*
X126315535Y-101107355D01*
X126378551Y-101118936D01*
X126452827Y-101123063D01*
X126527172Y-101118935D01*
X126590227Y-101107351D01*
X126643656Y-101089248D01*
X126688888Y-101065177D01*
X126728652Y-101032639D01*
X126755953Y-100995704D01*
X126772361Y-100953528D01*
X126778037Y-100904527D01*
X126772368Y-100855556D01*
X126755968Y-100813331D01*
X126728665Y-100776282D01*
X126688888Y-100743571D01*
X126643637Y-100719365D01*
X126590202Y-100701168D01*
X126527154Y-100689527D01*
X126452827Y-100685380D01*
X126378569Y-100689526D01*
X126315560Y-100701164D01*
X126262142Y-100719361D01*
X126216889Y-100743571D01*
X126177113Y-100776282D01*
X126149809Y-100813331D01*
X126133409Y-100855556D01*
X126127740Y-100904527D01*
X126052396Y-100904527D01*
X126052330Y-100903855D01*
X126059082Y-100835212D01*
X126078613Y-100774921D01*
X126110766Y-100721247D01*
X126156622Y-100673046D01*
X126210619Y-100635929D01*
X126276316Y-100608099D01*
X126356079Y-100590208D01*
X126452827Y-100583775D01*
X126549641Y-100590209D01*
G37*
G36*
X126830000Y-101568562D02*
G01*
X126169567Y-101568562D01*
X126230444Y-101416154D01*
X126146242Y-101416154D01*
X126075778Y-101568562D01*
X126075778Y-101658443D01*
X126830000Y-101658443D01*
X126830000Y-101568562D01*
G37*
G36*
X126831953Y-104168039D02*
G01*
X126533000Y-104168039D01*
X126533000Y-104260790D01*
X126527791Y-104332353D01*
X126513380Y-104390354D01*
X126491008Y-104437307D01*
X126461071Y-104475174D01*
X126422879Y-104506678D01*
X126381003Y-104528918D01*
X126334664Y-104542444D01*
X126282773Y-104547103D01*
X126222503Y-104540629D01*
X126172437Y-104522252D01*
X126143455Y-104502997D01*
X126119601Y-104478453D01*
X126100446Y-104448002D01*
X126088251Y-104413632D01*
X126079323Y-104359750D01*
X126075859Y-104281245D01*
X126151188Y-104281245D01*
X126156460Y-104345958D01*
X126169667Y-104387303D01*
X126188312Y-104412404D01*
X126214780Y-104430334D01*
X126247010Y-104441515D01*
X126286559Y-104445498D01*
X126331793Y-104440798D01*
X126371573Y-104427164D01*
X126407093Y-104404588D01*
X126426694Y-104382532D01*
X126442437Y-104349332D01*
X126453379Y-104301236D01*
X126457590Y-104233496D01*
X126457590Y-104168039D01*
X126151188Y-104168039D01*
X126151188Y-104281245D01*
X126075859Y-104281245D01*
X126075778Y-104279413D01*
X126075778Y-104070341D01*
X126831953Y-104070341D01*
X126831953Y-104168039D01*
G37*
G36*
X126830000Y-104931053D02*
G01*
X126830000Y-104833356D01*
X126473893Y-104833356D01*
X126073824Y-104589296D01*
X126073824Y-104703480D01*
X126379188Y-104892096D01*
X126073824Y-105078026D01*
X126073824Y-105173037D01*
X126473893Y-104931053D01*
X126830000Y-104931053D01*
G37*
G36*
X126830000Y-105353105D02*
G01*
X126505645Y-105353105D01*
X126505645Y-105453122D01*
X126564102Y-105508107D01*
X126631552Y-105552163D01*
X126830000Y-105656699D01*
X126830000Y-105768684D01*
X126606884Y-105648883D01*
X126555959Y-105618475D01*
X126516636Y-105588677D01*
X126490563Y-105552407D01*
X126461736Y-105611041D01*
X126432433Y-105647540D01*
X126397525Y-105674998D01*
X126358855Y-105695472D01*
X126317264Y-105708352D01*
X126274286Y-105712630D01*
X126221272Y-105706246D01*
X126172315Y-105687229D01*
X126130377Y-105657107D01*
X126100446Y-105618719D01*
X126087811Y-105588751D01*
X126079099Y-105546732D01*
X126075778Y-105489148D01*
X126075778Y-105456603D01*
X126151188Y-105456603D01*
X126156827Y-105519291D01*
X126170055Y-105553140D01*
X126191437Y-105578214D01*
X126217072Y-105596188D01*
X126246597Y-105607209D01*
X126280819Y-105611025D01*
X126320074Y-105606375D01*
X126357206Y-105592402D01*
X126389145Y-105570242D01*
X126411734Y-105542088D01*
X126424970Y-105506203D01*
X126430235Y-105449703D01*
X126430235Y-105353105D01*
X126151188Y-105353105D01*
X126151188Y-105456603D01*
X126075778Y-105456603D01*
X126075778Y-105255408D01*
X126830000Y-105255408D01*
X126830000Y-105353105D01*
G37*
G36*
X126549641Y-105840209D02*
G01*
X126629456Y-105858101D01*
X126695191Y-105885931D01*
X126749216Y-105923046D01*
X126795043Y-105971243D01*
X126827178Y-106024916D01*
X126846698Y-106085208D01*
X126853447Y-106153855D01*
X126846701Y-106222533D01*
X126827185Y-106282902D01*
X126795048Y-106336687D01*
X126749216Y-106385031D01*
X126695167Y-106422311D01*
X126629423Y-106450253D01*
X126549616Y-106468211D01*
X126452827Y-106474668D01*
X126356105Y-106468212D01*
X126276349Y-106450254D01*
X126210643Y-106422313D01*
X126156622Y-106385031D01*
X126110760Y-106336684D01*
X126078606Y-106282896D01*
X126059079Y-106222529D01*
X126052396Y-106154527D01*
X126127740Y-106154527D01*
X126133416Y-106203528D01*
X126149824Y-106245704D01*
X126177126Y-106282639D01*
X126216889Y-106315177D01*
X126262123Y-106339252D01*
X126315535Y-106357355D01*
X126378551Y-106368936D01*
X126452827Y-106373063D01*
X126527172Y-106368935D01*
X126590227Y-106357351D01*
X126643656Y-106339248D01*
X126688888Y-106315177D01*
X126728652Y-106282639D01*
X126755953Y-106245704D01*
X126772361Y-106203528D01*
X126778037Y-106154527D01*
X126772368Y-106105556D01*
X126755968Y-106063331D01*
X126728665Y-106026282D01*
X126688888Y-105993571D01*
X126643637Y-105969365D01*
X126590202Y-105951168D01*
X126527154Y-105939527D01*
X126452827Y-105935380D01*
X126378569Y-105939526D01*
X126315560Y-105951164D01*
X126262142Y-105969361D01*
X126216889Y-105993571D01*
X126177113Y-106026282D01*
X126149809Y-106063331D01*
X126133409Y-106105556D01*
X126127740Y-106154527D01*
X126052396Y-106154527D01*
X126052330Y-106153855D01*
X126059082Y-106085212D01*
X126078613Y-106024921D01*
X126110766Y-105971247D01*
X126156622Y-105923046D01*
X126210619Y-105885929D01*
X126276316Y-105858099D01*
X126356079Y-105840208D01*
X126452827Y-105833775D01*
X126549641Y-105840209D01*
G37*
G36*
X126830000Y-106603628D02*
G01*
X126751781Y-106603628D01*
X126711396Y-106607484D01*
X126666998Y-106619722D01*
X126617630Y-106641730D01*
X126572347Y-106670944D01*
X126525462Y-106712859D01*
X126476580Y-106769897D01*
X126436707Y-106820760D01*
X126360681Y-106912298D01*
X126318738Y-106951308D01*
X126278244Y-106972146D01*
X126237772Y-106978785D01*
X126210032Y-106974813D01*
X126184471Y-106962857D01*
X126160225Y-106941905D01*
X126142304Y-106915405D01*
X126130792Y-106880961D01*
X126126580Y-106836270D01*
X126129896Y-106795132D01*
X126138697Y-106765034D01*
X126151859Y-106743335D01*
X126179460Y-106720161D01*
X126208340Y-106713049D01*
X126208340Y-106623168D01*
X126203578Y-106623168D01*
X126165909Y-106629734D01*
X126129084Y-106650279D01*
X126097789Y-106681504D01*
X126072541Y-106723307D01*
X126056969Y-106772860D01*
X126051170Y-106839200D01*
X126055394Y-106904800D01*
X126066763Y-106955160D01*
X126083811Y-106993379D01*
X126105819Y-107021955D01*
X126144975Y-107052440D01*
X126188104Y-107070381D01*
X126236673Y-107076482D01*
X126276367Y-107072296D01*
X126317822Y-107059263D01*
X126357574Y-107035586D01*
X126403735Y-106991608D01*
X126470291Y-106909542D01*
X126495753Y-106872418D01*
X126550694Y-106801132D01*
X126600623Y-106752072D01*
X126646323Y-106720691D01*
X126688815Y-106703434D01*
X126729371Y-106697967D01*
X126747934Y-106697967D01*
X126747934Y-107090160D01*
X126830000Y-107090160D01*
X126830000Y-106603628D01*
G37*
D11*
%TO.C,C47*%
X131240000Y-116140580D02*
X131240000Y-115859420D01*
X132260000Y-116140580D02*
X132260000Y-115859420D01*
%TO.C,C28*%
X139240000Y-70334420D02*
X139240000Y-70615580D01*
X140260000Y-70334420D02*
X140260000Y-70615580D01*
%TO.C,C44*%
X160335469Y-113711187D02*
X160616629Y-113711187D01*
X160335469Y-114731187D02*
X160616629Y-114731187D01*
%TO.C,C4*%
X154150724Y-93469157D02*
X154150724Y-93187997D01*
X155170724Y-93469157D02*
X155170724Y-93187997D01*
%TO.C,R46*%
X150477500Y-59887258D02*
X150477500Y-59412742D01*
X151522500Y-59887258D02*
X151522500Y-59412742D01*
%TO.C,R18*%
X151987258Y-71527500D02*
X151512742Y-71527500D01*
X151987258Y-72572500D02*
X151512742Y-72572500D01*
%TO.C,R10*%
X165262742Y-84977500D02*
X165737258Y-84977500D01*
X165262742Y-86022500D02*
X165737258Y-86022500D01*
%TO.C,D1*%
X153990000Y-96600000D02*
X159500000Y-96600000D01*
X153990000Y-99900000D02*
X153990000Y-96600000D01*
X153990000Y-99900000D02*
X159500000Y-99900000D01*
%TO.C,D4*%
X160350000Y-108260000D02*
X160350000Y-102750000D01*
X163650000Y-108260000D02*
X160350000Y-108260000D01*
X163650000Y-108260000D02*
X163650000Y-102750000D01*
%TO.C,R9*%
X147564500Y-110487258D02*
X147564500Y-110012742D01*
X148609500Y-110487258D02*
X148609500Y-110012742D01*
%TO.C,U2*%
X150440000Y-93887500D02*
X150440000Y-93087500D01*
X150440000Y-93887500D02*
X150440000Y-94687500D01*
X153560000Y-93887500D02*
X153560000Y-93087500D01*
X153560000Y-93887500D02*
X153560000Y-94687500D01*
X153840000Y-95427500D02*
X153510000Y-95187500D01*
X153840000Y-94947500D01*
X153840000Y-95427500D01*
G36*
X153840000Y-95427500D02*
G01*
X153510000Y-95187500D01*
X153840000Y-94947500D01*
X153840000Y-95427500D01*
G37*
%TO.C,C1*%
X159994878Y-92845479D02*
X160276038Y-92845479D01*
X159994878Y-93865479D02*
X160276038Y-93865479D01*
%TO.C,C10*%
X144202580Y-101990000D02*
X143921420Y-101990000D01*
X144202580Y-103010000D02*
X143921420Y-103010000D01*
%TO.C,R8*%
X152655182Y-110042527D02*
X152655182Y-110517043D01*
X153700182Y-110042527D02*
X153700182Y-110517043D01*
%TO.C,C9*%
X156584420Y-111990000D02*
X156865580Y-111990000D01*
X156584420Y-113010000D02*
X156865580Y-113010000D01*
%TO.C,C15*%
X144390000Y-105315580D02*
X144390000Y-105034420D01*
X145410000Y-105315580D02*
X145410000Y-105034420D01*
%TO.C,R56*%
X151727500Y-67487258D02*
X151727500Y-67012742D01*
X152772500Y-67487258D02*
X152772500Y-67012742D01*
D10*
%TO.C,IC1*%
X151600000Y-104250000D02*
X151600000Y-104250000D01*
X151700000Y-104250000D02*
X151700000Y-104250000D01*
X151600000Y-104250000D02*
G75*
G02*
X151700000Y-104250000I50000J0D01*
G01*
X151700000Y-104250000D02*
G75*
G02*
X151600000Y-104250000I-50000J0D01*
G01*
D11*
%TO.C,C17*%
X150827000Y-110109420D02*
X150827000Y-110390580D01*
X151847000Y-110109420D02*
X151847000Y-110390580D01*
%TO.C,R7*%
X144377500Y-108487258D02*
X144377500Y-108012742D01*
X145422500Y-108487258D02*
X145422500Y-108012742D01*
%TO.C,L1*%
X150300000Y-84712500D02*
X150300000Y-86112500D01*
X150300000Y-84712500D02*
X151500000Y-84712500D01*
X150300000Y-91512500D02*
X150300000Y-90112500D01*
X150300000Y-91512500D02*
X151500000Y-91512500D01*
X156700000Y-84712500D02*
X155500000Y-84712500D01*
X156700000Y-84712500D02*
X156700000Y-86112500D01*
X156700000Y-91512500D02*
X155500000Y-91512500D01*
X156700000Y-91512500D02*
X156700000Y-90112500D01*
%TO.C,R40*%
X142689758Y-71727500D02*
X142215242Y-71727500D01*
X142689758Y-72772500D02*
X142215242Y-72772500D01*
%TO.C,R11*%
X149217975Y-110012742D02*
X149217975Y-110487258D01*
X150262975Y-110012742D02*
X150262975Y-110487258D01*
%TO.C,C39*%
X131240000Y-106140580D02*
X131240000Y-105859420D01*
X132260000Y-106140580D02*
X132260000Y-105859420D01*
%TO.C,R6*%
X152655182Y-106792527D02*
X152655182Y-107267043D01*
X153700182Y-106792527D02*
X153700182Y-107267043D01*
%TO.C,R26*%
X151027500Y-115237258D02*
X151027500Y-114762742D01*
X152072500Y-115237258D02*
X152072500Y-114762742D01*
D12*
%TO.C,U8*%
X154551049Y-115196187D02*
X158701049Y-115196187D01*
X154551049Y-120346187D02*
X158701049Y-120346187D01*
D11*
X154191049Y-120576187D02*
X153711049Y-120576187D01*
X153951049Y-120246187D01*
X154191049Y-120576187D01*
G36*
X154191049Y-120576187D02*
G01*
X153711049Y-120576187D01*
X153951049Y-120246187D01*
X154191049Y-120576187D01*
G37*
%TO.C,C8*%
X156609420Y-110240000D02*
X156890580Y-110240000D01*
X156609420Y-111260000D02*
X156890580Y-111260000D01*
%TO.C,R1*%
X142923369Y-59383325D02*
X143397885Y-59383325D01*
X142923369Y-60428325D02*
X143397885Y-60428325D01*
%TO.C,U1*%
X161387500Y-90140000D02*
X159387500Y-90140000D01*
X161387500Y-92360000D02*
X159387500Y-92360000D01*
X161907500Y-90240000D02*
X161627500Y-90240000D01*
X161627500Y-89960000D01*
X161907500Y-90240000D01*
G36*
X161907500Y-90240000D02*
G01*
X161627500Y-90240000D01*
X161627500Y-89960000D01*
X161907500Y-90240000D01*
G37*
%TO.C,J5*%
X126715000Y-68565000D02*
X126715000Y-79825000D01*
X126715000Y-81325000D02*
X126715000Y-81435000D01*
X126715000Y-81435000D02*
X128525000Y-81435000D01*
X127875000Y-68565000D02*
X126715000Y-68565000D01*
X130425000Y-81435000D02*
X136725000Y-81435000D01*
X131125000Y-68565000D02*
X136725000Y-68565000D01*
%TO.C,C6*%
X156813748Y-107850000D02*
X158236252Y-107850000D01*
X156813748Y-109670000D02*
X158236252Y-109670000D01*
%TO.C,C43*%
X160360469Y-111961187D02*
X160641629Y-111961187D01*
X160360469Y-112981187D02*
X160641629Y-112981187D01*
%TO.C,C38*%
X131240000Y-99584420D02*
X131240000Y-99865580D01*
X132260000Y-99584420D02*
X132260000Y-99865580D01*
%TO.C,BZ1*%
X140900000Y-61900000D02*
X140900000Y-64100000D01*
X140900000Y-68900000D02*
X140900000Y-71100000D01*
X140900000Y-71100000D02*
X150100000Y-71100000D01*
X150100000Y-61900000D02*
X140900000Y-61900000D01*
X150100000Y-61900000D02*
X150100000Y-64100000D01*
X150100000Y-64100000D02*
X150500000Y-64100000D01*
X150100000Y-68900000D02*
X150100000Y-71100000D01*
%TO.C,R17*%
X151987258Y-73477500D02*
X151512742Y-73477500D01*
X151987258Y-74522500D02*
X151512742Y-74522500D01*
%TO.C,D3*%
X153676371Y-96600000D02*
X148166371Y-96600000D01*
X153676371Y-96600000D02*
X153676371Y-99900000D01*
X153676371Y-99900000D02*
X148166371Y-99900000D01*
%TO.C,U7*%
X142490000Y-73240000D02*
X142490000Y-73510000D01*
X142490000Y-78760000D02*
X142490000Y-78490000D01*
X145250000Y-73240000D02*
X142490000Y-73240000D01*
X145250000Y-73240000D02*
X148010000Y-73240000D01*
X145250000Y-78760000D02*
X142490000Y-78760000D01*
X145250000Y-78760000D02*
X148010000Y-78760000D01*
X148010000Y-73240000D02*
X148010000Y-73510000D01*
X148010000Y-78760000D02*
X148010000Y-78490000D01*
X141965000Y-78820000D02*
X141485000Y-78820000D01*
X141725000Y-78490000D01*
X141965000Y-78820000D01*
G36*
X141965000Y-78820000D02*
G01*
X141485000Y-78820000D01*
X141725000Y-78490000D01*
X141965000Y-78820000D01*
G37*
%TO.C,C16*%
X145924870Y-110099642D02*
X145924870Y-110380802D01*
X146944870Y-110099642D02*
X146944870Y-110380802D01*
%TO.C,C42*%
X130734925Y-82673670D02*
X131016085Y-82673670D01*
X130734925Y-83693670D02*
X131016085Y-83693670D01*
%TO.C,C7*%
X156813748Y-105340000D02*
X158236252Y-105340000D01*
X156813748Y-107160000D02*
X158236252Y-107160000D01*
%TO.C,R33*%
X130737258Y-89477500D02*
X130262742Y-89477500D01*
X130737258Y-90522500D02*
X130262742Y-90522500D01*
%TO.C,R37*%
X145737258Y-71727500D02*
X145262742Y-71727500D01*
X145737258Y-72772500D02*
X145262742Y-72772500D01*
%TO.C,R55*%
X153977500Y-59887258D02*
X153977500Y-59412742D01*
X155022500Y-59887258D02*
X155022500Y-59412742D01*
%TO.C,C11*%
X144202580Y-100490000D02*
X143921420Y-100490000D01*
X144202580Y-101510000D02*
X143921420Y-101510000D01*
%TO.C,C13*%
X147076925Y-91134420D02*
X147076925Y-91415580D01*
X148096925Y-91134420D02*
X148096925Y-91415580D01*
%TO.C,Q1*%
X156355000Y-101430000D02*
X159625000Y-101430000D01*
X156355000Y-101615000D02*
X156355000Y-101430000D01*
X156355000Y-104700000D02*
X156355000Y-104515000D01*
X156355000Y-104700000D02*
X159625000Y-104700000D01*
X159625000Y-101615000D02*
X159625000Y-101430000D01*
X159625000Y-104700000D02*
X159625000Y-104515000D01*
X156035000Y-104925000D02*
X155635000Y-104525000D01*
X156035000Y-104525000D01*
X156035000Y-104925000D01*
G36*
X156035000Y-104925000D02*
G01*
X155635000Y-104525000D01*
X156035000Y-104525000D01*
X156035000Y-104925000D01*
G37*
%TO.C,R25*%
X130737258Y-87727500D02*
X130262742Y-87727500D01*
X130737258Y-88772500D02*
X130262742Y-88772500D01*
%TO.C,C46*%
X131240000Y-109859420D02*
X131240000Y-110140580D01*
X132260000Y-109859420D02*
X132260000Y-110140580D01*
%TO.C,R51*%
X126822936Y-119540000D02*
X131177064Y-119540000D01*
X126822936Y-122960000D02*
X131177064Y-122960000D01*
%TO.C,R52*%
X152227500Y-59849758D02*
X152227500Y-59375242D01*
X153272500Y-59849758D02*
X153272500Y-59375242D01*
%TO.C,R22*%
X130662258Y-85977500D02*
X130187742Y-85977500D01*
X130662258Y-87022500D02*
X130187742Y-87022500D01*
%TO.C,R36*%
X130737258Y-91227500D02*
X130262742Y-91227500D01*
X130737258Y-92272500D02*
X130262742Y-92272500D01*
%TO.C,C2*%
X160095108Y-94485870D02*
X160617612Y-94485870D01*
X160095108Y-95955870D02*
X160617612Y-95955870D01*
%TO.C,C12*%
X148840000Y-94590580D02*
X148840000Y-94309420D01*
X149860000Y-94590580D02*
X149860000Y-94309420D01*
%TO.C,C14*%
X148747788Y-91143168D02*
X148747788Y-91424328D01*
X149767788Y-91143168D02*
X149767788Y-91424328D01*
%TO.C,R41*%
X127072936Y-93290000D02*
X131427064Y-93290000D01*
X127072936Y-96710000D02*
X131427064Y-96710000D01*
%TO.C,C19*%
X139186581Y-73665580D02*
X139186581Y-73384420D01*
X140206581Y-73665580D02*
X140206581Y-73384420D01*
%TO.C,R2*%
X152655182Y-103542527D02*
X152655182Y-104017043D01*
X153700182Y-103542527D02*
X153700182Y-104017043D01*
%TD*%
M02*
