%TF.GenerationSoftware,KiCad,Pcbnew,9.0.0*%
%TF.CreationDate,2025-04-29T18:34:20-04:00*%
%TF.ProjectId,Aurora Orbiton Edition,4175726f-7261-4204-9f72-6269746f6e20,rev?*%
%TF.SameCoordinates,Original*%
%TF.FileFunction,Legend,Top*%
%TF.FilePolarity,Positive*%
%FSLAX46Y46*%
G04 Gerber Fmt 4.6, Leading zero omitted, Abs format (unit mm)*
G04 Created by KiCad (PCBNEW 9.0.0) date 2025-04-29 18:34:20*
%MOMM*%
%LPD*%
G01*
G04 APERTURE LIST*
%ADD10C,0.100000*%
%ADD11C,0.200000*%
%ADD12C,0.120000*%
%ADD13C,0.152500*%
%ADD14C,0.152000*%
%ADD15C,0.000000*%
%ADD16C,0.127000*%
%ADD17C,0.140000*%
G04 APERTURE END LIST*
D10*
G36*
X160859750Y-99329323D02*
G01*
X160913632Y-99338251D01*
X160948002Y-99350446D01*
X160978453Y-99369601D01*
X161002997Y-99393455D01*
X161022252Y-99422437D01*
X161040629Y-99472503D01*
X161047103Y-99532773D01*
X161042444Y-99584664D01*
X161028918Y-99631003D01*
X161006678Y-99672879D01*
X160975174Y-99711071D01*
X160937307Y-99741008D01*
X160890354Y-99763380D01*
X160832353Y-99777791D01*
X160760790Y-99783000D01*
X160668039Y-99783000D01*
X160668039Y-100081953D01*
X160570341Y-100081953D01*
X160570341Y-99707590D01*
X160668039Y-99707590D01*
X160733496Y-99707590D01*
X160801236Y-99703379D01*
X160849332Y-99692437D01*
X160882532Y-99676694D01*
X160904588Y-99657093D01*
X160927164Y-99621573D01*
X160940798Y-99581793D01*
X160945498Y-99536559D01*
X160941515Y-99497010D01*
X160930334Y-99464780D01*
X160912404Y-99438312D01*
X160887303Y-99419667D01*
X160845958Y-99406460D01*
X160781245Y-99401188D01*
X160668039Y-99401188D01*
X160668039Y-99707590D01*
X160570341Y-99707590D01*
X160570341Y-99325778D01*
X160779413Y-99325778D01*
X160859750Y-99329323D01*
G37*
G36*
X161514992Y-99309079D02*
G01*
X161575360Y-99328606D01*
X161629147Y-99360760D01*
X161677494Y-99406622D01*
X161714776Y-99460643D01*
X161742718Y-99526349D01*
X161760675Y-99606105D01*
X161767131Y-99702827D01*
X161760675Y-99799616D01*
X161742716Y-99879423D01*
X161714774Y-99945167D01*
X161677494Y-99999216D01*
X161629151Y-100045048D01*
X161575365Y-100077185D01*
X161514996Y-100096701D01*
X161446318Y-100103447D01*
X161377672Y-100096698D01*
X161317379Y-100077178D01*
X161263707Y-100045043D01*
X161215509Y-99999216D01*
X161178395Y-99945191D01*
X161150565Y-99879456D01*
X161132672Y-99799641D01*
X161126238Y-99702827D01*
X161227843Y-99702827D01*
X161231991Y-99777154D01*
X161243631Y-99840202D01*
X161261828Y-99893637D01*
X161286034Y-99938888D01*
X161318746Y-99978665D01*
X161355794Y-100005968D01*
X161398019Y-100022368D01*
X161446990Y-100028037D01*
X161495992Y-100022361D01*
X161538167Y-100005953D01*
X161575102Y-99978652D01*
X161607641Y-99938888D01*
X161631712Y-99893656D01*
X161649815Y-99840227D01*
X161661398Y-99777172D01*
X161665526Y-99702827D01*
X161661400Y-99628551D01*
X161649818Y-99565535D01*
X161631715Y-99512123D01*
X161607641Y-99466889D01*
X161575102Y-99427126D01*
X161538167Y-99399824D01*
X161495992Y-99383416D01*
X161446990Y-99377740D01*
X161398019Y-99383409D01*
X161355794Y-99399809D01*
X161318746Y-99427113D01*
X161286034Y-99466889D01*
X161261824Y-99512142D01*
X161243628Y-99565560D01*
X161231989Y-99628569D01*
X161227843Y-99702827D01*
X161126238Y-99702827D01*
X161132672Y-99606079D01*
X161150563Y-99526316D01*
X161178393Y-99460619D01*
X161215509Y-99406622D01*
X161263710Y-99360766D01*
X161317384Y-99328613D01*
X161377675Y-99309082D01*
X161446318Y-99302330D01*
X161514992Y-99309079D01*
G37*
G36*
X162118414Y-100080000D02*
G01*
X162018640Y-100080000D01*
X161847732Y-99323824D01*
X161941399Y-99323824D01*
X162061688Y-99856273D01*
X162078114Y-99947559D01*
X162082205Y-99947559D01*
X162098569Y-99856273D01*
X162236688Y-99323824D01*
X162333775Y-99323824D01*
X162468414Y-99857677D01*
X162483435Y-99947559D01*
X162488258Y-99947559D01*
X162503951Y-99857677D01*
X162627721Y-99323824D01*
X162713817Y-99323824D01*
X162538817Y-100080000D01*
X162439043Y-100080000D01*
X162299581Y-99537903D01*
X162281812Y-99445273D01*
X162276988Y-99445273D01*
X162259952Y-99537903D01*
X162118414Y-100080000D01*
G37*
G36*
X162821284Y-100080000D02*
G01*
X162821284Y-99325778D01*
X163247243Y-99325778D01*
X163247243Y-99407843D01*
X162918981Y-99407843D01*
X162918981Y-99646224D01*
X163206210Y-99646224D01*
X163206210Y-99721634D01*
X162918981Y-99721634D01*
X162918981Y-99997934D01*
X163272644Y-99997934D01*
X163272644Y-100080000D01*
X162821284Y-100080000D01*
G37*
G36*
X163684136Y-99329099D02*
G01*
X163726155Y-99337811D01*
X163756123Y-99350446D01*
X163794511Y-99380377D01*
X163824633Y-99422315D01*
X163843650Y-99471272D01*
X163850034Y-99524286D01*
X163845756Y-99567264D01*
X163832876Y-99608855D01*
X163812402Y-99647525D01*
X163784944Y-99682433D01*
X163748445Y-99711736D01*
X163689811Y-99740563D01*
X163726081Y-99766636D01*
X163755879Y-99805959D01*
X163786287Y-99856884D01*
X163906088Y-100080000D01*
X163794103Y-100080000D01*
X163689567Y-99881552D01*
X163645511Y-99814102D01*
X163590526Y-99755645D01*
X163490509Y-99755645D01*
X163490509Y-100080000D01*
X163392812Y-100080000D01*
X163392812Y-99680235D01*
X163490509Y-99680235D01*
X163587107Y-99680235D01*
X163643607Y-99674970D01*
X163679492Y-99661734D01*
X163707646Y-99639145D01*
X163729806Y-99607206D01*
X163743779Y-99570074D01*
X163748429Y-99530819D01*
X163744613Y-99496597D01*
X163733592Y-99467072D01*
X163715618Y-99441437D01*
X163690544Y-99420055D01*
X163656695Y-99406827D01*
X163594007Y-99401188D01*
X163490509Y-99401188D01*
X163490509Y-99680235D01*
X163392812Y-99680235D01*
X163392812Y-99325778D01*
X163626552Y-99325778D01*
X163684136Y-99329099D01*
G37*
G36*
X160154150Y-59174170D02*
G01*
X160154150Y-59076472D01*
X160908371Y-59076472D01*
X160908371Y-59174170D01*
X160154150Y-59174170D01*
G37*
G36*
X160154150Y-59406689D02*
G01*
X160154150Y-59316807D01*
X160908371Y-59316807D01*
X160908371Y-59414199D01*
X160372442Y-59758276D01*
X160312236Y-59789662D01*
X160371770Y-59789662D01*
X160908371Y-59789662D01*
X160908371Y-59879543D01*
X160154150Y-59879543D01*
X160154150Y-59783494D01*
X160692827Y-59438135D01*
X160753033Y-59406689D01*
X160692827Y-59406689D01*
X160154150Y-59406689D01*
G37*
G36*
X160154150Y-60223437D02*
G01*
X160834122Y-60223437D01*
X160834122Y-59965516D01*
X160909532Y-59965516D01*
X160909532Y-60571239D01*
X160834122Y-60571239D01*
X160834122Y-60321134D01*
X160154150Y-60321134D01*
X160154150Y-60223437D01*
G37*
G36*
X160154150Y-60671867D02*
G01*
X160232368Y-60671867D01*
X160272753Y-60675723D01*
X160317151Y-60687961D01*
X160366519Y-60709969D01*
X160411802Y-60739182D01*
X160458687Y-60781098D01*
X160507569Y-60838135D01*
X160547442Y-60888999D01*
X160623468Y-60980536D01*
X160665411Y-61019546D01*
X160705905Y-61040384D01*
X160746377Y-61047024D01*
X160774117Y-61043051D01*
X160799678Y-61031096D01*
X160823924Y-61010143D01*
X160841845Y-60983643D01*
X160853357Y-60949200D01*
X160857569Y-60904508D01*
X160854253Y-60863371D01*
X160845452Y-60833273D01*
X160832290Y-60811574D01*
X160804689Y-60788400D01*
X160775809Y-60781288D01*
X160775809Y-60691406D01*
X160780571Y-60691406D01*
X160818240Y-60697972D01*
X160855065Y-60718517D01*
X160886360Y-60749742D01*
X160911608Y-60791546D01*
X160927180Y-60841098D01*
X160932979Y-60907439D01*
X160928755Y-60973038D01*
X160917386Y-61023398D01*
X160900338Y-61061618D01*
X160878330Y-61090194D01*
X160839174Y-61120679D01*
X160796045Y-61138620D01*
X160747476Y-61144721D01*
X160707782Y-61140534D01*
X160666327Y-61127502D01*
X160626575Y-61103825D01*
X160580414Y-61059846D01*
X160513858Y-60977781D01*
X160488396Y-60940656D01*
X160433455Y-60869370D01*
X160383526Y-60820311D01*
X160337826Y-60788929D01*
X160295334Y-60771673D01*
X160254778Y-60766206D01*
X160236215Y-60766206D01*
X160236215Y-61158398D01*
X160154150Y-61158398D01*
X160154150Y-60671867D01*
G37*
G36*
X133630000Y-58231960D02*
G01*
X133630000Y-58329658D01*
X132875778Y-58329658D01*
X132875778Y-58231960D01*
X133630000Y-58231960D01*
G37*
G36*
X133349616Y-57478333D02*
G01*
X133429423Y-57496292D01*
X133495167Y-57524234D01*
X133549216Y-57561514D01*
X133595048Y-57609857D01*
X133627185Y-57663643D01*
X133646701Y-57724012D01*
X133653447Y-57792690D01*
X133646698Y-57861337D01*
X133627178Y-57921629D01*
X133595043Y-57975302D01*
X133549216Y-58023499D01*
X133495191Y-58060613D01*
X133429456Y-58088444D01*
X133349641Y-58106336D01*
X133252827Y-58112770D01*
X133156079Y-58106337D01*
X133076316Y-58088445D01*
X133010619Y-58060616D01*
X132956622Y-58023499D01*
X132910766Y-57975298D01*
X132878613Y-57921624D01*
X132859082Y-57861333D01*
X132852330Y-57792690D01*
X132852396Y-57792018D01*
X132927740Y-57792018D01*
X132933409Y-57840989D01*
X132949809Y-57883214D01*
X132977113Y-57920262D01*
X133016889Y-57952974D01*
X133062142Y-57977184D01*
X133115560Y-57995380D01*
X133178569Y-58007019D01*
X133252827Y-58011165D01*
X133327154Y-58007017D01*
X133390202Y-57995377D01*
X133443637Y-57977180D01*
X133488888Y-57952974D01*
X133528665Y-57920262D01*
X133555968Y-57883214D01*
X133572368Y-57840989D01*
X133578037Y-57792018D01*
X133572361Y-57743016D01*
X133555953Y-57700841D01*
X133528652Y-57663906D01*
X133488888Y-57631367D01*
X133443656Y-57607296D01*
X133390227Y-57589193D01*
X133327172Y-57577610D01*
X133252827Y-57573482D01*
X133178551Y-57577608D01*
X133115535Y-57589190D01*
X133062123Y-57607293D01*
X133016889Y-57631367D01*
X132977126Y-57663906D01*
X132949824Y-57700841D01*
X132933416Y-57743016D01*
X132927740Y-57792018D01*
X132852396Y-57792018D01*
X132859079Y-57724016D01*
X132878606Y-57663648D01*
X132910760Y-57609861D01*
X132956622Y-57561514D01*
X133010643Y-57524232D01*
X133076349Y-57496290D01*
X133156105Y-57478333D01*
X133252827Y-57471877D01*
X133349616Y-57478333D01*
G37*
G36*
X133630000Y-57127983D02*
G01*
X132969567Y-57127983D01*
X133030444Y-57280390D01*
X132946242Y-57280390D01*
X132875778Y-57127983D01*
X132875778Y-57038101D01*
X133630000Y-57038101D01*
X133630000Y-57127983D01*
G37*
G36*
X160329002Y-64769748D02*
G01*
X160329002Y-64859630D01*
X160324300Y-64859630D01*
X160281250Y-64852399D01*
X160234785Y-64828977D01*
X160207120Y-64806164D01*
X160184929Y-64778664D01*
X160167862Y-64745874D01*
X160152203Y-64690496D01*
X160146552Y-64621859D01*
X160153087Y-64552165D01*
X160171953Y-64490964D01*
X160202876Y-64436566D01*
X160246692Y-64387814D01*
X160298763Y-64350400D01*
X160364134Y-64322050D01*
X160445731Y-64303602D01*
X160547172Y-64296894D01*
X160647756Y-64303553D01*
X160729007Y-64321900D01*
X160794412Y-64350153D01*
X160846796Y-64387508D01*
X160890886Y-64436120D01*
X160922034Y-64490605D01*
X160941066Y-64552160D01*
X160947669Y-64622531D01*
X160941861Y-64690535D01*
X160925687Y-64745874D01*
X160908133Y-64778532D01*
X160885081Y-64806048D01*
X160856078Y-64828977D01*
X160807890Y-64852458D01*
X160764548Y-64859630D01*
X160764548Y-64769748D01*
X160769249Y-64769748D01*
X160795340Y-64765553D01*
X160821456Y-64752407D01*
X160843331Y-64731771D01*
X160859497Y-64703131D01*
X160868844Y-64669268D01*
X160872259Y-64626256D01*
X160866182Y-64570938D01*
X160848946Y-64525192D01*
X160820861Y-64486912D01*
X160780668Y-64454919D01*
X160717252Y-64424705D01*
X160640409Y-64405417D01*
X160547172Y-64398499D01*
X160452951Y-64405488D01*
X160375886Y-64424908D01*
X160312821Y-64455225D01*
X160272903Y-64487341D01*
X160245039Y-64525532D01*
X160227969Y-64570936D01*
X160221962Y-64625584D01*
X160226413Y-64676783D01*
X160238019Y-64712478D01*
X160255179Y-64736775D01*
X160278901Y-64755539D01*
X160303267Y-64766224D01*
X160329002Y-64769748D01*
G37*
G36*
X160336512Y-64947557D02*
G01*
X160336512Y-65045254D01*
X160331810Y-65045254D01*
X160293273Y-65050644D01*
X160265629Y-65065370D01*
X160246020Y-65089340D01*
X160233339Y-65119752D01*
X160225011Y-65158255D01*
X160221962Y-65206699D01*
X160226351Y-65248191D01*
X160238949Y-65283686D01*
X160259637Y-65314471D01*
X160287279Y-65338522D01*
X160319704Y-65352893D01*
X160358433Y-65357885D01*
X160390080Y-65353634D01*
X160416888Y-65341303D01*
X160440071Y-65320455D01*
X160468879Y-65277756D01*
X160502536Y-65207370D01*
X160518290Y-65168536D01*
X160553358Y-65094850D01*
X160583747Y-65049345D01*
X160618742Y-65014339D01*
X160655799Y-64990422D01*
X160696998Y-64975981D01*
X160743909Y-64971004D01*
X160798542Y-64977812D01*
X160846193Y-64997683D01*
X160888623Y-65031210D01*
X160912827Y-65062762D01*
X160931224Y-65103164D01*
X160943263Y-65154476D01*
X160947669Y-65219277D01*
X160941629Y-65296919D01*
X160926122Y-65349737D01*
X160903766Y-65384508D01*
X160872097Y-65411489D01*
X160838424Y-65426969D01*
X160801612Y-65432135D01*
X160796116Y-65432135D01*
X160796116Y-65334438D01*
X160801612Y-65334438D01*
X160819415Y-65330941D01*
X160837943Y-65319600D01*
X160852969Y-65302006D01*
X160864016Y-65275881D01*
X160870118Y-65246024D01*
X160872259Y-65211889D01*
X160867637Y-65165794D01*
X160855178Y-65131681D01*
X160835928Y-65106620D01*
X160810127Y-65087484D01*
X160782713Y-65076347D01*
X160752885Y-65072609D01*
X160723022Y-65076637D01*
X160694633Y-65088852D01*
X160669686Y-65108047D01*
X160649021Y-65133670D01*
X160600600Y-65230085D01*
X160580755Y-65276247D01*
X160544399Y-65347731D01*
X160510650Y-65394521D01*
X160479272Y-65422854D01*
X160442695Y-65443368D01*
X160404734Y-65455445D01*
X160364661Y-65459490D01*
X160309168Y-65452096D01*
X160254569Y-65429387D01*
X160221826Y-65406624D01*
X160195140Y-65378997D01*
X160173968Y-65346039D01*
X160159563Y-65309427D01*
X160150048Y-65262783D01*
X160146552Y-65203829D01*
X160152122Y-65123579D01*
X160167008Y-65063084D01*
X160183914Y-65027683D01*
X160206131Y-64999287D01*
X160233930Y-64976927D01*
X160282678Y-64954937D01*
X160336512Y-64947557D01*
G37*
G36*
X160547904Y-65689567D02*
G01*
X160623314Y-65689567D01*
X160623314Y-65746659D01*
X160629130Y-65808512D01*
X160644136Y-65850218D01*
X160668019Y-65884254D01*
X160696465Y-65909752D01*
X160729686Y-65926290D01*
X160766257Y-65931795D01*
X160797311Y-65927618D01*
X160822723Y-65915661D01*
X160843866Y-65895647D01*
X160859142Y-65870128D01*
X160868797Y-65838844D01*
X160872259Y-65800331D01*
X160869978Y-65766681D01*
X160863344Y-65735973D01*
X160851151Y-65709073D01*
X160833607Y-65690239D01*
X160811897Y-65678228D01*
X160790193Y-65674424D01*
X160784698Y-65674424D01*
X160784698Y-65588450D01*
X160790193Y-65588450D01*
X160827461Y-65593732D01*
X160863144Y-65609850D01*
X160898332Y-65638398D01*
X160923851Y-65675116D01*
X160941079Y-65728634D01*
X160947669Y-65804911D01*
X160941570Y-65877033D01*
X160925214Y-65930855D01*
X160900408Y-65970629D01*
X160865787Y-66001540D01*
X160825800Y-66019829D01*
X160778653Y-66026133D01*
X160739330Y-66022077D01*
X160702998Y-66010075D01*
X160669988Y-65990465D01*
X160640045Y-65962691D01*
X160616099Y-65926702D01*
X160595226Y-65872627D01*
X160573166Y-65931375D01*
X160546806Y-65975957D01*
X160516580Y-66008975D01*
X160479799Y-66033686D01*
X160437159Y-66048771D01*
X160387070Y-66054038D01*
X160328858Y-66047077D01*
X160274099Y-66026197D01*
X160221413Y-65990230D01*
X160189833Y-65955936D01*
X160166641Y-65913646D01*
X160151866Y-65861645D01*
X160146552Y-65797583D01*
X160153000Y-65723477D01*
X160170044Y-65670155D01*
X160195584Y-65632414D01*
X160230833Y-65602940D01*
X160267425Y-65586176D01*
X160306531Y-65580635D01*
X160306531Y-65670516D01*
X160301830Y-65670516D01*
X160277472Y-65674732D01*
X160257910Y-65687023D01*
X160241929Y-65708618D01*
X160227376Y-65749993D01*
X160221962Y-65805949D01*
X160226519Y-65850312D01*
X160239487Y-65887587D01*
X160262043Y-65918445D01*
X160295846Y-65941320D01*
X160336131Y-65955025D01*
X160380781Y-65959699D01*
X160425506Y-65953531D01*
X160464638Y-65935380D01*
X160499727Y-65904256D01*
X160524922Y-65864388D01*
X160541636Y-65809585D01*
X160547904Y-65735179D01*
X160547904Y-65689567D01*
G37*
G36*
X160924221Y-117304082D02*
G01*
X160920900Y-117361666D01*
X160912188Y-117403685D01*
X160899553Y-117433653D01*
X160869622Y-117472040D01*
X160827684Y-117502163D01*
X160778727Y-117521180D01*
X160725713Y-117527564D01*
X160682735Y-117523286D01*
X160641144Y-117510406D01*
X160602474Y-117489932D01*
X160567566Y-117462473D01*
X160538263Y-117425975D01*
X160509436Y-117367341D01*
X160483363Y-117403611D01*
X160444040Y-117433408D01*
X160393115Y-117463817D01*
X160170000Y-117583618D01*
X160170000Y-117471632D01*
X160368447Y-117367096D01*
X160435897Y-117323041D01*
X160494354Y-117268056D01*
X160494354Y-117264637D01*
X160569764Y-117264637D01*
X160575029Y-117321137D01*
X160588265Y-117357021D01*
X160610854Y-117385175D01*
X160642793Y-117407336D01*
X160679925Y-117421309D01*
X160719180Y-117425959D01*
X160753402Y-117422143D01*
X160782927Y-117411121D01*
X160808562Y-117393148D01*
X160829944Y-117368073D01*
X160843172Y-117334225D01*
X160848811Y-117271536D01*
X160848811Y-117168039D01*
X160569764Y-117168039D01*
X160569764Y-117264637D01*
X160494354Y-117264637D01*
X160494354Y-117168039D01*
X160170000Y-117168039D01*
X160170000Y-117070341D01*
X160924221Y-117070341D01*
X160924221Y-117304082D01*
G37*
G36*
X160643920Y-117655142D02*
G01*
X160723683Y-117673033D01*
X160789380Y-117700863D01*
X160843377Y-117737979D01*
X160889233Y-117786181D01*
X160921386Y-117839855D01*
X160940917Y-117900146D01*
X160947669Y-117968789D01*
X160940920Y-118037463D01*
X160921393Y-118097830D01*
X160889239Y-118151617D01*
X160843377Y-118199965D01*
X160789356Y-118237247D01*
X160723650Y-118265188D01*
X160643894Y-118283146D01*
X160547172Y-118289602D01*
X160450383Y-118283145D01*
X160370576Y-118265186D01*
X160304832Y-118237244D01*
X160250783Y-118199965D01*
X160204951Y-118151621D01*
X160172814Y-118097835D01*
X160153298Y-118037466D01*
X160146618Y-117969460D01*
X160221962Y-117969460D01*
X160227638Y-118018462D01*
X160244046Y-118060638D01*
X160271347Y-118097573D01*
X160311111Y-118130111D01*
X160356343Y-118154182D01*
X160409772Y-118172285D01*
X160472827Y-118183869D01*
X160547172Y-118187997D01*
X160621448Y-118183870D01*
X160684464Y-118172289D01*
X160737876Y-118154186D01*
X160783110Y-118130111D01*
X160822873Y-118097573D01*
X160850175Y-118060638D01*
X160866583Y-118018462D01*
X160872259Y-117969460D01*
X160866590Y-117920490D01*
X160850190Y-117878265D01*
X160822886Y-117841216D01*
X160783110Y-117808504D01*
X160737857Y-117784295D01*
X160684439Y-117766098D01*
X160621430Y-117754460D01*
X160547172Y-117750314D01*
X160472845Y-117754461D01*
X160409797Y-117766102D01*
X160356362Y-117784299D01*
X160311111Y-117808504D01*
X160271334Y-117841216D01*
X160244031Y-117878265D01*
X160227631Y-117920490D01*
X160221962Y-117969460D01*
X160146618Y-117969460D01*
X160146552Y-117968789D01*
X160153301Y-117900142D01*
X160172821Y-117839850D01*
X160204956Y-117786177D01*
X160250783Y-117737979D01*
X160304808Y-117700865D01*
X160370543Y-117673035D01*
X160450358Y-117655142D01*
X160547172Y-117648709D01*
X160643920Y-117655142D01*
G37*
G36*
X160170000Y-118402930D02*
G01*
X160926175Y-118402930D01*
X160926175Y-118500628D01*
X160252065Y-118500628D01*
X160252065Y-118897278D01*
X160170000Y-118897278D01*
X160170000Y-118402930D01*
G37*
G36*
X160170000Y-118982274D02*
G01*
X160926175Y-118982274D01*
X160926175Y-119079972D01*
X160252065Y-119079972D01*
X160252065Y-119476622D01*
X160170000Y-119476622D01*
X160170000Y-118982274D01*
G37*
G36*
X160479883Y-120559106D02*
G01*
X160404473Y-120559106D01*
X160404473Y-120324633D01*
X160170000Y-120324633D01*
X160170000Y-120250383D01*
X160404473Y-120250383D01*
X160404473Y-120015910D01*
X160479883Y-120015910D01*
X160479883Y-120250383D01*
X160713196Y-120250383D01*
X160713196Y-120324633D01*
X160479883Y-120324633D01*
X160479883Y-120559106D01*
G37*
G36*
X160146552Y-120729038D02*
G01*
X160146552Y-120642210D01*
X160947669Y-121047592D01*
X160947669Y-121131673D01*
X160146552Y-120729038D01*
G37*
G36*
X160439644Y-121193161D02*
G01*
X160515054Y-121193161D01*
X160515054Y-121494068D01*
X160439644Y-121494068D01*
X160439644Y-121193161D01*
G37*
G36*
X160170000Y-101585973D02*
G01*
X160248218Y-101585973D01*
X160288603Y-101589829D01*
X160333001Y-101602067D01*
X160382369Y-101624075D01*
X160427652Y-101653289D01*
X160474537Y-101695204D01*
X160523419Y-101752241D01*
X160563292Y-101803105D01*
X160639318Y-101894642D01*
X160681261Y-101933653D01*
X160721755Y-101954490D01*
X160762227Y-101961130D01*
X160789967Y-101957157D01*
X160815528Y-101945202D01*
X160839774Y-101924249D01*
X160857695Y-101897749D01*
X160869207Y-101863306D01*
X160873419Y-101818614D01*
X160870103Y-101777477D01*
X160861302Y-101747379D01*
X160848140Y-101725680D01*
X160820539Y-101702506D01*
X160791659Y-101695394D01*
X160791659Y-101605512D01*
X160796421Y-101605512D01*
X160834090Y-101612079D01*
X160870915Y-101632623D01*
X160902210Y-101663849D01*
X160927458Y-101705652D01*
X160943030Y-101755204D01*
X160948829Y-101821545D01*
X160944605Y-101887144D01*
X160933236Y-101937504D01*
X160916188Y-101975724D01*
X160894180Y-102004300D01*
X160855024Y-102034785D01*
X160811895Y-102052726D01*
X160763326Y-102058827D01*
X160723632Y-102054640D01*
X160682177Y-102041608D01*
X160642425Y-102017931D01*
X160596264Y-101973953D01*
X160529708Y-101891887D01*
X160504246Y-101854762D01*
X160449305Y-101783477D01*
X160399376Y-101734417D01*
X160353676Y-101703036D01*
X160311184Y-101685779D01*
X160270628Y-101680312D01*
X160252065Y-101680312D01*
X160252065Y-102072505D01*
X160170000Y-102072505D01*
X160170000Y-101585973D01*
G37*
G36*
X160336512Y-102213189D02*
G01*
X160336512Y-102310886D01*
X160331810Y-102310886D01*
X160293273Y-102316276D01*
X160265629Y-102331001D01*
X160246020Y-102354972D01*
X160233339Y-102385384D01*
X160225011Y-102423886D01*
X160221962Y-102472330D01*
X160226351Y-102513823D01*
X160238949Y-102549317D01*
X160259637Y-102580102D01*
X160287279Y-102604154D01*
X160319704Y-102618525D01*
X160358433Y-102623517D01*
X160390080Y-102619265D01*
X160416888Y-102606935D01*
X160440071Y-102586086D01*
X160468879Y-102543388D01*
X160502536Y-102473002D01*
X160518290Y-102434167D01*
X160553358Y-102360482D01*
X160583747Y-102314977D01*
X160618742Y-102279971D01*
X160655799Y-102256053D01*
X160696998Y-102241613D01*
X160743909Y-102236636D01*
X160798542Y-102243444D01*
X160846193Y-102263314D01*
X160888623Y-102296842D01*
X160912827Y-102328393D01*
X160931224Y-102368796D01*
X160943263Y-102420107D01*
X160947669Y-102484909D01*
X160941629Y-102562550D01*
X160926122Y-102615368D01*
X160903766Y-102650139D01*
X160872097Y-102677121D01*
X160838424Y-102692601D01*
X160801612Y-102697766D01*
X160796116Y-102697766D01*
X160796116Y-102600069D01*
X160801612Y-102600069D01*
X160819415Y-102596573D01*
X160837943Y-102585232D01*
X160852969Y-102567637D01*
X160864016Y-102541512D01*
X160870118Y-102511656D01*
X160872259Y-102477520D01*
X160867637Y-102431426D01*
X160855178Y-102397313D01*
X160835928Y-102372252D01*
X160810127Y-102353115D01*
X160782713Y-102341978D01*
X160752885Y-102338241D01*
X160723022Y-102342269D01*
X160694633Y-102354483D01*
X160669686Y-102373678D01*
X160649021Y-102399302D01*
X160600600Y-102495717D01*
X160580755Y-102541878D01*
X160544399Y-102613363D01*
X160510650Y-102660153D01*
X160479272Y-102688485D01*
X160442695Y-102709000D01*
X160404734Y-102721077D01*
X160364661Y-102725122D01*
X160309168Y-102717728D01*
X160254569Y-102695019D01*
X160221826Y-102672256D01*
X160195140Y-102644628D01*
X160173968Y-102611671D01*
X160159563Y-102575058D01*
X160150048Y-102528415D01*
X160146552Y-102469460D01*
X160152122Y-102389210D01*
X160167008Y-102328715D01*
X160183914Y-102293314D01*
X160206131Y-102264919D01*
X160233930Y-102242559D01*
X160282678Y-102220569D01*
X160336512Y-102213189D01*
G37*
G36*
X160479883Y-103366015D02*
G01*
X160404473Y-103366015D01*
X160404473Y-103131542D01*
X160170000Y-103131542D01*
X160170000Y-103057292D01*
X160404473Y-103057292D01*
X160404473Y-102822819D01*
X160479883Y-102822819D01*
X160479883Y-103057292D01*
X160713196Y-103057292D01*
X160713196Y-103131542D01*
X160479883Y-103131542D01*
X160479883Y-103366015D01*
G37*
G36*
X160153916Y-61736087D02*
G01*
X160153916Y-61638389D01*
X160908137Y-61638389D01*
X160908137Y-61736087D01*
X160153916Y-61736087D01*
G37*
G36*
X160153916Y-61968606D02*
G01*
X160153916Y-61878724D01*
X160908137Y-61878724D01*
X160908137Y-61976116D01*
X160372208Y-62320193D01*
X160312002Y-62351579D01*
X160371536Y-62351579D01*
X160908137Y-62351579D01*
X160908137Y-62441460D01*
X160153916Y-62441460D01*
X160153916Y-62345411D01*
X160692593Y-62000052D01*
X160752799Y-61968606D01*
X160692593Y-61968606D01*
X160153916Y-61968606D01*
G37*
G36*
X160153916Y-62785354D02*
G01*
X160833888Y-62785354D01*
X160833888Y-62527433D01*
X160909298Y-62527433D01*
X160909298Y-63133156D01*
X160833888Y-63133156D01*
X160833888Y-62883051D01*
X160153916Y-62883051D01*
X160153916Y-62785354D01*
G37*
G36*
X160153916Y-63448717D02*
G01*
X160814348Y-63448717D01*
X160753471Y-63296310D01*
X160837673Y-63296310D01*
X160908137Y-63448717D01*
X160908137Y-63538599D01*
X160153916Y-63538599D01*
X160153916Y-63448717D01*
G37*
X131676727Y-123347698D02*
X131724346Y-123300079D01*
X131724346Y-123300079D02*
X131819584Y-123252460D01*
X131819584Y-123252460D02*
X132010060Y-123347698D01*
X132010060Y-123347698D02*
X132105298Y-123300079D01*
X132105298Y-123300079D02*
X132152917Y-123252460D01*
G36*
X160355643Y-67297543D02*
G01*
X160355643Y-67387425D01*
X160350941Y-67387425D01*
X160307891Y-67380194D01*
X160261426Y-67356772D01*
X160233761Y-67333959D01*
X160211570Y-67306459D01*
X160194503Y-67273669D01*
X160178844Y-67218291D01*
X160173193Y-67149654D01*
X160179728Y-67079960D01*
X160198594Y-67018759D01*
X160229517Y-66964361D01*
X160273333Y-66915609D01*
X160325404Y-66878195D01*
X160390775Y-66849845D01*
X160472372Y-66831397D01*
X160573813Y-66824689D01*
X160674397Y-66831348D01*
X160755648Y-66849695D01*
X160821053Y-66877948D01*
X160873437Y-66915303D01*
X160917527Y-66963915D01*
X160948675Y-67018400D01*
X160967707Y-67079955D01*
X160974310Y-67150326D01*
X160968502Y-67218330D01*
X160952328Y-67273669D01*
X160934774Y-67306327D01*
X160911722Y-67333843D01*
X160882719Y-67356772D01*
X160834531Y-67380253D01*
X160791189Y-67387425D01*
X160791189Y-67297543D01*
X160795890Y-67297543D01*
X160821981Y-67293348D01*
X160848097Y-67280202D01*
X160869972Y-67259566D01*
X160886138Y-67230926D01*
X160895485Y-67197063D01*
X160898900Y-67154051D01*
X160892823Y-67098733D01*
X160875587Y-67052987D01*
X160847502Y-67014707D01*
X160807309Y-66982714D01*
X160743893Y-66952500D01*
X160667050Y-66933212D01*
X160573813Y-66926294D01*
X160479592Y-66933283D01*
X160402527Y-66952703D01*
X160339462Y-66983020D01*
X160299544Y-67015136D01*
X160271680Y-67053327D01*
X160254610Y-67098731D01*
X160248603Y-67153379D01*
X160253054Y-67204578D01*
X160264660Y-67240273D01*
X160281820Y-67264570D01*
X160305542Y-67283334D01*
X160329908Y-67294019D01*
X160355643Y-67297543D01*
G37*
G36*
X160363153Y-67475352D02*
G01*
X160363153Y-67573049D01*
X160358451Y-67573049D01*
X160319914Y-67578439D01*
X160292270Y-67593165D01*
X160272661Y-67617135D01*
X160259980Y-67647547D01*
X160251652Y-67686050D01*
X160248603Y-67734494D01*
X160252992Y-67775986D01*
X160265590Y-67811481D01*
X160286278Y-67842266D01*
X160313920Y-67866317D01*
X160346345Y-67880688D01*
X160385074Y-67885680D01*
X160416721Y-67881429D01*
X160443529Y-67869098D01*
X160466712Y-67848250D01*
X160495520Y-67805551D01*
X160529177Y-67735165D01*
X160544931Y-67696331D01*
X160579999Y-67622645D01*
X160610388Y-67577140D01*
X160645383Y-67542134D01*
X160682440Y-67518217D01*
X160723639Y-67503776D01*
X160770550Y-67498799D01*
X160825183Y-67505607D01*
X160872834Y-67525478D01*
X160915264Y-67559005D01*
X160939468Y-67590557D01*
X160957865Y-67630959D01*
X160969904Y-67682271D01*
X160974310Y-67747072D01*
X160968270Y-67824714D01*
X160952763Y-67877532D01*
X160930407Y-67912303D01*
X160898738Y-67939284D01*
X160865065Y-67954764D01*
X160828253Y-67959930D01*
X160822757Y-67959930D01*
X160822757Y-67862233D01*
X160828253Y-67862233D01*
X160846056Y-67858736D01*
X160864584Y-67847395D01*
X160879610Y-67829801D01*
X160890657Y-67803676D01*
X160896759Y-67773819D01*
X160898900Y-67739684D01*
X160894278Y-67693589D01*
X160881819Y-67659476D01*
X160862569Y-67634415D01*
X160836768Y-67615279D01*
X160809354Y-67604142D01*
X160779526Y-67600404D01*
X160749663Y-67604432D01*
X160721274Y-67616647D01*
X160696327Y-67635842D01*
X160675662Y-67661465D01*
X160627241Y-67757880D01*
X160607396Y-67804042D01*
X160571040Y-67875526D01*
X160537291Y-67922316D01*
X160505913Y-67950649D01*
X160469336Y-67971163D01*
X160431375Y-67983240D01*
X160391302Y-67987285D01*
X160335809Y-67979891D01*
X160281210Y-67957182D01*
X160248467Y-67934419D01*
X160221781Y-67906792D01*
X160200609Y-67873834D01*
X160186204Y-67837222D01*
X160176689Y-67790578D01*
X160173193Y-67731624D01*
X160178763Y-67651374D01*
X160193649Y-67590879D01*
X160210555Y-67555478D01*
X160232772Y-67527082D01*
X160260571Y-67504722D01*
X160309319Y-67482732D01*
X160363153Y-67475352D01*
G37*
G36*
X160196641Y-68112337D02*
G01*
X160274859Y-68112337D01*
X160315244Y-68116193D01*
X160359642Y-68128431D01*
X160409010Y-68150439D01*
X160454293Y-68179653D01*
X160501178Y-68221569D01*
X160550060Y-68278606D01*
X160589933Y-68329469D01*
X160665959Y-68421007D01*
X160707902Y-68460017D01*
X160748396Y-68480855D01*
X160788868Y-68487494D01*
X160816608Y-68483522D01*
X160842169Y-68471566D01*
X160866415Y-68450614D01*
X160884336Y-68424114D01*
X160895848Y-68389671D01*
X160900060Y-68344979D01*
X160896744Y-68303842D01*
X160887943Y-68273743D01*
X160874781Y-68252044D01*
X160847180Y-68228870D01*
X160818300Y-68221758D01*
X160818300Y-68131877D01*
X160823062Y-68131877D01*
X160860731Y-68138443D01*
X160897556Y-68158988D01*
X160928851Y-68190213D01*
X160954099Y-68232016D01*
X160969671Y-68281569D01*
X160975470Y-68347910D01*
X160971246Y-68413509D01*
X160959877Y-68463869D01*
X160942829Y-68502089D01*
X160920821Y-68530664D01*
X160881665Y-68561150D01*
X160838536Y-68579091D01*
X160789967Y-68585192D01*
X160750273Y-68581005D01*
X160708818Y-68567972D01*
X160669066Y-68544295D01*
X160622905Y-68500317D01*
X160556349Y-68418252D01*
X160530887Y-68381127D01*
X160475946Y-68309841D01*
X160426017Y-68260782D01*
X160380317Y-68229400D01*
X160337825Y-68212143D01*
X160297269Y-68206676D01*
X160278706Y-68206676D01*
X160278706Y-68598869D01*
X160196641Y-68598869D01*
X160196641Y-68112337D01*
G37*
G36*
X143118039Y-55280000D02*
G01*
X143020341Y-55280000D01*
X143020341Y-54525778D01*
X143118039Y-54525778D01*
X143118039Y-55280000D01*
G37*
G36*
X143276308Y-55280000D02*
G01*
X143276308Y-55201781D01*
X143280164Y-55161396D01*
X143292402Y-55116998D01*
X143314410Y-55067630D01*
X143343624Y-55022347D01*
X143385539Y-54975462D01*
X143442576Y-54926580D01*
X143493440Y-54886707D01*
X143584977Y-54810681D01*
X143623988Y-54768738D01*
X143644825Y-54728244D01*
X143651465Y-54687772D01*
X143647492Y-54660032D01*
X143635537Y-54634471D01*
X143614584Y-54610225D01*
X143588084Y-54592304D01*
X143553641Y-54580792D01*
X143508949Y-54576580D01*
X143467812Y-54579896D01*
X143437714Y-54588697D01*
X143416015Y-54601859D01*
X143392841Y-54629460D01*
X143385729Y-54658340D01*
X143295847Y-54658340D01*
X143295847Y-54653578D01*
X143302414Y-54615909D01*
X143322958Y-54579084D01*
X143354184Y-54547789D01*
X143395987Y-54522541D01*
X143445539Y-54506969D01*
X143511880Y-54501170D01*
X143577479Y-54505394D01*
X143627839Y-54516763D01*
X143666059Y-54533811D01*
X143694635Y-54555819D01*
X143725120Y-54594975D01*
X143743061Y-54638104D01*
X143749162Y-54686673D01*
X143744975Y-54726367D01*
X143731943Y-54767822D01*
X143708266Y-54807574D01*
X143664288Y-54853735D01*
X143582222Y-54920291D01*
X143545097Y-54945753D01*
X143473811Y-55000694D01*
X143424752Y-55050623D01*
X143393371Y-55096323D01*
X143376114Y-55138815D01*
X143370647Y-55179371D01*
X143370647Y-55197934D01*
X143762840Y-55197934D01*
X143762840Y-55280000D01*
X143276308Y-55280000D01*
G37*
G36*
X144372470Y-55120997D02*
G01*
X144462351Y-55120997D01*
X144462351Y-55125699D01*
X144455120Y-55168749D01*
X144431699Y-55215214D01*
X144408885Y-55242879D01*
X144381385Y-55265070D01*
X144348595Y-55282137D01*
X144293217Y-55297796D01*
X144224581Y-55303447D01*
X144154887Y-55296912D01*
X144093685Y-55278046D01*
X144039288Y-55247123D01*
X143990535Y-55203307D01*
X143953121Y-55151236D01*
X143924772Y-55085865D01*
X143906324Y-55004268D01*
X143899616Y-54902827D01*
X143906274Y-54802243D01*
X143924621Y-54720992D01*
X143952875Y-54655587D01*
X143990230Y-54603203D01*
X144038842Y-54559113D01*
X144093327Y-54527965D01*
X144154881Y-54508933D01*
X144225252Y-54502330D01*
X144293257Y-54508138D01*
X144348595Y-54524312D01*
X144381254Y-54541866D01*
X144408770Y-54564918D01*
X144431699Y-54593921D01*
X144455180Y-54642109D01*
X144462351Y-54685451D01*
X144372470Y-54685451D01*
X144372470Y-54680750D01*
X144368275Y-54654659D01*
X144355129Y-54628543D01*
X144334493Y-54606668D01*
X144305853Y-54590502D01*
X144271989Y-54581155D01*
X144228977Y-54577740D01*
X144173660Y-54583817D01*
X144127914Y-54601053D01*
X144089633Y-54629138D01*
X144057641Y-54669331D01*
X144027426Y-54732747D01*
X144008138Y-54809590D01*
X144001221Y-54902827D01*
X144008210Y-54997048D01*
X144027630Y-55074113D01*
X144057946Y-55137178D01*
X144090063Y-55177096D01*
X144128254Y-55204960D01*
X144173657Y-55222030D01*
X144228306Y-55228037D01*
X144279505Y-55223586D01*
X144315199Y-55211980D01*
X144339497Y-55194820D01*
X144358261Y-55171098D01*
X144368945Y-55146732D01*
X144372470Y-55120997D01*
G37*
G36*
X133680000Y-63431960D02*
G01*
X133680000Y-63529658D01*
X132925778Y-63529658D01*
X132925778Y-63431960D01*
X133680000Y-63431960D01*
G37*
G36*
X133399616Y-62678333D02*
G01*
X133479423Y-62696292D01*
X133545167Y-62724234D01*
X133599216Y-62761514D01*
X133645048Y-62809857D01*
X133677185Y-62863643D01*
X133696701Y-62924012D01*
X133703447Y-62992690D01*
X133696698Y-63061337D01*
X133677178Y-63121629D01*
X133645043Y-63175302D01*
X133599216Y-63223499D01*
X133545191Y-63260613D01*
X133479456Y-63288444D01*
X133399641Y-63306336D01*
X133302827Y-63312770D01*
X133206079Y-63306337D01*
X133126316Y-63288445D01*
X133060619Y-63260616D01*
X133006622Y-63223499D01*
X132960766Y-63175298D01*
X132928613Y-63121624D01*
X132909082Y-63061333D01*
X132902330Y-62992690D01*
X132902396Y-62992018D01*
X132977740Y-62992018D01*
X132983409Y-63040989D01*
X132999809Y-63083214D01*
X133027113Y-63120262D01*
X133066889Y-63152974D01*
X133112142Y-63177184D01*
X133165560Y-63195380D01*
X133228569Y-63207019D01*
X133302827Y-63211165D01*
X133377154Y-63207017D01*
X133440202Y-63195377D01*
X133493637Y-63177180D01*
X133538888Y-63152974D01*
X133578665Y-63120262D01*
X133605968Y-63083214D01*
X133622368Y-63040989D01*
X133628037Y-62992018D01*
X133622361Y-62943016D01*
X133605953Y-62900841D01*
X133578652Y-62863906D01*
X133538888Y-62831367D01*
X133493656Y-62807296D01*
X133440227Y-62789193D01*
X133377172Y-62777610D01*
X133302827Y-62773482D01*
X133228551Y-62777608D01*
X133165535Y-62789190D01*
X133112123Y-62807293D01*
X133066889Y-62831367D01*
X133027126Y-62863906D01*
X132999824Y-62900841D01*
X132983416Y-62943016D01*
X132977740Y-62992018D01*
X132902396Y-62992018D01*
X132909079Y-62924016D01*
X132928606Y-62863648D01*
X132960760Y-62809861D01*
X133006622Y-62761514D01*
X133060643Y-62724232D01*
X133126349Y-62696290D01*
X133206105Y-62678333D01*
X133302827Y-62671877D01*
X133399616Y-62678333D01*
G37*
G36*
X133302095Y-62437892D02*
G01*
X133226685Y-62437892D01*
X133226685Y-62380800D01*
X133220869Y-62318947D01*
X133205863Y-62277241D01*
X133181980Y-62243205D01*
X133153534Y-62217707D01*
X133120313Y-62201169D01*
X133083742Y-62195664D01*
X133052688Y-62199841D01*
X133027276Y-62211798D01*
X133006133Y-62231812D01*
X132990857Y-62257331D01*
X132981202Y-62288615D01*
X132977740Y-62327128D01*
X132980021Y-62360778D01*
X132986655Y-62391486D01*
X132998848Y-62418386D01*
X133016392Y-62437220D01*
X133038102Y-62449231D01*
X133059806Y-62453035D01*
X133065301Y-62453035D01*
X133065301Y-62539009D01*
X133059806Y-62539009D01*
X133022538Y-62533727D01*
X132986855Y-62517609D01*
X132951667Y-62489061D01*
X132926148Y-62452343D01*
X132908920Y-62398825D01*
X132902330Y-62322548D01*
X132908429Y-62250426D01*
X132924785Y-62196603D01*
X132949591Y-62156830D01*
X132984212Y-62125918D01*
X133024199Y-62107630D01*
X133071346Y-62101325D01*
X133110669Y-62105382D01*
X133147001Y-62117384D01*
X133180011Y-62136993D01*
X133209954Y-62164767D01*
X133233900Y-62200756D01*
X133254773Y-62254832D01*
X133276833Y-62196084D01*
X133303193Y-62151502D01*
X133333419Y-62118483D01*
X133370200Y-62093773D01*
X133412840Y-62078688D01*
X133462929Y-62073421D01*
X133521141Y-62080381D01*
X133575900Y-62101262D01*
X133628586Y-62137229D01*
X133660166Y-62171523D01*
X133683358Y-62213813D01*
X133698133Y-62265813D01*
X133703447Y-62329876D01*
X133696999Y-62403982D01*
X133679955Y-62457304D01*
X133654415Y-62495045D01*
X133619166Y-62524518D01*
X133582574Y-62541282D01*
X133543468Y-62546824D01*
X133543468Y-62456943D01*
X133548169Y-62456943D01*
X133572527Y-62452727D01*
X133592089Y-62440436D01*
X133608070Y-62418841D01*
X133622623Y-62377466D01*
X133628037Y-62321510D01*
X133623480Y-62277147D01*
X133610512Y-62239872D01*
X133587956Y-62209014D01*
X133554153Y-62186139D01*
X133513868Y-62172434D01*
X133469218Y-62167759D01*
X133424493Y-62173928D01*
X133385361Y-62192078D01*
X133350272Y-62223203D01*
X133325077Y-62263071D01*
X133308363Y-62317874D01*
X133302095Y-62392280D01*
X133302095Y-62437892D01*
G37*
G36*
X134711666Y-54529099D02*
G01*
X134753685Y-54537811D01*
X134783653Y-54550446D01*
X134822040Y-54580377D01*
X134852163Y-54622315D01*
X134871180Y-54671272D01*
X134877564Y-54724286D01*
X134873286Y-54767264D01*
X134860406Y-54808855D01*
X134839932Y-54847525D01*
X134812473Y-54882433D01*
X134775975Y-54911736D01*
X134717341Y-54940563D01*
X134753611Y-54966636D01*
X134783408Y-55005959D01*
X134813817Y-55056884D01*
X134933618Y-55280000D01*
X134821632Y-55280000D01*
X134717096Y-55081552D01*
X134673041Y-55014102D01*
X134618056Y-54955645D01*
X134518039Y-54955645D01*
X134518039Y-55280000D01*
X134420341Y-55280000D01*
X134420341Y-54880235D01*
X134518039Y-54880235D01*
X134614637Y-54880235D01*
X134671137Y-54874970D01*
X134707021Y-54861734D01*
X134735175Y-54839145D01*
X134757336Y-54807206D01*
X134771309Y-54770074D01*
X134775959Y-54730819D01*
X134772143Y-54696597D01*
X134761121Y-54667072D01*
X134743148Y-54641437D01*
X134718073Y-54620055D01*
X134684225Y-54606827D01*
X134621536Y-54601188D01*
X134518039Y-54601188D01*
X134518039Y-54880235D01*
X134420341Y-54880235D01*
X134420341Y-54525778D01*
X134654082Y-54525778D01*
X134711666Y-54529099D01*
G37*
G36*
X135659324Y-55280000D02*
G01*
X135553384Y-55280000D01*
X135475471Y-55072882D01*
X135143239Y-55072882D01*
X135057754Y-55280000D01*
X134966835Y-55280000D01*
X135082595Y-54997472D01*
X135172609Y-54997472D01*
X135446039Y-54997472D01*
X135314148Y-54646983D01*
X135172609Y-54997472D01*
X135082595Y-54997472D01*
X135275863Y-54525778D01*
X135374293Y-54525778D01*
X135659324Y-55280000D01*
G37*
G36*
X136052926Y-54530329D02*
G01*
X136124321Y-54545097D01*
X136173272Y-54566139D01*
X136215835Y-54597869D01*
X136252304Y-54639513D01*
X136282937Y-54692595D01*
X136304153Y-54750581D01*
X136317687Y-54818954D01*
X136322505Y-54899591D01*
X136318206Y-54975260D01*
X136306014Y-55040942D01*
X136286723Y-55098039D01*
X136258544Y-55150647D01*
X136222811Y-55194655D01*
X136179073Y-55231029D01*
X136128594Y-55256399D01*
X136059257Y-55273537D01*
X135965544Y-55280000D01*
X135744138Y-55280000D01*
X135744138Y-55197934D01*
X135841835Y-55197934D01*
X135957056Y-55197934D01*
X136025562Y-55193857D01*
X136076050Y-55183106D01*
X136112517Y-55167404D01*
X136144128Y-55143783D01*
X136170872Y-55112271D01*
X136192934Y-55071538D01*
X136207781Y-55027091D01*
X136217421Y-54973136D01*
X136220900Y-54907896D01*
X136217775Y-54842190D01*
X136208999Y-54786061D01*
X136195315Y-54738208D01*
X136174483Y-54693658D01*
X136148704Y-54659385D01*
X136117951Y-54633733D01*
X136081583Y-54616577D01*
X136028818Y-54604632D01*
X135954370Y-54600027D01*
X135841835Y-54600027D01*
X135841835Y-55197934D01*
X135744138Y-55197934D01*
X135744138Y-54524617D01*
X135951927Y-54524617D01*
X136052926Y-54530329D01*
G37*
G36*
X136538415Y-55280000D02*
G01*
X136440718Y-55280000D01*
X136440718Y-54525778D01*
X136538415Y-54525778D01*
X136538415Y-55280000D01*
G37*
G36*
X137046360Y-54509079D02*
G01*
X137106728Y-54528606D01*
X137160515Y-54560760D01*
X137208862Y-54606622D01*
X137246144Y-54660643D01*
X137274085Y-54726349D01*
X137292043Y-54806105D01*
X137298499Y-54902827D01*
X137292042Y-54999616D01*
X137274084Y-55079423D01*
X137246142Y-55145167D01*
X137208862Y-55199216D01*
X137160519Y-55245048D01*
X137106733Y-55277185D01*
X137046364Y-55296701D01*
X136977686Y-55303447D01*
X136909039Y-55296698D01*
X136848747Y-55277178D01*
X136795074Y-55245043D01*
X136746877Y-55199216D01*
X136709763Y-55145191D01*
X136681932Y-55079456D01*
X136664040Y-54999641D01*
X136657606Y-54902827D01*
X136759211Y-54902827D01*
X136763359Y-54977154D01*
X136774999Y-55040202D01*
X136793196Y-55093637D01*
X136817402Y-55138888D01*
X136850113Y-55178665D01*
X136887162Y-55205968D01*
X136929387Y-55222368D01*
X136978358Y-55228037D01*
X137027359Y-55222361D01*
X137069535Y-55205953D01*
X137106470Y-55178652D01*
X137139009Y-55138888D01*
X137163079Y-55093656D01*
X137181183Y-55040227D01*
X137192766Y-54977172D01*
X137196894Y-54902827D01*
X137192767Y-54828551D01*
X137181186Y-54765535D01*
X137163083Y-54712123D01*
X137139009Y-54666889D01*
X137106470Y-54627126D01*
X137069535Y-54599824D01*
X137027359Y-54583416D01*
X136978358Y-54577740D01*
X136929387Y-54583409D01*
X136887162Y-54599809D01*
X136850113Y-54627113D01*
X136817402Y-54666889D01*
X136793192Y-54712142D01*
X136774996Y-54765560D01*
X136763357Y-54828569D01*
X136759211Y-54902827D01*
X136657606Y-54902827D01*
X136664039Y-54806079D01*
X136681930Y-54726316D01*
X136709760Y-54660619D01*
X136746877Y-54606622D01*
X136795078Y-54560766D01*
X136848752Y-54528613D01*
X136909043Y-54509082D01*
X136977686Y-54502330D01*
X137046360Y-54509079D01*
G37*
G36*
X129609750Y-89579323D02*
G01*
X129663632Y-89588251D01*
X129698002Y-89600446D01*
X129728453Y-89619601D01*
X129752997Y-89643455D01*
X129772252Y-89672437D01*
X129790629Y-89722503D01*
X129797103Y-89782773D01*
X129792444Y-89834664D01*
X129778918Y-89881003D01*
X129756678Y-89922879D01*
X129725174Y-89961071D01*
X129687307Y-89991008D01*
X129640354Y-90013380D01*
X129582353Y-90027791D01*
X129510790Y-90033000D01*
X129418039Y-90033000D01*
X129418039Y-90331953D01*
X129320341Y-90331953D01*
X129320341Y-89957590D01*
X129418039Y-89957590D01*
X129483496Y-89957590D01*
X129551236Y-89953379D01*
X129599332Y-89942437D01*
X129632532Y-89926694D01*
X129654588Y-89907093D01*
X129677164Y-89871573D01*
X129690798Y-89831793D01*
X129695498Y-89786559D01*
X129691515Y-89747010D01*
X129680334Y-89714780D01*
X129662404Y-89688312D01*
X129637303Y-89669667D01*
X129595958Y-89656460D01*
X129531245Y-89651188D01*
X129418039Y-89651188D01*
X129418039Y-89957590D01*
X129320341Y-89957590D01*
X129320341Y-89575778D01*
X129529413Y-89575778D01*
X129609750Y-89579323D01*
G37*
G36*
X130181053Y-90330000D02*
G01*
X130083356Y-90330000D01*
X130083356Y-89973893D01*
X129839296Y-89573824D01*
X129953480Y-89573824D01*
X130142096Y-89879188D01*
X130328026Y-89573824D01*
X130423037Y-89573824D01*
X130181053Y-89973893D01*
X130181053Y-90330000D01*
G37*
G36*
X130626064Y-89952095D02*
G01*
X130626064Y-89876685D01*
X130683155Y-89876685D01*
X130745009Y-89870869D01*
X130786714Y-89855863D01*
X130820751Y-89831980D01*
X130846249Y-89803534D01*
X130862787Y-89770313D01*
X130868292Y-89733742D01*
X130864114Y-89702688D01*
X130852157Y-89677276D01*
X130832144Y-89656133D01*
X130806625Y-89640857D01*
X130775341Y-89631202D01*
X130736828Y-89627740D01*
X130703178Y-89630021D01*
X130672470Y-89636655D01*
X130645570Y-89648848D01*
X130626735Y-89666392D01*
X130614725Y-89688102D01*
X130610921Y-89709806D01*
X130610921Y-89715301D01*
X130524947Y-89715301D01*
X130524947Y-89709806D01*
X130530229Y-89672538D01*
X130546347Y-89636855D01*
X130574895Y-89601667D01*
X130611613Y-89576148D01*
X130665131Y-89558920D01*
X130741407Y-89552330D01*
X130813529Y-89558429D01*
X130867352Y-89574785D01*
X130907126Y-89599591D01*
X130938037Y-89634212D01*
X130956326Y-89674199D01*
X130962630Y-89721346D01*
X130958573Y-89760669D01*
X130946571Y-89797001D01*
X130926962Y-89830011D01*
X130899188Y-89859954D01*
X130863199Y-89883900D01*
X130809124Y-89904773D01*
X130867872Y-89926833D01*
X130912454Y-89953193D01*
X130945472Y-89983419D01*
X130970183Y-90020200D01*
X130985268Y-90062840D01*
X130990535Y-90112929D01*
X130983574Y-90171141D01*
X130962694Y-90225900D01*
X130926727Y-90278586D01*
X130892433Y-90310166D01*
X130850143Y-90333358D01*
X130798142Y-90348133D01*
X130734080Y-90353447D01*
X130659974Y-90346999D01*
X130606652Y-90329955D01*
X130568911Y-90304415D01*
X130539437Y-90269166D01*
X130522673Y-90232574D01*
X130517131Y-90193468D01*
X130607013Y-90193468D01*
X130607013Y-90198169D01*
X130611229Y-90222527D01*
X130623520Y-90242089D01*
X130645115Y-90258070D01*
X130686490Y-90272623D01*
X130742445Y-90278037D01*
X130786808Y-90273480D01*
X130824084Y-90260512D01*
X130854942Y-90237956D01*
X130877817Y-90204153D01*
X130891522Y-90163868D01*
X130896196Y-90119218D01*
X130890028Y-90074493D01*
X130871877Y-90035361D01*
X130840753Y-90000272D01*
X130800885Y-89975077D01*
X130746082Y-89958363D01*
X130671676Y-89952095D01*
X130626064Y-89952095D01*
G37*
G36*
X160416463Y-106828214D02*
G01*
X160456423Y-106840160D01*
X160495881Y-106860580D01*
X160530615Y-106888145D01*
X160560951Y-106924482D01*
X160586983Y-106971039D01*
X160620030Y-106918941D01*
X160657447Y-106883967D01*
X160701917Y-106862324D01*
X160753251Y-106854963D01*
X160804745Y-106862151D01*
X160853147Y-106883906D01*
X160881401Y-106905835D01*
X160904825Y-106933512D01*
X160923672Y-106967742D01*
X160941683Y-107023754D01*
X160947669Y-107081864D01*
X160941578Y-107140530D01*
X160923306Y-107196598D01*
X160904266Y-107230862D01*
X160880833Y-107258516D01*
X160852780Y-107280373D01*
X160804686Y-107302164D01*
X160753251Y-107309377D01*
X160701921Y-107302001D01*
X160657447Y-107280312D01*
X160620034Y-107245386D01*
X160586983Y-107193300D01*
X160561005Y-107239397D01*
X160530674Y-107275621D01*
X160495881Y-107303332D01*
X160456398Y-107324003D01*
X160416442Y-107336083D01*
X160375347Y-107340090D01*
X160336747Y-107336613D01*
X160298438Y-107326068D01*
X160259881Y-107307972D01*
X160225083Y-107283759D01*
X160197030Y-107254967D01*
X160175068Y-107221205D01*
X160159900Y-107183689D01*
X160150093Y-107137820D01*
X160146552Y-107081864D01*
X160221962Y-107081864D01*
X160227023Y-107124318D01*
X160242234Y-107164480D01*
X160267123Y-107198954D01*
X160301341Y-107224563D01*
X160341128Y-107240544D01*
X160381453Y-107245751D01*
X160423095Y-107240312D01*
X160464312Y-107223586D01*
X160500076Y-107197229D01*
X160526228Y-107163136D01*
X160542516Y-107123560D01*
X160547904Y-107081864D01*
X160623314Y-107081864D01*
X160627621Y-107118800D01*
X160640015Y-107150189D01*
X160660561Y-107177302D01*
X160687301Y-107198500D01*
X160716291Y-107210864D01*
X160748489Y-107215038D01*
X160783560Y-107210440D01*
X160812957Y-107197180D01*
X160838065Y-107174921D01*
X160857115Y-107146674D01*
X160868416Y-107115944D01*
X160872259Y-107081864D01*
X160868458Y-107048661D01*
X160857195Y-107018215D01*
X160838065Y-106989724D01*
X160812935Y-106967280D01*
X160783538Y-106953929D01*
X160748489Y-106949302D01*
X160716267Y-106953441D01*
X160687275Y-106965695D01*
X160660561Y-106986671D01*
X160640029Y-107013598D01*
X160627630Y-107044897D01*
X160623314Y-107081864D01*
X160547904Y-107081864D01*
X160542535Y-107040697D01*
X160526228Y-107001203D01*
X160500083Y-106967148D01*
X160464312Y-106940753D01*
X160423095Y-106924027D01*
X160381453Y-106918588D01*
X160341125Y-106923781D01*
X160301341Y-106939715D01*
X160267120Y-106965373D01*
X160242234Y-106999860D01*
X160227005Y-107039940D01*
X160221962Y-107081864D01*
X160146552Y-107081864D01*
X160150082Y-107026372D01*
X160159879Y-106980685D01*
X160175068Y-106943135D01*
X160197030Y-106909373D01*
X160225083Y-106880581D01*
X160259881Y-106856367D01*
X160298438Y-106838271D01*
X160336747Y-106827727D01*
X160375347Y-106824249D01*
X160416463Y-106828214D01*
G37*
G36*
X160926175Y-108028977D02*
G01*
X160926175Y-108119897D01*
X160170000Y-107812944D01*
X160170000Y-107714515D01*
X160926175Y-107427407D01*
X160926175Y-107534080D01*
X160292121Y-107773316D01*
X160926175Y-108028977D01*
G37*
G36*
X160329002Y-69769748D02*
G01*
X160329002Y-69859630D01*
X160324300Y-69859630D01*
X160281250Y-69852399D01*
X160234785Y-69828977D01*
X160207120Y-69806164D01*
X160184929Y-69778664D01*
X160167862Y-69745874D01*
X160152203Y-69690496D01*
X160146552Y-69621859D01*
X160153087Y-69552165D01*
X160171953Y-69490964D01*
X160202876Y-69436566D01*
X160246692Y-69387814D01*
X160298763Y-69350400D01*
X160364134Y-69322050D01*
X160445731Y-69303602D01*
X160547172Y-69296894D01*
X160647756Y-69303553D01*
X160729007Y-69321900D01*
X160794412Y-69350153D01*
X160846796Y-69387508D01*
X160890886Y-69436120D01*
X160922034Y-69490605D01*
X160941066Y-69552160D01*
X160947669Y-69622531D01*
X160941861Y-69690535D01*
X160925687Y-69745874D01*
X160908133Y-69778532D01*
X160885081Y-69806048D01*
X160856078Y-69828977D01*
X160807890Y-69852458D01*
X160764548Y-69859630D01*
X160764548Y-69769748D01*
X160769249Y-69769748D01*
X160795340Y-69765553D01*
X160821456Y-69752407D01*
X160843331Y-69731771D01*
X160859497Y-69703131D01*
X160868844Y-69669268D01*
X160872259Y-69626256D01*
X160866182Y-69570938D01*
X160848946Y-69525192D01*
X160820861Y-69486912D01*
X160780668Y-69454919D01*
X160717252Y-69424705D01*
X160640409Y-69405417D01*
X160547172Y-69398499D01*
X160452951Y-69405488D01*
X160375886Y-69424908D01*
X160312821Y-69455225D01*
X160272903Y-69487341D01*
X160245039Y-69525532D01*
X160227969Y-69570936D01*
X160221962Y-69625584D01*
X160226413Y-69676783D01*
X160238019Y-69712478D01*
X160255179Y-69736775D01*
X160278901Y-69755539D01*
X160303267Y-69766224D01*
X160329002Y-69769748D01*
G37*
G36*
X160336512Y-69947557D02*
G01*
X160336512Y-70045254D01*
X160331810Y-70045254D01*
X160293273Y-70050644D01*
X160265629Y-70065370D01*
X160246020Y-70089340D01*
X160233339Y-70119752D01*
X160225011Y-70158255D01*
X160221962Y-70206699D01*
X160226351Y-70248191D01*
X160238949Y-70283686D01*
X160259637Y-70314471D01*
X160287279Y-70338522D01*
X160319704Y-70352893D01*
X160358433Y-70357885D01*
X160390080Y-70353634D01*
X160416888Y-70341303D01*
X160440071Y-70320455D01*
X160468879Y-70277756D01*
X160502536Y-70207370D01*
X160518290Y-70168536D01*
X160553358Y-70094850D01*
X160583747Y-70049345D01*
X160618742Y-70014339D01*
X160655799Y-69990422D01*
X160696998Y-69975981D01*
X160743909Y-69971004D01*
X160798542Y-69977812D01*
X160846193Y-69997683D01*
X160888623Y-70031210D01*
X160912827Y-70062762D01*
X160931224Y-70103164D01*
X160943263Y-70154476D01*
X160947669Y-70219277D01*
X160941629Y-70296919D01*
X160926122Y-70349737D01*
X160903766Y-70384508D01*
X160872097Y-70411489D01*
X160838424Y-70426969D01*
X160801612Y-70432135D01*
X160796116Y-70432135D01*
X160796116Y-70334438D01*
X160801612Y-70334438D01*
X160819415Y-70330941D01*
X160837943Y-70319600D01*
X160852969Y-70302006D01*
X160864016Y-70275881D01*
X160870118Y-70246024D01*
X160872259Y-70211889D01*
X160867637Y-70165794D01*
X160855178Y-70131681D01*
X160835928Y-70106620D01*
X160810127Y-70087484D01*
X160782713Y-70076347D01*
X160752885Y-70072609D01*
X160723022Y-70076637D01*
X160694633Y-70088852D01*
X160669686Y-70108047D01*
X160649021Y-70133670D01*
X160600600Y-70230085D01*
X160580755Y-70276247D01*
X160544399Y-70347731D01*
X160510650Y-70394521D01*
X160479272Y-70422854D01*
X160442695Y-70443368D01*
X160404734Y-70455445D01*
X160364661Y-70459490D01*
X160309168Y-70452096D01*
X160254569Y-70429387D01*
X160221826Y-70406624D01*
X160195140Y-70378997D01*
X160173968Y-70346039D01*
X160159563Y-70309427D01*
X160150048Y-70262783D01*
X160146552Y-70203829D01*
X160152122Y-70123579D01*
X160167008Y-70063084D01*
X160183914Y-70027683D01*
X160206131Y-69999287D01*
X160233930Y-69976927D01*
X160282678Y-69954937D01*
X160336512Y-69947557D01*
G37*
G36*
X160170000Y-70799476D02*
G01*
X160830432Y-70799476D01*
X160769555Y-70647069D01*
X160853757Y-70647069D01*
X160924221Y-70799476D01*
X160924221Y-70889357D01*
X160170000Y-70889357D01*
X160170000Y-70799476D01*
G37*
G36*
X160203461Y-114859630D02*
G01*
X160170963Y-114778669D01*
X160152485Y-114703198D01*
X160146552Y-114632117D01*
X160152112Y-114558304D01*
X160167513Y-114498424D01*
X160191493Y-114449851D01*
X160225156Y-114407168D01*
X160267946Y-114370092D01*
X160321125Y-114338415D01*
X160379097Y-114316410D01*
X160450531Y-114302087D01*
X160538196Y-114296894D01*
X160637916Y-114302091D01*
X160713842Y-114315960D01*
X160770715Y-114336400D01*
X160822722Y-114366816D01*
X160865706Y-114403723D01*
X160900652Y-114447470D01*
X160926362Y-114497078D01*
X160942172Y-114553134D01*
X160947669Y-114617096D01*
X160942075Y-114682478D01*
X160925992Y-114739767D01*
X160898522Y-114789723D01*
X160860779Y-114827267D01*
X160816147Y-114852035D01*
X160774684Y-114859630D01*
X160769188Y-114859630D01*
X160769188Y-114769748D01*
X160774684Y-114769748D01*
X160799487Y-114764914D01*
X160823471Y-114749659D01*
X160843426Y-114726960D01*
X160859192Y-114696964D01*
X160868855Y-114662911D01*
X160872259Y-114622897D01*
X160866569Y-114570134D01*
X160850344Y-114525816D01*
X160823817Y-114488111D01*
X160785858Y-114455957D01*
X160742075Y-114432310D01*
X160689023Y-114414326D01*
X160624956Y-114402687D01*
X160547843Y-114398499D01*
X160471227Y-114402778D01*
X160407197Y-114414705D01*
X160353809Y-114433213D01*
X160309401Y-114457667D01*
X160270714Y-114490694D01*
X160243886Y-114528604D01*
X160227621Y-114572342D01*
X160221962Y-114623569D01*
X160228845Y-114688559D01*
X160252065Y-114769748D01*
X160466999Y-114769748D01*
X160466999Y-114601160D01*
X160542409Y-114601160D01*
X160542409Y-114859630D01*
X160203461Y-114859630D01*
G37*
G36*
X160170000Y-115080425D02*
G01*
X160170000Y-114990544D01*
X160924221Y-114990544D01*
X160924221Y-115087936D01*
X160388292Y-115432013D01*
X160328086Y-115463398D01*
X160387620Y-115463398D01*
X160924221Y-115463398D01*
X160924221Y-115553279D01*
X160170000Y-115553279D01*
X160170000Y-115457231D01*
X160708677Y-115111871D01*
X160768883Y-115080425D01*
X160708677Y-115080425D01*
X160170000Y-115080425D01*
G37*
G36*
X160925382Y-115901753D02*
G01*
X160919670Y-116002751D01*
X160904902Y-116074147D01*
X160883860Y-116123098D01*
X160852130Y-116165661D01*
X160810486Y-116202129D01*
X160757404Y-116232763D01*
X160699418Y-116253978D01*
X160631045Y-116267512D01*
X160550408Y-116272330D01*
X160474739Y-116268032D01*
X160409057Y-116255839D01*
X160351960Y-116236549D01*
X160299352Y-116208370D01*
X160255344Y-116172636D01*
X160218970Y-116128899D01*
X160193600Y-116078420D01*
X160176462Y-116009082D01*
X160170000Y-115915369D01*
X160170000Y-115906882D01*
X160252065Y-115906882D01*
X160256142Y-115975388D01*
X160266893Y-116025875D01*
X160282595Y-116062342D01*
X160306216Y-116093953D01*
X160337728Y-116120697D01*
X160378461Y-116142759D01*
X160422908Y-116157607D01*
X160476863Y-116167247D01*
X160542103Y-116170725D01*
X160607809Y-116167600D01*
X160663938Y-116158825D01*
X160711791Y-116145141D01*
X160756341Y-116124308D01*
X160790614Y-116098529D01*
X160816266Y-116067777D01*
X160833422Y-116031408D01*
X160845367Y-115978643D01*
X160849972Y-115904195D01*
X160849972Y-115791660D01*
X160252065Y-115791660D01*
X160252065Y-115906882D01*
X160170000Y-115906882D01*
X160170000Y-115693963D01*
X160925382Y-115693963D01*
X160925382Y-115901753D01*
G37*
G36*
X148259630Y-55246538D02*
G01*
X148178669Y-55279036D01*
X148103198Y-55297514D01*
X148032117Y-55303447D01*
X147958304Y-55297887D01*
X147898424Y-55282486D01*
X147849851Y-55258506D01*
X147807168Y-55224843D01*
X147770092Y-55182053D01*
X147738415Y-55128874D01*
X147716410Y-55070902D01*
X147702087Y-54999468D01*
X147696894Y-54911803D01*
X147702091Y-54812083D01*
X147715960Y-54736157D01*
X147736400Y-54679284D01*
X147766816Y-54627277D01*
X147803723Y-54584293D01*
X147847470Y-54549347D01*
X147897078Y-54523637D01*
X147953134Y-54507827D01*
X148017096Y-54502330D01*
X148082478Y-54507924D01*
X148139767Y-54524007D01*
X148189723Y-54551477D01*
X148227267Y-54589220D01*
X148252035Y-54633852D01*
X148259630Y-54675315D01*
X148259630Y-54680811D01*
X148169748Y-54680811D01*
X148169748Y-54675315D01*
X148164914Y-54650512D01*
X148149659Y-54626528D01*
X148126960Y-54606573D01*
X148096964Y-54590807D01*
X148062911Y-54581144D01*
X148022897Y-54577740D01*
X147970134Y-54583430D01*
X147925816Y-54599655D01*
X147888111Y-54626182D01*
X147855957Y-54664141D01*
X147832310Y-54707924D01*
X147814326Y-54760976D01*
X147802687Y-54825043D01*
X147798499Y-54902156D01*
X147802778Y-54978772D01*
X147814705Y-55042802D01*
X147833213Y-55096190D01*
X147857667Y-55140598D01*
X147890694Y-55179285D01*
X147928604Y-55206113D01*
X147972342Y-55222378D01*
X148023569Y-55228037D01*
X148088559Y-55221154D01*
X148169748Y-55197934D01*
X148169748Y-54983000D01*
X148001160Y-54983000D01*
X148001160Y-54907590D01*
X148259630Y-54907590D01*
X148259630Y-55246538D01*
G37*
G36*
X148679952Y-54529323D02*
G01*
X148733834Y-54538251D01*
X148768204Y-54550446D01*
X148798655Y-54569601D01*
X148823200Y-54593455D01*
X148842454Y-54622437D01*
X148860831Y-54672503D01*
X148867306Y-54732773D01*
X148862646Y-54784664D01*
X148849120Y-54831003D01*
X148826880Y-54872879D01*
X148795376Y-54911071D01*
X148757509Y-54941008D01*
X148710556Y-54963380D01*
X148652555Y-54977791D01*
X148580992Y-54983000D01*
X148488241Y-54983000D01*
X148488241Y-55281953D01*
X148390544Y-55281953D01*
X148390544Y-54907590D01*
X148488241Y-54907590D01*
X148553698Y-54907590D01*
X148621438Y-54903379D01*
X148669535Y-54892437D01*
X148702735Y-54876694D01*
X148724790Y-54857093D01*
X148747367Y-54821573D01*
X148761001Y-54781793D01*
X148765701Y-54736559D01*
X148761718Y-54697010D01*
X148750536Y-54664780D01*
X148732606Y-54638312D01*
X148707506Y-54619667D01*
X148666160Y-54606460D01*
X148601448Y-54601188D01*
X148488241Y-54601188D01*
X148488241Y-54907590D01*
X148390544Y-54907590D01*
X148390544Y-54525778D01*
X148599616Y-54525778D01*
X148679952Y-54529323D01*
G37*
G36*
X148950348Y-55113487D02*
G01*
X149048046Y-55113487D01*
X149048046Y-55118189D01*
X149053436Y-55156726D01*
X149068161Y-55184370D01*
X149092131Y-55203979D01*
X149122543Y-55216660D01*
X149161046Y-55224988D01*
X149209490Y-55228037D01*
X149250983Y-55223648D01*
X149286477Y-55211050D01*
X149317262Y-55190362D01*
X149341314Y-55162720D01*
X149355684Y-55130295D01*
X149360676Y-55091566D01*
X149356425Y-55059919D01*
X149344095Y-55033111D01*
X149323246Y-55009928D01*
X149280548Y-54981120D01*
X149210162Y-54947463D01*
X149171327Y-54931709D01*
X149097641Y-54896641D01*
X149052137Y-54866252D01*
X149017130Y-54831257D01*
X148993213Y-54794200D01*
X148978772Y-54753001D01*
X148973796Y-54706090D01*
X148980604Y-54651457D01*
X149000474Y-54603806D01*
X149034002Y-54561376D01*
X149065553Y-54537172D01*
X149105955Y-54518775D01*
X149157267Y-54506736D01*
X149222069Y-54502330D01*
X149299710Y-54508370D01*
X149352528Y-54523877D01*
X149387299Y-54546233D01*
X149414281Y-54577902D01*
X149429760Y-54611575D01*
X149434926Y-54648387D01*
X149434926Y-54653883D01*
X149337229Y-54653883D01*
X149337229Y-54648387D01*
X149333733Y-54630584D01*
X149322391Y-54612056D01*
X149304797Y-54597030D01*
X149278672Y-54585983D01*
X149248815Y-54579881D01*
X149214680Y-54577740D01*
X149168586Y-54582362D01*
X149134472Y-54594821D01*
X149109412Y-54614071D01*
X149090275Y-54639872D01*
X149079138Y-54667286D01*
X149075401Y-54697114D01*
X149079428Y-54726977D01*
X149091643Y-54755366D01*
X149110838Y-54780313D01*
X149136461Y-54800978D01*
X149232876Y-54849399D01*
X149279038Y-54869244D01*
X149350522Y-54905600D01*
X149397313Y-54939349D01*
X149425645Y-54970727D01*
X149446159Y-55007304D01*
X149458237Y-55045265D01*
X149462281Y-55085338D01*
X149454888Y-55140831D01*
X149432178Y-55195430D01*
X149409416Y-55228173D01*
X149381788Y-55254859D01*
X149348831Y-55276031D01*
X149312218Y-55290436D01*
X149265575Y-55299951D01*
X149206620Y-55303447D01*
X149126370Y-55297877D01*
X149065875Y-55282991D01*
X149030474Y-55266085D01*
X149002079Y-55243868D01*
X148979719Y-55216069D01*
X148957728Y-55167321D01*
X148950348Y-55113487D01*
G37*
G36*
X160170000Y-71652407D02*
G01*
X160170000Y-71570341D01*
X160924221Y-71570341D01*
X160924221Y-71666756D01*
X160385605Y-71900802D01*
X160924221Y-72116346D01*
X160924221Y-72211235D01*
X160170000Y-72211235D01*
X160170000Y-72125261D01*
X160619651Y-72125261D01*
X160753801Y-72125261D01*
X160753801Y-72123246D01*
X160618979Y-72075008D01*
X160282962Y-71942568D01*
X160282962Y-71843344D01*
X160620383Y-71697226D01*
X160742871Y-71652407D01*
X160620383Y-71652407D01*
X160170000Y-71652407D01*
G37*
G36*
X160643920Y-72335882D02*
G01*
X160723683Y-72353773D01*
X160789380Y-72381603D01*
X160843377Y-72418719D01*
X160889233Y-72466920D01*
X160921386Y-72520594D01*
X160940917Y-72580885D01*
X160947669Y-72649528D01*
X160940920Y-72718203D01*
X160921393Y-72778570D01*
X160889239Y-72832357D01*
X160843377Y-72880704D01*
X160789356Y-72917986D01*
X160723650Y-72945928D01*
X160643894Y-72963885D01*
X160547172Y-72970341D01*
X160450383Y-72963885D01*
X160370576Y-72945926D01*
X160304832Y-72917984D01*
X160250783Y-72880704D01*
X160204951Y-72832361D01*
X160172814Y-72778575D01*
X160153298Y-72718206D01*
X160146618Y-72650200D01*
X160221962Y-72650200D01*
X160227638Y-72699202D01*
X160244046Y-72741377D01*
X160271347Y-72778312D01*
X160311111Y-72810851D01*
X160356343Y-72834922D01*
X160409772Y-72853025D01*
X160472827Y-72864608D01*
X160547172Y-72868736D01*
X160621448Y-72864610D01*
X160684464Y-72853028D01*
X160737876Y-72834926D01*
X160783110Y-72810851D01*
X160822873Y-72778312D01*
X160850175Y-72741377D01*
X160866583Y-72699202D01*
X160872259Y-72650200D01*
X160866590Y-72601229D01*
X160850190Y-72559004D01*
X160822886Y-72521956D01*
X160783110Y-72489244D01*
X160737857Y-72465034D01*
X160684439Y-72446838D01*
X160621430Y-72435199D01*
X160547172Y-72431053D01*
X160472845Y-72435201D01*
X160409797Y-72446841D01*
X160356362Y-72465038D01*
X160311111Y-72489244D01*
X160271334Y-72521956D01*
X160244031Y-72559004D01*
X160227631Y-72601229D01*
X160221962Y-72650200D01*
X160146618Y-72650200D01*
X160146552Y-72649528D01*
X160153301Y-72580882D01*
X160172821Y-72520589D01*
X160204956Y-72466917D01*
X160250783Y-72418719D01*
X160304808Y-72381605D01*
X160370543Y-72353775D01*
X160450358Y-72335882D01*
X160547172Y-72329448D01*
X160643920Y-72335882D01*
G37*
G36*
X160336512Y-73064131D02*
G01*
X160336512Y-73161828D01*
X160331810Y-73161828D01*
X160293273Y-73167218D01*
X160265629Y-73181943D01*
X160246020Y-73205914D01*
X160233339Y-73236326D01*
X160225011Y-73274828D01*
X160221962Y-73323272D01*
X160226351Y-73364765D01*
X160238949Y-73400260D01*
X160259637Y-73431045D01*
X160287279Y-73455096D01*
X160319704Y-73469467D01*
X160358433Y-73474459D01*
X160390080Y-73470207D01*
X160416888Y-73457877D01*
X160440071Y-73437028D01*
X160468879Y-73394330D01*
X160502536Y-73323944D01*
X160518290Y-73285109D01*
X160553358Y-73211424D01*
X160583747Y-73165919D01*
X160618742Y-73130913D01*
X160655799Y-73106995D01*
X160696998Y-73092555D01*
X160743909Y-73087578D01*
X160798542Y-73094386D01*
X160846193Y-73114256D01*
X160888623Y-73147784D01*
X160912827Y-73179335D01*
X160931224Y-73219738D01*
X160943263Y-73271049D01*
X160947669Y-73335851D01*
X160941629Y-73413492D01*
X160926122Y-73466310D01*
X160903766Y-73501081D01*
X160872097Y-73528063D01*
X160838424Y-73543543D01*
X160801612Y-73548709D01*
X160796116Y-73548709D01*
X160796116Y-73451011D01*
X160801612Y-73451011D01*
X160819415Y-73447515D01*
X160837943Y-73436174D01*
X160852969Y-73418579D01*
X160864016Y-73392454D01*
X160870118Y-73362598D01*
X160872259Y-73328463D01*
X160867637Y-73282368D01*
X160855178Y-73248255D01*
X160835928Y-73223194D01*
X160810127Y-73204057D01*
X160782713Y-73192920D01*
X160752885Y-73189183D01*
X160723022Y-73193211D01*
X160694633Y-73205425D01*
X160669686Y-73224620D01*
X160649021Y-73250244D01*
X160600600Y-73346659D01*
X160580755Y-73392821D01*
X160544399Y-73464305D01*
X160510650Y-73511095D01*
X160479272Y-73539427D01*
X160442695Y-73559942D01*
X160404734Y-73572019D01*
X160364661Y-73576064D01*
X160309168Y-73568670D01*
X160254569Y-73545961D01*
X160221826Y-73523198D01*
X160195140Y-73495570D01*
X160173968Y-73462613D01*
X160159563Y-73426000D01*
X160150048Y-73379357D01*
X160146552Y-73320403D01*
X160152122Y-73240152D01*
X160167008Y-73179658D01*
X160183914Y-73144256D01*
X160206131Y-73115861D01*
X160233930Y-73093501D01*
X160282678Y-73071511D01*
X160336512Y-73064131D01*
G37*
G36*
X160170000Y-73783182D02*
G01*
X160170000Y-73685484D01*
X160924221Y-73685484D01*
X160924221Y-73783182D01*
X160170000Y-73783182D01*
G37*
D11*
X146880952Y-98923409D02*
X147833333Y-98923409D01*
X146619047Y-99494838D02*
X147535714Y-97494838D01*
X147535714Y-97494838D02*
X147952380Y-99494838D01*
X148869047Y-97494838D02*
X148666666Y-99113885D01*
X148666666Y-99113885D02*
X148738095Y-99304361D01*
X148738095Y-99304361D02*
X148821428Y-99399600D01*
X148821428Y-99399600D02*
X149000000Y-99494838D01*
X149000000Y-99494838D02*
X149380952Y-99494838D01*
X149380952Y-99494838D02*
X149583333Y-99399600D01*
X149583333Y-99399600D02*
X149690476Y-99304361D01*
X149690476Y-99304361D02*
X149809523Y-99113885D01*
X149809523Y-99113885D02*
X150011904Y-97494838D01*
X151857142Y-99494838D02*
X151309523Y-98542457D01*
X150714285Y-99494838D02*
X150964285Y-97494838D01*
X150964285Y-97494838D02*
X151726190Y-97494838D01*
X151726190Y-97494838D02*
X151904761Y-97590076D01*
X151904761Y-97590076D02*
X151988095Y-97685314D01*
X151988095Y-97685314D02*
X152059523Y-97875790D01*
X152059523Y-97875790D02*
X152023809Y-98161504D01*
X152023809Y-98161504D02*
X151904761Y-98351980D01*
X151904761Y-98351980D02*
X151797619Y-98447219D01*
X151797619Y-98447219D02*
X151595238Y-98542457D01*
X151595238Y-98542457D02*
X150833333Y-98542457D01*
X153345238Y-97494838D02*
X153726190Y-97494838D01*
X153726190Y-97494838D02*
X153904761Y-97590076D01*
X153904761Y-97590076D02*
X154071428Y-97780552D01*
X154071428Y-97780552D02*
X154119047Y-98161504D01*
X154119047Y-98161504D02*
X154035714Y-98828171D01*
X154035714Y-98828171D02*
X153892857Y-99209123D01*
X153892857Y-99209123D02*
X153678571Y-99399600D01*
X153678571Y-99399600D02*
X153476190Y-99494838D01*
X153476190Y-99494838D02*
X153095238Y-99494838D01*
X153095238Y-99494838D02*
X152916666Y-99399600D01*
X152916666Y-99399600D02*
X152750000Y-99209123D01*
X152750000Y-99209123D02*
X152702380Y-98828171D01*
X152702380Y-98828171D02*
X152785714Y-98161504D01*
X152785714Y-98161504D02*
X152928571Y-97780552D01*
X152928571Y-97780552D02*
X153142857Y-97590076D01*
X153142857Y-97590076D02*
X153345238Y-97494838D01*
X155952380Y-99494838D02*
X155404761Y-98542457D01*
X154809523Y-99494838D02*
X155059523Y-97494838D01*
X155059523Y-97494838D02*
X155821428Y-97494838D01*
X155821428Y-97494838D02*
X155999999Y-97590076D01*
X155999999Y-97590076D02*
X156083333Y-97685314D01*
X156083333Y-97685314D02*
X156154761Y-97875790D01*
X156154761Y-97875790D02*
X156119047Y-98161504D01*
X156119047Y-98161504D02*
X155999999Y-98351980D01*
X155999999Y-98351980D02*
X155892857Y-98447219D01*
X155892857Y-98447219D02*
X155690476Y-98542457D01*
X155690476Y-98542457D02*
X154928571Y-98542457D01*
X156785714Y-98923409D02*
X157738095Y-98923409D01*
X156523809Y-99494838D02*
X157440476Y-97494838D01*
X157440476Y-97494838D02*
X157857142Y-99494838D01*
D10*
G36*
X133630000Y-66031960D02*
G01*
X133630000Y-66129658D01*
X132875778Y-66129658D01*
X132875778Y-66031960D01*
X133630000Y-66031960D01*
G37*
G36*
X133349616Y-65278333D02*
G01*
X133429423Y-65296292D01*
X133495167Y-65324234D01*
X133549216Y-65361514D01*
X133595048Y-65409857D01*
X133627185Y-65463643D01*
X133646701Y-65524012D01*
X133653447Y-65592690D01*
X133646698Y-65661337D01*
X133627178Y-65721629D01*
X133595043Y-65775302D01*
X133549216Y-65823499D01*
X133495191Y-65860613D01*
X133429456Y-65888444D01*
X133349641Y-65906336D01*
X133252827Y-65912770D01*
X133156079Y-65906337D01*
X133076316Y-65888445D01*
X133010619Y-65860616D01*
X132956622Y-65823499D01*
X132910766Y-65775298D01*
X132878613Y-65721624D01*
X132859082Y-65661333D01*
X132852330Y-65592690D01*
X132852396Y-65592018D01*
X132927740Y-65592018D01*
X132933409Y-65640989D01*
X132949809Y-65683214D01*
X132977113Y-65720262D01*
X133016889Y-65752974D01*
X133062142Y-65777184D01*
X133115560Y-65795380D01*
X133178569Y-65807019D01*
X133252827Y-65811165D01*
X133327154Y-65807017D01*
X133390202Y-65795377D01*
X133443637Y-65777180D01*
X133488888Y-65752974D01*
X133528665Y-65720262D01*
X133555968Y-65683214D01*
X133572368Y-65640989D01*
X133578037Y-65592018D01*
X133572361Y-65543016D01*
X133555953Y-65500841D01*
X133528652Y-65463906D01*
X133488888Y-65431367D01*
X133443656Y-65407296D01*
X133390227Y-65389193D01*
X133327172Y-65377610D01*
X133252827Y-65373482D01*
X133178551Y-65377608D01*
X133115535Y-65389190D01*
X133062123Y-65407293D01*
X133016889Y-65431367D01*
X132977126Y-65463906D01*
X132949824Y-65500841D01*
X132933416Y-65543016D01*
X132927740Y-65592018D01*
X132852396Y-65592018D01*
X132859079Y-65524016D01*
X132878606Y-65463648D01*
X132910760Y-65409861D01*
X132956622Y-65361514D01*
X133010643Y-65324232D01*
X133076349Y-65296290D01*
X133156105Y-65278333D01*
X133252827Y-65271877D01*
X133349616Y-65278333D01*
G37*
G36*
X133399434Y-64724773D02*
G01*
X133630000Y-64724773D01*
X133630000Y-64814654D01*
X133399434Y-64814654D01*
X133399434Y-65178087D01*
X133324024Y-65178087D01*
X132875778Y-64814654D01*
X132995334Y-64814654D01*
X133324024Y-65077765D01*
X133324024Y-64814654D01*
X132995334Y-64814654D01*
X132875778Y-64814654D01*
X132875778Y-64724773D01*
X133324024Y-64724773D01*
X133324024Y-64619260D01*
X133399434Y-64619260D01*
X133399434Y-64724773D01*
G37*
G36*
X161325778Y-96691381D02*
G01*
X161325778Y-96593684D01*
X161811577Y-96593684D01*
X161882985Y-96590533D01*
X161927551Y-96582839D01*
X161953360Y-96572740D01*
X161984897Y-96546608D01*
X162008864Y-96507894D01*
X162023113Y-96462194D01*
X162028037Y-96410380D01*
X162023059Y-96360221D01*
X162008864Y-96317690D01*
X161984233Y-96282495D01*
X161948597Y-96257667D01*
X161919350Y-96248401D01*
X161865774Y-96241107D01*
X161776589Y-96238066D01*
X161325778Y-96238066D01*
X161325778Y-96148185D01*
X161801990Y-96148185D01*
X161890939Y-96152567D01*
X161950166Y-96163582D01*
X161987676Y-96178654D01*
X162020617Y-96201761D01*
X162048717Y-96230770D01*
X162072306Y-96266338D01*
X162088946Y-96305686D01*
X162099617Y-96353200D01*
X162103447Y-96410563D01*
X162097094Y-96489049D01*
X162078778Y-96558513D01*
X162058607Y-96600504D01*
X162032978Y-96633391D01*
X162001720Y-96658531D01*
X161964808Y-96674953D01*
X161908113Y-96686740D01*
X161824583Y-96691381D01*
X161325778Y-96691381D01*
G37*
G36*
X161913487Y-96036810D02*
G01*
X161913487Y-95939113D01*
X161918189Y-95939113D01*
X161956726Y-95933723D01*
X161984370Y-95918998D01*
X162003979Y-95895027D01*
X162016660Y-95864615D01*
X162024988Y-95826113D01*
X162028037Y-95777669D01*
X162023648Y-95736176D01*
X162011050Y-95700682D01*
X161990362Y-95669897D01*
X161962720Y-95645845D01*
X161930295Y-95631474D01*
X161891566Y-95626482D01*
X161859919Y-95630734D01*
X161833111Y-95643064D01*
X161809928Y-95663913D01*
X161781120Y-95706611D01*
X161747463Y-95776997D01*
X161731709Y-95815832D01*
X161696641Y-95889517D01*
X161666252Y-95935022D01*
X161631257Y-95970028D01*
X161594200Y-95993946D01*
X161553001Y-96008386D01*
X161506090Y-96013363D01*
X161451457Y-96006555D01*
X161403806Y-95986685D01*
X161361376Y-95953157D01*
X161337172Y-95921606D01*
X161318775Y-95881203D01*
X161306736Y-95829892D01*
X161302330Y-95765090D01*
X161308370Y-95687449D01*
X161323877Y-95634631D01*
X161346233Y-95599860D01*
X161377902Y-95572878D01*
X161411575Y-95557398D01*
X161448387Y-95552233D01*
X161453883Y-95552233D01*
X161453883Y-95649930D01*
X161448387Y-95649930D01*
X161430584Y-95653426D01*
X161412056Y-95664767D01*
X161397030Y-95682362D01*
X161385983Y-95708487D01*
X161379881Y-95738343D01*
X161377740Y-95772479D01*
X161382362Y-95818573D01*
X161394821Y-95852686D01*
X161414071Y-95877747D01*
X161439872Y-95896884D01*
X161467286Y-95908021D01*
X161497114Y-95911758D01*
X161526977Y-95907730D01*
X161555366Y-95895516D01*
X161580313Y-95876321D01*
X161600978Y-95850697D01*
X161649399Y-95754282D01*
X161669244Y-95708121D01*
X161705600Y-95636636D01*
X161739349Y-95589846D01*
X161770727Y-95561514D01*
X161807304Y-95540999D01*
X161845265Y-95528922D01*
X161885338Y-95524877D01*
X161940831Y-95532271D01*
X161995430Y-95554980D01*
X162028173Y-95577743D01*
X162054859Y-95605371D01*
X162076031Y-95638328D01*
X162090436Y-95674941D01*
X162099951Y-95721584D01*
X162103447Y-95780539D01*
X162097877Y-95860789D01*
X162082991Y-95921284D01*
X162066085Y-95956685D01*
X162043868Y-95985080D01*
X162016069Y-96007440D01*
X161967321Y-96029430D01*
X161913487Y-96036810D01*
G37*
G36*
X161926098Y-94914318D02*
G01*
X161975464Y-94935092D01*
X162018032Y-94968279D01*
X162051545Y-95013616D01*
X162065625Y-95049236D01*
X162075911Y-95105336D01*
X162080000Y-95189410D01*
X162080000Y-95415457D01*
X161324617Y-95415457D01*
X161324617Y-95215849D01*
X161325429Y-95190997D01*
X161400027Y-95190997D01*
X161400027Y-95317759D01*
X161652880Y-95317759D01*
X161652880Y-95245219D01*
X161728290Y-95245219D01*
X161728290Y-95317759D01*
X162004590Y-95317759D01*
X162004590Y-95179457D01*
X161999431Y-95114408D01*
X161986383Y-95071769D01*
X161967831Y-95045001D01*
X161941528Y-95024860D01*
X161912854Y-95013041D01*
X161880881Y-95009036D01*
X161842001Y-95014834D01*
X161806020Y-95032362D01*
X161775530Y-95060402D01*
X161749966Y-95101482D01*
X161739056Y-95133095D01*
X161731301Y-95179488D01*
X161728290Y-95245219D01*
X161652880Y-95245219D01*
X161652880Y-95223726D01*
X161647314Y-95156473D01*
X161633646Y-95115404D01*
X161610233Y-95083096D01*
X161578019Y-95057885D01*
X161540619Y-95041639D01*
X161503098Y-95036392D01*
X161476201Y-95040106D01*
X161452232Y-95051113D01*
X161430314Y-95070097D01*
X161415042Y-95094728D01*
X161404270Y-95133217D01*
X161400027Y-95190997D01*
X161325429Y-95190997D01*
X161327643Y-95123249D01*
X161335004Y-95065813D01*
X161344523Y-95033033D01*
X161369430Y-94991584D01*
X161402775Y-94962569D01*
X161443028Y-94944711D01*
X161487772Y-94938695D01*
X161538821Y-94945970D01*
X161591270Y-94968797D01*
X161622150Y-94992241D01*
X161652733Y-95027690D01*
X161683105Y-95078157D01*
X161702390Y-95020831D01*
X161727130Y-94978467D01*
X161756805Y-94948037D01*
X161792987Y-94925377D01*
X161831632Y-94911966D01*
X161873675Y-94907431D01*
X161926098Y-94914318D01*
G37*
G36*
X160336512Y-77050802D02*
G01*
X160336512Y-77148499D01*
X160331810Y-77148499D01*
X160293273Y-77153889D01*
X160265629Y-77168615D01*
X160246020Y-77192585D01*
X160233339Y-77222997D01*
X160225011Y-77261500D01*
X160221962Y-77309944D01*
X160226351Y-77351436D01*
X160238949Y-77386931D01*
X160259637Y-77417716D01*
X160287279Y-77441767D01*
X160319704Y-77456138D01*
X160358433Y-77461130D01*
X160390080Y-77456879D01*
X160416888Y-77444548D01*
X160440071Y-77423700D01*
X160468879Y-77381001D01*
X160502536Y-77310615D01*
X160518290Y-77271781D01*
X160553358Y-77198095D01*
X160583747Y-77152590D01*
X160618742Y-77117584D01*
X160655799Y-77093667D01*
X160696998Y-77079226D01*
X160743909Y-77074249D01*
X160798542Y-77081057D01*
X160846193Y-77100928D01*
X160888623Y-77134455D01*
X160912827Y-77166007D01*
X160931224Y-77206409D01*
X160943263Y-77257721D01*
X160947669Y-77322522D01*
X160941629Y-77400164D01*
X160926122Y-77452982D01*
X160903766Y-77487752D01*
X160872097Y-77514734D01*
X160838424Y-77530214D01*
X160801612Y-77535380D01*
X160796116Y-77535380D01*
X160796116Y-77437683D01*
X160801612Y-77437683D01*
X160819415Y-77434186D01*
X160837943Y-77422845D01*
X160852969Y-77405251D01*
X160864016Y-77379125D01*
X160870118Y-77349269D01*
X160872259Y-77315134D01*
X160867637Y-77269039D01*
X160855178Y-77234926D01*
X160835928Y-77209865D01*
X160810127Y-77190728D01*
X160782713Y-77179592D01*
X160752885Y-77175854D01*
X160723022Y-77179882D01*
X160694633Y-77192096D01*
X160669686Y-77211292D01*
X160649021Y-77236915D01*
X160600600Y-77333330D01*
X160580755Y-77379492D01*
X160544399Y-77450976D01*
X160510650Y-77497766D01*
X160479272Y-77526099D01*
X160442695Y-77546613D01*
X160404734Y-77558690D01*
X160364661Y-77562735D01*
X160309168Y-77555341D01*
X160254569Y-77532632D01*
X160221826Y-77509869D01*
X160195140Y-77482242D01*
X160173968Y-77449284D01*
X160159563Y-77412672D01*
X160150048Y-77366028D01*
X160146552Y-77307074D01*
X160152122Y-77226824D01*
X160167008Y-77166329D01*
X160183914Y-77130928D01*
X160206131Y-77102532D01*
X160233930Y-77080172D01*
X160282678Y-77058182D01*
X160336512Y-77050802D01*
G37*
G36*
X160329002Y-78121563D02*
G01*
X160329002Y-78211444D01*
X160324300Y-78211444D01*
X160281250Y-78204213D01*
X160234785Y-78180792D01*
X160207120Y-78157978D01*
X160184929Y-78130478D01*
X160167862Y-78097688D01*
X160152203Y-78042310D01*
X160146552Y-77973674D01*
X160153087Y-77903980D01*
X160171953Y-77842778D01*
X160202876Y-77788381D01*
X160246692Y-77739628D01*
X160298763Y-77702214D01*
X160364134Y-77673865D01*
X160445731Y-77655416D01*
X160547172Y-77648709D01*
X160647756Y-77655367D01*
X160729007Y-77673714D01*
X160794412Y-77701968D01*
X160846796Y-77739323D01*
X160890886Y-77787934D01*
X160922034Y-77842420D01*
X160941066Y-77903974D01*
X160947669Y-77974345D01*
X160941861Y-78042350D01*
X160925687Y-78097688D01*
X160908133Y-78130347D01*
X160885081Y-78157862D01*
X160856078Y-78180792D01*
X160807890Y-78204272D01*
X160764548Y-78211444D01*
X160764548Y-78121563D01*
X160769249Y-78121563D01*
X160795340Y-78117367D01*
X160821456Y-78104221D01*
X160843331Y-78083586D01*
X160859497Y-78054945D01*
X160868844Y-78021082D01*
X160872259Y-77978070D01*
X160866182Y-77922753D01*
X160848946Y-77877007D01*
X160820861Y-77838726D01*
X160780668Y-77806734D01*
X160717252Y-77776519D01*
X160640409Y-77757231D01*
X160547172Y-77750314D01*
X160452951Y-77757302D01*
X160375886Y-77776723D01*
X160312821Y-77807039D01*
X160272903Y-77839156D01*
X160245039Y-77877346D01*
X160227969Y-77922750D01*
X160221962Y-77977398D01*
X160226413Y-78028598D01*
X160238019Y-78064292D01*
X160255179Y-78088590D01*
X160278901Y-78107353D01*
X160303267Y-78118038D01*
X160329002Y-78121563D01*
G37*
G36*
X160170000Y-78416608D02*
G01*
X160170000Y-78318911D01*
X160924221Y-78318911D01*
X160924221Y-78416608D01*
X160564207Y-78416608D01*
X160924221Y-78731071D01*
X160924221Y-78842506D01*
X160570375Y-78531463D01*
X160170000Y-78890378D01*
X160170000Y-78768012D01*
X160564207Y-78416608D01*
X160170000Y-78416608D01*
G37*
G36*
X160170000Y-56668039D02*
G01*
X160170000Y-56570341D01*
X160924221Y-56570341D01*
X160924221Y-56668039D01*
X160170000Y-56668039D01*
G37*
G36*
X160170000Y-56900558D02*
G01*
X160170000Y-56810676D01*
X160924221Y-56810676D01*
X160924221Y-56908068D01*
X160388292Y-57252145D01*
X160328086Y-57283531D01*
X160387620Y-57283531D01*
X160924221Y-57283531D01*
X160924221Y-57373412D01*
X160170000Y-57373412D01*
X160170000Y-57277363D01*
X160708677Y-56932004D01*
X160768883Y-56900558D01*
X160708677Y-56900558D01*
X160170000Y-56900558D01*
G37*
G36*
X160170000Y-57717306D02*
G01*
X160849972Y-57717306D01*
X160849972Y-57459385D01*
X160925382Y-57459385D01*
X160925382Y-58065108D01*
X160849972Y-58065108D01*
X160849972Y-57815003D01*
X160170000Y-57815003D01*
X160170000Y-57717306D01*
G37*
G36*
X160547904Y-58270760D02*
G01*
X160623314Y-58270760D01*
X160623314Y-58327852D01*
X160629130Y-58389706D01*
X160644136Y-58431411D01*
X160668019Y-58465447D01*
X160696465Y-58490945D01*
X160729686Y-58507483D01*
X160766257Y-58512988D01*
X160797311Y-58508811D01*
X160822723Y-58496854D01*
X160843866Y-58476840D01*
X160859142Y-58451321D01*
X160868797Y-58420038D01*
X160872259Y-58381524D01*
X160869978Y-58347874D01*
X160863344Y-58317166D01*
X160851151Y-58290267D01*
X160833607Y-58271432D01*
X160811897Y-58259421D01*
X160790193Y-58255617D01*
X160784698Y-58255617D01*
X160784698Y-58169644D01*
X160790193Y-58169644D01*
X160827461Y-58174925D01*
X160863144Y-58191044D01*
X160898332Y-58219591D01*
X160923851Y-58256309D01*
X160941079Y-58309828D01*
X160947669Y-58386104D01*
X160941570Y-58458226D01*
X160925214Y-58512049D01*
X160900408Y-58551823D01*
X160865787Y-58582734D01*
X160825800Y-58601022D01*
X160778653Y-58607327D01*
X160739330Y-58603270D01*
X160702998Y-58591268D01*
X160669988Y-58571659D01*
X160640045Y-58543885D01*
X160616099Y-58507896D01*
X160595226Y-58453820D01*
X160573166Y-58512569D01*
X160546806Y-58557150D01*
X160516580Y-58590169D01*
X160479799Y-58614879D01*
X160437159Y-58629964D01*
X160387070Y-58635232D01*
X160328858Y-58628271D01*
X160274099Y-58607390D01*
X160221413Y-58571423D01*
X160189833Y-58537129D01*
X160166641Y-58494839D01*
X160151866Y-58442839D01*
X160146552Y-58378777D01*
X160153000Y-58304670D01*
X160170044Y-58251348D01*
X160195584Y-58213607D01*
X160230833Y-58184134D01*
X160267425Y-58167370D01*
X160306531Y-58161828D01*
X160306531Y-58251709D01*
X160301830Y-58251709D01*
X160277472Y-58255925D01*
X160257910Y-58268217D01*
X160241929Y-58289811D01*
X160227376Y-58331186D01*
X160221962Y-58387142D01*
X160226519Y-58431505D01*
X160239487Y-58468780D01*
X160262043Y-58499638D01*
X160295846Y-58522513D01*
X160336131Y-58536218D01*
X160380781Y-58540893D01*
X160425506Y-58534724D01*
X160464638Y-58516574D01*
X160499727Y-58485450D01*
X160524922Y-58445582D01*
X160541636Y-58390778D01*
X160547904Y-58316372D01*
X160547904Y-58270760D01*
G37*
G36*
X126580000Y-78528367D02*
G01*
X126381552Y-78632903D01*
X126314102Y-78676958D01*
X126255645Y-78731943D01*
X126255645Y-78831960D01*
X126580000Y-78831960D01*
X126580000Y-78929658D01*
X125825778Y-78929658D01*
X125825778Y-78728463D01*
X125901188Y-78728463D01*
X125901188Y-78831960D01*
X126180235Y-78831960D01*
X126180235Y-78735362D01*
X126174970Y-78678862D01*
X126161734Y-78642978D01*
X126139145Y-78614824D01*
X126107206Y-78592663D01*
X126070074Y-78578690D01*
X126030819Y-78574040D01*
X125996597Y-78577856D01*
X125967072Y-78588878D01*
X125941437Y-78606851D01*
X125920055Y-78631926D01*
X125906827Y-78665774D01*
X125901188Y-78728463D01*
X125825778Y-78728463D01*
X125825778Y-78695917D01*
X125829099Y-78638333D01*
X125837811Y-78596314D01*
X125850446Y-78566346D01*
X125880377Y-78527959D01*
X125922315Y-78497836D01*
X125971272Y-78478819D01*
X126024286Y-78472435D01*
X126067264Y-78476713D01*
X126108855Y-78489593D01*
X126147525Y-78510067D01*
X126182433Y-78537526D01*
X126211736Y-78574024D01*
X126240563Y-78632658D01*
X126266636Y-78596388D01*
X126305959Y-78566591D01*
X126356884Y-78536182D01*
X126580000Y-78416381D01*
X126580000Y-78528367D01*
G37*
G36*
X126580000Y-78327843D02*
G01*
X125825778Y-78327843D01*
X125825778Y-77901884D01*
X125907843Y-77901884D01*
X125907843Y-78230146D01*
X126146224Y-78230146D01*
X126146224Y-77942916D01*
X126221634Y-77942916D01*
X126221634Y-78230146D01*
X126497934Y-78230146D01*
X126497934Y-77876482D01*
X126580000Y-77876482D01*
X126580000Y-78327843D01*
G37*
G36*
X126413487Y-77775854D02*
G01*
X126413487Y-77678157D01*
X126418189Y-77678157D01*
X126456726Y-77672767D01*
X126484370Y-77658042D01*
X126503979Y-77634071D01*
X126516660Y-77603659D01*
X126524988Y-77565157D01*
X126528037Y-77516713D01*
X126523648Y-77475220D01*
X126511050Y-77439726D01*
X126490362Y-77408941D01*
X126462720Y-77384889D01*
X126430295Y-77370518D01*
X126391566Y-77365526D01*
X126359919Y-77369778D01*
X126333111Y-77382108D01*
X126309928Y-77402957D01*
X126281120Y-77445655D01*
X126247463Y-77516041D01*
X126231709Y-77554876D01*
X126196641Y-77628561D01*
X126166252Y-77674066D01*
X126131257Y-77709072D01*
X126094200Y-77732990D01*
X126053001Y-77747430D01*
X126006090Y-77752407D01*
X125951457Y-77745599D01*
X125903806Y-77725729D01*
X125861376Y-77692201D01*
X125837172Y-77660650D01*
X125818775Y-77620247D01*
X125806736Y-77568936D01*
X125802330Y-77504134D01*
X125808370Y-77426493D01*
X125823877Y-77373675D01*
X125846233Y-77338904D01*
X125877902Y-77311922D01*
X125911575Y-77296442D01*
X125948387Y-77291277D01*
X125953883Y-77291277D01*
X125953883Y-77388974D01*
X125948387Y-77388974D01*
X125930584Y-77392470D01*
X125912056Y-77403811D01*
X125897030Y-77421406D01*
X125885983Y-77447531D01*
X125879881Y-77477387D01*
X125877740Y-77511523D01*
X125882362Y-77557617D01*
X125894821Y-77591730D01*
X125914071Y-77616791D01*
X125939872Y-77635928D01*
X125967286Y-77647065D01*
X125997114Y-77650802D01*
X126026977Y-77646774D01*
X126055366Y-77634560D01*
X126080313Y-77615365D01*
X126100978Y-77589741D01*
X126149399Y-77493326D01*
X126169244Y-77447165D01*
X126205600Y-77375680D01*
X126239349Y-77328890D01*
X126270727Y-77300558D01*
X126307304Y-77280043D01*
X126345265Y-77267966D01*
X126385338Y-77263921D01*
X126440831Y-77271315D01*
X126495430Y-77294024D01*
X126528173Y-77316787D01*
X126554859Y-77344415D01*
X126576031Y-77377372D01*
X126590436Y-77413985D01*
X126599951Y-77460628D01*
X126603447Y-77519583D01*
X126597877Y-77599833D01*
X126582991Y-77660327D01*
X126566085Y-77695729D01*
X126543868Y-77724124D01*
X126516069Y-77746484D01*
X126467321Y-77768474D01*
X126413487Y-77775854D01*
G37*
G36*
X126580000Y-77154501D02*
G01*
X125825778Y-77154501D01*
X125825778Y-76728541D01*
X125907843Y-76728541D01*
X125907843Y-77056803D01*
X126146224Y-77056803D01*
X126146224Y-76769574D01*
X126221634Y-76769574D01*
X126221634Y-77056803D01*
X126497934Y-77056803D01*
X126497934Y-76703140D01*
X126580000Y-76703140D01*
X126580000Y-77154501D01*
G37*
G36*
X126580000Y-76379762D02*
G01*
X125900027Y-76379762D01*
X125900027Y-76637683D01*
X125824617Y-76637683D01*
X125824617Y-76031960D01*
X125900027Y-76031960D01*
X125900027Y-76282065D01*
X126580000Y-76282065D01*
X126580000Y-76379762D01*
G37*
G36*
X160547904Y-111690997D02*
G01*
X160623314Y-111690997D01*
X160623314Y-111748089D01*
X160629130Y-111809943D01*
X160644136Y-111851648D01*
X160668019Y-111885685D01*
X160696465Y-111911182D01*
X160729686Y-111927721D01*
X160766257Y-111933225D01*
X160797311Y-111929048D01*
X160822723Y-111917091D01*
X160843866Y-111897077D01*
X160859142Y-111871559D01*
X160868797Y-111840275D01*
X160872259Y-111801762D01*
X160869978Y-111768111D01*
X160863344Y-111737404D01*
X160851151Y-111710504D01*
X160833607Y-111691669D01*
X160811897Y-111679658D01*
X160790193Y-111675854D01*
X160784698Y-111675854D01*
X160784698Y-111589881D01*
X160790193Y-111589881D01*
X160827461Y-111595162D01*
X160863144Y-111611281D01*
X160898332Y-111639829D01*
X160923851Y-111676546D01*
X160941079Y-111730065D01*
X160947669Y-111806341D01*
X160941570Y-111878463D01*
X160925214Y-111932286D01*
X160900408Y-111972060D01*
X160865787Y-112002971D01*
X160825800Y-112021259D01*
X160778653Y-112027564D01*
X160739330Y-112023507D01*
X160702998Y-112011505D01*
X160669988Y-111991896D01*
X160640045Y-111964122D01*
X160616099Y-111928133D01*
X160595226Y-111874057D01*
X160573166Y-111932806D01*
X160546806Y-111977388D01*
X160516580Y-112010406D01*
X160479799Y-112035117D01*
X160437159Y-112050202D01*
X160387070Y-112055469D01*
X160328858Y-112048508D01*
X160274099Y-112027627D01*
X160221413Y-111991660D01*
X160189833Y-111957367D01*
X160166641Y-111915076D01*
X160151866Y-111863076D01*
X160146552Y-111799014D01*
X160153000Y-111724908D01*
X160170044Y-111671586D01*
X160195584Y-111633845D01*
X160230833Y-111604371D01*
X160267425Y-111587607D01*
X160306531Y-111582065D01*
X160306531Y-111671946D01*
X160301830Y-111671946D01*
X160277472Y-111676162D01*
X160257910Y-111688454D01*
X160241929Y-111710048D01*
X160227376Y-111751423D01*
X160221962Y-111807379D01*
X160226519Y-111851742D01*
X160239487Y-111889017D01*
X160262043Y-111919875D01*
X160295846Y-111942751D01*
X160336131Y-111956456D01*
X160380781Y-111961130D01*
X160425506Y-111954961D01*
X160464638Y-111936811D01*
X160499727Y-111905687D01*
X160524922Y-111865819D01*
X160541636Y-111811015D01*
X160547904Y-111736610D01*
X160547904Y-111690997D01*
G37*
G36*
X160170000Y-112377320D02*
G01*
X160170000Y-112248360D01*
X160298960Y-112248360D01*
X160298960Y-112377320D01*
X160170000Y-112377320D01*
G37*
G36*
X160547904Y-112654291D02*
G01*
X160623314Y-112654291D01*
X160623314Y-112711383D01*
X160629130Y-112773237D01*
X160644136Y-112814942D01*
X160668019Y-112848978D01*
X160696465Y-112874476D01*
X160729686Y-112891014D01*
X160766257Y-112896519D01*
X160797311Y-112892342D01*
X160822723Y-112880385D01*
X160843866Y-112860371D01*
X160859142Y-112834852D01*
X160868797Y-112803569D01*
X160872259Y-112765055D01*
X160869978Y-112731405D01*
X160863344Y-112700697D01*
X160851151Y-112673798D01*
X160833607Y-112654963D01*
X160811897Y-112642952D01*
X160790193Y-112639148D01*
X160784698Y-112639148D01*
X160784698Y-112553175D01*
X160790193Y-112553175D01*
X160827461Y-112558456D01*
X160863144Y-112574575D01*
X160898332Y-112603122D01*
X160923851Y-112639840D01*
X160941079Y-112693359D01*
X160947669Y-112769635D01*
X160941570Y-112841757D01*
X160925214Y-112895580D01*
X160900408Y-112935354D01*
X160865787Y-112966265D01*
X160825800Y-112984553D01*
X160778653Y-112990858D01*
X160739330Y-112986801D01*
X160702998Y-112974799D01*
X160669988Y-112955190D01*
X160640045Y-112927416D01*
X160616099Y-112891427D01*
X160595226Y-112837351D01*
X160573166Y-112896100D01*
X160546806Y-112940681D01*
X160516580Y-112973700D01*
X160479799Y-112998410D01*
X160437159Y-113013495D01*
X160387070Y-113018763D01*
X160328858Y-113011802D01*
X160274099Y-112990921D01*
X160221413Y-112954954D01*
X160189833Y-112920660D01*
X160166641Y-112878370D01*
X160151866Y-112826370D01*
X160146552Y-112762308D01*
X160153000Y-112688202D01*
X160170044Y-112634879D01*
X160195584Y-112597138D01*
X160230833Y-112567665D01*
X160267425Y-112550901D01*
X160306531Y-112545359D01*
X160306531Y-112635240D01*
X160301830Y-112635240D01*
X160277472Y-112639456D01*
X160257910Y-112651748D01*
X160241929Y-112673342D01*
X160227376Y-112714717D01*
X160221962Y-112770673D01*
X160226519Y-112815036D01*
X160239487Y-112852311D01*
X160262043Y-112883169D01*
X160295846Y-112906045D01*
X160336131Y-112919749D01*
X160380781Y-112924424D01*
X160425506Y-112918255D01*
X160464638Y-112900105D01*
X160499727Y-112868981D01*
X160524922Y-112829113D01*
X160541636Y-112774309D01*
X160547904Y-112699904D01*
X160547904Y-112654291D01*
G37*
G36*
X160926175Y-113742271D02*
G01*
X160926175Y-113833190D01*
X160170000Y-113526238D01*
X160170000Y-113427808D01*
X160926175Y-113140701D01*
X160926175Y-113247374D01*
X160292121Y-113486610D01*
X160926175Y-113742271D01*
G37*
G36*
X133580000Y-60881960D02*
G01*
X133580000Y-60979658D01*
X132825778Y-60979658D01*
X132825778Y-60881960D01*
X133580000Y-60881960D01*
G37*
G36*
X133299616Y-60128333D02*
G01*
X133379423Y-60146292D01*
X133445167Y-60174234D01*
X133499216Y-60211514D01*
X133545048Y-60259857D01*
X133577185Y-60313643D01*
X133596701Y-60374012D01*
X133603447Y-60442690D01*
X133596698Y-60511337D01*
X133577178Y-60571629D01*
X133545043Y-60625302D01*
X133499216Y-60673499D01*
X133445191Y-60710613D01*
X133379456Y-60738444D01*
X133299641Y-60756336D01*
X133202827Y-60762770D01*
X133106079Y-60756337D01*
X133026316Y-60738445D01*
X132960619Y-60710616D01*
X132906622Y-60673499D01*
X132860766Y-60625298D01*
X132828613Y-60571624D01*
X132809082Y-60511333D01*
X132802330Y-60442690D01*
X132802396Y-60442018D01*
X132877740Y-60442018D01*
X132883409Y-60490989D01*
X132899809Y-60533214D01*
X132927113Y-60570262D01*
X132966889Y-60602974D01*
X133012142Y-60627184D01*
X133065560Y-60645380D01*
X133128569Y-60657019D01*
X133202827Y-60661165D01*
X133277154Y-60657017D01*
X133340202Y-60645377D01*
X133393637Y-60627180D01*
X133438888Y-60602974D01*
X133478665Y-60570262D01*
X133505968Y-60533214D01*
X133522368Y-60490989D01*
X133528037Y-60442018D01*
X133522361Y-60393016D01*
X133505953Y-60350841D01*
X133478652Y-60313906D01*
X133438888Y-60281367D01*
X133393656Y-60257296D01*
X133340227Y-60239193D01*
X133277172Y-60227610D01*
X133202827Y-60223482D01*
X133128551Y-60227608D01*
X133065535Y-60239190D01*
X133012123Y-60257293D01*
X132966889Y-60281367D01*
X132927126Y-60313906D01*
X132899824Y-60350841D01*
X132883416Y-60393016D01*
X132877740Y-60442018D01*
X132802396Y-60442018D01*
X132809079Y-60374016D01*
X132828606Y-60313648D01*
X132860760Y-60259861D01*
X132906622Y-60211514D01*
X132960643Y-60174232D01*
X133026349Y-60146290D01*
X133106105Y-60128333D01*
X133202827Y-60121877D01*
X133299616Y-60128333D01*
G37*
G36*
X133580000Y-59992916D02*
G01*
X133501781Y-59992916D01*
X133461396Y-59989061D01*
X133416998Y-59976823D01*
X133367630Y-59954815D01*
X133322347Y-59925601D01*
X133275462Y-59883685D01*
X133226580Y-59826648D01*
X133186707Y-59775785D01*
X133110681Y-59684247D01*
X133068738Y-59645237D01*
X133028244Y-59624399D01*
X132987772Y-59617759D01*
X132960032Y-59621732D01*
X132934471Y-59633687D01*
X132910225Y-59654640D01*
X132892304Y-59681140D01*
X132880792Y-59715583D01*
X132876580Y-59760275D01*
X132879896Y-59801412D01*
X132888697Y-59831511D01*
X132901859Y-59853210D01*
X132929460Y-59876383D01*
X132958340Y-59883496D01*
X132958340Y-59973377D01*
X132953578Y-59973377D01*
X132915909Y-59966811D01*
X132879084Y-59946266D01*
X132847789Y-59915041D01*
X132822541Y-59873237D01*
X132806969Y-59823685D01*
X132801170Y-59757344D01*
X132805394Y-59691745D01*
X132816763Y-59641385D01*
X132833811Y-59603165D01*
X132855819Y-59574590D01*
X132894975Y-59544104D01*
X132938104Y-59526163D01*
X132986673Y-59520062D01*
X133026367Y-59524249D01*
X133067822Y-59537281D01*
X133107574Y-59560959D01*
X133153735Y-59604937D01*
X133220291Y-59687002D01*
X133245753Y-59724127D01*
X133300694Y-59795413D01*
X133350623Y-59844472D01*
X133396323Y-59875854D01*
X133438815Y-59893110D01*
X133479371Y-59898578D01*
X133497934Y-59898578D01*
X133497934Y-59506385D01*
X133580000Y-59506385D01*
X133580000Y-59992916D01*
G37*
X145869048Y-111372419D02*
X146059524Y-111372419D01*
X146059524Y-111372419D02*
X146148809Y-111420038D01*
X146148809Y-111420038D02*
X146232143Y-111515276D01*
X146232143Y-111515276D02*
X146255952Y-111705752D01*
X146255952Y-111705752D02*
X146214286Y-112039085D01*
X146214286Y-112039085D02*
X146142857Y-112229561D01*
X146142857Y-112229561D02*
X146035714Y-112324800D01*
X146035714Y-112324800D02*
X145934524Y-112372419D01*
X145934524Y-112372419D02*
X145744048Y-112372419D01*
X145744048Y-112372419D02*
X145654762Y-112324800D01*
X145654762Y-112324800D02*
X145571429Y-112229561D01*
X145571429Y-112229561D02*
X145547619Y-112039085D01*
X145547619Y-112039085D02*
X145589286Y-111705752D01*
X145589286Y-111705752D02*
X145660714Y-111515276D01*
X145660714Y-111515276D02*
X145767857Y-111420038D01*
X145767857Y-111420038D02*
X145869048Y-111372419D01*
X147172619Y-112372419D02*
X146898809Y-111896228D01*
X146601190Y-112372419D02*
X146726190Y-111372419D01*
X146726190Y-111372419D02*
X147107143Y-111372419D01*
X147107143Y-111372419D02*
X147196428Y-111420038D01*
X147196428Y-111420038D02*
X147238095Y-111467657D01*
X147238095Y-111467657D02*
X147273809Y-111562895D01*
X147273809Y-111562895D02*
X147255952Y-111705752D01*
X147255952Y-111705752D02*
X147196428Y-111800990D01*
X147196428Y-111800990D02*
X147142857Y-111848609D01*
X147142857Y-111848609D02*
X147041667Y-111896228D01*
X147041667Y-111896228D02*
X146660714Y-111896228D01*
X148000000Y-111848609D02*
X148136905Y-111896228D01*
X148136905Y-111896228D02*
X148178571Y-111943847D01*
X148178571Y-111943847D02*
X148214286Y-112039085D01*
X148214286Y-112039085D02*
X148196428Y-112181942D01*
X148196428Y-112181942D02*
X148136905Y-112277180D01*
X148136905Y-112277180D02*
X148083333Y-112324800D01*
X148083333Y-112324800D02*
X147982143Y-112372419D01*
X147982143Y-112372419D02*
X147601190Y-112372419D01*
X147601190Y-112372419D02*
X147726190Y-111372419D01*
X147726190Y-111372419D02*
X148059524Y-111372419D01*
X148059524Y-111372419D02*
X148148809Y-111420038D01*
X148148809Y-111420038D02*
X148190476Y-111467657D01*
X148190476Y-111467657D02*
X148226190Y-111562895D01*
X148226190Y-111562895D02*
X148214286Y-111658133D01*
X148214286Y-111658133D02*
X148154762Y-111753371D01*
X148154762Y-111753371D02*
X148101190Y-111800990D01*
X148101190Y-111800990D02*
X148000000Y-111848609D01*
X148000000Y-111848609D02*
X147666667Y-111848609D01*
X148601190Y-112372419D02*
X148726190Y-111372419D01*
X149059523Y-111372419D02*
X149630952Y-111372419D01*
X149220238Y-112372419D02*
X149345238Y-111372419D01*
X150154762Y-111372419D02*
X150345238Y-111372419D01*
X150345238Y-111372419D02*
X150434523Y-111420038D01*
X150434523Y-111420038D02*
X150517857Y-111515276D01*
X150517857Y-111515276D02*
X150541666Y-111705752D01*
X150541666Y-111705752D02*
X150500000Y-112039085D01*
X150500000Y-112039085D02*
X150428571Y-112229561D01*
X150428571Y-112229561D02*
X150321428Y-112324800D01*
X150321428Y-112324800D02*
X150220238Y-112372419D01*
X150220238Y-112372419D02*
X150029762Y-112372419D01*
X150029762Y-112372419D02*
X149940476Y-112324800D01*
X149940476Y-112324800D02*
X149857143Y-112229561D01*
X149857143Y-112229561D02*
X149833333Y-112039085D01*
X149833333Y-112039085D02*
X149875000Y-111705752D01*
X149875000Y-111705752D02*
X149946428Y-111515276D01*
X149946428Y-111515276D02*
X150053571Y-111420038D01*
X150053571Y-111420038D02*
X150154762Y-111372419D01*
X150886904Y-112372419D02*
X151011904Y-111372419D01*
X151011904Y-111372419D02*
X151458333Y-112372419D01*
X151458333Y-112372419D02*
X151583333Y-111372419D01*
X152761905Y-111848609D02*
X153095238Y-111848609D01*
X153172619Y-112372419D02*
X152696428Y-112372419D01*
X152696428Y-112372419D02*
X152821428Y-111372419D01*
X152821428Y-111372419D02*
X153297619Y-111372419D01*
X153601190Y-112372419D02*
X153726190Y-111372419D01*
X153726190Y-111372419D02*
X153964286Y-111372419D01*
X153964286Y-111372419D02*
X154101190Y-111420038D01*
X154101190Y-111420038D02*
X154184524Y-111515276D01*
X154184524Y-111515276D02*
X154220238Y-111610514D01*
X154220238Y-111610514D02*
X154244048Y-111800990D01*
X154244048Y-111800990D02*
X154226190Y-111943847D01*
X154226190Y-111943847D02*
X154154762Y-112134323D01*
X154154762Y-112134323D02*
X154095238Y-112229561D01*
X154095238Y-112229561D02*
X153988095Y-112324800D01*
X153988095Y-112324800D02*
X153839286Y-112372419D01*
X153839286Y-112372419D02*
X153601190Y-112372419D01*
X154601190Y-112372419D02*
X154726190Y-111372419D01*
X155059523Y-111372419D02*
X155630952Y-111372419D01*
X155220238Y-112372419D02*
X155345238Y-111372419D01*
X155839285Y-112372419D02*
X155964285Y-111372419D01*
X156630952Y-111372419D02*
X156821428Y-111372419D01*
X156821428Y-111372419D02*
X156910713Y-111420038D01*
X156910713Y-111420038D02*
X156994047Y-111515276D01*
X156994047Y-111515276D02*
X157017856Y-111705752D01*
X157017856Y-111705752D02*
X156976190Y-112039085D01*
X156976190Y-112039085D02*
X156904761Y-112229561D01*
X156904761Y-112229561D02*
X156797618Y-112324800D01*
X156797618Y-112324800D02*
X156696428Y-112372419D01*
X156696428Y-112372419D02*
X156505952Y-112372419D01*
X156505952Y-112372419D02*
X156416666Y-112324800D01*
X156416666Y-112324800D02*
X156333333Y-112229561D01*
X156333333Y-112229561D02*
X156309523Y-112039085D01*
X156309523Y-112039085D02*
X156351190Y-111705752D01*
X156351190Y-111705752D02*
X156422618Y-111515276D01*
X156422618Y-111515276D02*
X156529761Y-111420038D01*
X156529761Y-111420038D02*
X156630952Y-111372419D01*
X157363094Y-112372419D02*
X157488094Y-111372419D01*
X157488094Y-111372419D02*
X157934523Y-112372419D01*
X157934523Y-112372419D02*
X158059523Y-111372419D01*
G36*
X160170000Y-74402407D02*
G01*
X160170000Y-74320341D01*
X160924221Y-74320341D01*
X160924221Y-74416756D01*
X160385605Y-74650802D01*
X160924221Y-74866346D01*
X160924221Y-74961235D01*
X160170000Y-74961235D01*
X160170000Y-74875261D01*
X160619651Y-74875261D01*
X160753801Y-74875261D01*
X160753801Y-74873246D01*
X160618979Y-74825008D01*
X160282962Y-74692568D01*
X160282962Y-74593344D01*
X160620383Y-74447226D01*
X160742871Y-74402407D01*
X160620383Y-74402407D01*
X160170000Y-74402407D01*
G37*
G36*
X160170000Y-75200593D02*
G01*
X160170000Y-75102896D01*
X160924221Y-75102896D01*
X160924221Y-75200593D01*
X160170000Y-75200593D01*
G37*
G36*
X160336512Y-75323691D02*
G01*
X160336512Y-75421388D01*
X160331810Y-75421388D01*
X160293273Y-75426778D01*
X160265629Y-75441504D01*
X160246020Y-75465474D01*
X160233339Y-75495886D01*
X160225011Y-75534389D01*
X160221962Y-75582833D01*
X160226351Y-75624325D01*
X160238949Y-75659820D01*
X160259637Y-75690605D01*
X160287279Y-75714656D01*
X160319704Y-75729027D01*
X160358433Y-75734019D01*
X160390080Y-75729768D01*
X160416888Y-75717437D01*
X160440071Y-75696589D01*
X160468879Y-75653890D01*
X160502536Y-75583504D01*
X160518290Y-75544670D01*
X160553358Y-75470984D01*
X160583747Y-75425479D01*
X160618742Y-75390473D01*
X160655799Y-75366556D01*
X160696998Y-75352115D01*
X160743909Y-75347138D01*
X160798542Y-75353946D01*
X160846193Y-75373817D01*
X160888623Y-75407344D01*
X160912827Y-75438896D01*
X160931224Y-75479298D01*
X160943263Y-75530610D01*
X160947669Y-75595411D01*
X160941629Y-75673053D01*
X160926122Y-75725871D01*
X160903766Y-75760642D01*
X160872097Y-75787623D01*
X160838424Y-75803103D01*
X160801612Y-75808269D01*
X160796116Y-75808269D01*
X160796116Y-75710572D01*
X160801612Y-75710572D01*
X160819415Y-75707075D01*
X160837943Y-75695734D01*
X160852969Y-75678140D01*
X160864016Y-75652015D01*
X160870118Y-75622158D01*
X160872259Y-75588023D01*
X160867637Y-75541928D01*
X160855178Y-75507815D01*
X160835928Y-75482754D01*
X160810127Y-75463618D01*
X160782713Y-75452481D01*
X160752885Y-75448743D01*
X160723022Y-75452771D01*
X160694633Y-75464986D01*
X160669686Y-75484181D01*
X160649021Y-75509804D01*
X160600600Y-75606219D01*
X160580755Y-75652381D01*
X160544399Y-75723865D01*
X160510650Y-75770655D01*
X160479272Y-75798988D01*
X160442695Y-75819502D01*
X160404734Y-75831579D01*
X160364661Y-75835624D01*
X160309168Y-75828230D01*
X160254569Y-75805521D01*
X160221826Y-75782758D01*
X160195140Y-75755131D01*
X160173968Y-75722173D01*
X160159563Y-75685561D01*
X160150048Y-75638917D01*
X160146552Y-75579963D01*
X160152122Y-75499713D01*
X160167008Y-75439218D01*
X160183914Y-75403817D01*
X160206131Y-75375421D01*
X160233930Y-75353061D01*
X160282678Y-75331071D01*
X160336512Y-75323691D01*
G37*
G36*
X160643920Y-75928031D02*
G01*
X160723683Y-75945922D01*
X160789380Y-75973752D01*
X160843377Y-76010868D01*
X160889233Y-76059070D01*
X160921386Y-76112744D01*
X160940917Y-76173035D01*
X160947669Y-76241678D01*
X160940920Y-76310352D01*
X160921393Y-76370719D01*
X160889239Y-76424506D01*
X160843377Y-76472854D01*
X160789356Y-76510136D01*
X160723650Y-76538077D01*
X160643894Y-76556035D01*
X160547172Y-76562491D01*
X160450383Y-76556034D01*
X160370576Y-76538075D01*
X160304832Y-76510133D01*
X160250783Y-76472854D01*
X160204951Y-76424510D01*
X160172814Y-76370724D01*
X160153298Y-76310356D01*
X160146618Y-76242349D01*
X160221962Y-76242349D01*
X160227638Y-76291351D01*
X160244046Y-76333527D01*
X160271347Y-76370462D01*
X160311111Y-76403000D01*
X160356343Y-76427071D01*
X160409772Y-76445174D01*
X160472827Y-76456758D01*
X160547172Y-76460886D01*
X160621448Y-76456759D01*
X160684464Y-76445178D01*
X160737876Y-76427075D01*
X160783110Y-76403000D01*
X160822873Y-76370462D01*
X160850175Y-76333527D01*
X160866583Y-76291351D01*
X160872259Y-76242349D01*
X160866590Y-76193379D01*
X160850190Y-76151154D01*
X160822886Y-76114105D01*
X160783110Y-76081393D01*
X160737857Y-76057184D01*
X160684439Y-76038987D01*
X160621430Y-76027349D01*
X160547172Y-76023203D01*
X160472845Y-76027350D01*
X160409797Y-76038991D01*
X160356362Y-76057188D01*
X160311111Y-76081393D01*
X160271334Y-76114105D01*
X160244031Y-76151154D01*
X160227631Y-76193379D01*
X160221962Y-76242349D01*
X160146618Y-76242349D01*
X160146552Y-76241678D01*
X160153301Y-76173031D01*
X160172821Y-76112739D01*
X160204956Y-76059066D01*
X160250783Y-76010868D01*
X160304808Y-75973754D01*
X160370543Y-75945924D01*
X160450358Y-75928032D01*
X160547172Y-75921598D01*
X160643920Y-75928031D01*
G37*
G36*
X160203461Y-109609630D02*
G01*
X160170963Y-109528669D01*
X160152485Y-109453198D01*
X160146552Y-109382117D01*
X160152112Y-109308304D01*
X160167513Y-109248424D01*
X160191493Y-109199851D01*
X160225156Y-109157168D01*
X160267946Y-109120092D01*
X160321125Y-109088415D01*
X160379097Y-109066410D01*
X160450531Y-109052087D01*
X160538196Y-109046894D01*
X160637916Y-109052091D01*
X160713842Y-109065960D01*
X160770715Y-109086400D01*
X160822722Y-109116816D01*
X160865706Y-109153723D01*
X160900652Y-109197470D01*
X160926362Y-109247078D01*
X160942172Y-109303134D01*
X160947669Y-109367096D01*
X160942075Y-109432478D01*
X160925992Y-109489767D01*
X160898522Y-109539723D01*
X160860779Y-109577267D01*
X160816147Y-109602035D01*
X160774684Y-109609630D01*
X160769188Y-109609630D01*
X160769188Y-109519748D01*
X160774684Y-109519748D01*
X160799487Y-109514914D01*
X160823471Y-109499659D01*
X160843426Y-109476960D01*
X160859192Y-109446964D01*
X160868855Y-109412911D01*
X160872259Y-109372897D01*
X160866569Y-109320134D01*
X160850344Y-109275816D01*
X160823817Y-109238111D01*
X160785858Y-109205957D01*
X160742075Y-109182310D01*
X160689023Y-109164326D01*
X160624956Y-109152687D01*
X160547843Y-109148499D01*
X160471227Y-109152778D01*
X160407197Y-109164705D01*
X160353809Y-109183213D01*
X160309401Y-109207667D01*
X160270714Y-109240694D01*
X160243886Y-109278604D01*
X160227621Y-109322342D01*
X160221962Y-109373569D01*
X160228845Y-109438559D01*
X160252065Y-109519748D01*
X160466999Y-109519748D01*
X160466999Y-109351160D01*
X160542409Y-109351160D01*
X160542409Y-109609630D01*
X160203461Y-109609630D01*
G37*
G36*
X160170000Y-109830425D02*
G01*
X160170000Y-109740544D01*
X160924221Y-109740544D01*
X160924221Y-109837936D01*
X160388292Y-110182013D01*
X160328086Y-110213398D01*
X160387620Y-110213398D01*
X160924221Y-110213398D01*
X160924221Y-110303279D01*
X160170000Y-110303279D01*
X160170000Y-110207231D01*
X160708677Y-109861871D01*
X160768883Y-109830425D01*
X160708677Y-109830425D01*
X160170000Y-109830425D01*
G37*
G36*
X160925382Y-110651753D02*
G01*
X160919670Y-110752751D01*
X160904902Y-110824147D01*
X160883860Y-110873098D01*
X160852130Y-110915661D01*
X160810486Y-110952129D01*
X160757404Y-110982763D01*
X160699418Y-111003978D01*
X160631045Y-111017512D01*
X160550408Y-111022330D01*
X160474739Y-111018032D01*
X160409057Y-111005839D01*
X160351960Y-110986549D01*
X160299352Y-110958370D01*
X160255344Y-110922636D01*
X160218970Y-110878899D01*
X160193600Y-110828420D01*
X160176462Y-110759082D01*
X160170000Y-110665369D01*
X160170000Y-110656882D01*
X160252065Y-110656882D01*
X160256142Y-110725388D01*
X160266893Y-110775875D01*
X160282595Y-110812342D01*
X160306216Y-110843953D01*
X160337728Y-110870697D01*
X160378461Y-110892759D01*
X160422908Y-110907607D01*
X160476863Y-110917247D01*
X160542103Y-110920725D01*
X160607809Y-110917600D01*
X160663938Y-110908825D01*
X160711791Y-110895141D01*
X160756341Y-110874308D01*
X160790614Y-110848529D01*
X160816266Y-110817777D01*
X160833422Y-110781408D01*
X160845367Y-110728643D01*
X160849972Y-110654195D01*
X160849972Y-110541660D01*
X160252065Y-110541660D01*
X160252065Y-110656882D01*
X160170000Y-110656882D01*
X160170000Y-110443963D01*
X160925382Y-110443963D01*
X160925382Y-110651753D01*
G37*
G36*
X145300802Y-121163487D02*
G01*
X145398499Y-121163487D01*
X145398499Y-121168189D01*
X145403889Y-121206726D01*
X145418615Y-121234370D01*
X145442585Y-121253979D01*
X145472997Y-121266660D01*
X145511500Y-121274988D01*
X145559944Y-121278037D01*
X145601436Y-121273648D01*
X145636931Y-121261050D01*
X145667716Y-121240362D01*
X145691767Y-121212720D01*
X145706138Y-121180295D01*
X145711130Y-121141566D01*
X145706879Y-121109919D01*
X145694548Y-121083111D01*
X145673700Y-121059928D01*
X145631001Y-121031120D01*
X145560615Y-120997463D01*
X145521781Y-120981709D01*
X145448095Y-120946641D01*
X145402590Y-120916252D01*
X145367584Y-120881257D01*
X145343667Y-120844200D01*
X145329226Y-120803001D01*
X145324249Y-120756090D01*
X145331057Y-120701457D01*
X145350928Y-120653806D01*
X145384455Y-120611376D01*
X145416007Y-120587172D01*
X145456409Y-120568775D01*
X145507721Y-120556736D01*
X145572522Y-120552330D01*
X145650164Y-120558370D01*
X145702982Y-120573877D01*
X145737752Y-120596233D01*
X145764734Y-120627902D01*
X145780214Y-120661575D01*
X145785380Y-120698387D01*
X145785380Y-120703883D01*
X145687683Y-120703883D01*
X145687683Y-120698387D01*
X145684186Y-120680584D01*
X145672845Y-120662056D01*
X145655251Y-120647030D01*
X145629125Y-120635983D01*
X145599269Y-120629881D01*
X145565134Y-120627740D01*
X145519039Y-120632362D01*
X145484926Y-120644821D01*
X145459865Y-120664071D01*
X145440728Y-120689872D01*
X145429592Y-120717286D01*
X145425854Y-120747114D01*
X145429882Y-120776977D01*
X145442096Y-120805366D01*
X145461292Y-120830313D01*
X145486915Y-120850978D01*
X145583330Y-120899399D01*
X145629492Y-120919244D01*
X145700976Y-120955600D01*
X145747766Y-120989349D01*
X145776099Y-121020727D01*
X145796613Y-121057304D01*
X145808690Y-121095265D01*
X145812735Y-121135338D01*
X145805341Y-121190831D01*
X145782632Y-121245430D01*
X145759869Y-121278173D01*
X145732242Y-121304859D01*
X145699284Y-121326031D01*
X145662672Y-121340436D01*
X145616028Y-121349951D01*
X145557074Y-121353447D01*
X145476824Y-121347877D01*
X145416329Y-121332991D01*
X145380928Y-121316085D01*
X145352532Y-121293868D01*
X145330172Y-121266069D01*
X145308182Y-121217321D01*
X145300802Y-121163487D01*
G37*
G36*
X145922156Y-121330000D02*
G01*
X145922156Y-120575778D01*
X146348115Y-120575778D01*
X146348115Y-120657843D01*
X146019853Y-120657843D01*
X146019853Y-120896224D01*
X146307083Y-120896224D01*
X146307083Y-120971634D01*
X146019853Y-120971634D01*
X146019853Y-121247934D01*
X146373517Y-121247934D01*
X146373517Y-121330000D01*
X145922156Y-121330000D01*
G37*
G36*
X146785009Y-120579099D02*
G01*
X146827027Y-120587811D01*
X146856995Y-120600446D01*
X146895383Y-120630377D01*
X146925505Y-120672315D01*
X146944523Y-120721272D01*
X146950907Y-120774286D01*
X146946628Y-120817264D01*
X146933749Y-120858855D01*
X146913274Y-120897525D01*
X146885816Y-120932433D01*
X146849318Y-120961736D01*
X146790683Y-120990563D01*
X146826953Y-121016636D01*
X146856751Y-121055959D01*
X146887159Y-121106884D01*
X147006960Y-121330000D01*
X146894975Y-121330000D01*
X146790439Y-121131552D01*
X146746384Y-121064102D01*
X146691399Y-121005645D01*
X146591381Y-121005645D01*
X146591381Y-121330000D01*
X146493684Y-121330000D01*
X146493684Y-120930235D01*
X146591381Y-120930235D01*
X146687979Y-120930235D01*
X146744479Y-120924970D01*
X146780364Y-120911734D01*
X146808518Y-120889145D01*
X146830678Y-120857206D01*
X146844651Y-120820074D01*
X146849302Y-120780819D01*
X146845485Y-120746597D01*
X146834464Y-120717072D01*
X146816490Y-120691437D01*
X146791416Y-120670055D01*
X146757567Y-120656827D01*
X146694879Y-120651188D01*
X146591381Y-120651188D01*
X146591381Y-120930235D01*
X146493684Y-120930235D01*
X146493684Y-120575778D01*
X146727424Y-120575778D01*
X146785009Y-120579099D01*
G37*
G36*
X147641748Y-120573824D02*
G01*
X147732667Y-120573824D01*
X147425715Y-121330000D01*
X147327285Y-121330000D01*
X147040177Y-120573824D01*
X147146851Y-120573824D01*
X147386086Y-121207878D01*
X147641748Y-120573824D01*
G37*
G36*
X148182787Y-120559079D02*
G01*
X148243155Y-120578606D01*
X148296942Y-120610760D01*
X148345289Y-120656622D01*
X148382571Y-120710643D01*
X148410513Y-120776349D01*
X148428470Y-120856105D01*
X148434926Y-120952827D01*
X148428469Y-121049616D01*
X148410511Y-121129423D01*
X148382569Y-121195167D01*
X148345289Y-121249216D01*
X148296946Y-121295048D01*
X148243160Y-121327185D01*
X148182791Y-121346701D01*
X148114113Y-121353447D01*
X148045466Y-121346698D01*
X147985174Y-121327178D01*
X147931501Y-121295043D01*
X147883304Y-121249216D01*
X147846190Y-121195191D01*
X147818359Y-121129456D01*
X147800467Y-121049641D01*
X147794033Y-120952827D01*
X147895638Y-120952827D01*
X147899786Y-121027154D01*
X147911426Y-121090202D01*
X147929623Y-121143637D01*
X147953829Y-121188888D01*
X147986541Y-121228665D01*
X148023589Y-121255968D01*
X148065814Y-121272368D01*
X148114785Y-121278037D01*
X148163787Y-121272361D01*
X148205962Y-121255953D01*
X148242897Y-121228652D01*
X148275436Y-121188888D01*
X148299507Y-121143656D01*
X148317610Y-121090227D01*
X148329193Y-121027172D01*
X148333321Y-120952827D01*
X148329195Y-120878551D01*
X148317613Y-120815535D01*
X148299510Y-120762123D01*
X148275436Y-120716889D01*
X148242897Y-120677126D01*
X148205962Y-120649824D01*
X148163787Y-120633416D01*
X148114785Y-120627740D01*
X148065814Y-120633409D01*
X148023589Y-120649809D01*
X147986541Y-120677113D01*
X147953829Y-120716889D01*
X147929619Y-120762142D01*
X147911423Y-120815560D01*
X147899784Y-120878569D01*
X147895638Y-120952827D01*
X147794033Y-120952827D01*
X147800466Y-120856079D01*
X147818358Y-120776316D01*
X147846187Y-120710619D01*
X147883304Y-120656622D01*
X147931505Y-120610766D01*
X147985179Y-120578613D01*
X148045470Y-120559082D01*
X148114113Y-120552330D01*
X148182787Y-120559079D01*
G37*
G36*
X148528715Y-121163487D02*
G01*
X148626413Y-121163487D01*
X148626413Y-121168189D01*
X148631803Y-121206726D01*
X148646528Y-121234370D01*
X148670498Y-121253979D01*
X148700910Y-121266660D01*
X148739413Y-121274988D01*
X148787857Y-121278037D01*
X148829350Y-121273648D01*
X148864844Y-121261050D01*
X148895629Y-121240362D01*
X148919681Y-121212720D01*
X148934051Y-121180295D01*
X148939043Y-121141566D01*
X148934792Y-121109919D01*
X148922462Y-121083111D01*
X148901613Y-121059928D01*
X148858915Y-121031120D01*
X148788529Y-120997463D01*
X148749694Y-120981709D01*
X148676008Y-120946641D01*
X148630504Y-120916252D01*
X148595497Y-120881257D01*
X148571580Y-120844200D01*
X148557139Y-120803001D01*
X148552163Y-120756090D01*
X148558971Y-120701457D01*
X148578841Y-120653806D01*
X148612369Y-120611376D01*
X148643920Y-120587172D01*
X148684322Y-120568775D01*
X148735634Y-120556736D01*
X148800436Y-120552330D01*
X148878077Y-120558370D01*
X148930895Y-120573877D01*
X148965666Y-120596233D01*
X148992648Y-120627902D01*
X149008127Y-120661575D01*
X149013293Y-120698387D01*
X149013293Y-120703883D01*
X148915596Y-120703883D01*
X148915596Y-120698387D01*
X148912100Y-120680584D01*
X148900758Y-120662056D01*
X148883164Y-120647030D01*
X148857039Y-120635983D01*
X148827183Y-120629881D01*
X148793047Y-120627740D01*
X148746953Y-120632362D01*
X148712839Y-120644821D01*
X148687779Y-120664071D01*
X148668642Y-120689872D01*
X148657505Y-120717286D01*
X148653768Y-120747114D01*
X148657795Y-120776977D01*
X148670010Y-120805366D01*
X148689205Y-120830313D01*
X148714829Y-120850978D01*
X148811243Y-120899399D01*
X148857405Y-120919244D01*
X148928890Y-120955600D01*
X148975680Y-120989349D01*
X149004012Y-121020727D01*
X149024526Y-121057304D01*
X149036604Y-121095265D01*
X149040648Y-121135338D01*
X149033255Y-121190831D01*
X149010546Y-121245430D01*
X148987783Y-121278173D01*
X148960155Y-121304859D01*
X148927198Y-121326031D01*
X148890585Y-121340436D01*
X148843942Y-121349951D01*
X148784987Y-121353447D01*
X148704737Y-121347877D01*
X148644242Y-121332991D01*
X148608841Y-121316085D01*
X148580446Y-121293868D01*
X148558086Y-121266069D01*
X148536096Y-121217321D01*
X148528715Y-121163487D01*
G37*
G36*
X149846650Y-121330000D02*
G01*
X149846650Y-120669567D01*
X149694242Y-120730444D01*
X149694242Y-120646242D01*
X149846650Y-120575778D01*
X149936531Y-120575778D01*
X149936531Y-121330000D01*
X149846650Y-121330000D01*
G37*
G36*
X150247208Y-121060355D02*
G01*
X150247208Y-120984945D01*
X150548115Y-120984945D01*
X150548115Y-121060355D01*
X150247208Y-121060355D01*
G37*
G36*
X150974794Y-120558421D02*
G01*
X151030861Y-120576693D01*
X151065126Y-120595733D01*
X151092780Y-120619166D01*
X151114637Y-120647219D01*
X151136428Y-120695313D01*
X151143640Y-120746748D01*
X151136265Y-120798078D01*
X151114576Y-120842552D01*
X151079650Y-120879965D01*
X151027564Y-120913016D01*
X151073661Y-120938994D01*
X151109885Y-120969325D01*
X151137595Y-121004118D01*
X151158267Y-121043601D01*
X151170346Y-121083557D01*
X151174354Y-121124652D01*
X151170877Y-121163252D01*
X151160332Y-121201561D01*
X151142236Y-121240118D01*
X151118023Y-121274916D01*
X151089231Y-121302969D01*
X151055469Y-121324931D01*
X151017953Y-121340099D01*
X150972084Y-121349906D01*
X150916128Y-121353447D01*
X150860635Y-121349917D01*
X150814949Y-121340120D01*
X150777398Y-121324931D01*
X150743637Y-121302969D01*
X150714844Y-121274916D01*
X150690631Y-121240118D01*
X150672535Y-121201561D01*
X150661990Y-121163252D01*
X150658513Y-121124652D01*
X150659102Y-121118546D01*
X150752852Y-121118546D01*
X150758045Y-121158874D01*
X150773979Y-121198658D01*
X150799637Y-121232879D01*
X150834124Y-121257765D01*
X150874203Y-121272994D01*
X150916128Y-121278037D01*
X150958582Y-121272976D01*
X150998743Y-121257765D01*
X151033218Y-121232876D01*
X151058827Y-121198658D01*
X151074808Y-121158871D01*
X151080015Y-121118546D01*
X151074576Y-121076904D01*
X151057850Y-121035687D01*
X151031493Y-120999923D01*
X150997400Y-120973771D01*
X150957824Y-120957483D01*
X150916128Y-120952095D01*
X150874961Y-120957464D01*
X150835467Y-120973771D01*
X150801411Y-120999916D01*
X150775017Y-121035687D01*
X150758291Y-121076904D01*
X150752852Y-121118546D01*
X150659102Y-121118546D01*
X150662478Y-121083536D01*
X150674423Y-121043576D01*
X150694844Y-121004118D01*
X150722409Y-120969384D01*
X150758746Y-120939048D01*
X150805303Y-120913016D01*
X150753205Y-120879969D01*
X150718230Y-120842552D01*
X150696588Y-120798082D01*
X150689910Y-120751510D01*
X150783565Y-120751510D01*
X150787705Y-120783732D01*
X150799959Y-120812724D01*
X150820935Y-120839438D01*
X150847862Y-120859970D01*
X150879161Y-120872369D01*
X150916128Y-120876685D01*
X150953064Y-120872378D01*
X150984452Y-120859984D01*
X151011566Y-120839438D01*
X151032763Y-120812698D01*
X151045128Y-120783708D01*
X151049302Y-120751510D01*
X151044703Y-120716439D01*
X151031444Y-120687042D01*
X151009185Y-120661934D01*
X150980938Y-120642884D01*
X150950208Y-120631583D01*
X150916128Y-120627740D01*
X150882924Y-120631541D01*
X150852478Y-120642804D01*
X150823988Y-120661934D01*
X150801544Y-120687064D01*
X150788192Y-120716461D01*
X150783565Y-120751510D01*
X150689910Y-120751510D01*
X150689227Y-120746748D01*
X150696415Y-120695254D01*
X150718169Y-120646852D01*
X150740098Y-120618598D01*
X150767776Y-120595174D01*
X150802006Y-120576327D01*
X150858018Y-120558316D01*
X150916128Y-120552330D01*
X150974794Y-120558421D01*
G37*
G36*
X160170000Y-104335973D02*
G01*
X160248218Y-104335973D01*
X160288603Y-104339829D01*
X160333001Y-104352067D01*
X160382369Y-104374075D01*
X160427652Y-104403289D01*
X160474537Y-104445204D01*
X160523419Y-104502241D01*
X160563292Y-104553105D01*
X160639318Y-104644642D01*
X160681261Y-104683653D01*
X160721755Y-104704490D01*
X160762227Y-104711130D01*
X160789967Y-104707157D01*
X160815528Y-104695202D01*
X160839774Y-104674249D01*
X160857695Y-104647749D01*
X160869207Y-104613306D01*
X160873419Y-104568614D01*
X160870103Y-104527477D01*
X160861302Y-104497379D01*
X160848140Y-104475680D01*
X160820539Y-104452506D01*
X160791659Y-104445394D01*
X160791659Y-104355512D01*
X160796421Y-104355512D01*
X160834090Y-104362079D01*
X160870915Y-104382623D01*
X160902210Y-104413849D01*
X160927458Y-104455652D01*
X160943030Y-104505204D01*
X160948829Y-104571545D01*
X160944605Y-104637144D01*
X160933236Y-104687504D01*
X160916188Y-104725724D01*
X160894180Y-104754300D01*
X160855024Y-104784785D01*
X160811895Y-104802726D01*
X160763326Y-104808827D01*
X160723632Y-104804640D01*
X160682177Y-104791608D01*
X160642425Y-104767931D01*
X160596264Y-104723953D01*
X160529708Y-104641887D01*
X160504246Y-104604762D01*
X160449305Y-104533477D01*
X160399376Y-104484417D01*
X160353676Y-104453036D01*
X160311184Y-104435779D01*
X160270628Y-104430312D01*
X160252065Y-104430312D01*
X160252065Y-104822505D01*
X160170000Y-104822505D01*
X160170000Y-104335973D01*
G37*
G36*
X160336512Y-104963189D02*
G01*
X160336512Y-105060886D01*
X160331810Y-105060886D01*
X160293273Y-105066276D01*
X160265629Y-105081001D01*
X160246020Y-105104972D01*
X160233339Y-105135384D01*
X160225011Y-105173886D01*
X160221962Y-105222330D01*
X160226351Y-105263823D01*
X160238949Y-105299317D01*
X160259637Y-105330102D01*
X160287279Y-105354154D01*
X160319704Y-105368525D01*
X160358433Y-105373517D01*
X160390080Y-105369265D01*
X160416888Y-105356935D01*
X160440071Y-105336086D01*
X160468879Y-105293388D01*
X160502536Y-105223002D01*
X160518290Y-105184167D01*
X160553358Y-105110482D01*
X160583747Y-105064977D01*
X160618742Y-105029971D01*
X160655799Y-105006053D01*
X160696998Y-104991613D01*
X160743909Y-104986636D01*
X160798542Y-104993444D01*
X160846193Y-105013314D01*
X160888623Y-105046842D01*
X160912827Y-105078393D01*
X160931224Y-105118796D01*
X160943263Y-105170107D01*
X160947669Y-105234909D01*
X160941629Y-105312550D01*
X160926122Y-105365368D01*
X160903766Y-105400139D01*
X160872097Y-105427121D01*
X160838424Y-105442601D01*
X160801612Y-105447766D01*
X160796116Y-105447766D01*
X160796116Y-105350069D01*
X160801612Y-105350069D01*
X160819415Y-105346573D01*
X160837943Y-105335232D01*
X160852969Y-105317637D01*
X160864016Y-105291512D01*
X160870118Y-105261656D01*
X160872259Y-105227520D01*
X160867637Y-105181426D01*
X160855178Y-105147313D01*
X160835928Y-105122252D01*
X160810127Y-105103115D01*
X160782713Y-105091978D01*
X160752885Y-105088241D01*
X160723022Y-105092269D01*
X160694633Y-105104483D01*
X160669686Y-105123678D01*
X160649021Y-105149302D01*
X160600600Y-105245717D01*
X160580755Y-105291878D01*
X160544399Y-105363363D01*
X160510650Y-105410153D01*
X160479272Y-105438485D01*
X160442695Y-105459000D01*
X160404734Y-105471077D01*
X160364661Y-105475122D01*
X160309168Y-105467728D01*
X160254569Y-105445019D01*
X160221826Y-105422256D01*
X160195140Y-105394628D01*
X160173968Y-105361671D01*
X160159563Y-105325058D01*
X160150048Y-105278415D01*
X160146552Y-105219460D01*
X160152122Y-105139210D01*
X160167008Y-105078715D01*
X160183914Y-105043314D01*
X160206131Y-105014919D01*
X160233930Y-104992559D01*
X160282678Y-104970569D01*
X160336512Y-104963189D01*
G37*
G36*
X160439644Y-105553279D02*
G01*
X160515054Y-105553279D01*
X160515054Y-105854187D01*
X160439644Y-105854187D01*
X160439644Y-105553279D01*
G37*
G36*
X129609750Y-86079323D02*
G01*
X129663632Y-86088251D01*
X129698002Y-86100446D01*
X129728453Y-86119601D01*
X129752997Y-86143455D01*
X129772252Y-86172437D01*
X129790629Y-86222503D01*
X129797103Y-86282773D01*
X129792444Y-86334664D01*
X129778918Y-86381003D01*
X129756678Y-86422879D01*
X129725174Y-86461071D01*
X129687307Y-86491008D01*
X129640354Y-86513380D01*
X129582353Y-86527791D01*
X129510790Y-86533000D01*
X129418039Y-86533000D01*
X129418039Y-86831953D01*
X129320341Y-86831953D01*
X129320341Y-86457590D01*
X129418039Y-86457590D01*
X129483496Y-86457590D01*
X129551236Y-86453379D01*
X129599332Y-86442437D01*
X129632532Y-86426694D01*
X129654588Y-86407093D01*
X129677164Y-86371573D01*
X129690798Y-86331793D01*
X129695498Y-86286559D01*
X129691515Y-86247010D01*
X129680334Y-86214780D01*
X129662404Y-86188312D01*
X129637303Y-86169667D01*
X129595958Y-86156460D01*
X129531245Y-86151188D01*
X129418039Y-86151188D01*
X129418039Y-86457590D01*
X129320341Y-86457590D01*
X129320341Y-86075778D01*
X129529413Y-86075778D01*
X129609750Y-86079323D01*
G37*
G36*
X130181053Y-86830000D02*
G01*
X130083356Y-86830000D01*
X130083356Y-86473893D01*
X129839296Y-86073824D01*
X129953480Y-86073824D01*
X130142096Y-86379188D01*
X130328026Y-86073824D01*
X130423037Y-86073824D01*
X130181053Y-86473893D01*
X130181053Y-86830000D01*
G37*
G36*
X130735973Y-86830000D02*
G01*
X130735973Y-86169567D01*
X130583565Y-86230444D01*
X130583565Y-86146242D01*
X130735973Y-86075778D01*
X130825854Y-86075778D01*
X130825854Y-86830000D01*
X130735973Y-86830000D01*
G37*
G36*
X129609750Y-87829323D02*
G01*
X129663632Y-87838251D01*
X129698002Y-87850446D01*
X129728453Y-87869601D01*
X129752997Y-87893455D01*
X129772252Y-87922437D01*
X129790629Y-87972503D01*
X129797103Y-88032773D01*
X129792444Y-88084664D01*
X129778918Y-88131003D01*
X129756678Y-88172879D01*
X129725174Y-88211071D01*
X129687307Y-88241008D01*
X129640354Y-88263380D01*
X129582353Y-88277791D01*
X129510790Y-88283000D01*
X129418039Y-88283000D01*
X129418039Y-88581953D01*
X129320341Y-88581953D01*
X129320341Y-88207590D01*
X129418039Y-88207590D01*
X129483496Y-88207590D01*
X129551236Y-88203379D01*
X129599332Y-88192437D01*
X129632532Y-88176694D01*
X129654588Y-88157093D01*
X129677164Y-88121573D01*
X129690798Y-88081793D01*
X129695498Y-88036559D01*
X129691515Y-87997010D01*
X129680334Y-87964780D01*
X129662404Y-87938312D01*
X129637303Y-87919667D01*
X129595958Y-87906460D01*
X129531245Y-87901188D01*
X129418039Y-87901188D01*
X129418039Y-88207590D01*
X129320341Y-88207590D01*
X129320341Y-87825778D01*
X129529413Y-87825778D01*
X129609750Y-87829323D01*
G37*
G36*
X130181053Y-88580000D02*
G01*
X130083356Y-88580000D01*
X130083356Y-88223893D01*
X129839296Y-87823824D01*
X129953480Y-87823824D01*
X130142096Y-88129188D01*
X130328026Y-87823824D01*
X130423037Y-87823824D01*
X130181053Y-88223893D01*
X130181053Y-88580000D01*
G37*
G36*
X130521039Y-88580000D02*
G01*
X130521039Y-88501781D01*
X130524895Y-88461396D01*
X130537133Y-88416998D01*
X130559141Y-88367630D01*
X130588355Y-88322347D01*
X130630270Y-88275462D01*
X130687308Y-88226580D01*
X130738171Y-88186707D01*
X130829709Y-88110681D01*
X130868719Y-88068738D01*
X130889557Y-88028244D01*
X130896196Y-87987772D01*
X130892224Y-87960032D01*
X130880268Y-87934471D01*
X130859316Y-87910225D01*
X130832816Y-87892304D01*
X130798373Y-87880792D01*
X130753681Y-87876580D01*
X130712543Y-87879896D01*
X130682445Y-87888697D01*
X130660746Y-87901859D01*
X130637572Y-87929460D01*
X130630460Y-87958340D01*
X130540579Y-87958340D01*
X130540579Y-87953578D01*
X130547145Y-87915909D01*
X130567690Y-87879084D01*
X130598915Y-87847789D01*
X130640718Y-87822541D01*
X130690271Y-87806969D01*
X130756612Y-87801170D01*
X130822211Y-87805394D01*
X130872571Y-87816763D01*
X130910790Y-87833811D01*
X130939366Y-87855819D01*
X130969851Y-87894975D01*
X130987792Y-87938104D01*
X130993893Y-87986673D01*
X130989707Y-88026367D01*
X130976674Y-88067822D01*
X130952997Y-88107574D01*
X130909019Y-88153735D01*
X130826953Y-88220291D01*
X130789829Y-88245753D01*
X130718543Y-88300694D01*
X130669483Y-88350623D01*
X130638102Y-88396323D01*
X130620845Y-88438815D01*
X130615378Y-88479371D01*
X130615378Y-88497934D01*
X131007571Y-88497934D01*
X131007571Y-88580000D01*
X130521039Y-88580000D01*
G37*
G36*
X129609750Y-91329323D02*
G01*
X129663632Y-91338251D01*
X129698002Y-91350446D01*
X129728453Y-91369601D01*
X129752997Y-91393455D01*
X129772252Y-91422437D01*
X129790629Y-91472503D01*
X129797103Y-91532773D01*
X129792444Y-91584664D01*
X129778918Y-91631003D01*
X129756678Y-91672879D01*
X129725174Y-91711071D01*
X129687307Y-91741008D01*
X129640354Y-91763380D01*
X129582353Y-91777791D01*
X129510790Y-91783000D01*
X129418039Y-91783000D01*
X129418039Y-92081953D01*
X129320341Y-92081953D01*
X129320341Y-91707590D01*
X129418039Y-91707590D01*
X129483496Y-91707590D01*
X129551236Y-91703379D01*
X129599332Y-91692437D01*
X129632532Y-91676694D01*
X129654588Y-91657093D01*
X129677164Y-91621573D01*
X129690798Y-91581793D01*
X129695498Y-91536559D01*
X129691515Y-91497010D01*
X129680334Y-91464780D01*
X129662404Y-91438312D01*
X129637303Y-91419667D01*
X129595958Y-91406460D01*
X129531245Y-91401188D01*
X129418039Y-91401188D01*
X129418039Y-91707590D01*
X129320341Y-91707590D01*
X129320341Y-91325778D01*
X129529413Y-91325778D01*
X129609750Y-91329323D01*
G37*
G36*
X130181053Y-92080000D02*
G01*
X130083356Y-92080000D01*
X130083356Y-91723893D01*
X129839296Y-91323824D01*
X129953480Y-91323824D01*
X130142096Y-91629188D01*
X130328026Y-91323824D01*
X130423037Y-91323824D01*
X130181053Y-91723893D01*
X130181053Y-92080000D01*
G37*
G36*
X130939183Y-91774024D02*
G01*
X131044696Y-91774024D01*
X131044696Y-91849434D01*
X130939183Y-91849434D01*
X130939183Y-92080000D01*
X130849302Y-92080000D01*
X130849302Y-91849434D01*
X130485868Y-91849434D01*
X130485868Y-91774024D01*
X130586191Y-91774024D01*
X130849302Y-91774024D01*
X130849302Y-91445334D01*
X130586191Y-91774024D01*
X130485868Y-91774024D01*
X130849302Y-91325778D01*
X130939183Y-91325778D01*
X130939183Y-91774024D01*
G37*
X162161027Y-123491466D02*
X162208646Y-123443847D01*
X162208646Y-123443847D02*
X162303884Y-123396228D01*
X162303884Y-123396228D02*
X162494360Y-123491466D01*
X162494360Y-123491466D02*
X162589598Y-123443847D01*
X162589598Y-123443847D02*
X162637217Y-123396228D01*
D12*
%TO.C,C45*%
X157030460Y-55698432D02*
X157030460Y-55979592D01*
X158050460Y-55698432D02*
X158050460Y-55979592D01*
%TO.C,J10*%
X125680000Y-97510000D02*
X125680000Y-98830000D01*
X125680000Y-99430000D02*
X125680000Y-118530000D01*
X126200000Y-97510000D02*
X126200000Y-118530000D01*
X131300000Y-97510000D02*
X131300000Y-118530000D01*
X132420000Y-97510000D02*
X125680000Y-97510000D01*
X132420000Y-97510000D02*
X132420000Y-118530000D01*
X132420000Y-118530000D02*
X125680000Y-118530000D01*
X125680000Y-99130000D02*
X125070000Y-99570000D01*
X125070000Y-98690000D01*
X125680000Y-99130000D01*
G36*
X125680000Y-99130000D02*
G01*
X125070000Y-99570000D01*
X125070000Y-98690000D01*
X125680000Y-99130000D01*
G37*
%TO.C,R42*%
X133727500Y-109412742D02*
X133727500Y-109887258D01*
X134772500Y-109412742D02*
X134772500Y-109887258D01*
%TO.C,R39*%
X135477500Y-116887258D02*
X135477500Y-116412742D01*
X136522500Y-116887258D02*
X136522500Y-116412742D01*
%TO.C,R38*%
X135477500Y-109887258D02*
X135477500Y-109412742D01*
X136522500Y-109887258D02*
X136522500Y-109412742D01*
%TO.C,SW2*%
X125718760Y-80302440D02*
X126018760Y-80302440D01*
X125718760Y-84442440D02*
X125718760Y-80302440D01*
X126018760Y-84442440D02*
X125718760Y-84442440D01*
X128558760Y-80302440D02*
X128858760Y-80302440D01*
X128858760Y-80302440D02*
X128858760Y-84442440D01*
X128858760Y-84442440D02*
X128558760Y-84442440D01*
D13*
%TO.C,Y1*%
X134473500Y-71429500D02*
X134474000Y-67368000D01*
X134474000Y-67368000D02*
X136125000Y-67368000D01*
X136125000Y-67368000D02*
X137776000Y-67368000D01*
D14*
X137522000Y-71686000D02*
X138030000Y-71686000D01*
D13*
X137776000Y-67368000D02*
X137803500Y-71429500D01*
X137803500Y-71429500D02*
X134473500Y-71429500D01*
D14*
X138030000Y-71686000D02*
X138030000Y-71178000D01*
D12*
%TO.C,C23*%
X156240000Y-64384420D02*
X156240000Y-64665580D01*
X157260000Y-64384420D02*
X157260000Y-64665580D01*
%TO.C,C22*%
X152629340Y-79142368D02*
X152910500Y-79142368D01*
X152629340Y-80162368D02*
X152910500Y-80162368D01*
%TO.C,R47*%
X142727500Y-108937734D02*
X142727500Y-109412250D01*
X143772500Y-108937734D02*
X143772500Y-109412250D01*
%TO.C,M7*%
X154720000Y-124770000D02*
X154720000Y-129910000D01*
X154720000Y-124770000D02*
X157380000Y-124770000D01*
X154720000Y-129910000D02*
X157380000Y-129910000D01*
X156050000Y-122170000D02*
X157380000Y-122170000D01*
X157380000Y-122170000D02*
X157380000Y-123500000D01*
X157380000Y-124770000D02*
X157380000Y-129910000D01*
%TO.C,R45*%
X138444593Y-120103504D02*
X138919109Y-120103504D01*
X138444593Y-121148504D02*
X138919109Y-121148504D01*
%TO.C,R53*%
X133727500Y-112487734D02*
X133727500Y-112962250D01*
X134772500Y-112487734D02*
X134772500Y-112962250D01*
%TO.C,C18*%
X149434420Y-79740000D02*
X149715580Y-79740000D01*
X149434420Y-80760000D02*
X149715580Y-80760000D01*
%TO.C,C48*%
X135490000Y-112584412D02*
X135490000Y-112865572D01*
X136510000Y-112584412D02*
X136510000Y-112865572D01*
%TO.C,C32*%
X154895810Y-77565753D02*
X155176970Y-77565753D01*
X154895810Y-78585753D02*
X155176970Y-78585753D01*
%TO.C,C29*%
X139018855Y-78740000D02*
X138737695Y-78740000D01*
X139018855Y-79760000D02*
X138737695Y-79760000D01*
%TO.C,J8*%
X161880000Y-56130000D02*
X168620000Y-56130000D01*
X161880000Y-79690000D02*
X161880000Y-56130000D01*
X161880000Y-79690000D02*
X168620000Y-79690000D01*
X163000000Y-79690000D02*
X163000000Y-56130000D01*
X168100000Y-79690000D02*
X168100000Y-56130000D01*
X168620000Y-77770000D02*
X168620000Y-56130000D01*
X168620000Y-79690000D02*
X168620000Y-78370000D01*
X169230000Y-78510000D02*
X168620000Y-78070000D01*
X169230000Y-77630000D01*
X169230000Y-78510000D01*
G36*
X169230000Y-78510000D02*
G01*
X168620000Y-78070000D01*
X169230000Y-77630000D01*
X169230000Y-78510000D01*
G37*
%TO.C,C27*%
X135865580Y-83240000D02*
X135584420Y-83240000D01*
X135865580Y-84260000D02*
X135584420Y-84260000D01*
%TO.C,R3*%
X157677500Y-81787258D02*
X157677500Y-81312742D01*
X158722500Y-81787258D02*
X158722500Y-81312742D01*
%TO.C,M2*%
X136970000Y-124770000D02*
X136970000Y-129910000D01*
X136970000Y-124770000D02*
X139630000Y-124770000D01*
X136970000Y-129910000D02*
X139630000Y-129910000D01*
X138300000Y-122170000D02*
X139630000Y-122170000D01*
X139630000Y-122170000D02*
X139630000Y-123500000D01*
X139630000Y-124770000D02*
X139630000Y-129910000D01*
%TO.C,R43*%
X133727500Y-116412742D02*
X133727500Y-116887258D01*
X134772500Y-116412742D02*
X134772500Y-116887258D01*
%TO.C,M4*%
X144070000Y-124770000D02*
X144070000Y-129910000D01*
X144070000Y-124770000D02*
X146730000Y-124770000D01*
X144070000Y-129910000D02*
X146730000Y-129910000D01*
X145400000Y-122170000D02*
X146730000Y-122170000D01*
X146730000Y-122170000D02*
X146730000Y-123500000D01*
X146730000Y-124770000D02*
X146730000Y-129910000D01*
%TO.C,M5*%
X147620000Y-124770000D02*
X147620000Y-129910000D01*
X147620000Y-124770000D02*
X150280000Y-124770000D01*
X147620000Y-129910000D02*
X150280000Y-129910000D01*
X148950000Y-122170000D02*
X150280000Y-122170000D01*
X150280000Y-122170000D02*
X150280000Y-123500000D01*
X150280000Y-124770000D02*
X150280000Y-129910000D01*
%TO.C,R15*%
X142937742Y-79727500D02*
X143412258Y-79727500D01*
X142937742Y-80772500D02*
X143412258Y-80772500D01*
%TO.C,R14*%
X152987258Y-80727500D02*
X152512742Y-80727500D01*
X152987258Y-81772500D02*
X152512742Y-81772500D01*
%TO.C,C36*%
X138990000Y-61140580D02*
X138990000Y-60859420D01*
X140010000Y-61140580D02*
X140010000Y-60859420D01*
%TO.C,C3*%
X136165464Y-65992317D02*
X135884304Y-65992317D01*
X136165464Y-67012317D02*
X135884304Y-67012317D01*
D15*
%TO.C,G\u002A\u002A\u002A*%
G36*
X152784022Y-101360331D02*
G01*
X153166173Y-101432805D01*
X153480000Y-101522447D01*
X153841555Y-101662842D01*
X154184981Y-101837853D01*
X154508164Y-102045444D01*
X154808994Y-102283579D01*
X155085358Y-102550222D01*
X155335146Y-102843337D01*
X155556245Y-103160887D01*
X155746544Y-103500836D01*
X155903102Y-103858965D01*
X155940706Y-103969347D01*
X155981149Y-104107195D01*
X156021420Y-104260405D01*
X156058508Y-104416874D01*
X156089403Y-104564498D01*
X156111092Y-104691174D01*
X156112334Y-104700000D01*
X156125553Y-104830272D01*
X156133913Y-104986630D01*
X156137508Y-105158452D01*
X156136430Y-105335114D01*
X156130770Y-105505993D01*
X156120623Y-105660465D01*
X156106081Y-105787907D01*
X156102666Y-105809141D01*
X156018064Y-106203926D01*
X155902965Y-106574044D01*
X155756014Y-106922229D01*
X155575856Y-107251210D01*
X155361137Y-107563721D01*
X155110503Y-107862494D01*
X155055463Y-107921348D01*
X154776132Y-108186290D01*
X154473061Y-108420294D01*
X154149069Y-108622332D01*
X153806974Y-108791376D01*
X153449594Y-108926400D01*
X153079749Y-109026375D01*
X152700256Y-109090273D01*
X152313934Y-109117069D01*
X151923601Y-109105733D01*
X151830000Y-109097261D01*
X151459397Y-109039709D01*
X151092789Y-108944502D01*
X150735438Y-108813793D01*
X150392607Y-108649736D01*
X150069557Y-108454483D01*
X149832282Y-108279981D01*
X149706777Y-108173185D01*
X149570459Y-108046534D01*
X149432181Y-107909066D01*
X149300794Y-107769817D01*
X149185148Y-107637825D01*
X149106349Y-107538774D01*
X148943922Y-107298586D01*
X148792799Y-107031022D01*
X148659037Y-106748362D01*
X148548694Y-106462885D01*
X148500816Y-106311317D01*
X148434975Y-106039029D01*
X148387289Y-105746244D01*
X148358651Y-105444704D01*
X148349956Y-105146153D01*
X148354894Y-105030717D01*
X148604854Y-105030717D01*
X148605032Y-105400502D01*
X148642329Y-105769672D01*
X148716977Y-106134598D01*
X148792706Y-106388909D01*
X148923587Y-106722831D01*
X149084790Y-107037374D01*
X149280648Y-107340755D01*
X149331189Y-107410000D01*
X149424979Y-107525741D01*
X149543111Y-107656125D01*
X149677106Y-107792926D01*
X149818487Y-107927918D01*
X149958775Y-108052877D01*
X150089493Y-108159578D01*
X150150379Y-108204767D01*
X150281083Y-108290455D01*
X150436916Y-108381134D01*
X150606522Y-108471054D01*
X150778548Y-108554461D01*
X150941640Y-108625605D01*
X151084445Y-108678734D01*
X151088810Y-108680156D01*
X151426710Y-108771495D01*
X151776314Y-108831757D01*
X152129543Y-108860338D01*
X152478315Y-108856636D01*
X152814550Y-108820047D01*
X152860000Y-108812295D01*
X153239308Y-108724984D01*
X153601050Y-108602266D01*
X153943588Y-108445363D01*
X154265284Y-108255497D01*
X154564502Y-108033891D01*
X154839603Y-107781766D01*
X155088950Y-107500346D01*
X155310906Y-107190852D01*
X155503833Y-106854506D01*
X155516455Y-106829496D01*
X155663758Y-106495152D01*
X155773252Y-106155268D01*
X155845709Y-105806209D01*
X155881902Y-105444339D01*
X155884020Y-105102075D01*
X155862615Y-104784087D01*
X155820069Y-104491329D01*
X155753722Y-104213554D01*
X155660909Y-103940515D01*
X155538969Y-103661965D01*
X155478264Y-103540549D01*
X155365417Y-103335652D01*
X155247587Y-103151109D01*
X155117109Y-102976574D01*
X154966318Y-102801701D01*
X154810168Y-102638750D01*
X154685103Y-102516196D01*
X154575465Y-102416221D01*
X154471331Y-102330464D01*
X154362778Y-102250560D01*
X154293633Y-102203437D01*
X153969357Y-102006913D01*
X153643246Y-101849034D01*
X153311067Y-101728516D01*
X152968586Y-101644077D01*
X152611567Y-101594433D01*
X152235778Y-101578300D01*
X152230882Y-101578305D01*
X151860412Y-101595519D01*
X151507328Y-101646834D01*
X151166136Y-101733543D01*
X150831338Y-101856940D01*
X150610000Y-101959711D01*
X150281079Y-102146922D01*
X149975302Y-102366249D01*
X149694182Y-102616160D01*
X149439236Y-102895123D01*
X149211975Y-103201606D01*
X149013916Y-103534078D01*
X148970672Y-103618014D01*
X148824705Y-103953966D01*
X148714924Y-104303820D01*
X148641563Y-104663947D01*
X148604854Y-105030717D01*
X148354894Y-105030717D01*
X148362097Y-104862333D01*
X148378913Y-104710000D01*
X148453116Y-104314170D01*
X148563190Y-103935952D01*
X148709329Y-103574867D01*
X148891729Y-103230436D01*
X149110583Y-102902180D01*
X149119931Y-102889604D01*
X149211939Y-102774911D01*
X149326535Y-102645278D01*
X149455124Y-102509412D01*
X149589113Y-102376020D01*
X149719909Y-102253810D01*
X149838916Y-102151489D01*
X149881668Y-102117795D01*
X150203185Y-101897439D01*
X150542115Y-101712059D01*
X150895648Y-101562122D01*
X151260973Y-101448091D01*
X151635283Y-101370432D01*
X152015767Y-101329609D01*
X152399617Y-101326087D01*
X152784022Y-101360331D01*
G37*
G36*
X154526989Y-103613763D02*
G01*
X154535800Y-103626267D01*
X154540965Y-103679989D01*
X154517376Y-103744749D01*
X154463222Y-103824001D01*
X154386720Y-103910715D01*
X154249250Y-104055435D01*
X154458417Y-104063178D01*
X154552804Y-104067221D01*
X154618449Y-104073037D01*
X154666591Y-104083650D01*
X154708468Y-104102086D01*
X154755321Y-104131369D01*
X154783674Y-104150714D01*
X154891948Y-104248156D01*
X154972570Y-104368390D01*
X155024448Y-104504299D01*
X155046492Y-104648767D01*
X155037612Y-104794677D01*
X154996718Y-104934914D01*
X154923262Y-105061651D01*
X154875024Y-105117426D01*
X154826129Y-105162550D01*
X154802814Y-105178493D01*
X154765464Y-105201958D01*
X154750229Y-105218379D01*
X154766696Y-105233187D01*
X154808013Y-105257091D01*
X154831263Y-105268720D01*
X154941247Y-105342615D01*
X155030675Y-105445105D01*
X155096661Y-105568901D01*
X155136316Y-105706711D01*
X155146753Y-105851244D01*
X155125084Y-105995209D01*
X155122556Y-106004166D01*
X155073052Y-106114602D01*
X154993673Y-106222247D01*
X154893735Y-106316289D01*
X154802151Y-106376106D01*
X154700000Y-106430000D01*
X154025250Y-106435987D01*
X153350501Y-106441974D01*
X153348884Y-106220000D01*
X153610000Y-106220000D01*
X154090796Y-106220000D01*
X154244178Y-106219740D01*
X154363040Y-106218712D01*
X154452861Y-106216537D01*
X154519119Y-106212840D01*
X154567292Y-106207243D01*
X154602859Y-106199369D01*
X154631298Y-106188842D01*
X154645796Y-106181831D01*
X154750397Y-106108292D01*
X154826266Y-106014453D01*
X154873255Y-105906974D01*
X154891219Y-105792519D01*
X154880012Y-105677746D01*
X154839485Y-105569319D01*
X154769494Y-105473897D01*
X154669892Y-105398142D01*
X154663109Y-105394442D01*
X154634839Y-105380443D01*
X154605244Y-105369621D01*
X154568770Y-105361479D01*
X154519866Y-105355523D01*
X154452977Y-105351256D01*
X154362551Y-105348183D01*
X154243035Y-105345807D01*
X154095000Y-105343712D01*
X153610000Y-105337424D01*
X153610000Y-105778712D01*
X153610000Y-106220000D01*
X153348884Y-106220000D01*
X153345669Y-105778712D01*
X153345250Y-105721219D01*
X153340000Y-105000464D01*
X152755000Y-105614306D01*
X152170000Y-106228148D01*
X152170000Y-106334074D01*
X152170000Y-106440000D01*
X152065000Y-106440915D01*
X151960000Y-106441831D01*
X151312291Y-107120915D01*
X151180758Y-107258281D01*
X151057140Y-107386343D01*
X150944256Y-107502254D01*
X150844924Y-107603169D01*
X150761963Y-107686243D01*
X150698191Y-107748628D01*
X150656427Y-107787480D01*
X150639740Y-107800000D01*
X150606916Y-107786016D01*
X150590797Y-107770960D01*
X150573389Y-107732329D01*
X150573348Y-107713515D01*
X150588154Y-107693780D01*
X150628024Y-107648200D01*
X150690231Y-107579703D01*
X150772052Y-107491218D01*
X150870762Y-107385671D01*
X150983636Y-107265992D01*
X151107950Y-107135107D01*
X151240979Y-106995946D01*
X151245000Y-106991753D01*
X151910000Y-106298396D01*
X151910000Y-105583716D01*
X152173096Y-105583716D01*
X152173289Y-105717974D01*
X152174294Y-105821973D01*
X152176202Y-105898961D01*
X152179106Y-105952184D01*
X152183100Y-105984887D01*
X152188275Y-106000317D01*
X152194726Y-106001721D01*
X152197288Y-105999513D01*
X152216824Y-105979003D01*
X152260935Y-105932852D01*
X152326523Y-105864298D01*
X152410487Y-105776579D01*
X152509727Y-105672935D01*
X152621142Y-105556604D01*
X152741634Y-105430824D01*
X152787516Y-105382934D01*
X153226603Y-104924658D01*
X153610000Y-104924658D01*
X153610000Y-105140000D01*
X154036073Y-105140000D01*
X154177532Y-105139839D01*
X154285240Y-105138959D01*
X154365443Y-105136759D01*
X154424389Y-105132640D01*
X154468327Y-105126000D01*
X154503503Y-105116242D01*
X154536165Y-105102765D01*
X154563811Y-105089337D01*
X154668462Y-105019575D01*
X154739167Y-104930030D01*
X154778081Y-104817419D01*
X154786390Y-104749861D01*
X154782905Y-104617323D01*
X154752293Y-104508190D01*
X154694108Y-104416645D01*
X154636899Y-104360466D01*
X154570238Y-104321196D01*
X154486366Y-104296399D01*
X154377527Y-104283639D01*
X154260326Y-104280439D01*
X154040653Y-104280000D01*
X153825326Y-104494658D01*
X153610000Y-104709317D01*
X153610000Y-104924658D01*
X153226603Y-104924658D01*
X153350000Y-104795868D01*
X153350000Y-104709317D01*
X153350000Y-104427553D01*
X153350000Y-104400000D01*
X153350000Y-104280000D01*
X153610000Y-104280000D01*
X153610000Y-104400000D01*
X153611060Y-104463301D01*
X153613816Y-104506784D01*
X153617000Y-104520000D01*
X153632431Y-104506017D01*
X153667174Y-104468894D01*
X153714515Y-104415863D01*
X153728374Y-104400000D01*
X153832746Y-104280000D01*
X153721373Y-104280000D01*
X153610000Y-104280000D01*
X153350000Y-104280000D01*
X153350000Y-104059237D01*
X153297459Y-104072424D01*
X153248833Y-104085493D01*
X153180202Y-104104938D01*
X153132459Y-104118875D01*
X153068776Y-104139578D01*
X153034155Y-104158834D01*
X153018797Y-104184666D01*
X153013732Y-104216069D01*
X153007465Y-104280000D01*
X152793732Y-104280049D01*
X152674675Y-104282620D01*
X152575952Y-104292055D01*
X152478116Y-104311030D01*
X152380000Y-104336979D01*
X152180000Y-104393859D01*
X152174771Y-105211443D01*
X152173621Y-105415955D01*
X152173096Y-105583716D01*
X151910000Y-105583716D01*
X151910000Y-105387030D01*
X151910000Y-104475663D01*
X151859273Y-104488395D01*
X151829736Y-104496505D01*
X151766002Y-104514493D01*
X151672308Y-104541147D01*
X151552889Y-104575257D01*
X151411982Y-104615612D01*
X151253822Y-104661001D01*
X151082645Y-104710212D01*
X150977215Y-104740563D01*
X150802294Y-104790892D01*
X150639524Y-104837626D01*
X150492867Y-104879635D01*
X150366284Y-104915788D01*
X150263736Y-104944957D01*
X150189185Y-104966009D01*
X150146591Y-104977817D01*
X150137942Y-104979999D01*
X150136131Y-104999261D01*
X150134466Y-105054090D01*
X150132993Y-105140055D01*
X150131762Y-105252724D01*
X150130821Y-105387665D01*
X150130217Y-105540445D01*
X150130000Y-105706634D01*
X150130000Y-105710000D01*
X150130000Y-106440000D01*
X150000000Y-106440000D01*
X149870000Y-106440000D01*
X149870000Y-105750000D01*
X149869860Y-105588399D01*
X149869464Y-105440262D01*
X149868844Y-105310145D01*
X149868033Y-105202602D01*
X149867065Y-105122190D01*
X149865972Y-105073464D01*
X149865000Y-105060349D01*
X149844996Y-105065812D01*
X149794867Y-105080302D01*
X149722825Y-105101428D01*
X149660000Y-105120000D01*
X149554620Y-105150461D01*
X149480738Y-105169103D01*
X149431817Y-105176496D01*
X149401321Y-105173209D01*
X149382716Y-105159814D01*
X149373406Y-105145000D01*
X149361887Y-105120053D01*
X149358927Y-105099598D01*
X149368832Y-105081434D01*
X149395909Y-105063357D01*
X149444463Y-105043167D01*
X149518801Y-105018662D01*
X149623229Y-104987640D01*
X149755000Y-104949909D01*
X149870000Y-104917161D01*
X149870000Y-104598580D01*
X149870000Y-104280000D01*
X149450000Y-104280000D01*
X149030000Y-104280000D01*
X149030000Y-104170000D01*
X149030000Y-104060000D01*
X150000000Y-104060000D01*
X150970000Y-104060000D01*
X150970000Y-104170000D01*
X150970000Y-104280000D01*
X150550000Y-104280000D01*
X150130000Y-104280000D01*
X150130000Y-104562139D01*
X150130813Y-104678278D01*
X150133533Y-104758993D01*
X150138575Y-104808832D01*
X150146355Y-104832344D01*
X150155000Y-104835195D01*
X150178877Y-104827964D01*
X150237227Y-104810899D01*
X150326064Y-104785148D01*
X150441397Y-104751861D01*
X150579240Y-104712188D01*
X150735603Y-104667279D01*
X150906499Y-104618284D01*
X151045000Y-104578634D01*
X151273054Y-104512820D01*
X151467795Y-104455420D01*
X151628304Y-104406723D01*
X151753666Y-104367019D01*
X151842963Y-104336597D01*
X151895280Y-104315746D01*
X151910000Y-104305579D01*
X151901484Y-104296681D01*
X151873209Y-104289969D01*
X151821083Y-104285195D01*
X151741015Y-104282108D01*
X151628912Y-104280460D01*
X151490000Y-104280000D01*
X151070000Y-104280000D01*
X151070000Y-104170000D01*
X151070000Y-104060000D01*
X151960389Y-104060000D01*
X152850779Y-104060000D01*
X152860796Y-104057136D01*
X153360000Y-104057136D01*
X153712088Y-104058568D01*
X154064176Y-104060000D01*
X154187279Y-103921486D01*
X154310382Y-103782973D01*
X154175191Y-103821389D01*
X154109834Y-103840080D01*
X154015879Y-103867110D01*
X153903139Y-103899648D01*
X153781424Y-103934863D01*
X153700000Y-103958470D01*
X153360000Y-104057136D01*
X152860796Y-104057136D01*
X153655189Y-103830000D01*
X153828346Y-103780710D01*
X153990282Y-103735037D01*
X154136798Y-103694134D01*
X154263698Y-103659153D01*
X154366785Y-103631247D01*
X154441862Y-103611570D01*
X154484732Y-103601272D01*
X154492659Y-103600000D01*
X154526989Y-103613763D01*
G37*
D12*
%TO.C,J4*%
X125380000Y-56130000D02*
X125380000Y-57450000D01*
X125380000Y-58050000D02*
X125380000Y-66990000D01*
X125900000Y-56130000D02*
X125900000Y-66990000D01*
X131000000Y-56130000D02*
X131000000Y-66990000D01*
X132120000Y-56130000D02*
X125380000Y-56130000D01*
X132120000Y-56130000D02*
X132120000Y-66990000D01*
X132120000Y-66990000D02*
X125380000Y-66990000D01*
X125380000Y-57750000D02*
X124770000Y-58190000D01*
X124770000Y-57310000D01*
X125380000Y-57750000D01*
G36*
X125380000Y-57750000D02*
G01*
X124770000Y-58190000D01*
X124770000Y-57310000D01*
X125380000Y-57750000D01*
G37*
%TO.C,D5*%
X125515000Y-85765000D02*
X125515000Y-87235000D01*
X125515000Y-87235000D02*
X127800000Y-87235000D01*
X127800000Y-85765000D02*
X125515000Y-85765000D01*
%TO.C,R32*%
X142062258Y-106002492D02*
X141587742Y-106002492D01*
X142062258Y-107047492D02*
X141587742Y-107047492D01*
%TO.C,R49*%
X141987258Y-113227492D02*
X141512742Y-113227492D01*
X141987258Y-114272492D02*
X141512742Y-114272492D01*
%TO.C,M6*%
X151170000Y-124770000D02*
X151170000Y-129910000D01*
X151170000Y-124770000D02*
X153830000Y-124770000D01*
X151170000Y-129910000D02*
X153830000Y-129910000D01*
X152500000Y-122170000D02*
X153830000Y-122170000D01*
X153830000Y-122170000D02*
X153830000Y-123500000D01*
X153830000Y-124770000D02*
X153830000Y-129910000D01*
%TO.C,J1*%
X132690000Y-51660000D02*
X132690000Y-52810000D01*
X132690000Y-52810000D02*
X133740000Y-52810000D01*
X133740000Y-52810000D02*
X133740000Y-53800000D01*
X133860000Y-49690000D02*
X137740000Y-49690000D01*
X138910000Y-51660000D02*
X138910000Y-52810000D01*
X138910000Y-52810000D02*
X137860000Y-52810000D01*
%TO.C,J6*%
X140490000Y-51660000D02*
X140490000Y-52810000D01*
X140490000Y-52810000D02*
X141540000Y-52810000D01*
X141540000Y-52810000D02*
X141540000Y-53800000D01*
X141660000Y-49690000D02*
X145540000Y-49690000D01*
X146710000Y-51660000D02*
X146710000Y-52810000D01*
X146710000Y-52810000D02*
X145660000Y-52810000D01*
%TO.C,J9*%
X158809076Y-49484481D02*
X159919076Y-49484481D01*
X158809076Y-50244481D02*
X158809076Y-49484481D01*
X158809076Y-51004481D02*
X158809076Y-56019481D01*
X158809076Y-51004481D02*
X159355605Y-51004481D01*
X158809076Y-56019481D02*
X159611546Y-56019481D01*
X160226606Y-56019481D02*
X161029076Y-56019481D01*
X160482547Y-51004481D02*
X161029076Y-51004481D01*
X161029076Y-51004481D02*
X161029076Y-56019481D01*
%TO.C,D10*%
X152015000Y-54802500D02*
X152015000Y-57087500D01*
X153485000Y-54802500D02*
X152015000Y-54802500D01*
X153485000Y-57087500D02*
X153485000Y-54802500D01*
%TO.C,R24*%
X133802500Y-102387742D02*
X133802500Y-102862258D01*
X134847500Y-102387742D02*
X134847500Y-102862258D01*
%TO.C,R31*%
X142987258Y-98977492D02*
X142512742Y-98977492D01*
X142987258Y-100022492D02*
X142512742Y-100022492D01*
%TO.C,C31*%
X137240000Y-61140580D02*
X137240000Y-60859420D01*
X138260000Y-61140580D02*
X138260000Y-60859420D01*
%TO.C,R4*%
X162677500Y-92587742D02*
X162677500Y-93062258D01*
X163722500Y-92587742D02*
X163722500Y-93062258D01*
%TO.C,U12*%
X137559447Y-118961568D02*
X137559447Y-119461568D01*
X137559447Y-119461568D02*
X138059447Y-119461568D01*
%TO.C,R48*%
X142688312Y-115950006D02*
X142688312Y-116424522D01*
X143733312Y-115950006D02*
X143733312Y-116424522D01*
%TO.C,D6*%
X125552500Y-87515000D02*
X125552500Y-88985000D01*
X125552500Y-88985000D02*
X127837500Y-88985000D01*
X127837500Y-87515000D02*
X125552500Y-87515000D01*
%TO.C,C5*%
X132990000Y-69909420D02*
X132990000Y-70190580D01*
X134010000Y-69909420D02*
X134010000Y-70190580D01*
%TO.C,U3*%
X139890000Y-62890000D02*
X139890000Y-63590000D01*
X139890000Y-77110000D02*
X139890000Y-76410000D01*
X140590000Y-62890000D02*
X139890000Y-62890000D01*
X140590000Y-77110000D02*
X139890000Y-77110000D01*
X153410000Y-62890000D02*
X154110000Y-62890000D01*
X153410000Y-77110000D02*
X154110000Y-77110000D01*
X154110000Y-62890000D02*
X154110000Y-63590000D01*
X154110000Y-77110000D02*
X154110000Y-76410000D01*
X139262500Y-63590000D02*
X138922500Y-63120000D01*
X139602500Y-63120000D01*
X139262500Y-63590000D01*
G36*
X139262500Y-63590000D02*
G01*
X138922500Y-63120000D01*
X139602500Y-63120000D01*
X139262500Y-63590000D01*
G37*
%TO.C,R29*%
X142802500Y-94862734D02*
X142802500Y-95337250D01*
X143847500Y-94862734D02*
X143847500Y-95337250D01*
%TO.C,M3*%
X140520000Y-124770000D02*
X140520000Y-129910000D01*
X140520000Y-124770000D02*
X143180000Y-124770000D01*
X140520000Y-129910000D02*
X143180000Y-129910000D01*
X141850000Y-122170000D02*
X143180000Y-122170000D01*
X143180000Y-122170000D02*
X143180000Y-123500000D01*
X143180000Y-124770000D02*
X143180000Y-129910000D01*
%TO.C,R35*%
X133127500Y-105412742D02*
X133127500Y-105887258D01*
X134172500Y-105412742D02*
X134172500Y-105887258D01*
%TO.C,C41*%
X135790000Y-105584412D02*
X135790000Y-105865572D01*
X136810000Y-105584412D02*
X136810000Y-105865572D01*
%TO.C,C34*%
X134690580Y-76690000D02*
X134409420Y-76690000D01*
X134690580Y-77710000D02*
X134409420Y-77710000D01*
%TO.C,U11*%
X137550000Y-111999992D02*
X137550000Y-112499992D01*
X137550000Y-112499992D02*
X138050000Y-112499992D01*
%TO.C,R19*%
X143428938Y-83227500D02*
X142954422Y-83227500D01*
X143428938Y-84272500D02*
X142954422Y-84272500D01*
%TO.C,R30*%
X142802500Y-101787734D02*
X142802500Y-102262250D01*
X143847500Y-101787734D02*
X143847500Y-102262250D01*
%TO.C,C21*%
X154740000Y-83403080D02*
X154740000Y-83121920D01*
X155760000Y-83403080D02*
X155760000Y-83121920D01*
%TO.C,C24*%
X148109420Y-86740000D02*
X148390580Y-86740000D01*
X148109420Y-87760000D02*
X148390580Y-87760000D01*
%TO.C,C40*%
X135540000Y-98584412D02*
X135540000Y-98865572D01*
X136560000Y-98584412D02*
X136560000Y-98865572D01*
%TO.C,R28*%
X138412742Y-105977500D02*
X138887258Y-105977500D01*
X138412742Y-107022500D02*
X138887258Y-107022500D01*
%TO.C,M1*%
X133420000Y-124770000D02*
X133420000Y-129910000D01*
X133420000Y-124770000D02*
X136080000Y-124770000D01*
X133420000Y-129910000D02*
X136080000Y-129910000D01*
X134750000Y-122170000D02*
X136080000Y-122170000D01*
X136080000Y-122170000D02*
X136080000Y-123500000D01*
X136080000Y-124770000D02*
X136080000Y-129910000D01*
%TO.C,R23*%
X133802500Y-95362742D02*
X133802500Y-95837258D01*
X134847500Y-95362742D02*
X134847500Y-95837258D01*
%TO.C,D8*%
X125552500Y-91015000D02*
X125552500Y-92485000D01*
X125552500Y-92485000D02*
X127837500Y-92485000D01*
X127837500Y-91015000D02*
X125552500Y-91015000D01*
%TO.C,C49*%
X135890000Y-119759420D02*
X135890000Y-120040580D01*
X136910000Y-119759420D02*
X136910000Y-120040580D01*
%TO.C,R34*%
X133777500Y-98462742D02*
X133777500Y-98937258D01*
X134822500Y-98462742D02*
X134822500Y-98937258D01*
%TO.C,U9*%
X137625000Y-97799992D02*
X137625000Y-98299992D01*
X137625000Y-98299992D02*
X138125000Y-98299992D01*
%TO.C,C33*%
X135615580Y-75090000D02*
X135334420Y-75090000D01*
X135615580Y-76110000D02*
X135334420Y-76110000D01*
%TO.C,D7*%
X125552500Y-89265000D02*
X125552500Y-90735000D01*
X125552500Y-90735000D02*
X127837500Y-90735000D01*
X127837500Y-89265000D02*
X125552500Y-89265000D01*
%TO.C,J2*%
X160925000Y-88300000D02*
X160925000Y-89100000D01*
X163845000Y-80800000D02*
X165625000Y-80800000D01*
X163845000Y-90200000D02*
X165625000Y-90200000D01*
%TO.C,R27*%
X138337742Y-98977492D02*
X138812258Y-98977492D01*
X138337742Y-100022492D02*
X138812258Y-100022492D01*
%TO.C,R44*%
X138262742Y-113227492D02*
X138737258Y-113227492D01*
X138262742Y-114272492D02*
X138737258Y-114272492D01*
%TO.C,R20*%
X135552500Y-95837258D02*
X135552500Y-95362742D01*
X136597500Y-95837258D02*
X136597500Y-95362742D01*
%TO.C,SW1*%
X165550000Y-94350000D02*
X165550000Y-94150000D01*
X165550000Y-97350000D02*
X165550000Y-95650000D01*
X166600000Y-99200000D02*
X167390000Y-99200000D01*
X167390000Y-92300000D02*
X166600000Y-92300000D01*
X168400000Y-97150000D02*
X169690000Y-97150000D01*
X168400000Y-98600000D02*
X168400000Y-92900000D01*
X169690000Y-95850000D02*
X168400000Y-95850000D01*
X169690000Y-95850000D02*
X169900000Y-96050000D01*
X169690000Y-97150000D02*
X169900000Y-96950000D01*
X169900000Y-96950000D02*
X169900000Y-96050000D01*
%TO.C,D11*%
X153765000Y-54802500D02*
X153765000Y-57087500D01*
X155235000Y-54802500D02*
X153765000Y-54802500D01*
X155235000Y-57087500D02*
X155235000Y-54802500D01*
D16*
%TO.C,U6*%
X146000000Y-82500000D02*
X146000000Y-82700000D01*
X146000000Y-85500000D02*
X146000000Y-85300000D01*
X146700000Y-82500000D02*
X146000000Y-82500000D01*
X146700000Y-85500000D02*
X146000000Y-85500000D01*
X148300000Y-82500000D02*
X149000000Y-82500000D01*
X149000000Y-82500000D02*
X149000000Y-82700000D01*
X149000000Y-85300000D02*
X149000000Y-85500000D01*
X149000000Y-85500000D02*
X148300000Y-85500000D01*
D17*
X149570000Y-85400000D02*
G75*
G02*
X149430000Y-85400000I-70000J0D01*
G01*
X149430000Y-85400000D02*
G75*
G02*
X149570000Y-85400000I70000J0D01*
G01*
D12*
%TO.C,R12*%
X145227500Y-59087742D02*
X145227500Y-59562258D01*
X146272500Y-59087742D02*
X146272500Y-59562258D01*
%TO.C,C30*%
X136852818Y-64301512D02*
X136852818Y-64020352D01*
X137872818Y-64301512D02*
X137872818Y-64020352D01*
%TO.C,C37*%
X155859420Y-61490000D02*
X156140580Y-61490000D01*
X155859420Y-62510000D02*
X156140580Y-62510000D01*
%TO.C,C35*%
X136390580Y-73490000D02*
X136109420Y-73490000D01*
X136390580Y-74510000D02*
X136109420Y-74510000D01*
%TO.C,R13*%
X143227500Y-59087742D02*
X143227500Y-59562258D01*
X144272500Y-59087742D02*
X144272500Y-59562258D01*
%TO.C,R54*%
X133127500Y-119662742D02*
X133127500Y-120137258D01*
X134172500Y-119662742D02*
X134172500Y-120137258D01*
%TO.C,M8*%
X158270000Y-124770000D02*
X158270000Y-129910000D01*
X158270000Y-124770000D02*
X160930000Y-124770000D01*
X158270000Y-129910000D02*
X160930000Y-129910000D01*
X159600000Y-122170000D02*
X160930000Y-122170000D01*
X160930000Y-122170000D02*
X160930000Y-123500000D01*
X160930000Y-124770000D02*
X160930000Y-129910000D01*
%TO.C,U10*%
X137625000Y-104824992D02*
X137625000Y-105324992D01*
X137625000Y-105324992D02*
X138125000Y-105324992D01*
%TO.C,C26*%
X143052766Y-81490000D02*
X143333926Y-81490000D01*
X143052766Y-82510000D02*
X143333926Y-82510000D01*
%TO.C,J3*%
X148299968Y-51655433D02*
X148299968Y-52805433D01*
X148299968Y-52805433D02*
X149349968Y-52805433D01*
X149349968Y-52805433D02*
X149349968Y-53795433D01*
X149469968Y-49685433D02*
X156349968Y-49685433D01*
X157519968Y-51655433D02*
X157519968Y-52805433D01*
X157519968Y-52805433D02*
X156469968Y-52805433D01*
%TO.C,U5*%
X137923659Y-81063322D02*
X138923659Y-81063322D01*
X137923659Y-85563322D02*
X138923659Y-85563322D01*
X139923659Y-81063322D02*
X140923659Y-81063322D01*
X139923659Y-85563322D02*
X140923659Y-85563322D01*
X140973659Y-80813322D02*
G75*
G02*
X140873659Y-80813322I-50000J0D01*
G01*
X140873659Y-80813322D02*
G75*
G02*
X140973659Y-80813322I50000J0D01*
G01*
%TO.C,R50*%
X142011649Y-120106719D02*
X141537133Y-120106719D01*
X142011649Y-121151719D02*
X141537133Y-121151719D01*
%TO.C,C25*%
X148109420Y-88490000D02*
X148390580Y-88490000D01*
X148109420Y-89510000D02*
X148390580Y-89510000D01*
%TO.C,R16*%
X146562258Y-79727500D02*
X146087742Y-79727500D01*
X146562258Y-80772500D02*
X146087742Y-80772500D01*
%TO.C,R5*%
X159227500Y-81812258D02*
X159227500Y-81337742D01*
X160272500Y-81812258D02*
X160272500Y-81337742D01*
D16*
%TO.C,U4*%
X152000000Y-82512500D02*
X152000000Y-82805000D01*
X152000000Y-82512500D02*
X152042500Y-82512500D01*
X152000000Y-84512500D02*
X152000000Y-84220000D01*
X152042500Y-84512500D02*
X152000000Y-84512500D01*
X153957500Y-82512500D02*
X154000000Y-82512500D01*
X154000000Y-82512500D02*
X154000000Y-82805000D01*
X154000000Y-84220000D02*
X154000000Y-84512500D01*
X154000000Y-84512500D02*
X153957500Y-84512500D01*
D11*
X154687500Y-83762500D02*
G75*
G02*
X154487500Y-83762500I-100000J0D01*
G01*
X154487500Y-83762500D02*
G75*
G02*
X154687500Y-83762500I100000J0D01*
G01*
D12*
%TO.C,J11*%
X161880000Y-100880000D02*
X161880000Y-102200000D01*
X161880000Y-102800000D02*
X161880000Y-121900000D01*
X162400000Y-100880000D02*
X162400000Y-121900000D01*
X167500000Y-100880000D02*
X167500000Y-121900000D01*
X168620000Y-100880000D02*
X161880000Y-100880000D01*
X168620000Y-100880000D02*
X168620000Y-121900000D01*
X168620000Y-121900000D02*
X161880000Y-121900000D01*
X161880000Y-102500000D02*
X161270000Y-102940000D01*
X161270000Y-102060000D01*
X161880000Y-102500000D01*
G36*
X161880000Y-102500000D02*
G01*
X161270000Y-102940000D01*
X161270000Y-102060000D01*
X161880000Y-102500000D01*
G37*
%TO.C,C20*%
X152890580Y-85252500D02*
X152609420Y-85252500D01*
X152890580Y-86272500D02*
X152609420Y-86272500D01*
%TO.C,D2*%
X162465000Y-95150000D02*
X162465000Y-97435000D01*
X162465000Y-97435000D02*
X163935000Y-97435000D01*
X163935000Y-97435000D02*
X163935000Y-95150000D01*
%TO.C,D9*%
X150265000Y-54802500D02*
X150265000Y-57087500D01*
X151735000Y-54802500D02*
X150265000Y-54802500D01*
X151735000Y-57087500D02*
X151735000Y-54802500D01*
%TO.C,R21*%
X135552500Y-102862258D02*
X135552500Y-102387742D01*
X136597500Y-102862258D02*
X136597500Y-102387742D01*
%TD*%
M02*
