M48
; DRILL file {KiCad 9.0.0} date 2025-04-29T18:34:19-0400
; FORMAT={-:-/ absolute / metric / decimal}
; #@! TF.CreationDate,2025-04-29T18:34:19-04:00
; #@! TF.GenerationSoftware,Kicad,Pcbnew,9.0.0
; #@! TF.FileFunction,Plated,1,4,PTH
FMAT,2
METRIC
; #@! TA.AperFunction,Plated,PTH,ViaDrill
T1C0.150
; #@! TA.AperFunction,Plated,PTH,ViaDrill
T2C0.200
; #@! TA.AperFunction,Plated,PTH,ViaDrill
T3C0.250
; #@! TA.AperFunction,Plated,PTH,ComponentDrill
T4C0.330
; #@! TA.AperFunction,Plated,PTH,ViaDrill
T5C0.500
; #@! TA.AperFunction,Plated,PTH,ComponentDrill
T6C0.600
; #@! TA.AperFunction,Plated,PTH,ComponentDrill
T7C0.650
; #@! TA.AperFunction,Plated,PTH,ViaDrill
T8C0.750
; #@! TA.AperFunction,Plated,PTH,ComponentDrill
T9C1.000
; #@! TA.AperFunction,Plated,PTH,ComponentDrill
T10C1.100
%
G90
G05
T1
X127.0Y-86.5
X127.0Y-88.25
X127.0Y-90.0
X127.0Y-91.75
X128.5Y-79.75
X128.75Y-86.5
X128.75Y-88.25
X128.75Y-90.0
X128.75Y-91.75
X129.7Y-72.5
X129.75Y-84.25
X130.1Y-70.15
X130.2Y-82.0
X130.269Y-88.801
X130.75Y-89.0
X131.15Y-83.95
X132.025Y-81.75
X132.125Y-85.625
X132.45Y-68.7
X132.8Y-85.25
X132.85Y-92.45
X133.042Y-81.942
X133.25Y-71.6
X133.25Y-84.5
X133.25Y-93.6
X133.5Y-53.0
X133.6Y-76.45
X133.65Y-118.2
X133.662Y-104.112
X133.975Y-75.6
X134.05Y-72.65
X134.25Y-84.9
X134.25Y-111.2
X134.3Y-69.85
X134.3Y-97.15
X134.501Y-77.2
X134.75Y-74.0
X134.8Y-79.1
X135.25Y-83.0
X136.0Y-87.15
X136.1Y-66.5
X136.2Y-74.75
X136.45Y-63.3
X136.5Y-64.5
X136.6Y-80.25
X136.75Y-61.5
X137.15Y-105.95
X137.35Y-85.5
X137.4Y-82.95
X137.5Y-83.75
X137.7Y-67.0
X137.75Y-59.5
X137.75Y-112.85
X138.0Y-53.0
X138.15Y-65.5
X138.15Y-66.0
X138.25Y-108.2
X138.25Y-115.15
X138.35Y-101.1
X138.4Y-94.05
X138.45Y-98.05
X138.55Y-105.1
X138.6Y-112.3
X138.65Y-119.4
X138.7Y-86.1
X138.7Y-89.2
X139.0Y-82.0
X139.0Y-84.0
X139.4Y-90.4
X139.5Y-59.5
X139.5Y-83.75
X139.65Y-76.45
X139.771Y-77.021
X139.95Y-78.4
X140.0Y-82.5
X140.4Y-79.55
X140.45Y-72.75
X140.45Y-74.15
X140.5Y-69.7
X140.5Y-70.95
X140.5Y-71.5
X140.55Y-69.0
X140.619Y-90.381
X140.7Y-79.0
X141.0Y-74.75
X141.1Y-91.15
X141.25Y-61.0
X141.3Y-82.2
X141.35Y-83.25
X141.35Y-84.6
X141.4Y-63.65
X141.45Y-80.85
X141.55Y-119.35
X141.6Y-91.2
X141.7Y-113.75
X141.75Y-82.75
X141.75Y-106.5
X141.85Y-98.15
X142.25Y-57.0
X142.45Y-102.5
X142.5Y-59.0
X142.55Y-72.25
X142.75Y-99.5
X142.81Y-64.35
X142.85Y-74.25
X142.85Y-75.25
X142.85Y-90.2
X143.05Y-80.25
X143.2Y-117.8
X143.25Y-59.25
X143.25Y-82.5
X143.25Y-110.75
X143.3Y-103.7
X143.35Y-96.6
X143.45Y-76.35
X143.5Y-66.5
X143.5Y-78.75
X143.55Y-98.05
X143.6Y-104.4
X143.75Y-57.5
X143.86Y-74.36
X144.0Y-54.25
X144.0Y-61.0
X144.0Y-76.6
X144.0Y-84.5
X144.05Y-75.05
X145.0Y-54.25
X145.0Y-79.3
X145.25Y-85.0
X145.35Y-88.0
X145.4Y-92.45
X145.5Y-78.8
X145.55Y-106.65
X145.75Y-59.25
X145.75Y-81.35
X146.0Y-73.65
X146.15Y-86.1
X146.15Y-87.15
X146.35Y-91.35
X146.4Y-80.2
X146.45Y-111.8
X146.75Y-79.6
X146.755Y-81.505
X146.8Y-75.6
X146.8Y-83.5
X147.2Y-76.35
X147.5Y-78.8
X147.7Y-74.095
X147.75Y-81.6
X148.0Y-78.8
X148.0Y-80.35
X148.0Y-108.2
X148.1Y-111.8
X148.5Y-78.7
X149.25Y-79.65
X149.4Y-88.1
X149.5Y-54.0
X149.5Y-78.65
X149.7Y-87.25
X149.75Y-83.0
X149.75Y-111.8
X149.8Y-85.0
X149.95Y-72.9
X149.95Y-76.5
X150.0Y-63.75
X150.0Y-78.85
X150.5Y-63.57
X150.7Y-81.55
X150.75Y-79.5
X150.8Y-108.15
X150.8Y-117.15
X150.8Y-117.9
X151.0Y-56.361
X151.0Y-58.0
X151.0Y-66.0
X151.0Y-67.5
X151.0Y-82.6
X151.25Y-81.45
X151.35Y-111.75
X151.45Y-83.35
X151.55Y-115.0
X151.65Y-106.5
X152.0Y-63.5
X152.05Y-76.5
X152.3Y-74.85
X152.3Y-75.365
X152.7Y-81.6
X152.7Y-83.25
X152.75Y-56.361
X152.75Y-58.0
X152.75Y-63.5
X152.8Y-71.25
X153.0Y-65.5
X153.0Y-69.75
X153.0Y-83.75
X153.2Y-111.7
X153.25Y-74.5
X153.3Y-72.85
X153.35Y-72.05
X153.4Y-73.75
X153.5Y-67.5
X153.5Y-68.0
X153.5Y-68.5
X153.5Y-69.0
X153.5Y-78.0
X153.5Y-84.7
X153.75Y-59.5
X153.95Y-104.6
X154.0Y-62.25
X154.25Y-81.0
X154.25Y-84.05
X154.4Y-79.65
X154.5Y-56.361
X154.5Y-58.0
X155.0Y-78.0
X155.2Y-81.65
X155.75Y-63.75
X155.75Y-72.25
X155.9Y-51.7
X156.0Y-58.0
X156.0Y-59.5
X156.0Y-62.25
X156.125Y-71.875
X156.25Y-60.25
X156.5Y-59.0
X156.5Y-71.5
X156.75Y-54.75
X156.75Y-63.0
X156.75Y-71.0
X157.35Y-111.65
X157.5Y-56.0
X157.75Y-109.55
X157.8Y-105.65
X157.8Y-106.3
X157.8Y-106.95
X157.8Y-107.65
X157.8Y-108.3
X157.8Y-108.9
X158.05Y-111.65
X158.2Y-81.475
X158.2Y-83.25
X158.5Y-113.8
X158.5Y-114.3
X158.5Y-114.85
X158.95Y-114.0
X158.95Y-114.6
X159.0Y-111.85
X159.0Y-112.5
X159.1Y-115.25
X159.15Y-113.35
X159.55Y-115.25
X159.7Y-113.35
X159.75Y-81.55
X159.75Y-83.2
X159.95Y-105.1
X159.95Y-105.7
X159.95Y-106.3
X159.95Y-106.9
X160.05Y-115.25
X160.2Y-95.15
X160.2Y-113.35
X160.5Y-105.1
X160.5Y-105.7
X160.5Y-106.3
X160.5Y-106.9
X160.7Y-92.5
X160.75Y-94.15
X160.9Y-86.6
X161.0Y-83.75
X161.15Y-109.25
X161.15Y-109.9
X161.15Y-110.7
X161.25Y-92.5
X161.3Y-94.15
X161.75Y-91.15
X161.75Y-91.65
X161.75Y-92.05
X161.75Y-92.7
X161.75Y-93.3
X161.75Y-93.8
X162.05Y-95.35
X162.15Y-109.25
X162.15Y-109.9
X162.15Y-110.7
X162.25Y-72.0
X162.8Y-112.3
X162.8Y-112.9
X162.8Y-113.6
X162.8Y-114.2
X162.95Y-109.25
X162.95Y-109.9
X163.0Y-67.0
X163.0Y-71.5
X163.2Y-95.95
X163.3Y-105.1
X163.3Y-105.7
X163.5Y-85.5
X163.75Y-83.75
X164.9Y-92.8
X165.1Y-96.15
X166.5Y-86.25
T2
X146.95Y-93.0
X147.0Y-93.65
X147.6Y-93.0
X147.6Y-93.65
X148.25Y-93.65
X148.3Y-92.95
X148.4Y-91.75
X148.45Y-92.3
X149.0Y-92.9
X149.75Y-92.9
X152.35Y-88.05
X152.65Y-87.55
X152.95Y-87.05
X152.95Y-88.05
X153.25Y-87.55
X153.5Y-87.05
X153.65Y-88.05
X153.85Y-87.55
X154.05Y-87.05
X154.2Y-88.05
X154.4Y-87.5
X154.85Y-88.05
T3
X128.15Y-120.1
X128.15Y-120.8
X128.15Y-121.5
X128.15Y-122.25
X128.5Y-93.95
X128.5Y-94.7
X128.5Y-95.4
X128.5Y-96.1
X128.85Y-119.8
X128.85Y-120.5
X128.85Y-121.15
X128.85Y-121.9
X128.85Y-122.65
X129.35Y-93.65
X129.35Y-94.3
X129.35Y-95.0
X129.35Y-95.8
X129.35Y-96.5
X129.6Y-120.15
X129.6Y-120.8
X129.6Y-121.55
X129.65Y-122.35
X130.05Y-93.9
X130.05Y-94.65
X130.1Y-95.45
X130.1Y-96.15
X130.35Y-120.45
X130.35Y-121.2
X130.35Y-121.95
X130.8Y-94.25
X130.8Y-95.0
X130.85Y-95.75
X136.0Y-111.15
X136.0Y-118.35
X136.075Y-97.15
X136.075Y-104.2
X137.0Y-110.45
X137.2Y-97.85
X137.2Y-117.45
X137.4Y-104.75
X146.5Y-98.8
X146.55Y-97.9
X146.6Y-103.4
X146.8Y-99.75
X146.8Y-100.6
X146.8Y-101.5
X146.85Y-102.5
X147.95Y-99.7
X147.95Y-100.65
X147.95Y-101.55
X147.95Y-102.45
X148.05Y-104.45
X148.05Y-105.25
X148.05Y-106.45
X148.55Y-108.6
X148.95Y-99.7
X148.95Y-101.5
X149.0Y-100.6
X149.0Y-102.45
X149.0Y-104.45
X149.0Y-105.25
X149.0Y-106.45
X149.9Y-106.45
X149.95Y-100.6
X149.95Y-101.5
X149.95Y-102.45
X150.0Y-104.45
X150.0Y-105.25
X156.25Y-100.7
X156.25Y-101.45
X157.0Y-100.7
X157.0Y-101.45
T4
X155.976Y-116.471
X155.976Y-117.771
X155.976Y-119.071
X157.276Y-116.471
X157.276Y-117.771
X157.276Y-119.071
T5
X159.55Y-88.65
X160.55Y-89.25
X160.85Y-81.65
X167.9Y-87.8
T7
X159.919Y-50.244
X159.919Y-51.514
X159.919Y-52.784
X159.919Y-54.054
X159.919Y-55.324
T8
X131.75Y-102.25
X131.75Y-112.8
X133.903Y-106.45
X135.0Y-120.7
T9
X134.75Y-123.5
X134.75Y-126.04
X134.75Y-128.58
X138.3Y-123.5
X138.3Y-126.04
X138.3Y-128.58
X141.85Y-123.5
X141.85Y-126.04
X141.85Y-128.58
X145.4Y-123.5
X145.4Y-126.04
X145.4Y-128.58
X148.95Y-123.5
X148.95Y-126.04
X148.95Y-128.58
X152.5Y-123.5
X152.5Y-126.04
X152.5Y-128.58
X156.05Y-123.5
X156.05Y-126.04
X156.05Y-128.58
X159.6Y-123.5
X159.6Y-126.04
X159.6Y-128.58
T10
X128.75Y-57.75
X128.75Y-60.29
X128.75Y-62.83
X128.75Y-65.37
X129.05Y-99.13
X129.05Y-101.67
X129.05Y-104.21
X129.05Y-106.75
X129.05Y-109.29
X129.05Y-111.83
X129.05Y-114.37
X129.05Y-116.91
X165.25Y-57.75
X165.25Y-60.29
X165.25Y-62.83
X165.25Y-65.37
X165.25Y-67.91
X165.25Y-70.45
X165.25Y-72.99
X165.25Y-75.53
X165.25Y-78.07
X165.25Y-102.5
X165.25Y-105.04
X165.25Y-107.58
X165.25Y-110.12
X165.25Y-112.66
X165.25Y-115.2
X165.25Y-117.74
X165.25Y-120.28
T6
G00X161.97Y-81.18
M15
G01X163.07Y-81.18
M16
G05
G00X161.97Y-89.82
M15
G01X163.07Y-89.82
M16
G05
G00X166.4Y-81.18
M15
G01X167.0Y-81.18
M16
G05
G00X166.4Y-89.82
M15
G01X167.0Y-89.82
M16
G05
M30
