%TF.GenerationSoftware,KiCad,Pcbnew,9.0.0*%
%TF.CreationDate,2025-04-29T18:34:20-04:00*%
%TF.ProjectId,Aurora Orbiton Edition,4175726f-7261-4204-9f72-6269746f6e20,rev?*%
%TF.SameCoordinates,Original*%
%TF.FileFunction,Paste,Bot*%
%TF.FilePolarity,Positive*%
%FSLAX46Y46*%
G04 Gerber Fmt 4.6, Leading zero omitted, Abs format (unit mm)*
G04 Created by KiCad (PCBNEW 9.0.0) date 2025-04-29 18:34:20*
%MOMM*%
%LPD*%
G01*
G04 APERTURE LIST*
G04 Aperture macros list*
%AMRoundRect*
0 Rectangle with rounded corners*
0 $1 Rounding radius*
0 $2 $3 $4 $5 $6 $7 $8 $9 X,Y pos of 4 corners*
0 Add a 4 corners polygon primitive as box body*
4,1,4,$2,$3,$4,$5,$6,$7,$8,$9,$2,$3,0*
0 Add four circle primitives for the rounded corners*
1,1,$1+$1,$2,$3*
1,1,$1+$1,$4,$5*
1,1,$1+$1,$6,$7*
1,1,$1+$1,$8,$9*
0 Add four rect primitives between the rounded corners*
20,1,$1+$1,$2,$3,$4,$5,0*
20,1,$1+$1,$4,$5,$6,$7,0*
20,1,$1+$1,$6,$7,$8,$9,0*
20,1,$1+$1,$8,$9,$2,$3,0*%
%AMFreePoly0*
4,1,21,1.372500,0.787500,0.862500,0.787500,0.862500,0.532500,1.372500,0.532500,1.372500,0.127500,0.862500,0.127500,0.862500,-0.127500,1.372500,-0.127500,1.372500,-0.532500,0.862500,-0.532500,0.862500,-0.787500,1.372500,-0.787500,1.372500,-1.195000,0.612500,-1.195000,0.612500,-1.117500,-0.862500,-1.117500,-0.862500,1.117500,0.612500,1.117500,0.612500,1.195000,1.372500,1.195000,
1.372500,0.787500,1.372500,0.787500,$1*%
G04 Aperture macros list end*
%ADD10RoundRect,0.225000X0.250000X-0.225000X0.250000X0.225000X-0.250000X0.225000X-0.250000X-0.225000X0*%
%ADD11RoundRect,0.225000X-0.250000X0.225000X-0.250000X-0.225000X0.250000X-0.225000X0.250000X0.225000X0*%
%ADD12RoundRect,0.225000X-0.225000X-0.250000X0.225000X-0.250000X0.225000X0.250000X-0.225000X0.250000X0*%
%ADD13RoundRect,0.200000X0.275000X-0.200000X0.275000X0.200000X-0.275000X0.200000X-0.275000X-0.200000X0*%
%ADD14RoundRect,0.200000X0.200000X0.275000X-0.200000X0.275000X-0.200000X-0.275000X0.200000X-0.275000X0*%
%ADD15RoundRect,0.200000X-0.200000X-0.275000X0.200000X-0.275000X0.200000X0.275000X-0.200000X0.275000X0*%
%ADD16RoundRect,0.250000X-1.000000X-0.650000X1.000000X-0.650000X1.000000X0.650000X-1.000000X0.650000X0*%
%ADD17RoundRect,0.250000X0.650000X-1.000000X0.650000X1.000000X-0.650000X1.000000X-0.650000X-1.000000X0*%
%ADD18RoundRect,0.150000X0.150000X-0.512500X0.150000X0.512500X-0.150000X0.512500X-0.150000X-0.512500X0*%
%ADD19RoundRect,0.225000X0.225000X0.250000X-0.225000X0.250000X-0.225000X-0.250000X0.225000X-0.250000X0*%
%ADD20RoundRect,0.200000X-0.275000X0.200000X-0.275000X-0.200000X0.275000X-0.200000X0.275000X0.200000X0*%
%ADD21R,0.575000X0.240000*%
%ADD22R,0.240000X0.575000*%
%ADD23R,2.700000X1.450000*%
%ADD24R,2.700000X0.850000*%
%ADD25R,5.700000X1.600000*%
%ADD26R,2.400000X3.100000*%
%ADD27R,2.200000X0.500000*%
%ADD28RoundRect,0.160000X0.245000X0.160000X-0.245000X0.160000X-0.245000X-0.160000X0.245000X-0.160000X0*%
%ADD29RoundRect,0.093750X0.093750X0.106250X-0.093750X0.106250X-0.093750X-0.106250X0.093750X-0.106250X0*%
%ADD30R,1.750000X0.700000*%
%ADD31R,1.000000X1.450000*%
%ADD32R,1.550000X1.000000*%
%ADD33R,1.500000X0.800000*%
%ADD34R,1.500000X1.300000*%
%ADD35R,1.500000X1.500000*%
%ADD36R,1.400000X0.800000*%
%ADD37RoundRect,0.250000X-0.325000X-0.650000X0.325000X-0.650000X0.325000X0.650000X-0.325000X0.650000X0*%
%ADD38R,2.000000X4.200000*%
%ADD39RoundRect,0.250000X1.000000X0.650000X-1.000000X0.650000X-1.000000X-0.650000X1.000000X-0.650000X0*%
%ADD40RoundRect,0.162500X-0.650000X-0.162500X0.650000X-0.162500X0.650000X0.162500X-0.650000X0.162500X0*%
%ADD41R,0.990000X0.405000*%
%ADD42FreePoly0,0.000000*%
%ADD43RoundRect,0.250000X-0.362500X-1.425000X0.362500X-1.425000X0.362500X1.425000X-0.362500X1.425000X0*%
%ADD44RoundRect,0.250000X-0.250000X-0.475000X0.250000X-0.475000X0.250000X0.475000X-0.250000X0.475000X0*%
G04 APERTURE END LIST*
D10*
%TO.C,C47*%
X131750000Y-116775000D03*
X131750000Y-115225000D03*
%TD*%
D11*
%TO.C,C28*%
X139750000Y-69700000D03*
X139750000Y-71250000D03*
%TD*%
D12*
%TO.C,C44*%
X159701049Y-114221187D03*
X161251049Y-114221187D03*
%TD*%
D10*
%TO.C,C4*%
X154660724Y-94103577D03*
X154660724Y-92553577D03*
%TD*%
D13*
%TO.C,R46*%
X151000000Y-60475000D03*
X151000000Y-58825000D03*
%TD*%
D14*
%TO.C,R18*%
X152575000Y-72050000D03*
X150925000Y-72050000D03*
%TD*%
D15*
%TO.C,R10*%
X164675000Y-85500000D03*
X166325000Y-85500000D03*
%TD*%
D16*
%TO.C,D1*%
X155500000Y-98250000D03*
X159500000Y-98250000D03*
%TD*%
D17*
%TO.C,D4*%
X162000000Y-106750000D03*
X162000000Y-102750000D03*
%TD*%
D13*
%TO.C,R9*%
X148087000Y-111075000D03*
X148087000Y-109425000D03*
%TD*%
D18*
%TO.C,U2*%
X152950000Y-95025000D03*
X152000000Y-95025000D03*
X151050000Y-95025000D03*
X151050000Y-92750000D03*
X152000000Y-92750000D03*
X152950000Y-92750000D03*
%TD*%
D12*
%TO.C,C1*%
X159360458Y-93355479D03*
X160910458Y-93355479D03*
%TD*%
D19*
%TO.C,C10*%
X144837000Y-102500000D03*
X143287000Y-102500000D03*
%TD*%
D20*
%TO.C,R8*%
X153177682Y-109454785D03*
X153177682Y-111104785D03*
%TD*%
D12*
%TO.C,C9*%
X155950000Y-112500000D03*
X157500000Y-112500000D03*
%TD*%
D10*
%TO.C,C15*%
X144900000Y-105950000D03*
X144900000Y-104400000D03*
%TD*%
D13*
%TO.C,R56*%
X152250000Y-68075000D03*
X152250000Y-66425000D03*
%TD*%
D21*
%TO.C,IC1*%
X150913000Y-104250000D03*
X150913000Y-104750000D03*
X150913000Y-105250000D03*
X150913000Y-105750000D03*
X150913000Y-106250000D03*
X150913000Y-106750000D03*
D22*
X150250000Y-107412000D03*
X149750000Y-107412000D03*
X149250000Y-107412000D03*
X148750000Y-107412000D03*
X148250000Y-107412000D03*
X147750000Y-107412000D03*
D21*
X147087000Y-106750000D03*
X147087000Y-106250000D03*
X147087000Y-105750000D03*
X147087000Y-105250000D03*
X147087000Y-104750000D03*
X147087000Y-104250000D03*
D22*
X147750000Y-103588000D03*
X148250000Y-103588000D03*
X148750000Y-103588000D03*
X149250000Y-103588000D03*
X149750000Y-103588000D03*
X150250000Y-103588000D03*
D23*
X149000000Y-104875000D03*
D24*
X149000000Y-106425000D03*
%TD*%
D11*
%TO.C,C17*%
X151337000Y-109475000D03*
X151337000Y-111025000D03*
%TD*%
D13*
%TO.C,R7*%
X144900000Y-109075000D03*
X144900000Y-107425000D03*
%TD*%
D25*
%TO.C,L1*%
X153500000Y-90462500D03*
X153500000Y-85762500D03*
%TD*%
D14*
%TO.C,R40*%
X143277500Y-72250000D03*
X141627500Y-72250000D03*
%TD*%
D20*
%TO.C,R11*%
X149740475Y-109425000D03*
X149740475Y-111075000D03*
%TD*%
D10*
%TO.C,C39*%
X131750000Y-106775000D03*
X131750000Y-105225000D03*
%TD*%
D20*
%TO.C,R6*%
X153177682Y-106204785D03*
X153177682Y-107854785D03*
%TD*%
D13*
%TO.C,R26*%
X151550000Y-115825000D03*
X151550000Y-114175000D03*
%TD*%
D26*
%TO.C,U8*%
X156626049Y-117771187D03*
D27*
X153751049Y-119676187D03*
X153751049Y-118406187D03*
X153751049Y-117136187D03*
X153751049Y-115866187D03*
X159501049Y-115866187D03*
X159501049Y-117136187D03*
X159501049Y-118406187D03*
X159501049Y-119676187D03*
%TD*%
D12*
%TO.C,C8*%
X155975000Y-110750000D03*
X157525000Y-110750000D03*
%TD*%
D15*
%TO.C,R1*%
X142335627Y-59905825D03*
X143985627Y-59905825D03*
%TD*%
D28*
%TO.C,U1*%
X160387500Y-91650000D03*
X160387500Y-90850000D03*
D29*
X161275000Y-90600000D03*
X161275000Y-91250000D03*
X161275000Y-91900000D03*
X159500000Y-91900000D03*
X159500000Y-91250000D03*
X159500000Y-90600000D03*
%TD*%
D30*
%TO.C,J5*%
X137850000Y-78175000D03*
X137850000Y-77075000D03*
X137850000Y-75975000D03*
X137850000Y-74875000D03*
X137850000Y-73775000D03*
X137850000Y-72675000D03*
X137850000Y-71575000D03*
X137850000Y-70475000D03*
D31*
X128625000Y-69350000D03*
D32*
X127050000Y-80575000D03*
D33*
X130125000Y-69025000D03*
D34*
X137725000Y-69275000D03*
D35*
X137725000Y-80625000D03*
D36*
X129475000Y-80975000D03*
%TD*%
D37*
%TO.C,C6*%
X156050000Y-108760000D03*
X159000000Y-108760000D03*
%TD*%
D12*
%TO.C,C43*%
X159726049Y-112471187D03*
X161276049Y-112471187D03*
%TD*%
D11*
%TO.C,C38*%
X131750000Y-98950000D03*
X131750000Y-100500000D03*
%TD*%
D38*
%TO.C,BZ1*%
X149500000Y-66500000D03*
X141500000Y-66500000D03*
%TD*%
D14*
%TO.C,R17*%
X152575000Y-74000000D03*
X150925000Y-74000000D03*
%TD*%
D39*
%TO.C,D3*%
X152166371Y-98250000D03*
X148166371Y-98250000D03*
%TD*%
D40*
%TO.C,U7*%
X141662500Y-77905000D03*
X141662500Y-76635000D03*
X141662500Y-75365000D03*
X141662500Y-74095000D03*
X148837500Y-74095000D03*
X148837500Y-75365000D03*
X148837500Y-76635000D03*
X148837500Y-77905000D03*
%TD*%
D11*
%TO.C,C16*%
X146434870Y-109465222D03*
X146434870Y-111015222D03*
%TD*%
D12*
%TO.C,C42*%
X130100505Y-83183670D03*
X131650505Y-83183670D03*
%TD*%
D37*
%TO.C,C7*%
X156050000Y-106250000D03*
X159000000Y-106250000D03*
%TD*%
D14*
%TO.C,R33*%
X131325000Y-90000000D03*
X129675000Y-90000000D03*
%TD*%
%TO.C,R37*%
X146325000Y-72250000D03*
X144675000Y-72250000D03*
%TD*%
D13*
%TO.C,R55*%
X154500000Y-60475000D03*
X154500000Y-58825000D03*
%TD*%
D19*
%TO.C,C11*%
X144837000Y-101000000D03*
X143287000Y-101000000D03*
%TD*%
D11*
%TO.C,C13*%
X147586925Y-90500000D03*
X147586925Y-92050000D03*
%TD*%
D41*
%TO.C,Q1*%
X156555000Y-104055000D03*
X156555000Y-103395000D03*
X156555000Y-102735000D03*
X156555000Y-102075000D03*
D42*
X158547500Y-103065000D03*
%TD*%
D14*
%TO.C,R25*%
X131325000Y-88250000D03*
X129675000Y-88250000D03*
%TD*%
D11*
%TO.C,C46*%
X131750000Y-109225000D03*
X131750000Y-110775000D03*
%TD*%
D43*
%TO.C,R51*%
X126037500Y-121250000D03*
X131962500Y-121250000D03*
%TD*%
D13*
%TO.C,R52*%
X152750000Y-60437500D03*
X152750000Y-58787500D03*
%TD*%
D14*
%TO.C,R22*%
X131250000Y-86500000D03*
X129600000Y-86500000D03*
%TD*%
%TO.C,R36*%
X131325000Y-91750000D03*
X129675000Y-91750000D03*
%TD*%
D44*
%TO.C,C2*%
X159406360Y-95220870D03*
X161306360Y-95220870D03*
%TD*%
D10*
%TO.C,C12*%
X149350000Y-95225000D03*
X149350000Y-93675000D03*
%TD*%
D11*
%TO.C,C14*%
X149257788Y-90508748D03*
X149257788Y-92058748D03*
%TD*%
D43*
%TO.C,R41*%
X126287500Y-95000000D03*
X132212500Y-95000000D03*
%TD*%
D10*
%TO.C,C19*%
X139696581Y-74300000D03*
X139696581Y-72750000D03*
%TD*%
D20*
%TO.C,R2*%
X153177682Y-102954785D03*
X153177682Y-104604785D03*
%TD*%
M02*
