%TF.GenerationSoftware,KiCad,Pcbnew,9.0.0*%
%TF.CreationDate,2025-04-29T18:34:19-04:00*%
%TF.ProjectId,Aurora Orbiton Edition,4175726f-7261-4204-9f72-6269746f6e20,rev?*%
%TF.SameCoordinates,Original*%
%TF.FileFunction,Drillmap*%
%TF.FilePolarity,Positive*%
%FSLAX45Y45*%
G04 Gerber Fmt 4.5, Leading zero omitted, Abs format (unit mm)*
G04 Created by KiCad (PCBNEW 9.0.0) date 2025-04-29 18:34:19*
%MOMM*%
%LPD*%
G01*
G04 APERTURE LIST*
%ADD10C,0.050000*%
%ADD11C,0.200000*%
%ADD12C,0.100000*%
%ADD13C,0.300000*%
G04 APERTURE END LIST*
D10*
X16550000Y-4850000D02*
G75*
G02*
X16900000Y-5200000I0J-350000D01*
G01*
X12850000Y-4850000D02*
X16550000Y-4850000D01*
X16900000Y-12700000D02*
G75*
G02*
X16550000Y-13050000I-350000J0D01*
G01*
X16900000Y-5200000D02*
X16900000Y-12700000D01*
X12500000Y-5200000D02*
G75*
G02*
X12850000Y-4850000I350000J0D01*
G01*
X16550000Y-13050000D02*
X12850000Y-13050000D01*
X12500000Y-12700000D02*
X12500000Y-5200000D01*
X12850000Y-13050000D02*
G75*
G02*
X12500000Y-12700000I0J350000D01*
G01*
D11*
D12*
X16269500Y-8228500D02*
X16334500Y-8293500D01*
X16334500Y-8228500D02*
X16269500Y-8293500D01*
X16269500Y-8806500D02*
X16334500Y-8871500D01*
X16334500Y-8806500D02*
X16269500Y-8871500D01*
X16745000Y-9425000D02*
G75*
G02*
X16655000Y-9425000I-45000J0D01*
G01*
X16655000Y-9425000D02*
G75*
G02*
X16745000Y-9425000I45000J0D01*
G01*
X16745000Y-9725000D02*
G75*
G02*
X16655000Y-9725000I-45000J0D01*
G01*
X16655000Y-9725000D02*
G75*
G02*
X16745000Y-9725000I45000J0D01*
G01*
D13*
X12850000Y-5050000D02*
X12850000Y-5350000D01*
X12700000Y-5200000D02*
X13000000Y-5200000D01*
X12850000Y-12550000D02*
X12850000Y-12850000D01*
X12700000Y-12700000D02*
X13000000Y-12700000D01*
X16550000Y-5050000D02*
X16550000Y-5350000D01*
X16400000Y-5200000D02*
X16700000Y-5200000D01*
X16550000Y-12550000D02*
X16550000Y-12850000D01*
X16400000Y-12700000D02*
X16700000Y-12700000D01*
D11*
X12758277Y-13363984D02*
X12758277Y-13163984D01*
X12758277Y-13163984D02*
X12805896Y-13163984D01*
X12805896Y-13163984D02*
X12834467Y-13173508D01*
X12834467Y-13173508D02*
X12853515Y-13192555D01*
X12853515Y-13192555D02*
X12863039Y-13211603D01*
X12863039Y-13211603D02*
X12872562Y-13249698D01*
X12872562Y-13249698D02*
X12872562Y-13278269D01*
X12872562Y-13278269D02*
X12863039Y-13316365D01*
X12863039Y-13316365D02*
X12853515Y-13335412D01*
X12853515Y-13335412D02*
X12834467Y-13354460D01*
X12834467Y-13354460D02*
X12805896Y-13363984D01*
X12805896Y-13363984D02*
X12758277Y-13363984D01*
X12958277Y-13363984D02*
X12958277Y-13230650D01*
X12958277Y-13268746D02*
X12967801Y-13249698D01*
X12967801Y-13249698D02*
X12977324Y-13240174D01*
X12977324Y-13240174D02*
X12996372Y-13230650D01*
X12996372Y-13230650D02*
X13015420Y-13230650D01*
X13082086Y-13363984D02*
X13082086Y-13230650D01*
X13082086Y-13163984D02*
X13072562Y-13173508D01*
X13072562Y-13173508D02*
X13082086Y-13183031D01*
X13082086Y-13183031D02*
X13091610Y-13173508D01*
X13091610Y-13173508D02*
X13082086Y-13163984D01*
X13082086Y-13163984D02*
X13082086Y-13183031D01*
X13205896Y-13363984D02*
X13186848Y-13354460D01*
X13186848Y-13354460D02*
X13177324Y-13335412D01*
X13177324Y-13335412D02*
X13177324Y-13163984D01*
X13310658Y-13363984D02*
X13291610Y-13354460D01*
X13291610Y-13354460D02*
X13282086Y-13335412D01*
X13282086Y-13335412D02*
X13282086Y-13163984D01*
X13539229Y-13363984D02*
X13539229Y-13163984D01*
X13539229Y-13163984D02*
X13605896Y-13306841D01*
X13605896Y-13306841D02*
X13672562Y-13163984D01*
X13672562Y-13163984D02*
X13672562Y-13363984D01*
X13853515Y-13363984D02*
X13853515Y-13259222D01*
X13853515Y-13259222D02*
X13843991Y-13240174D01*
X13843991Y-13240174D02*
X13824943Y-13230650D01*
X13824943Y-13230650D02*
X13786848Y-13230650D01*
X13786848Y-13230650D02*
X13767801Y-13240174D01*
X13853515Y-13354460D02*
X13834467Y-13363984D01*
X13834467Y-13363984D02*
X13786848Y-13363984D01*
X13786848Y-13363984D02*
X13767801Y-13354460D01*
X13767801Y-13354460D02*
X13758277Y-13335412D01*
X13758277Y-13335412D02*
X13758277Y-13316365D01*
X13758277Y-13316365D02*
X13767801Y-13297317D01*
X13767801Y-13297317D02*
X13786848Y-13287793D01*
X13786848Y-13287793D02*
X13834467Y-13287793D01*
X13834467Y-13287793D02*
X13853515Y-13278269D01*
X13948753Y-13230650D02*
X13948753Y-13430650D01*
X13948753Y-13240174D02*
X13967801Y-13230650D01*
X13967801Y-13230650D02*
X14005896Y-13230650D01*
X14005896Y-13230650D02*
X14024943Y-13240174D01*
X14024943Y-13240174D02*
X14034467Y-13249698D01*
X14034467Y-13249698D02*
X14043991Y-13268746D01*
X14043991Y-13268746D02*
X14043991Y-13325888D01*
X14043991Y-13325888D02*
X14034467Y-13344936D01*
X14034467Y-13344936D02*
X14024943Y-13354460D01*
X14024943Y-13354460D02*
X14005896Y-13363984D01*
X14005896Y-13363984D02*
X13967801Y-13363984D01*
X13967801Y-13363984D02*
X13948753Y-13354460D01*
X14129705Y-13344936D02*
X14139229Y-13354460D01*
X14139229Y-13354460D02*
X14129705Y-13363984D01*
X14129705Y-13363984D02*
X14120182Y-13354460D01*
X14120182Y-13354460D02*
X14129705Y-13344936D01*
X14129705Y-13344936D02*
X14129705Y-13363984D01*
X14129705Y-13240174D02*
X14139229Y-13249698D01*
X14139229Y-13249698D02*
X14129705Y-13259222D01*
X14129705Y-13259222D02*
X14120182Y-13249698D01*
X14120182Y-13249698D02*
X14129705Y-13240174D01*
X14129705Y-13240174D02*
X14129705Y-13259222D01*
D12*
X12432500Y-13660000D02*
X12497500Y-13725000D01*
X12497500Y-13660000D02*
X12432500Y-13725000D01*
D11*
X12796372Y-13583984D02*
X12815420Y-13583984D01*
X12815420Y-13583984D02*
X12834467Y-13593508D01*
X12834467Y-13593508D02*
X12843991Y-13603031D01*
X12843991Y-13603031D02*
X12853515Y-13622079D01*
X12853515Y-13622079D02*
X12863039Y-13660174D01*
X12863039Y-13660174D02*
X12863039Y-13707793D01*
X12863039Y-13707793D02*
X12853515Y-13745888D01*
X12853515Y-13745888D02*
X12843991Y-13764936D01*
X12843991Y-13764936D02*
X12834467Y-13774460D01*
X12834467Y-13774460D02*
X12815420Y-13783984D01*
X12815420Y-13783984D02*
X12796372Y-13783984D01*
X12796372Y-13783984D02*
X12777324Y-13774460D01*
X12777324Y-13774460D02*
X12767801Y-13764936D01*
X12767801Y-13764936D02*
X12758277Y-13745888D01*
X12758277Y-13745888D02*
X12748753Y-13707793D01*
X12748753Y-13707793D02*
X12748753Y-13660174D01*
X12748753Y-13660174D02*
X12758277Y-13622079D01*
X12758277Y-13622079D02*
X12767801Y-13603031D01*
X12767801Y-13603031D02*
X12777324Y-13593508D01*
X12777324Y-13593508D02*
X12796372Y-13583984D01*
X12948753Y-13764936D02*
X12958277Y-13774460D01*
X12958277Y-13774460D02*
X12948753Y-13783984D01*
X12948753Y-13783984D02*
X12939229Y-13774460D01*
X12939229Y-13774460D02*
X12948753Y-13764936D01*
X12948753Y-13764936D02*
X12948753Y-13783984D01*
X13129705Y-13583984D02*
X13091610Y-13583984D01*
X13091610Y-13583984D02*
X13072562Y-13593508D01*
X13072562Y-13593508D02*
X13063039Y-13603031D01*
X13063039Y-13603031D02*
X13043991Y-13631603D01*
X13043991Y-13631603D02*
X13034467Y-13669698D01*
X13034467Y-13669698D02*
X13034467Y-13745888D01*
X13034467Y-13745888D02*
X13043991Y-13764936D01*
X13043991Y-13764936D02*
X13053515Y-13774460D01*
X13053515Y-13774460D02*
X13072562Y-13783984D01*
X13072562Y-13783984D02*
X13110658Y-13783984D01*
X13110658Y-13783984D02*
X13129705Y-13774460D01*
X13129705Y-13774460D02*
X13139229Y-13764936D01*
X13139229Y-13764936D02*
X13148753Y-13745888D01*
X13148753Y-13745888D02*
X13148753Y-13698269D01*
X13148753Y-13698269D02*
X13139229Y-13679222D01*
X13139229Y-13679222D02*
X13129705Y-13669698D01*
X13129705Y-13669698D02*
X13110658Y-13660174D01*
X13110658Y-13660174D02*
X13072562Y-13660174D01*
X13072562Y-13660174D02*
X13053515Y-13669698D01*
X13053515Y-13669698D02*
X13043991Y-13679222D01*
X13043991Y-13679222D02*
X13034467Y-13698269D01*
X13329705Y-13583984D02*
X13234467Y-13583984D01*
X13234467Y-13583984D02*
X13224943Y-13679222D01*
X13224943Y-13679222D02*
X13234467Y-13669698D01*
X13234467Y-13669698D02*
X13253515Y-13660174D01*
X13253515Y-13660174D02*
X13301134Y-13660174D01*
X13301134Y-13660174D02*
X13320182Y-13669698D01*
X13320182Y-13669698D02*
X13329705Y-13679222D01*
X13329705Y-13679222D02*
X13339229Y-13698269D01*
X13339229Y-13698269D02*
X13339229Y-13745888D01*
X13339229Y-13745888D02*
X13329705Y-13764936D01*
X13329705Y-13764936D02*
X13320182Y-13774460D01*
X13320182Y-13774460D02*
X13301134Y-13783984D01*
X13301134Y-13783984D02*
X13253515Y-13783984D01*
X13253515Y-13783984D02*
X13234467Y-13774460D01*
X13234467Y-13774460D02*
X13224943Y-13764936D01*
X13463039Y-13583984D02*
X13482086Y-13583984D01*
X13482086Y-13583984D02*
X13501134Y-13593508D01*
X13501134Y-13593508D02*
X13510658Y-13603031D01*
X13510658Y-13603031D02*
X13520182Y-13622079D01*
X13520182Y-13622079D02*
X13529705Y-13660174D01*
X13529705Y-13660174D02*
X13529705Y-13707793D01*
X13529705Y-13707793D02*
X13520182Y-13745888D01*
X13520182Y-13745888D02*
X13510658Y-13764936D01*
X13510658Y-13764936D02*
X13501134Y-13774460D01*
X13501134Y-13774460D02*
X13482086Y-13783984D01*
X13482086Y-13783984D02*
X13463039Y-13783984D01*
X13463039Y-13783984D02*
X13443991Y-13774460D01*
X13443991Y-13774460D02*
X13434467Y-13764936D01*
X13434467Y-13764936D02*
X13424943Y-13745888D01*
X13424943Y-13745888D02*
X13415420Y-13707793D01*
X13415420Y-13707793D02*
X13415420Y-13660174D01*
X13415420Y-13660174D02*
X13424943Y-13622079D01*
X13424943Y-13622079D02*
X13434467Y-13603031D01*
X13434467Y-13603031D02*
X13443991Y-13593508D01*
X13443991Y-13593508D02*
X13463039Y-13583984D01*
X13615420Y-13783984D02*
X13615420Y-13650650D01*
X13615420Y-13669698D02*
X13624943Y-13660174D01*
X13624943Y-13660174D02*
X13643991Y-13650650D01*
X13643991Y-13650650D02*
X13672563Y-13650650D01*
X13672563Y-13650650D02*
X13691610Y-13660174D01*
X13691610Y-13660174D02*
X13701134Y-13679222D01*
X13701134Y-13679222D02*
X13701134Y-13783984D01*
X13701134Y-13679222D02*
X13710658Y-13660174D01*
X13710658Y-13660174D02*
X13729705Y-13650650D01*
X13729705Y-13650650D02*
X13758277Y-13650650D01*
X13758277Y-13650650D02*
X13777324Y-13660174D01*
X13777324Y-13660174D02*
X13786848Y-13679222D01*
X13786848Y-13679222D02*
X13786848Y-13783984D01*
X13882086Y-13783984D02*
X13882086Y-13650650D01*
X13882086Y-13669698D02*
X13891610Y-13660174D01*
X13891610Y-13660174D02*
X13910658Y-13650650D01*
X13910658Y-13650650D02*
X13939229Y-13650650D01*
X13939229Y-13650650D02*
X13958277Y-13660174D01*
X13958277Y-13660174D02*
X13967801Y-13679222D01*
X13967801Y-13679222D02*
X13967801Y-13783984D01*
X13967801Y-13679222D02*
X13977324Y-13660174D01*
X13977324Y-13660174D02*
X13996372Y-13650650D01*
X13996372Y-13650650D02*
X14024943Y-13650650D01*
X14024943Y-13650650D02*
X14043991Y-13660174D01*
X14043991Y-13660174D02*
X14053515Y-13679222D01*
X14053515Y-13679222D02*
X14053515Y-13783984D01*
X14443991Y-13574460D02*
X14272563Y-13831603D01*
X14701134Y-13583984D02*
X14720182Y-13583984D01*
X14720182Y-13583984D02*
X14739229Y-13593508D01*
X14739229Y-13593508D02*
X14748753Y-13603031D01*
X14748753Y-13603031D02*
X14758277Y-13622079D01*
X14758277Y-13622079D02*
X14767801Y-13660174D01*
X14767801Y-13660174D02*
X14767801Y-13707793D01*
X14767801Y-13707793D02*
X14758277Y-13745888D01*
X14758277Y-13745888D02*
X14748753Y-13764936D01*
X14748753Y-13764936D02*
X14739229Y-13774460D01*
X14739229Y-13774460D02*
X14720182Y-13783984D01*
X14720182Y-13783984D02*
X14701134Y-13783984D01*
X14701134Y-13783984D02*
X14682086Y-13774460D01*
X14682086Y-13774460D02*
X14672563Y-13764936D01*
X14672563Y-13764936D02*
X14663039Y-13745888D01*
X14663039Y-13745888D02*
X14653515Y-13707793D01*
X14653515Y-13707793D02*
X14653515Y-13660174D01*
X14653515Y-13660174D02*
X14663039Y-13622079D01*
X14663039Y-13622079D02*
X14672563Y-13603031D01*
X14672563Y-13603031D02*
X14682086Y-13593508D01*
X14682086Y-13593508D02*
X14701134Y-13583984D01*
X14853515Y-13764936D02*
X14863039Y-13774460D01*
X14863039Y-13774460D02*
X14853515Y-13783984D01*
X14853515Y-13783984D02*
X14843991Y-13774460D01*
X14843991Y-13774460D02*
X14853515Y-13764936D01*
X14853515Y-13764936D02*
X14853515Y-13783984D01*
X14986848Y-13583984D02*
X15005896Y-13583984D01*
X15005896Y-13583984D02*
X15024944Y-13593508D01*
X15024944Y-13593508D02*
X15034467Y-13603031D01*
X15034467Y-13603031D02*
X15043991Y-13622079D01*
X15043991Y-13622079D02*
X15053515Y-13660174D01*
X15053515Y-13660174D02*
X15053515Y-13707793D01*
X15053515Y-13707793D02*
X15043991Y-13745888D01*
X15043991Y-13745888D02*
X15034467Y-13764936D01*
X15034467Y-13764936D02*
X15024944Y-13774460D01*
X15024944Y-13774460D02*
X15005896Y-13783984D01*
X15005896Y-13783984D02*
X14986848Y-13783984D01*
X14986848Y-13783984D02*
X14967801Y-13774460D01*
X14967801Y-13774460D02*
X14958277Y-13764936D01*
X14958277Y-13764936D02*
X14948753Y-13745888D01*
X14948753Y-13745888D02*
X14939229Y-13707793D01*
X14939229Y-13707793D02*
X14939229Y-13660174D01*
X14939229Y-13660174D02*
X14948753Y-13622079D01*
X14948753Y-13622079D02*
X14958277Y-13603031D01*
X14958277Y-13603031D02*
X14967801Y-13593508D01*
X14967801Y-13593508D02*
X14986848Y-13583984D01*
X15129706Y-13603031D02*
X15139229Y-13593508D01*
X15139229Y-13593508D02*
X15158277Y-13583984D01*
X15158277Y-13583984D02*
X15205896Y-13583984D01*
X15205896Y-13583984D02*
X15224944Y-13593508D01*
X15224944Y-13593508D02*
X15234467Y-13603031D01*
X15234467Y-13603031D02*
X15243991Y-13622079D01*
X15243991Y-13622079D02*
X15243991Y-13641127D01*
X15243991Y-13641127D02*
X15234467Y-13669698D01*
X15234467Y-13669698D02*
X15120182Y-13783984D01*
X15120182Y-13783984D02*
X15243991Y-13783984D01*
X15424944Y-13583984D02*
X15329706Y-13583984D01*
X15329706Y-13583984D02*
X15320182Y-13679222D01*
X15320182Y-13679222D02*
X15329706Y-13669698D01*
X15329706Y-13669698D02*
X15348753Y-13660174D01*
X15348753Y-13660174D02*
X15396372Y-13660174D01*
X15396372Y-13660174D02*
X15415420Y-13669698D01*
X15415420Y-13669698D02*
X15424944Y-13679222D01*
X15424944Y-13679222D02*
X15434467Y-13698269D01*
X15434467Y-13698269D02*
X15434467Y-13745888D01*
X15434467Y-13745888D02*
X15424944Y-13764936D01*
X15424944Y-13764936D02*
X15415420Y-13774460D01*
X15415420Y-13774460D02*
X15396372Y-13783984D01*
X15396372Y-13783984D02*
X15348753Y-13783984D01*
X15348753Y-13783984D02*
X15329706Y-13774460D01*
X15329706Y-13774460D02*
X15320182Y-13764936D01*
X15605896Y-13583984D02*
X15567801Y-13583984D01*
X15567801Y-13583984D02*
X15548753Y-13593508D01*
X15548753Y-13593508D02*
X15539229Y-13603031D01*
X15539229Y-13603031D02*
X15520182Y-13631603D01*
X15520182Y-13631603D02*
X15510658Y-13669698D01*
X15510658Y-13669698D02*
X15510658Y-13745888D01*
X15510658Y-13745888D02*
X15520182Y-13764936D01*
X15520182Y-13764936D02*
X15529706Y-13774460D01*
X15529706Y-13774460D02*
X15548753Y-13783984D01*
X15548753Y-13783984D02*
X15586848Y-13783984D01*
X15586848Y-13783984D02*
X15605896Y-13774460D01*
X15605896Y-13774460D02*
X15615420Y-13764936D01*
X15615420Y-13764936D02*
X15624944Y-13745888D01*
X15624944Y-13745888D02*
X15624944Y-13698269D01*
X15624944Y-13698269D02*
X15615420Y-13679222D01*
X15615420Y-13679222D02*
X15605896Y-13669698D01*
X15605896Y-13669698D02*
X15586848Y-13660174D01*
X15586848Y-13660174D02*
X15548753Y-13660174D01*
X15548753Y-13660174D02*
X15529706Y-13669698D01*
X15529706Y-13669698D02*
X15520182Y-13679222D01*
X15520182Y-13679222D02*
X15510658Y-13698269D01*
X15701134Y-13583984D02*
X15701134Y-13622079D01*
X15777325Y-13583984D02*
X15777325Y-13622079D01*
X16072563Y-13860174D02*
X16063039Y-13850650D01*
X16063039Y-13850650D02*
X16043991Y-13822079D01*
X16043991Y-13822079D02*
X16034468Y-13803031D01*
X16034468Y-13803031D02*
X16024944Y-13774460D01*
X16024944Y-13774460D02*
X16015420Y-13726841D01*
X16015420Y-13726841D02*
X16015420Y-13688746D01*
X16015420Y-13688746D02*
X16024944Y-13641127D01*
X16024944Y-13641127D02*
X16034468Y-13612555D01*
X16034468Y-13612555D02*
X16043991Y-13593508D01*
X16043991Y-13593508D02*
X16063039Y-13564936D01*
X16063039Y-13564936D02*
X16072563Y-13555412D01*
X16139229Y-13603031D02*
X16148753Y-13593508D01*
X16148753Y-13593508D02*
X16167801Y-13583984D01*
X16167801Y-13583984D02*
X16215420Y-13583984D01*
X16215420Y-13583984D02*
X16234468Y-13593508D01*
X16234468Y-13593508D02*
X16243991Y-13603031D01*
X16243991Y-13603031D02*
X16253515Y-13622079D01*
X16253515Y-13622079D02*
X16253515Y-13641127D01*
X16253515Y-13641127D02*
X16243991Y-13669698D01*
X16243991Y-13669698D02*
X16129706Y-13783984D01*
X16129706Y-13783984D02*
X16253515Y-13783984D01*
X16491610Y-13783984D02*
X16491610Y-13583984D01*
X16577325Y-13783984D02*
X16577325Y-13679222D01*
X16577325Y-13679222D02*
X16567801Y-13660174D01*
X16567801Y-13660174D02*
X16548753Y-13650650D01*
X16548753Y-13650650D02*
X16520182Y-13650650D01*
X16520182Y-13650650D02*
X16501134Y-13660174D01*
X16501134Y-13660174D02*
X16491610Y-13669698D01*
X16701134Y-13783984D02*
X16682087Y-13774460D01*
X16682087Y-13774460D02*
X16672563Y-13764936D01*
X16672563Y-13764936D02*
X16663039Y-13745888D01*
X16663039Y-13745888D02*
X16663039Y-13688746D01*
X16663039Y-13688746D02*
X16672563Y-13669698D01*
X16672563Y-13669698D02*
X16682087Y-13660174D01*
X16682087Y-13660174D02*
X16701134Y-13650650D01*
X16701134Y-13650650D02*
X16729706Y-13650650D01*
X16729706Y-13650650D02*
X16748753Y-13660174D01*
X16748753Y-13660174D02*
X16758277Y-13669698D01*
X16758277Y-13669698D02*
X16767801Y-13688746D01*
X16767801Y-13688746D02*
X16767801Y-13745888D01*
X16767801Y-13745888D02*
X16758277Y-13764936D01*
X16758277Y-13764936D02*
X16748753Y-13774460D01*
X16748753Y-13774460D02*
X16729706Y-13783984D01*
X16729706Y-13783984D02*
X16701134Y-13783984D01*
X16882087Y-13783984D02*
X16863039Y-13774460D01*
X16863039Y-13774460D02*
X16853515Y-13755412D01*
X16853515Y-13755412D02*
X16853515Y-13583984D01*
X17034468Y-13774460D02*
X17015420Y-13783984D01*
X17015420Y-13783984D02*
X16977325Y-13783984D01*
X16977325Y-13783984D02*
X16958277Y-13774460D01*
X16958277Y-13774460D02*
X16948753Y-13755412D01*
X16948753Y-13755412D02*
X16948753Y-13679222D01*
X16948753Y-13679222D02*
X16958277Y-13660174D01*
X16958277Y-13660174D02*
X16977325Y-13650650D01*
X16977325Y-13650650D02*
X17015420Y-13650650D01*
X17015420Y-13650650D02*
X17034468Y-13660174D01*
X17034468Y-13660174D02*
X17043992Y-13679222D01*
X17043992Y-13679222D02*
X17043992Y-13698269D01*
X17043992Y-13698269D02*
X16948753Y-13717317D01*
X17120182Y-13774460D02*
X17139230Y-13783984D01*
X17139230Y-13783984D02*
X17177325Y-13783984D01*
X17177325Y-13783984D02*
X17196373Y-13774460D01*
X17196373Y-13774460D02*
X17205896Y-13755412D01*
X17205896Y-13755412D02*
X17205896Y-13745888D01*
X17205896Y-13745888D02*
X17196373Y-13726841D01*
X17196373Y-13726841D02*
X17177325Y-13717317D01*
X17177325Y-13717317D02*
X17148753Y-13717317D01*
X17148753Y-13717317D02*
X17129706Y-13707793D01*
X17129706Y-13707793D02*
X17120182Y-13688746D01*
X17120182Y-13688746D02*
X17120182Y-13679222D01*
X17120182Y-13679222D02*
X17129706Y-13660174D01*
X17129706Y-13660174D02*
X17148753Y-13650650D01*
X17148753Y-13650650D02*
X17177325Y-13650650D01*
X17177325Y-13650650D02*
X17196373Y-13660174D01*
X17272563Y-13860174D02*
X17282087Y-13850650D01*
X17282087Y-13850650D02*
X17301134Y-13822079D01*
X17301134Y-13822079D02*
X17310658Y-13803031D01*
X17310658Y-13803031D02*
X17320182Y-13774460D01*
X17320182Y-13774460D02*
X17329706Y-13726841D01*
X17329706Y-13726841D02*
X17329706Y-13688746D01*
X17329706Y-13688746D02*
X17320182Y-13641127D01*
X17320182Y-13641127D02*
X17310658Y-13612555D01*
X17310658Y-13612555D02*
X17301134Y-13593508D01*
X17301134Y-13593508D02*
X17282087Y-13564936D01*
X17282087Y-13564936D02*
X17272563Y-13555412D01*
X17634468Y-13860174D02*
X17624944Y-13850650D01*
X17624944Y-13850650D02*
X17605896Y-13822079D01*
X17605896Y-13822079D02*
X17596373Y-13803031D01*
X17596373Y-13803031D02*
X17586849Y-13774460D01*
X17586849Y-13774460D02*
X17577325Y-13726841D01*
X17577325Y-13726841D02*
X17577325Y-13688746D01*
X17577325Y-13688746D02*
X17586849Y-13641127D01*
X17586849Y-13641127D02*
X17596373Y-13612555D01*
X17596373Y-13612555D02*
X17605896Y-13593508D01*
X17605896Y-13593508D02*
X17624944Y-13564936D01*
X17624944Y-13564936D02*
X17634468Y-13555412D01*
X17710658Y-13650650D02*
X17710658Y-13783984D01*
X17710658Y-13669698D02*
X17720182Y-13660174D01*
X17720182Y-13660174D02*
X17739230Y-13650650D01*
X17739230Y-13650650D02*
X17767801Y-13650650D01*
X17767801Y-13650650D02*
X17786849Y-13660174D01*
X17786849Y-13660174D02*
X17796373Y-13679222D01*
X17796373Y-13679222D02*
X17796373Y-13783984D01*
X17920182Y-13783984D02*
X17901134Y-13774460D01*
X17901134Y-13774460D02*
X17891611Y-13764936D01*
X17891611Y-13764936D02*
X17882087Y-13745888D01*
X17882087Y-13745888D02*
X17882087Y-13688746D01*
X17882087Y-13688746D02*
X17891611Y-13669698D01*
X17891611Y-13669698D02*
X17901134Y-13660174D01*
X17901134Y-13660174D02*
X17920182Y-13650650D01*
X17920182Y-13650650D02*
X17948754Y-13650650D01*
X17948754Y-13650650D02*
X17967801Y-13660174D01*
X17967801Y-13660174D02*
X17977325Y-13669698D01*
X17977325Y-13669698D02*
X17986849Y-13688746D01*
X17986849Y-13688746D02*
X17986849Y-13745888D01*
X17986849Y-13745888D02*
X17977325Y-13764936D01*
X17977325Y-13764936D02*
X17967801Y-13774460D01*
X17967801Y-13774460D02*
X17948754Y-13783984D01*
X17948754Y-13783984D02*
X17920182Y-13783984D01*
X18043992Y-13650650D02*
X18120182Y-13650650D01*
X18072563Y-13583984D02*
X18072563Y-13755412D01*
X18072563Y-13755412D02*
X18082087Y-13774460D01*
X18082087Y-13774460D02*
X18101134Y-13783984D01*
X18101134Y-13783984D02*
X18120182Y-13783984D01*
X18339230Y-13650650D02*
X18339230Y-13850650D01*
X18339230Y-13660174D02*
X18358277Y-13650650D01*
X18358277Y-13650650D02*
X18396373Y-13650650D01*
X18396373Y-13650650D02*
X18415420Y-13660174D01*
X18415420Y-13660174D02*
X18424944Y-13669698D01*
X18424944Y-13669698D02*
X18434468Y-13688746D01*
X18434468Y-13688746D02*
X18434468Y-13745888D01*
X18434468Y-13745888D02*
X18424944Y-13764936D01*
X18424944Y-13764936D02*
X18415420Y-13774460D01*
X18415420Y-13774460D02*
X18396373Y-13783984D01*
X18396373Y-13783984D02*
X18358277Y-13783984D01*
X18358277Y-13783984D02*
X18339230Y-13774460D01*
X18548754Y-13783984D02*
X18529706Y-13774460D01*
X18529706Y-13774460D02*
X18520182Y-13755412D01*
X18520182Y-13755412D02*
X18520182Y-13583984D01*
X18710658Y-13783984D02*
X18710658Y-13679222D01*
X18710658Y-13679222D02*
X18701135Y-13660174D01*
X18701135Y-13660174D02*
X18682087Y-13650650D01*
X18682087Y-13650650D02*
X18643992Y-13650650D01*
X18643992Y-13650650D02*
X18624944Y-13660174D01*
X18710658Y-13774460D02*
X18691611Y-13783984D01*
X18691611Y-13783984D02*
X18643992Y-13783984D01*
X18643992Y-13783984D02*
X18624944Y-13774460D01*
X18624944Y-13774460D02*
X18615420Y-13755412D01*
X18615420Y-13755412D02*
X18615420Y-13736365D01*
X18615420Y-13736365D02*
X18624944Y-13717317D01*
X18624944Y-13717317D02*
X18643992Y-13707793D01*
X18643992Y-13707793D02*
X18691611Y-13707793D01*
X18691611Y-13707793D02*
X18710658Y-13698269D01*
X18777325Y-13650650D02*
X18853515Y-13650650D01*
X18805896Y-13583984D02*
X18805896Y-13755412D01*
X18805896Y-13755412D02*
X18815420Y-13774460D01*
X18815420Y-13774460D02*
X18834468Y-13783984D01*
X18834468Y-13783984D02*
X18853515Y-13783984D01*
X18996373Y-13774460D02*
X18977325Y-13783984D01*
X18977325Y-13783984D02*
X18939230Y-13783984D01*
X18939230Y-13783984D02*
X18920182Y-13774460D01*
X18920182Y-13774460D02*
X18910658Y-13755412D01*
X18910658Y-13755412D02*
X18910658Y-13679222D01*
X18910658Y-13679222D02*
X18920182Y-13660174D01*
X18920182Y-13660174D02*
X18939230Y-13650650D01*
X18939230Y-13650650D02*
X18977325Y-13650650D01*
X18977325Y-13650650D02*
X18996373Y-13660174D01*
X18996373Y-13660174D02*
X19005896Y-13679222D01*
X19005896Y-13679222D02*
X19005896Y-13698269D01*
X19005896Y-13698269D02*
X18910658Y-13717317D01*
X19177325Y-13783984D02*
X19177325Y-13583984D01*
X19177325Y-13774460D02*
X19158277Y-13783984D01*
X19158277Y-13783984D02*
X19120182Y-13783984D01*
X19120182Y-13783984D02*
X19101135Y-13774460D01*
X19101135Y-13774460D02*
X19091611Y-13764936D01*
X19091611Y-13764936D02*
X19082087Y-13745888D01*
X19082087Y-13745888D02*
X19082087Y-13688746D01*
X19082087Y-13688746D02*
X19091611Y-13669698D01*
X19091611Y-13669698D02*
X19101135Y-13660174D01*
X19101135Y-13660174D02*
X19120182Y-13650650D01*
X19120182Y-13650650D02*
X19158277Y-13650650D01*
X19158277Y-13650650D02*
X19177325Y-13660174D01*
X19253516Y-13860174D02*
X19263039Y-13850650D01*
X19263039Y-13850650D02*
X19282087Y-13822079D01*
X19282087Y-13822079D02*
X19291611Y-13803031D01*
X19291611Y-13803031D02*
X19301135Y-13774460D01*
X19301135Y-13774460D02*
X19310658Y-13726841D01*
X19310658Y-13726841D02*
X19310658Y-13688746D01*
X19310658Y-13688746D02*
X19301135Y-13641127D01*
X19301135Y-13641127D02*
X19291611Y-13612555D01*
X19291611Y-13612555D02*
X19282087Y-13593508D01*
X19282087Y-13593508D02*
X19263039Y-13564936D01*
X19263039Y-13564936D02*
X19253516Y-13555412D01*
D12*
X12497500Y-13956500D02*
G75*
G02*
X12407500Y-13956500I-45000J0D01*
G01*
X12407500Y-13956500D02*
G75*
G02*
X12497500Y-13956500I45000J0D01*
G01*
D11*
X12796372Y-13847984D02*
X12815420Y-13847984D01*
X12815420Y-13847984D02*
X12834467Y-13857508D01*
X12834467Y-13857508D02*
X12843991Y-13867031D01*
X12843991Y-13867031D02*
X12853515Y-13886079D01*
X12853515Y-13886079D02*
X12863039Y-13924174D01*
X12863039Y-13924174D02*
X12863039Y-13971793D01*
X12863039Y-13971793D02*
X12853515Y-14009888D01*
X12853515Y-14009888D02*
X12843991Y-14028936D01*
X12843991Y-14028936D02*
X12834467Y-14038460D01*
X12834467Y-14038460D02*
X12815420Y-14047984D01*
X12815420Y-14047984D02*
X12796372Y-14047984D01*
X12796372Y-14047984D02*
X12777324Y-14038460D01*
X12777324Y-14038460D02*
X12767801Y-14028936D01*
X12767801Y-14028936D02*
X12758277Y-14009888D01*
X12758277Y-14009888D02*
X12748753Y-13971793D01*
X12748753Y-13971793D02*
X12748753Y-13924174D01*
X12748753Y-13924174D02*
X12758277Y-13886079D01*
X12758277Y-13886079D02*
X12767801Y-13867031D01*
X12767801Y-13867031D02*
X12777324Y-13857508D01*
X12777324Y-13857508D02*
X12796372Y-13847984D01*
X12948753Y-14028936D02*
X12958277Y-14038460D01*
X12958277Y-14038460D02*
X12948753Y-14047984D01*
X12948753Y-14047984D02*
X12939229Y-14038460D01*
X12939229Y-14038460D02*
X12948753Y-14028936D01*
X12948753Y-14028936D02*
X12948753Y-14047984D01*
X13053515Y-14047984D02*
X13091610Y-14047984D01*
X13091610Y-14047984D02*
X13110658Y-14038460D01*
X13110658Y-14038460D02*
X13120182Y-14028936D01*
X13120182Y-14028936D02*
X13139229Y-14000365D01*
X13139229Y-14000365D02*
X13148753Y-13962269D01*
X13148753Y-13962269D02*
X13148753Y-13886079D01*
X13148753Y-13886079D02*
X13139229Y-13867031D01*
X13139229Y-13867031D02*
X13129705Y-13857508D01*
X13129705Y-13857508D02*
X13110658Y-13847984D01*
X13110658Y-13847984D02*
X13072562Y-13847984D01*
X13072562Y-13847984D02*
X13053515Y-13857508D01*
X13053515Y-13857508D02*
X13043991Y-13867031D01*
X13043991Y-13867031D02*
X13034467Y-13886079D01*
X13034467Y-13886079D02*
X13034467Y-13933698D01*
X13034467Y-13933698D02*
X13043991Y-13952746D01*
X13043991Y-13952746D02*
X13053515Y-13962269D01*
X13053515Y-13962269D02*
X13072562Y-13971793D01*
X13072562Y-13971793D02*
X13110658Y-13971793D01*
X13110658Y-13971793D02*
X13129705Y-13962269D01*
X13129705Y-13962269D02*
X13139229Y-13952746D01*
X13139229Y-13952746D02*
X13148753Y-13933698D01*
X13272562Y-13847984D02*
X13291610Y-13847984D01*
X13291610Y-13847984D02*
X13310658Y-13857508D01*
X13310658Y-13857508D02*
X13320182Y-13867031D01*
X13320182Y-13867031D02*
X13329705Y-13886079D01*
X13329705Y-13886079D02*
X13339229Y-13924174D01*
X13339229Y-13924174D02*
X13339229Y-13971793D01*
X13339229Y-13971793D02*
X13329705Y-14009888D01*
X13329705Y-14009888D02*
X13320182Y-14028936D01*
X13320182Y-14028936D02*
X13310658Y-14038460D01*
X13310658Y-14038460D02*
X13291610Y-14047984D01*
X13291610Y-14047984D02*
X13272562Y-14047984D01*
X13272562Y-14047984D02*
X13253515Y-14038460D01*
X13253515Y-14038460D02*
X13243991Y-14028936D01*
X13243991Y-14028936D02*
X13234467Y-14009888D01*
X13234467Y-14009888D02*
X13224943Y-13971793D01*
X13224943Y-13971793D02*
X13224943Y-13924174D01*
X13224943Y-13924174D02*
X13234467Y-13886079D01*
X13234467Y-13886079D02*
X13243991Y-13867031D01*
X13243991Y-13867031D02*
X13253515Y-13857508D01*
X13253515Y-13857508D02*
X13272562Y-13847984D01*
X13463039Y-13847984D02*
X13482086Y-13847984D01*
X13482086Y-13847984D02*
X13501134Y-13857508D01*
X13501134Y-13857508D02*
X13510658Y-13867031D01*
X13510658Y-13867031D02*
X13520182Y-13886079D01*
X13520182Y-13886079D02*
X13529705Y-13924174D01*
X13529705Y-13924174D02*
X13529705Y-13971793D01*
X13529705Y-13971793D02*
X13520182Y-14009888D01*
X13520182Y-14009888D02*
X13510658Y-14028936D01*
X13510658Y-14028936D02*
X13501134Y-14038460D01*
X13501134Y-14038460D02*
X13482086Y-14047984D01*
X13482086Y-14047984D02*
X13463039Y-14047984D01*
X13463039Y-14047984D02*
X13443991Y-14038460D01*
X13443991Y-14038460D02*
X13434467Y-14028936D01*
X13434467Y-14028936D02*
X13424943Y-14009888D01*
X13424943Y-14009888D02*
X13415420Y-13971793D01*
X13415420Y-13971793D02*
X13415420Y-13924174D01*
X13415420Y-13924174D02*
X13424943Y-13886079D01*
X13424943Y-13886079D02*
X13434467Y-13867031D01*
X13434467Y-13867031D02*
X13443991Y-13857508D01*
X13443991Y-13857508D02*
X13463039Y-13847984D01*
X13615420Y-14047984D02*
X13615420Y-13914650D01*
X13615420Y-13933698D02*
X13624943Y-13924174D01*
X13624943Y-13924174D02*
X13643991Y-13914650D01*
X13643991Y-13914650D02*
X13672563Y-13914650D01*
X13672563Y-13914650D02*
X13691610Y-13924174D01*
X13691610Y-13924174D02*
X13701134Y-13943222D01*
X13701134Y-13943222D02*
X13701134Y-14047984D01*
X13701134Y-13943222D02*
X13710658Y-13924174D01*
X13710658Y-13924174D02*
X13729705Y-13914650D01*
X13729705Y-13914650D02*
X13758277Y-13914650D01*
X13758277Y-13914650D02*
X13777324Y-13924174D01*
X13777324Y-13924174D02*
X13786848Y-13943222D01*
X13786848Y-13943222D02*
X13786848Y-14047984D01*
X13882086Y-14047984D02*
X13882086Y-13914650D01*
X13882086Y-13933698D02*
X13891610Y-13924174D01*
X13891610Y-13924174D02*
X13910658Y-13914650D01*
X13910658Y-13914650D02*
X13939229Y-13914650D01*
X13939229Y-13914650D02*
X13958277Y-13924174D01*
X13958277Y-13924174D02*
X13967801Y-13943222D01*
X13967801Y-13943222D02*
X13967801Y-14047984D01*
X13967801Y-13943222D02*
X13977324Y-13924174D01*
X13977324Y-13924174D02*
X13996372Y-13914650D01*
X13996372Y-13914650D02*
X14024943Y-13914650D01*
X14024943Y-13914650D02*
X14043991Y-13924174D01*
X14043991Y-13924174D02*
X14053515Y-13943222D01*
X14053515Y-13943222D02*
X14053515Y-14047984D01*
X14443991Y-13838460D02*
X14272563Y-14095603D01*
X14701134Y-13847984D02*
X14720182Y-13847984D01*
X14720182Y-13847984D02*
X14739229Y-13857508D01*
X14739229Y-13857508D02*
X14748753Y-13867031D01*
X14748753Y-13867031D02*
X14758277Y-13886079D01*
X14758277Y-13886079D02*
X14767801Y-13924174D01*
X14767801Y-13924174D02*
X14767801Y-13971793D01*
X14767801Y-13971793D02*
X14758277Y-14009888D01*
X14758277Y-14009888D02*
X14748753Y-14028936D01*
X14748753Y-14028936D02*
X14739229Y-14038460D01*
X14739229Y-14038460D02*
X14720182Y-14047984D01*
X14720182Y-14047984D02*
X14701134Y-14047984D01*
X14701134Y-14047984D02*
X14682086Y-14038460D01*
X14682086Y-14038460D02*
X14672563Y-14028936D01*
X14672563Y-14028936D02*
X14663039Y-14009888D01*
X14663039Y-14009888D02*
X14653515Y-13971793D01*
X14653515Y-13971793D02*
X14653515Y-13924174D01*
X14653515Y-13924174D02*
X14663039Y-13886079D01*
X14663039Y-13886079D02*
X14672563Y-13867031D01*
X14672563Y-13867031D02*
X14682086Y-13857508D01*
X14682086Y-13857508D02*
X14701134Y-13847984D01*
X14853515Y-14028936D02*
X14863039Y-14038460D01*
X14863039Y-14038460D02*
X14853515Y-14047984D01*
X14853515Y-14047984D02*
X14843991Y-14038460D01*
X14843991Y-14038460D02*
X14853515Y-14028936D01*
X14853515Y-14028936D02*
X14853515Y-14047984D01*
X14986848Y-13847984D02*
X15005896Y-13847984D01*
X15005896Y-13847984D02*
X15024944Y-13857508D01*
X15024944Y-13857508D02*
X15034467Y-13867031D01*
X15034467Y-13867031D02*
X15043991Y-13886079D01*
X15043991Y-13886079D02*
X15053515Y-13924174D01*
X15053515Y-13924174D02*
X15053515Y-13971793D01*
X15053515Y-13971793D02*
X15043991Y-14009888D01*
X15043991Y-14009888D02*
X15034467Y-14028936D01*
X15034467Y-14028936D02*
X15024944Y-14038460D01*
X15024944Y-14038460D02*
X15005896Y-14047984D01*
X15005896Y-14047984D02*
X14986848Y-14047984D01*
X14986848Y-14047984D02*
X14967801Y-14038460D01*
X14967801Y-14038460D02*
X14958277Y-14028936D01*
X14958277Y-14028936D02*
X14948753Y-14009888D01*
X14948753Y-14009888D02*
X14939229Y-13971793D01*
X14939229Y-13971793D02*
X14939229Y-13924174D01*
X14939229Y-13924174D02*
X14948753Y-13886079D01*
X14948753Y-13886079D02*
X14958277Y-13867031D01*
X14958277Y-13867031D02*
X14967801Y-13857508D01*
X14967801Y-13857508D02*
X14986848Y-13847984D01*
X15120182Y-13847984D02*
X15243991Y-13847984D01*
X15243991Y-13847984D02*
X15177325Y-13924174D01*
X15177325Y-13924174D02*
X15205896Y-13924174D01*
X15205896Y-13924174D02*
X15224944Y-13933698D01*
X15224944Y-13933698D02*
X15234467Y-13943222D01*
X15234467Y-13943222D02*
X15243991Y-13962269D01*
X15243991Y-13962269D02*
X15243991Y-14009888D01*
X15243991Y-14009888D02*
X15234467Y-14028936D01*
X15234467Y-14028936D02*
X15224944Y-14038460D01*
X15224944Y-14038460D02*
X15205896Y-14047984D01*
X15205896Y-14047984D02*
X15148753Y-14047984D01*
X15148753Y-14047984D02*
X15129706Y-14038460D01*
X15129706Y-14038460D02*
X15120182Y-14028936D01*
X15424944Y-13847984D02*
X15329706Y-13847984D01*
X15329706Y-13847984D02*
X15320182Y-13943222D01*
X15320182Y-13943222D02*
X15329706Y-13933698D01*
X15329706Y-13933698D02*
X15348753Y-13924174D01*
X15348753Y-13924174D02*
X15396372Y-13924174D01*
X15396372Y-13924174D02*
X15415420Y-13933698D01*
X15415420Y-13933698D02*
X15424944Y-13943222D01*
X15424944Y-13943222D02*
X15434467Y-13962269D01*
X15434467Y-13962269D02*
X15434467Y-14009888D01*
X15434467Y-14009888D02*
X15424944Y-14028936D01*
X15424944Y-14028936D02*
X15415420Y-14038460D01*
X15415420Y-14038460D02*
X15396372Y-14047984D01*
X15396372Y-14047984D02*
X15348753Y-14047984D01*
X15348753Y-14047984D02*
X15329706Y-14038460D01*
X15329706Y-14038460D02*
X15320182Y-14028936D01*
X15605896Y-13914650D02*
X15605896Y-14047984D01*
X15558277Y-13838460D02*
X15510658Y-13981317D01*
X15510658Y-13981317D02*
X15634467Y-13981317D01*
X15701134Y-13847984D02*
X15701134Y-13886079D01*
X15777325Y-13847984D02*
X15777325Y-13886079D01*
X16072563Y-14124174D02*
X16063039Y-14114650D01*
X16063039Y-14114650D02*
X16043991Y-14086079D01*
X16043991Y-14086079D02*
X16034468Y-14067031D01*
X16034468Y-14067031D02*
X16024944Y-14038460D01*
X16024944Y-14038460D02*
X16015420Y-13990841D01*
X16015420Y-13990841D02*
X16015420Y-13952746D01*
X16015420Y-13952746D02*
X16024944Y-13905127D01*
X16024944Y-13905127D02*
X16034468Y-13876555D01*
X16034468Y-13876555D02*
X16043991Y-13857508D01*
X16043991Y-13857508D02*
X16063039Y-13828936D01*
X16063039Y-13828936D02*
X16072563Y-13819412D01*
X16139229Y-13867031D02*
X16148753Y-13857508D01*
X16148753Y-13857508D02*
X16167801Y-13847984D01*
X16167801Y-13847984D02*
X16215420Y-13847984D01*
X16215420Y-13847984D02*
X16234468Y-13857508D01*
X16234468Y-13857508D02*
X16243991Y-13867031D01*
X16243991Y-13867031D02*
X16253515Y-13886079D01*
X16253515Y-13886079D02*
X16253515Y-13905127D01*
X16253515Y-13905127D02*
X16243991Y-13933698D01*
X16243991Y-13933698D02*
X16129706Y-14047984D01*
X16129706Y-14047984D02*
X16253515Y-14047984D01*
X16491610Y-14047984D02*
X16491610Y-13847984D01*
X16577325Y-14047984D02*
X16577325Y-13943222D01*
X16577325Y-13943222D02*
X16567801Y-13924174D01*
X16567801Y-13924174D02*
X16548753Y-13914650D01*
X16548753Y-13914650D02*
X16520182Y-13914650D01*
X16520182Y-13914650D02*
X16501134Y-13924174D01*
X16501134Y-13924174D02*
X16491610Y-13933698D01*
X16701134Y-14047984D02*
X16682087Y-14038460D01*
X16682087Y-14038460D02*
X16672563Y-14028936D01*
X16672563Y-14028936D02*
X16663039Y-14009888D01*
X16663039Y-14009888D02*
X16663039Y-13952746D01*
X16663039Y-13952746D02*
X16672563Y-13933698D01*
X16672563Y-13933698D02*
X16682087Y-13924174D01*
X16682087Y-13924174D02*
X16701134Y-13914650D01*
X16701134Y-13914650D02*
X16729706Y-13914650D01*
X16729706Y-13914650D02*
X16748753Y-13924174D01*
X16748753Y-13924174D02*
X16758277Y-13933698D01*
X16758277Y-13933698D02*
X16767801Y-13952746D01*
X16767801Y-13952746D02*
X16767801Y-14009888D01*
X16767801Y-14009888D02*
X16758277Y-14028936D01*
X16758277Y-14028936D02*
X16748753Y-14038460D01*
X16748753Y-14038460D02*
X16729706Y-14047984D01*
X16729706Y-14047984D02*
X16701134Y-14047984D01*
X16882087Y-14047984D02*
X16863039Y-14038460D01*
X16863039Y-14038460D02*
X16853515Y-14019412D01*
X16853515Y-14019412D02*
X16853515Y-13847984D01*
X17034468Y-14038460D02*
X17015420Y-14047984D01*
X17015420Y-14047984D02*
X16977325Y-14047984D01*
X16977325Y-14047984D02*
X16958277Y-14038460D01*
X16958277Y-14038460D02*
X16948753Y-14019412D01*
X16948753Y-14019412D02*
X16948753Y-13943222D01*
X16948753Y-13943222D02*
X16958277Y-13924174D01*
X16958277Y-13924174D02*
X16977325Y-13914650D01*
X16977325Y-13914650D02*
X17015420Y-13914650D01*
X17015420Y-13914650D02*
X17034468Y-13924174D01*
X17034468Y-13924174D02*
X17043992Y-13943222D01*
X17043992Y-13943222D02*
X17043992Y-13962269D01*
X17043992Y-13962269D02*
X16948753Y-13981317D01*
X17120182Y-14038460D02*
X17139230Y-14047984D01*
X17139230Y-14047984D02*
X17177325Y-14047984D01*
X17177325Y-14047984D02*
X17196373Y-14038460D01*
X17196373Y-14038460D02*
X17205896Y-14019412D01*
X17205896Y-14019412D02*
X17205896Y-14009888D01*
X17205896Y-14009888D02*
X17196373Y-13990841D01*
X17196373Y-13990841D02*
X17177325Y-13981317D01*
X17177325Y-13981317D02*
X17148753Y-13981317D01*
X17148753Y-13981317D02*
X17129706Y-13971793D01*
X17129706Y-13971793D02*
X17120182Y-13952746D01*
X17120182Y-13952746D02*
X17120182Y-13943222D01*
X17120182Y-13943222D02*
X17129706Y-13924174D01*
X17129706Y-13924174D02*
X17148753Y-13914650D01*
X17148753Y-13914650D02*
X17177325Y-13914650D01*
X17177325Y-13914650D02*
X17196373Y-13924174D01*
X17272563Y-14124174D02*
X17282087Y-14114650D01*
X17282087Y-14114650D02*
X17301134Y-14086079D01*
X17301134Y-14086079D02*
X17310658Y-14067031D01*
X17310658Y-14067031D02*
X17320182Y-14038460D01*
X17320182Y-14038460D02*
X17329706Y-13990841D01*
X17329706Y-13990841D02*
X17329706Y-13952746D01*
X17329706Y-13952746D02*
X17320182Y-13905127D01*
X17320182Y-13905127D02*
X17310658Y-13876555D01*
X17310658Y-13876555D02*
X17301134Y-13857508D01*
X17301134Y-13857508D02*
X17282087Y-13828936D01*
X17282087Y-13828936D02*
X17272563Y-13819412D01*
X17634468Y-14124174D02*
X17624944Y-14114650D01*
X17624944Y-14114650D02*
X17605896Y-14086079D01*
X17605896Y-14086079D02*
X17596373Y-14067031D01*
X17596373Y-14067031D02*
X17586849Y-14038460D01*
X17586849Y-14038460D02*
X17577325Y-13990841D01*
X17577325Y-13990841D02*
X17577325Y-13952746D01*
X17577325Y-13952746D02*
X17586849Y-13905127D01*
X17586849Y-13905127D02*
X17596373Y-13876555D01*
X17596373Y-13876555D02*
X17605896Y-13857508D01*
X17605896Y-13857508D02*
X17624944Y-13828936D01*
X17624944Y-13828936D02*
X17634468Y-13819412D01*
X17710658Y-13914650D02*
X17710658Y-14047984D01*
X17710658Y-13933698D02*
X17720182Y-13924174D01*
X17720182Y-13924174D02*
X17739230Y-13914650D01*
X17739230Y-13914650D02*
X17767801Y-13914650D01*
X17767801Y-13914650D02*
X17786849Y-13924174D01*
X17786849Y-13924174D02*
X17796373Y-13943222D01*
X17796373Y-13943222D02*
X17796373Y-14047984D01*
X17920182Y-14047984D02*
X17901134Y-14038460D01*
X17901134Y-14038460D02*
X17891611Y-14028936D01*
X17891611Y-14028936D02*
X17882087Y-14009888D01*
X17882087Y-14009888D02*
X17882087Y-13952746D01*
X17882087Y-13952746D02*
X17891611Y-13933698D01*
X17891611Y-13933698D02*
X17901134Y-13924174D01*
X17901134Y-13924174D02*
X17920182Y-13914650D01*
X17920182Y-13914650D02*
X17948754Y-13914650D01*
X17948754Y-13914650D02*
X17967801Y-13924174D01*
X17967801Y-13924174D02*
X17977325Y-13933698D01*
X17977325Y-13933698D02*
X17986849Y-13952746D01*
X17986849Y-13952746D02*
X17986849Y-14009888D01*
X17986849Y-14009888D02*
X17977325Y-14028936D01*
X17977325Y-14028936D02*
X17967801Y-14038460D01*
X17967801Y-14038460D02*
X17948754Y-14047984D01*
X17948754Y-14047984D02*
X17920182Y-14047984D01*
X18043992Y-13914650D02*
X18120182Y-13914650D01*
X18072563Y-13847984D02*
X18072563Y-14019412D01*
X18072563Y-14019412D02*
X18082087Y-14038460D01*
X18082087Y-14038460D02*
X18101134Y-14047984D01*
X18101134Y-14047984D02*
X18120182Y-14047984D01*
X18339230Y-13914650D02*
X18339230Y-14114650D01*
X18339230Y-13924174D02*
X18358277Y-13914650D01*
X18358277Y-13914650D02*
X18396373Y-13914650D01*
X18396373Y-13914650D02*
X18415420Y-13924174D01*
X18415420Y-13924174D02*
X18424944Y-13933698D01*
X18424944Y-13933698D02*
X18434468Y-13952746D01*
X18434468Y-13952746D02*
X18434468Y-14009888D01*
X18434468Y-14009888D02*
X18424944Y-14028936D01*
X18424944Y-14028936D02*
X18415420Y-14038460D01*
X18415420Y-14038460D02*
X18396373Y-14047984D01*
X18396373Y-14047984D02*
X18358277Y-14047984D01*
X18358277Y-14047984D02*
X18339230Y-14038460D01*
X18548754Y-14047984D02*
X18529706Y-14038460D01*
X18529706Y-14038460D02*
X18520182Y-14019412D01*
X18520182Y-14019412D02*
X18520182Y-13847984D01*
X18710658Y-14047984D02*
X18710658Y-13943222D01*
X18710658Y-13943222D02*
X18701135Y-13924174D01*
X18701135Y-13924174D02*
X18682087Y-13914650D01*
X18682087Y-13914650D02*
X18643992Y-13914650D01*
X18643992Y-13914650D02*
X18624944Y-13924174D01*
X18710658Y-14038460D02*
X18691611Y-14047984D01*
X18691611Y-14047984D02*
X18643992Y-14047984D01*
X18643992Y-14047984D02*
X18624944Y-14038460D01*
X18624944Y-14038460D02*
X18615420Y-14019412D01*
X18615420Y-14019412D02*
X18615420Y-14000365D01*
X18615420Y-14000365D02*
X18624944Y-13981317D01*
X18624944Y-13981317D02*
X18643992Y-13971793D01*
X18643992Y-13971793D02*
X18691611Y-13971793D01*
X18691611Y-13971793D02*
X18710658Y-13962269D01*
X18777325Y-13914650D02*
X18853515Y-13914650D01*
X18805896Y-13847984D02*
X18805896Y-14019412D01*
X18805896Y-14019412D02*
X18815420Y-14038460D01*
X18815420Y-14038460D02*
X18834468Y-14047984D01*
X18834468Y-14047984D02*
X18853515Y-14047984D01*
X18996373Y-14038460D02*
X18977325Y-14047984D01*
X18977325Y-14047984D02*
X18939230Y-14047984D01*
X18939230Y-14047984D02*
X18920182Y-14038460D01*
X18920182Y-14038460D02*
X18910658Y-14019412D01*
X18910658Y-14019412D02*
X18910658Y-13943222D01*
X18910658Y-13943222D02*
X18920182Y-13924174D01*
X18920182Y-13924174D02*
X18939230Y-13914650D01*
X18939230Y-13914650D02*
X18977325Y-13914650D01*
X18977325Y-13914650D02*
X18996373Y-13924174D01*
X18996373Y-13924174D02*
X19005896Y-13943222D01*
X19005896Y-13943222D02*
X19005896Y-13962269D01*
X19005896Y-13962269D02*
X18910658Y-13981317D01*
X19177325Y-14047984D02*
X19177325Y-13847984D01*
X19177325Y-14038460D02*
X19158277Y-14047984D01*
X19158277Y-14047984D02*
X19120182Y-14047984D01*
X19120182Y-14047984D02*
X19101135Y-14038460D01*
X19101135Y-14038460D02*
X19091611Y-14028936D01*
X19091611Y-14028936D02*
X19082087Y-14009888D01*
X19082087Y-14009888D02*
X19082087Y-13952746D01*
X19082087Y-13952746D02*
X19091611Y-13933698D01*
X19091611Y-13933698D02*
X19101135Y-13924174D01*
X19101135Y-13924174D02*
X19120182Y-13914650D01*
X19120182Y-13914650D02*
X19158277Y-13914650D01*
X19158277Y-13914650D02*
X19177325Y-13924174D01*
X19253516Y-14124174D02*
X19263039Y-14114650D01*
X19263039Y-14114650D02*
X19282087Y-14086079D01*
X19282087Y-14086079D02*
X19291611Y-14067031D01*
X19291611Y-14067031D02*
X19301135Y-14038460D01*
X19301135Y-14038460D02*
X19310658Y-13990841D01*
X19310658Y-13990841D02*
X19310658Y-13952746D01*
X19310658Y-13952746D02*
X19301135Y-13905127D01*
X19301135Y-13905127D02*
X19291611Y-13876555D01*
X19291611Y-13876555D02*
X19282087Y-13857508D01*
X19282087Y-13857508D02*
X19263039Y-13828936D01*
X19263039Y-13828936D02*
X19253516Y-13819412D01*
X12397500Y-14120500D02*
X12397500Y-14320500D01*
X12297500Y-14220500D02*
X12497500Y-14220500D01*
X12739229Y-14111984D02*
X12863039Y-14111984D01*
X12863039Y-14111984D02*
X12796372Y-14188174D01*
X12796372Y-14188174D02*
X12824943Y-14188174D01*
X12824943Y-14188174D02*
X12843991Y-14197698D01*
X12843991Y-14197698D02*
X12853515Y-14207222D01*
X12853515Y-14207222D02*
X12863039Y-14226269D01*
X12863039Y-14226269D02*
X12863039Y-14273888D01*
X12863039Y-14273888D02*
X12853515Y-14292936D01*
X12853515Y-14292936D02*
X12843991Y-14302460D01*
X12843991Y-14302460D02*
X12824943Y-14311984D01*
X12824943Y-14311984D02*
X12767801Y-14311984D01*
X12767801Y-14311984D02*
X12748753Y-14302460D01*
X12748753Y-14302460D02*
X12739229Y-14292936D01*
X12948753Y-14292936D02*
X12958277Y-14302460D01*
X12958277Y-14302460D02*
X12948753Y-14311984D01*
X12948753Y-14311984D02*
X12939229Y-14302460D01*
X12939229Y-14302460D02*
X12948753Y-14292936D01*
X12948753Y-14292936D02*
X12948753Y-14311984D01*
X13082086Y-14111984D02*
X13101134Y-14111984D01*
X13101134Y-14111984D02*
X13120182Y-14121508D01*
X13120182Y-14121508D02*
X13129705Y-14131031D01*
X13129705Y-14131031D02*
X13139229Y-14150079D01*
X13139229Y-14150079D02*
X13148753Y-14188174D01*
X13148753Y-14188174D02*
X13148753Y-14235793D01*
X13148753Y-14235793D02*
X13139229Y-14273888D01*
X13139229Y-14273888D02*
X13129705Y-14292936D01*
X13129705Y-14292936D02*
X13120182Y-14302460D01*
X13120182Y-14302460D02*
X13101134Y-14311984D01*
X13101134Y-14311984D02*
X13082086Y-14311984D01*
X13082086Y-14311984D02*
X13063039Y-14302460D01*
X13063039Y-14302460D02*
X13053515Y-14292936D01*
X13053515Y-14292936D02*
X13043991Y-14273888D01*
X13043991Y-14273888D02*
X13034467Y-14235793D01*
X13034467Y-14235793D02*
X13034467Y-14188174D01*
X13034467Y-14188174D02*
X13043991Y-14150079D01*
X13043991Y-14150079D02*
X13053515Y-14131031D01*
X13053515Y-14131031D02*
X13063039Y-14121508D01*
X13063039Y-14121508D02*
X13082086Y-14111984D01*
X13272562Y-14111984D02*
X13291610Y-14111984D01*
X13291610Y-14111984D02*
X13310658Y-14121508D01*
X13310658Y-14121508D02*
X13320182Y-14131031D01*
X13320182Y-14131031D02*
X13329705Y-14150079D01*
X13329705Y-14150079D02*
X13339229Y-14188174D01*
X13339229Y-14188174D02*
X13339229Y-14235793D01*
X13339229Y-14235793D02*
X13329705Y-14273888D01*
X13329705Y-14273888D02*
X13320182Y-14292936D01*
X13320182Y-14292936D02*
X13310658Y-14302460D01*
X13310658Y-14302460D02*
X13291610Y-14311984D01*
X13291610Y-14311984D02*
X13272562Y-14311984D01*
X13272562Y-14311984D02*
X13253515Y-14302460D01*
X13253515Y-14302460D02*
X13243991Y-14292936D01*
X13243991Y-14292936D02*
X13234467Y-14273888D01*
X13234467Y-14273888D02*
X13224943Y-14235793D01*
X13224943Y-14235793D02*
X13224943Y-14188174D01*
X13224943Y-14188174D02*
X13234467Y-14150079D01*
X13234467Y-14150079D02*
X13243991Y-14131031D01*
X13243991Y-14131031D02*
X13253515Y-14121508D01*
X13253515Y-14121508D02*
X13272562Y-14111984D01*
X13463039Y-14111984D02*
X13482086Y-14111984D01*
X13482086Y-14111984D02*
X13501134Y-14121508D01*
X13501134Y-14121508D02*
X13510658Y-14131031D01*
X13510658Y-14131031D02*
X13520182Y-14150079D01*
X13520182Y-14150079D02*
X13529705Y-14188174D01*
X13529705Y-14188174D02*
X13529705Y-14235793D01*
X13529705Y-14235793D02*
X13520182Y-14273888D01*
X13520182Y-14273888D02*
X13510658Y-14292936D01*
X13510658Y-14292936D02*
X13501134Y-14302460D01*
X13501134Y-14302460D02*
X13482086Y-14311984D01*
X13482086Y-14311984D02*
X13463039Y-14311984D01*
X13463039Y-14311984D02*
X13443991Y-14302460D01*
X13443991Y-14302460D02*
X13434467Y-14292936D01*
X13434467Y-14292936D02*
X13424943Y-14273888D01*
X13424943Y-14273888D02*
X13415420Y-14235793D01*
X13415420Y-14235793D02*
X13415420Y-14188174D01*
X13415420Y-14188174D02*
X13424943Y-14150079D01*
X13424943Y-14150079D02*
X13434467Y-14131031D01*
X13434467Y-14131031D02*
X13443991Y-14121508D01*
X13443991Y-14121508D02*
X13463039Y-14111984D01*
X13615420Y-14311984D02*
X13615420Y-14178650D01*
X13615420Y-14197698D02*
X13624943Y-14188174D01*
X13624943Y-14188174D02*
X13643991Y-14178650D01*
X13643991Y-14178650D02*
X13672563Y-14178650D01*
X13672563Y-14178650D02*
X13691610Y-14188174D01*
X13691610Y-14188174D02*
X13701134Y-14207222D01*
X13701134Y-14207222D02*
X13701134Y-14311984D01*
X13701134Y-14207222D02*
X13710658Y-14188174D01*
X13710658Y-14188174D02*
X13729705Y-14178650D01*
X13729705Y-14178650D02*
X13758277Y-14178650D01*
X13758277Y-14178650D02*
X13777324Y-14188174D01*
X13777324Y-14188174D02*
X13786848Y-14207222D01*
X13786848Y-14207222D02*
X13786848Y-14311984D01*
X13882086Y-14311984D02*
X13882086Y-14178650D01*
X13882086Y-14197698D02*
X13891610Y-14188174D01*
X13891610Y-14188174D02*
X13910658Y-14178650D01*
X13910658Y-14178650D02*
X13939229Y-14178650D01*
X13939229Y-14178650D02*
X13958277Y-14188174D01*
X13958277Y-14188174D02*
X13967801Y-14207222D01*
X13967801Y-14207222D02*
X13967801Y-14311984D01*
X13967801Y-14207222D02*
X13977324Y-14188174D01*
X13977324Y-14188174D02*
X13996372Y-14178650D01*
X13996372Y-14178650D02*
X14024943Y-14178650D01*
X14024943Y-14178650D02*
X14043991Y-14188174D01*
X14043991Y-14188174D02*
X14053515Y-14207222D01*
X14053515Y-14207222D02*
X14053515Y-14311984D01*
X14443991Y-14102460D02*
X14272563Y-14359603D01*
X14701134Y-14111984D02*
X14720182Y-14111984D01*
X14720182Y-14111984D02*
X14739229Y-14121508D01*
X14739229Y-14121508D02*
X14748753Y-14131031D01*
X14748753Y-14131031D02*
X14758277Y-14150079D01*
X14758277Y-14150079D02*
X14767801Y-14188174D01*
X14767801Y-14188174D02*
X14767801Y-14235793D01*
X14767801Y-14235793D02*
X14758277Y-14273888D01*
X14758277Y-14273888D02*
X14748753Y-14292936D01*
X14748753Y-14292936D02*
X14739229Y-14302460D01*
X14739229Y-14302460D02*
X14720182Y-14311984D01*
X14720182Y-14311984D02*
X14701134Y-14311984D01*
X14701134Y-14311984D02*
X14682086Y-14302460D01*
X14682086Y-14302460D02*
X14672563Y-14292936D01*
X14672563Y-14292936D02*
X14663039Y-14273888D01*
X14663039Y-14273888D02*
X14653515Y-14235793D01*
X14653515Y-14235793D02*
X14653515Y-14188174D01*
X14653515Y-14188174D02*
X14663039Y-14150079D01*
X14663039Y-14150079D02*
X14672563Y-14131031D01*
X14672563Y-14131031D02*
X14682086Y-14121508D01*
X14682086Y-14121508D02*
X14701134Y-14111984D01*
X14853515Y-14292936D02*
X14863039Y-14302460D01*
X14863039Y-14302460D02*
X14853515Y-14311984D01*
X14853515Y-14311984D02*
X14843991Y-14302460D01*
X14843991Y-14302460D02*
X14853515Y-14292936D01*
X14853515Y-14292936D02*
X14853515Y-14311984D01*
X15053515Y-14311984D02*
X14939229Y-14311984D01*
X14996372Y-14311984D02*
X14996372Y-14111984D01*
X14996372Y-14111984D02*
X14977325Y-14140555D01*
X14977325Y-14140555D02*
X14958277Y-14159603D01*
X14958277Y-14159603D02*
X14939229Y-14169127D01*
X15243991Y-14311984D02*
X15129706Y-14311984D01*
X15186848Y-14311984D02*
X15186848Y-14111984D01*
X15186848Y-14111984D02*
X15167801Y-14140555D01*
X15167801Y-14140555D02*
X15148753Y-14159603D01*
X15148753Y-14159603D02*
X15129706Y-14169127D01*
X15358277Y-14197698D02*
X15339229Y-14188174D01*
X15339229Y-14188174D02*
X15329706Y-14178650D01*
X15329706Y-14178650D02*
X15320182Y-14159603D01*
X15320182Y-14159603D02*
X15320182Y-14150079D01*
X15320182Y-14150079D02*
X15329706Y-14131031D01*
X15329706Y-14131031D02*
X15339229Y-14121508D01*
X15339229Y-14121508D02*
X15358277Y-14111984D01*
X15358277Y-14111984D02*
X15396372Y-14111984D01*
X15396372Y-14111984D02*
X15415420Y-14121508D01*
X15415420Y-14121508D02*
X15424944Y-14131031D01*
X15424944Y-14131031D02*
X15434467Y-14150079D01*
X15434467Y-14150079D02*
X15434467Y-14159603D01*
X15434467Y-14159603D02*
X15424944Y-14178650D01*
X15424944Y-14178650D02*
X15415420Y-14188174D01*
X15415420Y-14188174D02*
X15396372Y-14197698D01*
X15396372Y-14197698D02*
X15358277Y-14197698D01*
X15358277Y-14197698D02*
X15339229Y-14207222D01*
X15339229Y-14207222D02*
X15329706Y-14216746D01*
X15329706Y-14216746D02*
X15320182Y-14235793D01*
X15320182Y-14235793D02*
X15320182Y-14273888D01*
X15320182Y-14273888D02*
X15329706Y-14292936D01*
X15329706Y-14292936D02*
X15339229Y-14302460D01*
X15339229Y-14302460D02*
X15358277Y-14311984D01*
X15358277Y-14311984D02*
X15396372Y-14311984D01*
X15396372Y-14311984D02*
X15415420Y-14302460D01*
X15415420Y-14302460D02*
X15424944Y-14292936D01*
X15424944Y-14292936D02*
X15434467Y-14273888D01*
X15434467Y-14273888D02*
X15434467Y-14235793D01*
X15434467Y-14235793D02*
X15424944Y-14216746D01*
X15424944Y-14216746D02*
X15415420Y-14207222D01*
X15415420Y-14207222D02*
X15396372Y-14197698D01*
X15624944Y-14311984D02*
X15510658Y-14311984D01*
X15567801Y-14311984D02*
X15567801Y-14111984D01*
X15567801Y-14111984D02*
X15548753Y-14140555D01*
X15548753Y-14140555D02*
X15529706Y-14159603D01*
X15529706Y-14159603D02*
X15510658Y-14169127D01*
X15701134Y-14111984D02*
X15701134Y-14150079D01*
X15777325Y-14111984D02*
X15777325Y-14150079D01*
X16072563Y-14388174D02*
X16063039Y-14378650D01*
X16063039Y-14378650D02*
X16043991Y-14350079D01*
X16043991Y-14350079D02*
X16034468Y-14331031D01*
X16034468Y-14331031D02*
X16024944Y-14302460D01*
X16024944Y-14302460D02*
X16015420Y-14254841D01*
X16015420Y-14254841D02*
X16015420Y-14216746D01*
X16015420Y-14216746D02*
X16024944Y-14169127D01*
X16024944Y-14169127D02*
X16034468Y-14140555D01*
X16034468Y-14140555D02*
X16043991Y-14121508D01*
X16043991Y-14121508D02*
X16063039Y-14092936D01*
X16063039Y-14092936D02*
X16072563Y-14083412D01*
X16234468Y-14178650D02*
X16234468Y-14311984D01*
X16186848Y-14102460D02*
X16139229Y-14245317D01*
X16139229Y-14245317D02*
X16263039Y-14245317D01*
X16491610Y-14311984D02*
X16491610Y-14111984D01*
X16577325Y-14311984D02*
X16577325Y-14207222D01*
X16577325Y-14207222D02*
X16567801Y-14188174D01*
X16567801Y-14188174D02*
X16548753Y-14178650D01*
X16548753Y-14178650D02*
X16520182Y-14178650D01*
X16520182Y-14178650D02*
X16501134Y-14188174D01*
X16501134Y-14188174D02*
X16491610Y-14197698D01*
X16701134Y-14311984D02*
X16682087Y-14302460D01*
X16682087Y-14302460D02*
X16672563Y-14292936D01*
X16672563Y-14292936D02*
X16663039Y-14273888D01*
X16663039Y-14273888D02*
X16663039Y-14216746D01*
X16663039Y-14216746D02*
X16672563Y-14197698D01*
X16672563Y-14197698D02*
X16682087Y-14188174D01*
X16682087Y-14188174D02*
X16701134Y-14178650D01*
X16701134Y-14178650D02*
X16729706Y-14178650D01*
X16729706Y-14178650D02*
X16748753Y-14188174D01*
X16748753Y-14188174D02*
X16758277Y-14197698D01*
X16758277Y-14197698D02*
X16767801Y-14216746D01*
X16767801Y-14216746D02*
X16767801Y-14273888D01*
X16767801Y-14273888D02*
X16758277Y-14292936D01*
X16758277Y-14292936D02*
X16748753Y-14302460D01*
X16748753Y-14302460D02*
X16729706Y-14311984D01*
X16729706Y-14311984D02*
X16701134Y-14311984D01*
X16882087Y-14311984D02*
X16863039Y-14302460D01*
X16863039Y-14302460D02*
X16853515Y-14283412D01*
X16853515Y-14283412D02*
X16853515Y-14111984D01*
X17034468Y-14302460D02*
X17015420Y-14311984D01*
X17015420Y-14311984D02*
X16977325Y-14311984D01*
X16977325Y-14311984D02*
X16958277Y-14302460D01*
X16958277Y-14302460D02*
X16948753Y-14283412D01*
X16948753Y-14283412D02*
X16948753Y-14207222D01*
X16948753Y-14207222D02*
X16958277Y-14188174D01*
X16958277Y-14188174D02*
X16977325Y-14178650D01*
X16977325Y-14178650D02*
X17015420Y-14178650D01*
X17015420Y-14178650D02*
X17034468Y-14188174D01*
X17034468Y-14188174D02*
X17043992Y-14207222D01*
X17043992Y-14207222D02*
X17043992Y-14226269D01*
X17043992Y-14226269D02*
X16948753Y-14245317D01*
X17120182Y-14302460D02*
X17139230Y-14311984D01*
X17139230Y-14311984D02*
X17177325Y-14311984D01*
X17177325Y-14311984D02*
X17196373Y-14302460D01*
X17196373Y-14302460D02*
X17205896Y-14283412D01*
X17205896Y-14283412D02*
X17205896Y-14273888D01*
X17205896Y-14273888D02*
X17196373Y-14254841D01*
X17196373Y-14254841D02*
X17177325Y-14245317D01*
X17177325Y-14245317D02*
X17148753Y-14245317D01*
X17148753Y-14245317D02*
X17129706Y-14235793D01*
X17129706Y-14235793D02*
X17120182Y-14216746D01*
X17120182Y-14216746D02*
X17120182Y-14207222D01*
X17120182Y-14207222D02*
X17129706Y-14188174D01*
X17129706Y-14188174D02*
X17148753Y-14178650D01*
X17148753Y-14178650D02*
X17177325Y-14178650D01*
X17177325Y-14178650D02*
X17196373Y-14188174D01*
X17272563Y-14388174D02*
X17282087Y-14378650D01*
X17282087Y-14378650D02*
X17301134Y-14350079D01*
X17301134Y-14350079D02*
X17310658Y-14331031D01*
X17310658Y-14331031D02*
X17320182Y-14302460D01*
X17320182Y-14302460D02*
X17329706Y-14254841D01*
X17329706Y-14254841D02*
X17329706Y-14216746D01*
X17329706Y-14216746D02*
X17320182Y-14169127D01*
X17320182Y-14169127D02*
X17310658Y-14140555D01*
X17310658Y-14140555D02*
X17301134Y-14121508D01*
X17301134Y-14121508D02*
X17282087Y-14092936D01*
X17282087Y-14092936D02*
X17272563Y-14083412D01*
X17634468Y-14388174D02*
X17624944Y-14378650D01*
X17624944Y-14378650D02*
X17605896Y-14350079D01*
X17605896Y-14350079D02*
X17596373Y-14331031D01*
X17596373Y-14331031D02*
X17586849Y-14302460D01*
X17586849Y-14302460D02*
X17577325Y-14254841D01*
X17577325Y-14254841D02*
X17577325Y-14216746D01*
X17577325Y-14216746D02*
X17586849Y-14169127D01*
X17586849Y-14169127D02*
X17596373Y-14140555D01*
X17596373Y-14140555D02*
X17605896Y-14121508D01*
X17605896Y-14121508D02*
X17624944Y-14092936D01*
X17624944Y-14092936D02*
X17634468Y-14083412D01*
X17710658Y-14178650D02*
X17710658Y-14311984D01*
X17710658Y-14197698D02*
X17720182Y-14188174D01*
X17720182Y-14188174D02*
X17739230Y-14178650D01*
X17739230Y-14178650D02*
X17767801Y-14178650D01*
X17767801Y-14178650D02*
X17786849Y-14188174D01*
X17786849Y-14188174D02*
X17796373Y-14207222D01*
X17796373Y-14207222D02*
X17796373Y-14311984D01*
X17920182Y-14311984D02*
X17901134Y-14302460D01*
X17901134Y-14302460D02*
X17891611Y-14292936D01*
X17891611Y-14292936D02*
X17882087Y-14273888D01*
X17882087Y-14273888D02*
X17882087Y-14216746D01*
X17882087Y-14216746D02*
X17891611Y-14197698D01*
X17891611Y-14197698D02*
X17901134Y-14188174D01*
X17901134Y-14188174D02*
X17920182Y-14178650D01*
X17920182Y-14178650D02*
X17948754Y-14178650D01*
X17948754Y-14178650D02*
X17967801Y-14188174D01*
X17967801Y-14188174D02*
X17977325Y-14197698D01*
X17977325Y-14197698D02*
X17986849Y-14216746D01*
X17986849Y-14216746D02*
X17986849Y-14273888D01*
X17986849Y-14273888D02*
X17977325Y-14292936D01*
X17977325Y-14292936D02*
X17967801Y-14302460D01*
X17967801Y-14302460D02*
X17948754Y-14311984D01*
X17948754Y-14311984D02*
X17920182Y-14311984D01*
X18043992Y-14178650D02*
X18120182Y-14178650D01*
X18072563Y-14111984D02*
X18072563Y-14283412D01*
X18072563Y-14283412D02*
X18082087Y-14302460D01*
X18082087Y-14302460D02*
X18101134Y-14311984D01*
X18101134Y-14311984D02*
X18120182Y-14311984D01*
X18339230Y-14178650D02*
X18339230Y-14378650D01*
X18339230Y-14188174D02*
X18358277Y-14178650D01*
X18358277Y-14178650D02*
X18396373Y-14178650D01*
X18396373Y-14178650D02*
X18415420Y-14188174D01*
X18415420Y-14188174D02*
X18424944Y-14197698D01*
X18424944Y-14197698D02*
X18434468Y-14216746D01*
X18434468Y-14216746D02*
X18434468Y-14273888D01*
X18434468Y-14273888D02*
X18424944Y-14292936D01*
X18424944Y-14292936D02*
X18415420Y-14302460D01*
X18415420Y-14302460D02*
X18396373Y-14311984D01*
X18396373Y-14311984D02*
X18358277Y-14311984D01*
X18358277Y-14311984D02*
X18339230Y-14302460D01*
X18548754Y-14311984D02*
X18529706Y-14302460D01*
X18529706Y-14302460D02*
X18520182Y-14283412D01*
X18520182Y-14283412D02*
X18520182Y-14111984D01*
X18710658Y-14311984D02*
X18710658Y-14207222D01*
X18710658Y-14207222D02*
X18701135Y-14188174D01*
X18701135Y-14188174D02*
X18682087Y-14178650D01*
X18682087Y-14178650D02*
X18643992Y-14178650D01*
X18643992Y-14178650D02*
X18624944Y-14188174D01*
X18710658Y-14302460D02*
X18691611Y-14311984D01*
X18691611Y-14311984D02*
X18643992Y-14311984D01*
X18643992Y-14311984D02*
X18624944Y-14302460D01*
X18624944Y-14302460D02*
X18615420Y-14283412D01*
X18615420Y-14283412D02*
X18615420Y-14264365D01*
X18615420Y-14264365D02*
X18624944Y-14245317D01*
X18624944Y-14245317D02*
X18643992Y-14235793D01*
X18643992Y-14235793D02*
X18691611Y-14235793D01*
X18691611Y-14235793D02*
X18710658Y-14226269D01*
X18777325Y-14178650D02*
X18853515Y-14178650D01*
X18805896Y-14111984D02*
X18805896Y-14283412D01*
X18805896Y-14283412D02*
X18815420Y-14302460D01*
X18815420Y-14302460D02*
X18834468Y-14311984D01*
X18834468Y-14311984D02*
X18853515Y-14311984D01*
X18996373Y-14302460D02*
X18977325Y-14311984D01*
X18977325Y-14311984D02*
X18939230Y-14311984D01*
X18939230Y-14311984D02*
X18920182Y-14302460D01*
X18920182Y-14302460D02*
X18910658Y-14283412D01*
X18910658Y-14283412D02*
X18910658Y-14207222D01*
X18910658Y-14207222D02*
X18920182Y-14188174D01*
X18920182Y-14188174D02*
X18939230Y-14178650D01*
X18939230Y-14178650D02*
X18977325Y-14178650D01*
X18977325Y-14178650D02*
X18996373Y-14188174D01*
X18996373Y-14188174D02*
X19005896Y-14207222D01*
X19005896Y-14207222D02*
X19005896Y-14226269D01*
X19005896Y-14226269D02*
X18910658Y-14245317D01*
X19177325Y-14311984D02*
X19177325Y-14111984D01*
X19177325Y-14302460D02*
X19158277Y-14311984D01*
X19158277Y-14311984D02*
X19120182Y-14311984D01*
X19120182Y-14311984D02*
X19101135Y-14302460D01*
X19101135Y-14302460D02*
X19091611Y-14292936D01*
X19091611Y-14292936D02*
X19082087Y-14273888D01*
X19082087Y-14273888D02*
X19082087Y-14216746D01*
X19082087Y-14216746D02*
X19091611Y-14197698D01*
X19091611Y-14197698D02*
X19101135Y-14188174D01*
X19101135Y-14188174D02*
X19120182Y-14178650D01*
X19120182Y-14178650D02*
X19158277Y-14178650D01*
X19158277Y-14178650D02*
X19177325Y-14188174D01*
X19253516Y-14388174D02*
X19263039Y-14378650D01*
X19263039Y-14378650D02*
X19282087Y-14350079D01*
X19282087Y-14350079D02*
X19291611Y-14331031D01*
X19291611Y-14331031D02*
X19301135Y-14302460D01*
X19301135Y-14302460D02*
X19310658Y-14254841D01*
X19310658Y-14254841D02*
X19310658Y-14216746D01*
X19310658Y-14216746D02*
X19301135Y-14169127D01*
X19301135Y-14169127D02*
X19291611Y-14140555D01*
X19291611Y-14140555D02*
X19282087Y-14121508D01*
X19282087Y-14121508D02*
X19263039Y-14092936D01*
X19263039Y-14092936D02*
X19253516Y-14083412D01*
M02*
