M48
; DRILL file {KiCad 9.0.0} date 2025-04-29T15:48:10-0400
; FORMAT={-:-/ absolute / inch / decimal}
; #@! TF.CreationDate,2025-04-29T15:48:10-04:00
; #@! TF.GenerationSoftware,Kicad,Pcbnew,9.0.0
; #@! TF.FileFunction,Plated,1,4,PTH
FMAT,2
INCH
; #@! TA.AperFunction,Plated,PTH,ViaDrill
T1C0.0059
; #@! TA.AperFunction,Plated,PTH,ViaDrill
T2C0.0079
; #@! TA.AperFunction,Plated,PTH,ViaDrill
T3C0.0098
; #@! TA.AperFunction,Plated,PTH,ComponentDrill
T4C0.0130
; #@! TA.AperFunction,Plated,PTH,ViaDrill
T5C0.0197
; #@! TA.AperFunction,Plated,PTH,ComponentDrill
T6C0.0236
; #@! TA.AperFunction,Plated,PTH,ComponentDrill
T7C0.0256
; #@! TA.AperFunction,Plated,PTH,ViaDrill
T8C0.0295
; #@! TA.AperFunction,Plated,PTH,ComponentDrill
T9C0.0394
; #@! TA.AperFunction,Plated,PTH,ComponentDrill
T10C0.0433
%
G90
G05
T1
X5.0Y-3.4055
X5.0Y-3.4744
X5.0Y-3.5433
X5.0Y-3.6122
X5.0591Y-3.1398
X5.0689Y-3.4055
X5.0689Y-3.4744
X5.0689Y-3.5433
X5.0689Y-3.6122
X5.1063Y-2.8543
X5.1083Y-3.3169
X5.122Y-2.7618
X5.126Y-3.2283
X5.1287Y-3.4961
X5.1476Y-3.5039
X5.1634Y-3.3051
X5.1978Y-3.2185
X5.2018Y-3.3711
X5.2146Y-2.7047
X5.2283Y-3.3563
X5.2303Y-3.6398
X5.2379Y-3.2261
X5.2461Y-2.8189
X5.2461Y-3.3268
X5.2461Y-3.685
X5.2559Y-2.0866
X5.2598Y-3.0098
X5.2618Y-4.6535
X5.2623Y-4.0989
X5.2746Y-2.9764
X5.2776Y-2.8602
X5.2854Y-3.3425
X5.2854Y-4.378
X5.2874Y-2.75
X5.2874Y-3.8248
X5.2953Y-3.0394
X5.3051Y-2.9134
X5.3071Y-3.1142
X5.3248Y-3.2677
X5.3543Y-3.4311
X5.3583Y-2.6181
X5.3622Y-2.9429
X5.372Y-2.4921
X5.374Y-2.5394
X5.378Y-3.1594
X5.3839Y-2.4213
X5.3996Y-4.1713
X5.4075Y-3.3661
X5.4094Y-3.2657
X5.4134Y-3.2972
X5.4213Y-2.6378
X5.4232Y-2.3425
X5.4232Y-4.4429
X5.4331Y-2.0866
X5.439Y-2.5787
X5.439Y-2.5984
X5.4429Y-4.2598
X5.4429Y-4.5335
X5.4469Y-3.9803
X5.4488Y-3.7028
X5.4508Y-3.8602
X5.4547Y-4.1378
X5.4567Y-4.4213
X5.4587Y-4.7008
X5.4606Y-3.3898
X5.4606Y-3.5118
X5.4724Y-3.2283
X5.4724Y-3.3071
X5.4882Y-3.5591
X5.4921Y-2.3425
X5.4921Y-3.2972
X5.498Y-3.0098
X5.5028Y-3.0323
X5.5098Y-3.0866
X5.5118Y-3.248
X5.5276Y-3.1319
X5.5295Y-2.8642
X5.5295Y-2.9193
X5.5315Y-2.7441
X5.5315Y-2.7933
X5.5315Y-2.815
X5.5335Y-2.7165
X5.5362Y-3.5583
X5.5394Y-3.1102
X5.5512Y-2.9429
X5.5551Y-3.5886
X5.561Y-2.4016
X5.563Y-3.2362
X5.565Y-3.2776
X5.565Y-3.3307
X5.5689Y-3.1831
X5.5709Y-2.5098
X5.5728Y-4.6988
X5.5748Y-3.5906
X5.5787Y-4.4783
X5.5807Y-3.2579
X5.5807Y-4.1929
X5.5846Y-3.8642
X5.6004Y-2.2441
X5.6083Y-4.0354
X5.6102Y-2.3228
X5.6122Y-2.8445
X5.6201Y-3.9173
X5.6224Y-2.5335
X5.624Y-2.9232
X5.624Y-2.9626
X5.624Y-3.5512
X5.6319Y-3.1594
X5.6378Y-4.6378
X5.6398Y-2.3327
X5.6398Y-3.248
X5.6398Y-4.3602
X5.6417Y-4.0827
X5.6437Y-3.8031
X5.6476Y-3.0059
X5.6496Y-2.6181
X5.6496Y-3.1004
X5.6516Y-3.8602
X5.6535Y-4.1102
X5.6594Y-2.2638
X5.6638Y-2.9276
X5.6693Y-2.1358
X5.6693Y-2.4016
X5.6693Y-3.0157
X5.6693Y-3.3268
X5.6713Y-2.9547
X5.7087Y-2.1358
X5.7087Y-3.122
X5.7185Y-3.3465
X5.7224Y-3.4646
X5.7244Y-3.6398
X5.7283Y-3.1024
X5.7303Y-4.1988
X5.7382Y-2.3327
X5.7382Y-3.2028
X5.748Y-2.8996
X5.7539Y-3.3898
X5.7539Y-3.4311
X5.7618Y-3.5965
X5.7638Y-3.1575
X5.7657Y-4.4016
X5.7756Y-3.2933
X5.7776Y-3.1339
X5.7777Y-3.2089
X5.7795Y-2.9764
X5.7953Y-3.0059
X5.8071Y-3.1024
X5.815Y-2.9171
X5.8169Y-3.2126
X5.8268Y-3.1024
X5.8268Y-3.1634
X5.8268Y-4.2598
X5.8307Y-4.4016
X5.8465Y-3.0984
X5.876Y-3.1358
X5.8819Y-3.4685
X5.8858Y-2.126
X5.8858Y-3.0965
X5.8937Y-3.435
X5.8957Y-3.2677
X5.8957Y-4.4016
X5.8976Y-3.3465
X5.9035Y-2.8701
X5.9035Y-3.0118
X5.9055Y-2.5098
X5.9055Y-3.1043
X5.9252Y-2.5027
X5.9331Y-3.2106
X5.935Y-3.1299
X5.937Y-4.2579
X5.937Y-4.6122
X5.937Y-4.6417
X5.9449Y-2.219
X5.9449Y-2.2835
X5.9449Y-2.5984
X5.9449Y-2.6575
X5.9449Y-3.252
X5.9547Y-3.2067
X5.9587Y-4.3996
X5.9626Y-3.2815
X5.9626Y-3.2815
X5.9665Y-4.5276
X5.9705Y-4.1929
X5.9843Y-2.5
X5.9862Y-3.0118
X5.9961Y-2.9469
X5.9961Y-2.9671
X6.0118Y-3.2126
X6.0118Y-3.2776
X6.0138Y-2.219
X6.0138Y-2.2835
X6.0138Y-2.5
X6.0157Y-2.8051
X6.0236Y-2.5787
X6.0236Y-2.7461
X6.0236Y-3.2972
X6.0315Y-4.3976
X6.0335Y-2.9331
X6.0354Y-2.8681
X6.0374Y-2.8366
X6.0394Y-2.9035
X6.0433Y-2.6575
X6.0433Y-2.6772
X6.0433Y-2.6969
X6.0433Y-2.7165
X6.0433Y-3.0709
X6.0433Y-3.3346
X6.0531Y-2.3425
X6.061Y-4.1181
X6.063Y-2.4508
X6.0728Y-3.189
X6.0728Y-3.3091
X6.0787Y-3.1358
X6.0827Y-2.219
X6.0827Y-2.2835
X6.1024Y-3.0709
X6.1102Y-3.2146
X6.1319Y-2.5098
X6.1319Y-2.8445
X6.1417Y-2.0472
X6.1417Y-2.2835
X6.1417Y-2.3425
X6.1417Y-2.4508
X6.1467Y-2.8297
X6.1516Y-2.372
X6.1614Y-2.3228
X6.1614Y-2.815
X6.1713Y-2.1555
X6.1713Y-2.4803
X6.1713Y-2.7953
X6.1949Y-4.3957
X6.2008Y-2.2047
X6.2106Y-4.313
X6.2126Y-4.1594
X6.2126Y-4.185
X6.2126Y-4.2106
X6.2126Y-4.2382
X6.2126Y-4.2638
X6.2126Y-4.2874
X6.2224Y-4.3957
X6.2283Y-3.2077
X6.2283Y-3.2776
X6.2402Y-4.4803
X6.2402Y-4.5
X6.2402Y-4.5217
X6.2579Y-4.4882
X6.2579Y-4.5118
X6.2598Y-4.4035
X6.2598Y-4.4291
X6.2638Y-4.5374
X6.2657Y-4.4626
X6.2815Y-4.5374
X6.2874Y-4.4626
X6.2894Y-3.2106
X6.2894Y-3.2756
X6.2972Y-4.1378
X6.2972Y-4.1614
X6.2972Y-4.185
X6.2972Y-4.2087
X6.3012Y-4.5374
X6.3071Y-3.7461
X6.3071Y-4.4626
X6.3189Y-4.1378
X6.3189Y-4.1614
X6.3189Y-4.185
X6.3189Y-4.2087
X6.3268Y-3.6417
X6.3287Y-3.7067
X6.3346Y-3.4094
X6.3386Y-3.2972
X6.3445Y-4.3012
X6.3445Y-4.3268
X6.3445Y-4.3583
X6.3484Y-3.6417
X6.3504Y-3.7067
X6.3681Y-3.5886
X6.3681Y-3.6083
X6.3681Y-3.624
X6.3681Y-3.6496
X6.3681Y-3.6732
X6.3681Y-3.6929
X6.3799Y-3.7539
X6.3839Y-4.3012
X6.3839Y-4.3268
X6.3839Y-4.3583
X6.3878Y-2.8346
X6.4094Y-4.4213
X6.4094Y-4.4449
X6.4094Y-4.4724
X6.4094Y-4.4961
X6.4154Y-4.3012
X6.4154Y-4.3268
X6.4173Y-2.6378
X6.4173Y-2.815
X6.4252Y-3.7776
X6.4291Y-4.1378
X6.4291Y-4.1614
X6.437Y-3.3661
X6.4469Y-3.2972
X6.4921Y-3.6535
X6.5Y-3.7854
X6.5551Y-3.3957
T2
X5.7854Y-3.6614
X5.7874Y-3.687
X5.811Y-3.6614
X5.811Y-3.687
X5.8366Y-3.687
X5.8386Y-3.6594
X5.8425Y-3.6122
X5.8445Y-3.6339
X5.8661Y-3.6575
X5.8957Y-3.6575
X5.998Y-3.4665
X6.0098Y-3.4469
X6.0217Y-3.4272
X6.0217Y-3.4665
X6.0335Y-3.4469
X6.0433Y-3.4272
X6.0492Y-3.4665
X6.0571Y-3.4469
X6.065Y-3.4272
X6.0709Y-3.4665
X6.0787Y-3.4449
X6.0965Y-3.4665
T3
X5.0453Y-4.7283
X5.0453Y-4.7559
X5.0453Y-4.7835
X5.0453Y-4.813
X5.0591Y-3.6988
X5.0591Y-3.7283
X5.0591Y-3.7559
X5.0591Y-3.7835
X5.0728Y-4.7165
X5.0728Y-4.7441
X5.0728Y-4.7697
X5.0728Y-4.7992
X5.0728Y-4.8287
X5.0925Y-3.687
X5.0925Y-3.7126
X5.0925Y-3.7402
X5.0925Y-3.7717
X5.0925Y-3.7992
X5.1024Y-4.7303
X5.1024Y-4.7559
X5.1024Y-4.7854
X5.1043Y-4.8169
X5.1201Y-3.6969
X5.1201Y-3.7264
X5.122Y-3.7579
X5.122Y-3.7854
X5.1319Y-4.7421
X5.1319Y-4.7717
X5.1319Y-4.8012
X5.1496Y-3.7106
X5.1496Y-3.7402
X5.1516Y-3.7697
X5.3543Y-4.376
X5.3543Y-4.6594
X5.3573Y-3.8248
X5.3573Y-4.1024
X5.3937Y-4.3484
X5.4016Y-3.8524
X5.4016Y-4.624
X5.4094Y-4.124
X5.7677Y-3.8898
X5.7697Y-3.8543
X5.7717Y-4.0709
X5.7795Y-3.9272
X5.7795Y-3.9606
X5.7795Y-3.9961
X5.7815Y-4.0354
X5.8248Y-3.9252
X5.8248Y-3.9626
X5.8248Y-3.998
X5.8248Y-4.0335
X5.8287Y-4.1122
X5.8287Y-4.1437
X5.8287Y-4.1909
X5.8484Y-4.2756
X5.8642Y-3.9252
X5.8642Y-3.9961
X5.8661Y-3.9606
X5.8661Y-4.0335
X5.8661Y-4.1122
X5.8661Y-4.1437
X5.8661Y-4.1909
X5.9016Y-4.1909
X5.9035Y-3.9606
X5.9035Y-3.9961
X5.9035Y-4.0335
X5.9055Y-4.1122
X5.9055Y-4.1437
X6.1516Y-3.9724
X6.1516Y-3.9961
X6.1772Y-3.9724
X6.1791Y-3.9961
T4
X6.1408Y-4.5855
X6.1408Y-4.6367
X6.1408Y-4.6878
X6.192Y-4.5855
X6.192Y-4.6367
X6.192Y-4.6878
T5
X6.2815Y-3.4902
X6.3209Y-3.5138
X6.3327Y-3.2146
X6.6102Y-3.4567
T7
X6.296Y-1.9781
X6.296Y-2.0281
X6.296Y-2.0781
X6.296Y-2.1281
X6.296Y-2.1781
T8
X5.187Y-4.0256
X5.187Y-4.4409
X5.2718Y-4.1909
X5.315Y-4.752
T9
X5.3051Y-4.8622
X5.3051Y-4.9622
X5.3051Y-5.0622
X5.4449Y-4.8622
X5.4449Y-4.9622
X5.4449Y-5.0622
X5.5846Y-4.8622
X5.5846Y-4.9622
X5.5846Y-5.0622
X5.7244Y-4.8622
X5.7244Y-4.9622
X5.7244Y-5.0622
X5.8642Y-4.8622
X5.8642Y-4.9622
X5.8642Y-5.0622
X6.0039Y-4.8622
X6.0039Y-4.9622
X6.0039Y-5.0622
X6.1437Y-4.8622
X6.1437Y-4.9622
X6.1437Y-5.0622
X6.2835Y-4.8622
X6.2835Y-4.9622
X6.2835Y-5.0622
T10
X5.0689Y-2.2736
X5.0689Y-2.3736
X5.0689Y-2.4736
X5.0689Y-2.5736
X5.0807Y-3.9028
X5.0807Y-4.0028
X5.0807Y-4.1028
X5.0807Y-4.2028
X5.0807Y-4.3028
X5.0807Y-4.4028
X5.0807Y-4.5028
X5.0807Y-4.6028
X6.5059Y-2.2736
X6.5059Y-2.3736
X6.5059Y-2.4736
X6.5059Y-2.5736
X6.5059Y-2.6736
X6.5059Y-2.7736
X6.5059Y-2.8736
X6.5059Y-2.9736
X6.5059Y-3.0736
X6.5059Y-4.0354
X6.5059Y-4.1354
X6.5059Y-4.2354
X6.5059Y-4.3354
X6.5059Y-4.4354
X6.5059Y-4.5354
X6.5059Y-4.6354
X6.5059Y-4.7354
T6
G00X6.3768Y-3.1961
M15
G01X6.4201Y-3.1961
M16
G05
G00X6.3768Y-3.5362
M15
G01X6.4201Y-3.5362
M16
G05
G00X6.5512Y-3.1961
M15
G01X6.5748Y-3.1961
M16
G05
G00X6.5512Y-3.5362
M15
G01X6.5748Y-3.5362
M16
G05
M30
